<?xml version="1.0" encoding="utf-8"?>
<!-- Generator: Adobe Illustrator 27.7.0, SVG Export Plug-In . SVG Version: 6.00 Build 0)  -->
<svg version="1.1" id="레이어_1" xmlns="http://www.w3.org/2000/svg" xmlns:xlink="http://www.w3.org/1999/xlink" x="0px"
	 y="0px" viewBox="0 0 1920 500" style="enable-background:new 0 0 1920 500;" xml:space="preserve">
<style type="text/css">
	.st0{fill:#D5646D;}
	.st1{fill:#C15F6B;}
	.st2{fill:url(#SVGID_1_);}
	.st3{fill:url(#SVGID_00000001628168045336294710000000959919993543093419_);}
	.st4{fill:none;}
	.st5{opacity:0.7;}
	.st6{opacity:0.7;fill:#F4ABB4;enable-background:new    ;}
	.st7{fill:#F4ABB4;}
</style>
<path class="st0" d="M-0.4-77.9V82.7V95l5.8-4.1c10.1-7.2,20.1-12.2,30.5-15.2c6.2-1.8,12.8-2.7,19.5-2.7c24,0,44.7,11.4,52.8,28.9
	c5.2,11.3,5.5,24.5,5.9,38.5c0.2,5.5,0.3,11.3,0.8,17c1.7,20.2,8.3,40.4,18.6,56.9c11.6,18.4,27.3,31.8,45.5,38.8
	c7.9,3,16.5,4.6,25.4,4.6c32.5,0,68.6-21.4,72.7-57.3c2.5-21.4-6.3-40.2-14.7-58.5c-3.9-8.4-7.6-16.4-10.2-24.5
	c-4.2-13.3-1.8-31.1,5.8-41.4c3.8-5.1,8.2-7.7,13.3-7.7c0.7,0,1.5,0.1,2.3,0.2c12.2,1.6,19.4,16.2,27.1,31.6
	c9.2,18.7,19.7,39.9,43,42.3c1.3,0.1,2.6,0.2,3.9,0.2c26.6,0,43.1-29,50.9-42.9c9.3-16.5,21.5-27.1,30.9-27.1c1.7,0,3.3,0.3,5,1
	c5.4,2.1,9.8,7.9,14.6,14c6.8,8.7,14.4,18.6,27.5,21.2c2.1,0.4,4.3,0.7,6.4,0.7c15.7,0,27-11.7,36.9-22c4.5-4.7,8.7-9.1,13-12.3
	c6-4.4,13.4-6.7,21.7-6.7c14.6,0,29.5,7,39.1,18.2c19.1,22.4,18.7,53.9,16.7,70.8c-0.8,6.5-1.9,13-3.1,19.8c-2.5,14.2-5.1,28.8-4,44
	c1.7,23.3,15.6,50.8,42,56.3c3,0.6,5.9,0.9,8.9,0.9c12.7,0,24.6-5.6,34.5-16.2c13.9-14.9,22-38.3,20.5-59.5
	c-1.1-15-4.9-29.4-8.6-43.3c-4.5-17.1-8.8-33.2-8-49.5c1-21.2,20.1-43.5,37.1-43.5c3.6,0,7,1,10.2,3c4.3,2.7,8.1,7.2,12,12
	c5,6.1,10.8,13,19,17.4c5.9,3.2,12.2,4.8,18.7,4.8c17.4,0,33.2-11.4,48.4-22.4c13.9-10,28.2-20.4,41.7-20.4c1.4,0,2.8,0.1,4.2,0.3
	c9.1,1.5,17.9,8.5,24.2,19.2c12.3,21,12.3,48.5,12.2,72.7c-0.1,31.1,1.1,58.7,15.9,82.8c11.8,19.1,33.9,32,55.1,32
	c10.1,0,19.6-3,27.4-8.6c18.3-13.2,23-35.7,27.2-55.5c0.6-3.1,1.2-5.9,1.9-8.8c4-17.6,14.8-36.5,29.2-36.5c0.3,0,0.6,0,0.9,0
	c9.2,0.5,16.9,7.9,25.7,16.5c4.3,4.2,8.7,8.5,13.7,12.2c11.6,8.8,26.7,13.7,42.3,13.7c24.5,0,47.6-11.6,60.5-30.2
	c1.6-2.3,3-4.7,4.4-7c3-5,5.9-9.8,9.7-12.3c2.2-1.5,4.7-2.3,7.4-2.3c10.4,0,23.3,11.1,27.5,23.8c3.1,9.1,4.1,18.9,5.2,29.4
	c1.2,11.6,2.4,23.7,6.7,35.4c4.2,11.6,13.2,22.4,24.2,29c6.9,6.1,14.6,9.2,23,9.2c3.8,0,7.6-0.7,11.4-2
	c21.7-7.3,32.4-29.9,35.2-48.6c2.1-14.1,1.7-28.2,1.2-41.8c-0.2-4.9-0.3-10-0.3-14.9c-0.1-21.2,0.5-42.5,1.9-63.2
	c0.8-11.6,1.7-26.1,6.8-37.6c1.3-3,4.3-5,7.6-5c0.7,0,1.4,0.1,2.1,0.3c10,2.6,21.4,12,32.4,21.1c16.4,13.6,33.4,27.6,53.5,27.6
	c4.3,0,8.7-0.7,12.8-2c16.2-5.3,27.1-19.9,36.7-32.8c8.4-11.3,16.4-22,24.5-22c1.2,0,2.5,0.2,3.8,0.6c6.3,1.9,10.5,8.9,15.4,16.9
	c4.4,7.3,9.5,15.6,17.3,21.4c6.9,5.1,15.2,7.8,24.2,7.8c16.8,0,36-9.8,48.9-25c6.5-7.7,11.8-16.1,17-24.3
	c4.6-7.3,8.9-14.1,13.9-20.3c1.3-1.6,2.9-1.8,3.8-1.8c0.9,0,2.6,0.2,3.7,1.9c8.3,12.1,7.1,35.5,6.2,52.5c-1,18.9,6.4,40.7,17.9,52.8
	c7,7.4,15.3,11.2,24,11.2c4,0,8.1-0.8,12.1-2.5c22.1-9.1,23.5-35,24.6-55.8c1.2-22.5,2.8-33.4,12.1-35.4c0.8-0.2,1.7-0.3,2.5-0.3
	c7.5,0,15.6,8.5,23.5,16.7c3.3,3.5,6.8,7.1,10.4,10.3c8.8,7.8,19.2,13.1,28.5,17.8l55.8,28.3v-11.2V-77.9H-0.4z M1396.3,53
	c-8.5-2.2-17.3,2-21.1,9.9c-0.2,0.4-0.4,0.9-0.6,1.3c0.1-0.2,0.2-0.5,0.3-0.8c0.1-0.2,0.2-0.4,0.3-0.5v-0.1
	c3.5-7.8,12.2-11.9,20.5-9.9C1395.9,52.9,1396.1,52.9,1396.3,53L1396.3,53c0.6,0.1,1,0.3,1.5,0.4C1397.3,53.3,1396.8,53.1,1396.3,53
	z M1710.1,26.2c-5.5-7.9-17.1-8.3-23.3-0.9c-0.6,0.7-1.1,1.4-1.6,2c0.5-0.6,1-1.3,1.5-1.9c0.1-0.1,0.1-0.1,0.2-0.2
	c2.9-3.5,5.9-6.8,9.3-9.9C1702.3,17.6,1706.8,21.4,1710.1,26.2L1710.1,26.2c0.1,0.1,0.1,0.1,0.1,0.1
	C1710.1,26.2,1710.1,26.2,1710.1,26.2z M1711.2,28c0.1,0.2,0.2,0.4,0.3,0.5l0,0l0,0C1711.4,28.3,1711.3,28.2,1711.2,28z
	 M1712.3,29.9L1712.3,29.9c0.1,0.2,0.2,0.3,0.2,0.5C1712.5,30.2,1712.4,30,1712.3,29.9z"/>
<path class="st1" d="M1466.3,102c-0.2-0.1-0.4-0.1-0.5-0.2C1466,101.9,1466.2,101.9,1466.3,102z"/>
<path class="st1" d="M1487.7,103.6c-0.2,0-0.4,0.1-0.6,0.1C1487.4,103.7,1487.5,103.6,1487.7,103.6z"/>
<path class="st1" d="M1468,102.6L1468,102.6L1468,102.6z"/>
<path class="st1" d="M1470.1,103.2c-0.2,0-0.4-0.1-0.5-0.1C1469.8,103.1,1470,103.2,1470.1,103.2z"/>
<path class="st1" d="M1427.5,75.1c-0.5-0.4-1-0.8-1.5-1.2C1426.5,74.3,1427,74.7,1427.5,75.1z"/>
<path class="st1" d="M1464.7,101.3c-0.2-0.1-0.4-0.2-0.6-0.3C1464.3,101.2,1464.5,101.3,1464.7,101.3z"/>
<path class="st1" d="M1461.4,99.8c-0.2-0.1-0.4-0.2-0.6-0.3C1461,99.6,1461.2,99.7,1461.4,99.8z"/>
<path class="st1" d="M1463.1,100.6c-0.2-0.1-0.4-0.2-0.6-0.3C1462.7,100.4,1462.9,100.5,1463.1,100.6z"/>
<path class="st1" d="M1486,104c-0.2,0-0.4,0.1-0.6,0.1C1485.6,104.1,1485.8,104,1486,104z"/>
<path class="st1" d="M1484.3,104.3c-0.2,0-0.4,0.1-0.7,0.1C1483.9,104.3,1484.1,104.3,1484.3,104.3z"/>
<path class="st1" d="M1473.6,104c-0.2,0-0.4-0.1-0.6-0.1C1473.1,104,1473.3,104,1473.6,104z"/>
<path class="st1" d="M1459.7,99c-0.2-0.1-0.3-0.2-0.5-0.3C1459.4,98.8,1459.6,98.9,1459.7,99z"/>
<path class="st1" d="M1482.6,104.5c-0.2,0-0.4,0-0.6,0.1C1482.1,104.5,1482.4,104.5,1482.6,104.5z"/>
<path class="st1" d="M1475.2,104.3c-0.2,0-0.4-0.1-0.6-0.1C1474.8,104.3,1475,104.3,1475.2,104.3z"/>
<path class="st1" d="M1480.8,104.6c-0.2,0-0.4,0-0.5,0C1480.4,104.6,1480.6,104.6,1480.8,104.6z"/>
<path class="st1" d="M1476.9,104.5c-0.2,0-0.4,0-0.5-0.1C1476.5,104.5,1476.7,104.5,1476.9,104.5z"/>
<path class="st1" d="M1429,76.4c-0.5-0.4-1-0.8-1.5-1.2C1428,75.5,1428.5,75.9,1429,76.4z"/>
<path class="st1" d="M1435.9,82c-0.2-0.2-0.4-0.3-0.6-0.5C1435.5,81.7,1435.7,81.8,1435.9,82z"/>
<path class="st1" d="M1439.5,84.9c-0.2-0.1-0.3-0.3-0.5-0.4C1439.1,84.7,1439.3,84.8,1439.5,84.9z"/>
<path class="st1" d="M1442.7,87.5c-0.2-0.2-0.4-0.3-0.6-0.5C1442.3,87.2,1442.5,87.3,1442.7,87.5z"/>
<path class="st1" d="M1441.1,86.2c-0.2-0.2-0.4-0.3-0.6-0.5C1440.7,85.9,1440.9,86.1,1441.1,86.2z"/>
<path class="st1" d="M1434.2,80.6c-0.2-0.2-0.4-0.4-0.7-0.5C1433.8,80.3,1434,80.5,1434.2,80.6z"/>
<path class="st1" d="M1432.4,79.2c-0.4-0.3-0.8-0.7-1.2-1C1431.6,78.5,1432,78.8,1432.4,79.2z"/>
<path class="st1" d="M1659,69c-0.2,0.3-0.5,0.6-0.7,1C1658.5,69.7,1658.8,69.4,1659,69z"/>
<path class="st1" d="M1430.6,77.7c-0.3-0.3-0.7-0.5-1-0.8C1430,77.1,1430.3,77.4,1430.6,77.7z"/>
<path class="st1" d="M1451.2,93.8c-0.2-0.1-0.4-0.3-0.6-0.4C1450.8,93.5,1451,93.6,1451.2,93.8z"/>
<path class="st1" d="M1454.4,95.9c-0.2-0.1-0.4-0.3-0.6-0.4C1454,95.6,1454.2,95.8,1454.4,95.9z"/>
<path class="st1" d="M1456,96.9c-0.2-0.1-0.3-0.2-0.5-0.3C1455.7,96.7,1455.8,96.8,1456,96.9z"/>
<path class="st1" d="M1452.8,94.9c-0.2-0.1-0.4-0.3-0.6-0.4C1452.4,94.6,1452.6,94.7,1452.8,94.9z"/>
<path class="st1" d="M1457.6,97.8L1457.6,97.8L1457.6,97.8z"/>
<path class="st1" d="M1445.9,89.9c-0.2-0.1-0.4-0.3-0.5-0.4C1445.5,89.7,1445.7,89.8,1445.9,89.9z"/>
<path class="st1" d="M1449.5,92.6c-0.2-0.1-0.3-0.2-0.5-0.4C1449.2,92.4,1449.3,92.5,1449.5,92.6z"/>
<path class="st1" d="M1444.3,88.7c-0.2-0.2-0.4-0.3-0.6-0.5C1443.9,88.4,1444.1,88.6,1444.3,88.7z"/>
<path class="st1" d="M1471.9,103.7c-0.2,0-0.4-0.1-0.6-0.1C1471.5,103.6,1471.7,103.6,1471.9,103.7z"/>
<path class="st1" d="M1718.4,59.3c0-0.7-0.1-1.5-0.2-2.2C1718.3,57.8,1718.3,58.5,1718.4,59.3z"/>
<path class="st1" d="M1718.5,61.7c0-0.6-0.1-1.2-0.1-1.7C1718.4,60.6,1718.5,61.2,1718.5,61.7z"/>
<path class="st1" d="M1718.6,67.2c0-0.8,0-1.5,0-2.3C1718.6,65.7,1718.6,66.4,1718.6,67.2z"/>
<path class="st1" d="M1718.2,56.9c-0.1-0.8-0.1-1.5-0.2-2.3C1718.1,55.4,1718.1,56.1,1718.2,56.9z"/>
<path class="st1" d="M1718.6,64.8c0-0.8,0-1.6-0.1-2.4C1718.6,63.2,1718.6,64,1718.6,64.8z"/>
<path class="st1" d="M1717.3,49.3c-0.1-0.7-0.3-1.5-0.4-2.2C1717,47.8,1717.1,48.5,1717.3,49.3z"/>
<path class="st1" d="M1716.7,46.4c-0.1-0.5-0.2-1.1-0.3-1.6C1716.5,45.4,1716.6,45.9,1716.7,46.4z"/>
<path class="st1" d="M1717.9,53.9c-0.1-0.6-0.1-1.1-0.2-1.7C1717.8,52.8,1717.8,53.4,1717.9,53.9z"/>
<path class="st1" d="M1717.6,51.6c-0.1-0.7-0.2-1.4-0.3-2.1C1717.4,50.2,1717.5,50.9,1717.6,51.6z"/>
<path class="st1" d="M1718.3,82.9c0-0.8,0.1-1.5,0.1-2.3C1718.3,81.4,1718.3,82.1,1718.3,82.9z"/>
<path class="st1" d="M1718.2,85.3c0-0.6,0.1-1.1,0.1-1.7C1718.2,84.1,1718.2,84.7,1718.2,85.3z"/>
<path class="st1" d="M1718,88.1c0-0.7,0.1-1.4,0.1-2.2C1718.1,86.7,1718.1,87.4,1718,88.1z"/>
<path class="st1" d="M1718.5,77.6c0-0.6,0-1.2,0.1-1.7C1718.5,76.4,1718.5,77,1718.5,77.6z"/>
<path class="st1" d="M1718.6,75.1c0-0.8,0-1.5,0.1-2.3C1718.6,73.6,1718.6,74.3,1718.6,75.1z"/>
<path class="st1" d="M1718.6,72.7c0-0.8,0-1.6,0-2.4C1718.6,71.1,1718.6,71.9,1718.6,72.7z"/>
<path class="st1" d="M1718.4,80.6c0-0.8,0.1-1.5,0.1-2.3C1718.4,79,1718.4,79.8,1718.4,80.6z"/>
<path class="st1" d="M1668.8,54.9c-0.2,0.4-0.5,0.8-0.7,1.1C1668.3,55.7,1668.6,55.3,1668.8,54.9z"/>
<path class="st1" d="M1671.1,51.3c-0.3,0.5-0.6,0.9-0.9,1.4C1670.6,52.2,1670.8,51.7,1671.1,51.3z"/>
<path class="st1" d="M1681.7,35.1c-0.6,0.8-1.1,1.6-1.6,2.3C1680.6,36.6,1681.2,35.9,1681.7,35.1z"/>
<path class="st1" d="M1677.1,41.8c-0.6,0.9-1.2,1.8-1.8,2.7C1676,43.7,1676.5,42.7,1677.1,41.8z"/>
<path class="st1" d="M1679.3,38.6c-0.5,0.7-1,1.5-1.5,2.2C1678.3,40,1678.8,39.3,1679.3,38.6z"/>
<path class="st1" d="M1675,45.1c-0.7,1.1-1.4,2.3-2.2,3.4C1673.6,47.3,1674.3,46.2,1675,45.1z"/>
<path class="st1" d="M1663.7,62.6c-0.2,0.3-0.4,0.6-0.6,0.9C1663.3,63.2,1663.5,62.9,1663.7,62.6z"/>
<path class="st1" d="M1666.1,59c-0.1,0.1-0.2,0.2-0.2,0.4C1666,59.3,1666.1,59.1,1666.1,59z"/>
<path class="st1" d="M1716.2,44.2c-0.2-0.7-0.3-1.3-0.5-1.9C1715.9,42.9,1716.1,43.5,1716.2,44.2z"/>
<path class="st1" d="M1661.5,65.8c-0.3,0.4-0.5,0.7-0.8,1.1C1660.9,66.5,1661.2,66.1,1661.5,65.8z"/>
<path class="st1" d="M1714.9,39.4c-0.2-0.5-0.3-1-0.5-1.5C1714.6,38.4,1714.7,38.9,1714.9,39.4z"/>
<path class="st1" d="M1714.2,37.3c-0.2-0.6-0.5-1.2-0.7-1.7C1713.7,36.2,1713.9,36.7,1714.2,37.3z"/>
<path class="st1" d="M1715.7,42.1c-0.2-0.7-0.4-1.4-0.6-2.1C1715.3,40.7,1715.5,41.4,1715.7,42.1z"/>
<path class="st1" d="M1711.2,31.2c-0.3-0.5-0.6-1-1-1.5C1710.6,30.2,1710.9,30.7,1711.2,31.2z"/>
<path class="st1" d="M1684.6,31.1c-0.8,1-1.5,2-2.3,3.1C1683.1,33.2,1683.9,32.2,1684.6,31.1z"/>
<path class="st1" d="M1712.2,33c-0.2-0.4-0.5-0.9-0.7-1.3C1711.8,32.1,1712,32.6,1712.2,33z"/>
<path class="st1" d="M1713.4,35.4c-0.3-0.6-0.6-1.2-0.9-1.9C1712.8,34.2,1713.1,34.8,1713.4,35.4z"/>
<path class="st1" d="M1405.7,59.9c-0.4-0.2-0.7-0.4-1.1-0.5C1405,59.5,1405.3,59.7,1405.7,59.9z"/>
<path class="st1" d="M1368,98.2c-0.1,0.8-0.1,1.6-0.2,2.4C1367.9,99.8,1368,99,1368,98.2z"/>
<path class="st1" d="M1407.7,61c-0.5-0.3-1-0.6-1.5-0.8C1406.7,60.4,1407.2,60.7,1407.7,61z"/>
<path class="st1" d="M1368.4,94.4c-0.1,1-0.2,2-0.3,3C1368.2,96.5,1368.3,95.4,1368.4,94.4z"/>
<path class="st1" d="M1396.3,56.2c0.5,0.1,1,0.3,1.5,0.4C1397.3,56.5,1396.8,56.3,1396.3,56.2L1396.3,56.2z"/>
<path class="st1" d="M1404,59.1c-0.3-0.2-0.6-0.3-1-0.4C1403.4,58.8,1403.7,58.9,1404,59.1z"/>
<path class="st1" d="M1374.6,67.3c0.2-0.4,0.4-0.9,0.6-1.3c-0.1,0.2-0.2,0.4-0.3,0.5C1374.8,66.8,1374.7,67.1,1374.6,67.3z"/>
<path class="st1" d="M1413.9,64.8c-0.3-0.2-0.7-0.4-1-0.7C1413.3,64.4,1413.6,64.6,1413.9,64.8z"/>
<path class="st1" d="M1368.7,91.3c-0.1,0.8-0.2,1.6-0.3,2.3C1368.6,92.9,1368.7,92.1,1368.7,91.3z"/>
<path class="st1" d="M1367.8,101.6c-0.1,0.7-0.1,1.4-0.2,2.1C1367.6,103,1367.7,102.3,1367.8,101.6z"/>
<path class="st1" d="M1410.8,62.8c-0.3-0.2-0.7-0.4-1-0.6C1410.1,62.4,1410.4,62.6,1410.8,62.8z"/>
<path class="st1" d="M1367.5,104.6c-0.1,1-0.1,1.9-0.2,2.9C1367.4,106.6,1367.5,105.6,1367.5,104.6z"/>
<path class="st1" d="M1409.2,61.8c-0.5-0.3-1-0.6-1.5-0.9C1408.2,61.2,1408.7,61.5,1409.2,61.8z"/>
<path class="st1" d="M1370.4,81.1c-0.2,0.9-0.4,1.8-0.5,2.7C1370,82.9,1370.2,82,1370.4,81.1z"/>
<path class="st1" d="M1373.1,71.1c-0.3,1-0.6,1.9-0.9,2.9C1372.5,73.1,1372.8,72.1,1373.1,71.1z"/>
<path class="st1" d="M1402.4,58.3c-0.3-0.1-0.7-0.3-1-0.4C1401.8,58.1,1402.1,58.2,1402.4,58.3z"/>
<path class="st1" d="M1371.1,78c-0.2,0.7-0.3,1.4-0.5,2.1C1370.8,79.4,1370.9,78.7,1371.1,78z"/>
<path class="st1" d="M1374.2,68.3c-0.3,0.7-0.5,1.4-0.8,2.1C1373.7,69.7,1373.9,69,1374.2,68.3z"/>
<path class="st1" d="M1372,74.6c-0.2,0.8-0.5,1.6-0.7,2.5C1371.6,76.2,1371.8,75.4,1372,74.6z"/>
<path class="st1" d="M1369.8,84.1c-0.2,1-0.3,2-0.5,3.1C1369.5,86.2,1369.6,85.2,1369.8,84.1z"/>
<path class="st1" d="M1400.9,57.7c-0.4-0.1-0.7-0.3-1.1-0.4C1400.2,57.4,1400.5,57.6,1400.9,57.7z"/>
<path class="st1" d="M1369.2,88.1c-0.1,0.7-0.2,1.5-0.3,2.2C1369,89.6,1369.1,88.8,1369.2,88.1z"/>
<path class="st1" d="M1399.3,57.1c-0.5-0.2-1-0.3-1.5-0.5C1398.3,56.8,1398.8,56.9,1399.3,57.1z"/>
<path class="st1" d="M1412.4,63.8c-0.3-0.2-0.6-0.4-1-0.6C1411.7,63.4,1412,63.6,1412.4,63.8z"/>
<path class="st1" d="M1420.7,69.7c-0.4-0.3-0.7-0.5-1.1-0.8C1420,69.2,1420.3,69.4,1420.7,69.7z"/>
<path class="st1" d="M1419.1,68.5c-1-0.8-2.1-1.5-3.1-2.2C1417.1,67,1418.1,67.8,1419.1,68.5z"/>
<path class="st1" d="M1415.6,65.9c-0.4-0.2-0.7-0.5-1.1-0.7C1414.9,65.4,1415.2,65.7,1415.6,65.9z"/>
<path class="st1" d="M1710,29.4l0.1,0.1C1710.1,29.5,1710.1,29.5,1710,29.4C1710.1,29.4,1710.1,29.4,1710,29.4z"/>
<path class="st1" d="M1422.2,70.9c-0.3-0.3-0.7-0.5-1-0.8C1421.6,70.4,1421.9,70.6,1422.2,70.9z"/>
<path class="st1" d="M1718.6,67.9c0,0.6,0,1.2,0,1.8C1718.6,69.1,1718.6,68.5,1718.6,67.9z"/>
<path class="st1" d="M1423.8,72.1c-0.3-0.3-0.6-0.5-1-0.8C1423.2,71.6,1423.5,71.9,1423.8,72.1z"/>
<path class="st1" d="M1425.5,73.4c-0.3-0.3-0.7-0.6-1-0.8C1424.8,72.9,1425.1,73.2,1425.5,73.4z"/>
<path class="st1" d="M1685.1,30.5c0.5-0.7,1.1-1.4,1.6-2c-0.1,0.1-0.1,0.1-0.2,0.2C1686.1,29.3,1685.6,29.9,1685.1,30.5z"/>
<linearGradient id="SVGID_1_" gradientUnits="userSpaceOnUse" x1="959.5491" y1="469.8636" x2="959.5491" y2="254.4933" gradientTransform="matrix(1 0 0 -1 0 499.4646)">
	<stop  offset="0" style="stop-color:#C15F6B"/>
	<stop  offset="1" style="stop-color:#D5646D"/>
</linearGradient>
<path class="st2" d="M1868.3,90.3c-9.3-4.7-18.6-9.5-26.4-16.4c-14-12.4-26.9-33-45.2-29c-35,7.7-5.4,78.1-38.4,91.8
	c-24.2,10-41.6-25.6-40.2-51.8c0-0.7,0.1-1.4,0.1-2.2c0-0.2,0-0.5,0-0.7c0-0.6,0.1-1.1,0.1-1.7c0-0.2,0-0.5,0-0.7
	c0-0.8,0.1-1.5,0.1-2.3c0,0,0,0,0-0.1c0-0.8,0.1-1.5,0.1-2.3c0-0.2,0-0.4,0-0.7c0-0.6,0-1.2,0.1-1.7c0-0.2,0-0.5,0-0.7
	c0-0.8,0-1.5,0.1-2.3c0,0,0,0,0-0.1c0-0.8,0-1.6,0-2.4c0-0.2,0-0.5,0-0.7c0-0.6,0-1.2,0-1.8c0-0.2,0-0.5,0-0.7c0-0.8,0-1.5,0-2.3
	v-0.1c0-0.8,0-1.6-0.1-2.4c0-0.2,0-0.5,0-0.7c0-0.6-0.1-1.2-0.1-1.7c0-0.2,0-0.5,0-0.7c0-0.7-0.1-1.5-0.2-2.2v-0.1
	c-0.1-0.8-0.1-1.5-0.2-2.3c0-0.2,0-0.4-0.1-0.7c-0.1-0.6-0.1-1.1-0.2-1.7c0-0.2-0.1-0.5-0.1-0.7c-0.1-0.7-0.2-1.4-0.3-2.1
	c0-0.1,0-0.1,0-0.2c-0.1-0.7-0.3-1.5-0.4-2.2c0-0.2-0.1-0.4-0.1-0.6c-0.1-0.5-0.2-1.1-0.3-1.6c-0.1-0.2-0.1-0.4-0.2-0.7
	c-0.2-0.7-0.3-1.3-0.5-1.9c0-0.1,0-0.1,0-0.2c-0.2-0.7-0.4-1.4-0.6-2.1c-0.1-0.2-0.1-0.4-0.2-0.6c-0.2-0.5-0.3-1-0.5-1.5
	c-0.1-0.2-0.1-0.4-0.2-0.6c-0.2-0.6-0.5-1.2-0.7-1.7c0-0.1-0.1-0.1-0.1-0.2c-0.3-0.6-0.6-1.2-0.9-1.9c-0.1-0.2-0.2-0.3-0.3-0.5
	c-0.2-0.4-0.5-0.9-0.7-1.3c-0.1-0.2-0.2-0.4-0.3-0.5c-0.3-0.5-0.6-1-1-1.5c0-0.1-0.1-0.1-0.1-0.2l-0.1-0.1
	c-5.5-7.9-17.1-8.3-23.3-0.9c-0.6,0.7-1.1,1.4-1.6,2c-0.2,0.2-0.3,0.4-0.5,0.6c-0.8,1-1.5,2-2.3,3.1c-0.2,0.3-0.4,0.6-0.6,0.9
	c-0.6,0.8-1.1,1.6-1.6,2.3c-0.3,0.4-0.5,0.7-0.8,1.1c-0.5,0.7-1,1.5-1.5,2.2c-0.2,0.3-0.5,0.7-0.7,1c-0.6,0.9-1.2,1.8-1.8,2.7
	c-0.1,0.2-0.2,0.3-0.3,0.5c-0.7,1.1-1.4,2.3-2.2,3.4c-0.6,0.9-1.2,1.9-1.8,2.8c-0.3,0.5-0.6,0.9-0.9,1.4c-0.5,0.8-1,1.5-1.5,2.3
	c-0.2,0.4-0.5,0.8-0.7,1.1c-0.6,1-1.3,2-1.9,2.9c-0.1,0.1-0.2,0.2-0.2,0.4c-0.7,1.1-1.4,2.1-2.2,3.2c-0.2,0.3-0.4,0.6-0.6,0.9
	c-0.5,0.8-1.1,1.5-1.6,2.3c-0.3,0.4-0.5,0.7-0.8,1.1c-0.5,0.7-1.1,1.5-1.6,2.2c-0.2,0.3-0.5,0.6-0.7,1c-0.8,1-1.6,2-2.5,3
	c-14.6,17.3-41.4,29.1-59.5,15.6c-14.6-10.9-18.4-34.5-35.7-39.9c-30.2-9.3-41.1,44.6-71.1,54.3c-0.6,0.2-1.1,0.4-1.7,0.5
	c-0.2,0-0.4,0.1-0.6,0.1c-0.4,0.1-0.8,0.2-1.2,0.3c-0.2,0-0.4,0.1-0.6,0.1c-0.4,0.1-0.7,0.1-1.1,0.2c-0.2,0-0.4,0.1-0.7,0.1
	c-0.4,0-0.7,0.1-1.1,0.1c-0.2,0-0.4,0-0.6,0.1c-0.4,0-0.8,0-1.1,0.1c-0.2,0-0.4,0-0.5,0c-1.1,0-2.2,0-3.3-0.1c-0.2,0-0.4,0-0.5-0.1
	c-0.4,0-0.8-0.1-1.1-0.1c-0.2,0-0.4-0.1-0.6-0.1c-0.3-0.1-0.7-0.1-1-0.2c-0.2,0-0.4-0.1-0.6-0.1c-0.3-0.1-0.7-0.1-1-0.2
	c-0.2,0-0.4-0.1-0.6-0.1c-0.4-0.1-0.7-0.2-1.1-0.3c-0.2,0-0.4-0.1-0.5-0.1c-0.5-0.2-1.1-0.3-1.6-0.5l0,0c-0.5-0.2-1.1-0.4-1.6-0.6
	c-0.2-0.1-0.4-0.1-0.5-0.2c-0.4-0.1-0.7-0.3-1.1-0.4c-0.2-0.1-0.4-0.2-0.6-0.3c-0.3-0.1-0.7-0.3-1-0.4c-0.2-0.1-0.4-0.2-0.6-0.3
	c-0.3-0.2-0.7-0.3-1-0.5c-0.2-0.1-0.4-0.2-0.6-0.3c-0.4-0.2-0.7-0.4-1.1-0.6c-0.2-0.1-0.3-0.2-0.5-0.3c-0.5-0.3-1-0.6-1.6-0.9l0,0
	c-0.5-0.3-1.1-0.6-1.6-0.9c-0.2-0.1-0.3-0.2-0.5-0.3c-0.4-0.2-0.7-0.4-1.1-0.7c-0.2-0.1-0.4-0.3-0.6-0.4c-0.3-0.2-0.7-0.4-1-0.6
	c-0.2-0.1-0.4-0.3-0.6-0.4c-0.3-0.2-0.7-0.4-1-0.7c-0.2-0.1-0.4-0.3-0.6-0.4c-0.4-0.2-0.7-0.5-1.1-0.8c-0.2-0.1-0.3-0.2-0.5-0.4
	c-1.1-0.8-2.1-1.5-3.1-2.3c-0.2-0.1-0.4-0.3-0.5-0.4c-0.3-0.3-0.7-0.5-1-0.8c-0.2-0.2-0.4-0.3-0.6-0.5c-0.3-0.3-0.7-0.5-1-0.8
	c-0.2-0.2-0.4-0.3-0.6-0.5c-0.3-0.3-0.7-0.5-1-0.8c-0.2-0.2-0.4-0.3-0.6-0.5c-0.4-0.3-0.7-0.6-1.1-0.9c-0.2-0.1-0.3-0.3-0.5-0.4
	c-1-0.8-2.1-1.7-3.1-2.5c-0.2-0.2-0.4-0.3-0.6-0.5c-0.3-0.3-0.7-0.6-1-0.8c-0.2-0.2-0.4-0.4-0.7-0.5c-0.4-0.3-0.8-0.6-1.1-0.9
	c-0.4-0.3-0.8-0.7-1.2-1c-0.2-0.2-0.4-0.3-0.6-0.5c-0.3-0.3-0.7-0.5-1-0.8c-0.2-0.2-0.4-0.3-0.6-0.5c-0.5-0.4-1-0.8-1.5-1.2l0,0
	c-0.5-0.4-1-0.8-1.5-1.2c-0.2-0.1-0.3-0.3-0.5-0.4c-0.3-0.3-0.7-0.6-1-0.8c-0.2-0.2-0.4-0.3-0.6-0.5c-0.3-0.3-0.6-0.5-1-0.8
	c-0.2-0.2-0.4-0.3-0.6-0.5c-0.3-0.3-0.7-0.5-1-0.8c-0.2-0.1-0.4-0.3-0.6-0.4c-0.4-0.3-0.7-0.5-1.1-0.8c-0.2-0.1-0.3-0.3-0.5-0.4
	c-1-0.8-2.1-1.5-3.1-2.2c-0.2-0.1-0.3-0.2-0.5-0.3c-0.4-0.2-0.7-0.5-1.1-0.7c-0.2-0.1-0.4-0.3-0.6-0.4c-0.3-0.2-0.7-0.4-1-0.7
	c-0.2-0.1-0.4-0.3-0.6-0.4c-0.3-0.2-0.6-0.4-1-0.6c-0.2-0.1-0.4-0.2-0.6-0.4c-0.3-0.2-0.7-0.4-1-0.6c-0.2-0.1-0.3-0.2-0.5-0.3
	c-0.5-0.3-1-0.6-1.5-0.9l0,0c-0.5-0.3-1-0.6-1.5-0.8c-0.2-0.1-0.3-0.2-0.5-0.3c-0.4-0.2-0.7-0.4-1.1-0.5c-0.2-0.1-0.4-0.2-0.6-0.3
	c-0.3-0.2-0.6-0.3-1-0.4c-0.2-0.1-0.4-0.2-0.6-0.3c-0.3-0.1-0.7-0.3-1-0.4c-0.2-0.1-0.4-0.2-0.6-0.2c-0.4-0.1-0.7-0.3-1.1-0.4
	c-0.2-0.1-0.3-0.1-0.5-0.2c-0.5-0.2-1-0.3-1.5-0.5l0,0c-0.5-0.2-1-0.3-1.5-0.4c-8.5-2.2-17.3,2-21.1,9.9c-0.2,0.4-0.4,0.9-0.6,1.3
	c-0.1,0.3-0.3,0.6-0.4,0.9c-0.3,0.7-0.5,1.4-0.8,2.1c-0.1,0.3-0.2,0.5-0.3,0.8c-0.3,1-0.6,1.9-0.9,2.9c-0.1,0.2-0.1,0.4-0.1,0.5
	c-0.2,0.8-0.5,1.6-0.7,2.5c-0.1,0.3-0.2,0.6-0.2,1c-0.2,0.7-0.3,1.4-0.5,2.1c-0.1,0.3-0.1,0.6-0.2,0.9c-0.2,0.9-0.4,1.8-0.5,2.7
	c0,0.1,0,0.2-0.1,0.3c-0.2,1-0.3,2-0.5,3.1c0,0.3-0.1,0.6-0.1,0.9c-0.1,0.7-0.2,1.5-0.3,2.2c0,0.3-0.1,0.7-0.1,1
	c-0.1,0.8-0.2,1.6-0.3,2.3c0,0.2-0.1,0.5-0.1,0.7c-0.1,1-0.2,2-0.3,3c0,0.2,0,0.5-0.1,0.7c-0.1,0.8-0.1,1.6-0.2,2.4
	c0,0.3-0.1,0.7-0.1,1c-0.1,0.7-0.1,1.4-0.2,2.1c0,0.3,0,0.6-0.1,0.9c-0.1,1-0.1,1.9-0.2,2.9c-1.4,21.3-2.1,42.6-1.9,63.9
	c0.1,18.4,1.9,37-0.8,55.3c-2.5,16.6-11.5,34.9-28.5,40.6c-10.3,3.5-18.7,0.2-25.3-5.9c-9.2-5.3-17.2-14.4-20.8-24.3
	c-7.5-20.6-4.8-43.8-11.8-64.5s-32-38.9-50.1-26.5c-7.6,5.2-11.4,14.3-16.7,21.9c-19,27.5-61.9,34.4-88.5,14.2
	c-14.8-11.2-26.4-29.8-44.9-30.7c-21.7-1.1-35.5,23-40.3,44.2s-7.5,45.7-25.2,58.4c-21.6,15.6-54.2,2.2-68.2-20.5
	s-14.5-50.9-14.4-77.5s-0.1-54.8-13.6-77.7c-6.9-11.7-17.8-21.9-31.2-24c-40.2-6.5-74,57.9-109.9,38.7c-12.4-6.7-18.5-21.6-30.4-29
	c-27.1-16.9-61.1,16.6-62.6,48.5s14.4,62.2,16.6,94s-20.6,70.7-51.8,64.3c-20.4-4.2-32.5-26.4-34.1-47.2c-1.5-20.8,4.7-41.3,7.1-62
	c3.2-27.5-1.1-57.3-19-78.4c-18-21.1-52-29.5-74.3-13.1c-16.2,11.9-28.6,35.9-48.3,31.9c-17.7-3.6-23.6-28.1-40.4-34.7
	c-19.4-7.6-37.9,12.4-48.2,30.6c-10.3,18.1-24.4,39.8-45.1,37.7c-35.3-3.7-34.5-69.1-69.7-73.8c-27.6-3.7-40.6,35.4-32.2,61.9
	c8.4,26.5,27.6,51.1,24.4,78.8c-4.2,36.5-50.3,57.7-84.6,44.6c-34.4-13.1-54.7-50.5-57.8-87.1c-1.6-19.8,0.7-40.7-7.5-58.7
	c-14.4-29.9-53.6-41-84.9-31.8C21,69.6,9.9,75.5-0.4,82.8V95l5.8-4.1c10.1-7.2,20.1-12.2,30.5-15.2c6.2-1.8,12.8-2.7,19.5-2.7
	c24,0,44.7,11.4,52.8,28.9c5.2,11.3,5.5,24.5,5.9,38.5c0.2,5.5,0.3,11.3,0.8,17c1.7,20.2,8.3,40.4,18.6,56.9
	c11.6,18.4,27.3,31.8,45.5,38.8c7.9,3,16.5,4.6,25.4,4.6c32.5,0,68.6-21.4,72.7-57.3c2.5-21.4-6.3-40.2-14.7-58.5
	c-3.9-8.4-7.6-16.4-10.2-24.5c-4.2-13.3-1.8-31.1,5.8-41.4c3.8-5.1,8.2-7.7,13.3-7.7c0.7,0,1.5,0.1,2.3,0.2
	c12.2,1.6,19.4,16.2,27.1,31.6c9.2,18.7,19.7,39.9,43,42.3c1.3,0.1,2.6,0.2,3.9,0.2c26.6,0,43.1-29,50.9-42.9
	c9.3-16.5,21.5-27.1,30.9-27.1c1.7,0,3.3,0.3,5,1c5.4,2.1,9.8,7.9,14.6,14c6.8,8.7,14.4,18.6,27.5,21.2c2.1,0.4,4.3,0.7,6.4,0.7
	c15.7,0,27-11.7,36.9-22c4.5-4.7,8.7-9.1,13-12.3c6-4.4,13.4-6.7,21.7-6.7c14.6,0,29.5,7,39.1,18.2c19.1,22.4,18.7,53.9,16.7,70.8
	c-0.8,6.5-1.9,13-3.1,19.8c-2.5,14.2-5.1,28.8-4,44c1.7,23.3,15.6,50.8,42,56.3c3,0.6,5.9,0.9,8.9,0.9c12.7,0,24.6-5.6,34.5-16.2
	c13.9-14.9,22-38.3,20.5-59.5c-1.1-15-4.9-29.4-8.6-43.3c-4.5-17.1-8.8-33.2-8-49.5c1-21.2,20.1-43.5,37.1-43.5c3.6,0,7,1,10.2,3
	c4.3,2.7,8.1,7.2,12,12c5,6.1,10.8,13,19,17.4c5.9,3.2,12.2,4.8,18.7,4.8c17.4,0,33.2-11.4,48.4-22.4c13.9-10,28.2-20.4,41.7-20.4
	c1.4,0,2.8,0.1,4.2,0.3c9.1,1.5,17.9,8.5,24.2,19.2c12.3,21,12.3,48.5,12.2,72.7c-0.1,31.1,1.1,58.7,15.9,82.8
	c11.8,19.1,33.9,32,55.1,32c10.1,0,19.6-3,27.4-8.6c18.3-13.2,23-35.7,27.2-55.5c0.6-3.1,1.2-5.9,1.9-8.8
	c4-17.6,14.8-36.5,29.2-36.5c0.3,0,0.6,0,0.9,0c9.2,0.5,16.9,7.9,25.7,16.5c4.3,4.2,8.7,8.5,13.7,12.2c11.6,8.8,26.7,13.7,42.3,13.7
	c24.5,0,47.6-11.6,60.5-30.2c1.6-2.3,3-4.7,4.4-7c3-5,5.9-9.8,9.7-12.3c2.2-1.5,4.7-2.3,7.4-2.3c10.4,0,23.3,11.1,27.5,23.8
	c3.1,9.1,4.1,18.9,5.2,29.4c1.2,11.6,2.4,23.7,6.7,35.4c4.2,11.6,13.2,22.4,24.2,29c6.9,6.1,14.6,9.2,23,9.2c3.8,0,7.6-0.7,11.4-2
	c21.7-7.3,32.4-29.9,35.2-48.6c2.1-14.1,1.7-28.2,1.2-41.8c-0.2-4.9-0.3-10-0.3-14.9c-0.1-21.2,0.5-42.5,1.9-63.2
	c0.8-11.6,1.7-26.1,6.8-37.6c1.3-3,4.3-5,7.6-5c0.7,0,1.4,0.1,2.1,0.3c10,2.6,21.4,12,32.4,21.1c16.4,13.6,33.4,27.6,53.5,27.6
	c4.3,0,8.7-0.7,12.8-2c16.2-5.3,27.1-19.9,36.7-32.8c8.4-11.3,16.4-22,24.5-22c1.2,0,2.5,0.2,3.8,0.6c6.3,1.9,10.5,8.9,15.4,16.9
	c4.4,7.3,9.5,15.6,17.3,21.4c6.9,5.1,15.2,7.8,24.2,7.8c16.8,0,36-9.8,48.9-25c6.5-7.7,11.8-16.1,17-24.3
	c4.6-7.3,8.9-14.1,13.9-20.3c1.3-1.6,2.9-1.8,3.8-1.8c0.9,0,2.6,0.2,3.7,1.9c8.3,12.1,7.1,35.5,6.2,52.5c-1,18.9,6.4,40.7,17.9,52.8
	c7,7.4,15.3,11.2,24,11.2c4,0,8.1-0.8,12.1-2.5c22.1-9.1,23.5-35,24.6-55.8c1.2-22.5,2.8-33.4,12.1-35.4c0.8-0.2,1.7-0.3,2.5-0.3
	c7.5,0,15.6,8.5,23.5,16.7c3.3,3.5,6.8,7.1,10.4,10.3c8.8,7.8,19.2,13.1,28.5,17.8l55.8,28.3v-11.2
	C1902.5,107.7,1885.4,99,1868.3,90.3z"/>
<linearGradient id="SVGID_00000112609837678532468540000013953664134856896169_" gradientUnits="userSpaceOnUse" x1="-0.4008" y1="404.3642" x2="1918.5974" y2="404.3642" gradientTransform="matrix(1 0 0 -1 0 499.4646)">
	<stop  offset="0" style="stop-color:#C15F6B"/>
	<stop  offset="1" style="stop-color:#D5646D"/>
</linearGradient>
<path style="fill:url(#SVGID_00000112609837678532468540000013953664134856896169_);" d="M117.2,97.7c8.3,18.1,5.9,38.9,7.5,58.7
	c3,36.6,23.4,74.1,57.8,87.1c34.4,13.1,80.5-8,84.6-44.6c3.2-27.6-16-52.3-24.4-78.8s4.6-65.6,32.2-61.9
	c35.2,4.7,34.4,70.1,69.7,73.8c20.7,2.2,34.8-19.6,45.1-37.7c10.3-18.1,28.8-38.1,48.2-30.6c16.9,6.6,22.7,31.1,40.4,34.7
	c19.7,4,32.1-20,48.3-31.9c22.3-16.4,56.3-8,74.3,13.1s22.2,50.9,19,78.4c-2.4,20.7-8.6,41.2-7.1,62s13.6,43,34.1,47.2
	c31.3,6.5,54.1-32.4,51.8-64.3s-18.1-62.1-16.6-94s35.6-65.4,62.6-48.5c12,7.5,18,22.4,30.4,29C811,108.7,844.8,44.2,885,50.7
	c13.4,2.2,24.3,12.3,31.2,24c13.5,23,13.7,51.1,13.6,77.7c-0.1,26.6,0.4,54.8,14.4,77.5s46.5,36.1,68.2,20.5
	c17.6-12.7,20.4-37.2,25.2-58.4c4.8-21.2,18.6-45.3,40.3-44.2c18.5,0.9,30.2,19.5,44.9,30.7c26.6,20.2,69.5,13.3,88.5-14.2
	c5.2-7.6,9-16.6,16.7-21.9c18-12.4,43.1,5.7,50.1,26.5s4.3,43.9,11.8,64.5c3.6,9.9,11.6,19,20.8,24.3c6.6,6.1,15,9.4,25.3,5.9
	c17-5.7,26-24,28.5-40.6c2.7-18.3,0.9-36.9,0.8-55.3c-0.1-21.3,0.5-42.6,1.9-63.9c0.1-0.9,0.1-1.9,0.2-2.9c0-0.3,0-0.6,0.1-0.9
	c0.1-0.7,0.1-1.4,0.2-2.1c0-0.3,0.1-0.7,0.1-1c0.1-0.8,0.1-1.6,0.2-2.4c0-0.2,0-0.5,0.1-0.7c0.1-1,0.2-2,0.3-3
	c0-0.2,0.1-0.5,0.1-0.7c0.1-0.8,0.2-1.6,0.3-2.3c0-0.3,0.1-0.7,0.1-1c0.1-0.7,0.2-1.5,0.3-2.2c0-0.3,0.1-0.6,0.1-0.9
	c0.2-1,0.3-2,0.5-3.1c0-0.1,0-0.2,0.1-0.3c0.2-0.9,0.3-1.8,0.5-2.7c0.1-0.3,0.1-0.6,0.2-0.9c0.2-0.7,0.3-1.4,0.5-2.1
	c0.1-0.3,0.2-0.6,0.2-1c0.2-0.8,0.4-1.6,0.7-2.5c0.1-0.2,0.1-0.4,0.1-0.5c0.3-1,0.6-1.9,0.9-2.9c0.1-0.3,0.2-0.5,0.3-0.8
	c0.3-0.7,0.5-1.4,0.8-2.1c0.1-0.3,0.3-0.6,0.4-0.9c0.1-0.2,0.2-0.5,0.3-0.8c0.1-0.2,0.2-0.4,0.3-0.5v-0.1
	c3.4-7.5,11.5-11.8,19.5-10.1c0.5,0.1,1,0.2,1.5,0.4h0.1c0.5,0.1,1,0.3,1.4,0.4l0,0c0.5,0.2,1,0.3,1.5,0.5c0.2,0.1,0.3,0.1,0.5,0.2
	c0.4,0.1,0.7,0.3,1.1,0.4c0.2,0.1,0.4,0.2,0.6,0.2c0.3,0.1,0.7,0.3,1,0.4c0.2,0.1,0.4,0.2,0.6,0.3c0.3,0.1,0.6,0.3,1,0.4
	c0.2,0.1,0.4,0.2,0.6,0.3c0.4,0.2,0.7,0.3,1.1,0.5c0.2,0.1,0.3,0.2,0.5,0.3c0.5,0.3,1,0.5,1.5,0.8l0,0c0.5,0.3,1,0.6,1.5,0.9
	c0.2,0.1,0.3,0.2,0.5,0.3c0.3,0.2,0.7,0.4,1,0.6c0.2,0.1,0.4,0.2,0.6,0.4c0.3,0.2,0.6,0.4,1,0.6c0.2,0.1,0.4,0.3,0.6,0.4
	c0.3,0.2,0.7,0.4,1,0.7c0.2,0.1,0.4,0.3,0.6,0.4c0.4,0.2,0.7,0.5,1.1,0.7c0.2,0.1,0.3,0.2,0.5,0.3c1,0.7,2.1,1.5,3.1,2.2
	c0.2,0.1,0.3,0.2,0.5,0.4c0.4,0.3,0.7,0.5,1.1,0.8c0.2,0.1,0.4,0.3,0.6,0.4c0.3,0.3,0.7,0.5,1,0.8c0.2,0.2,0.4,0.3,0.6,0.5
	c0.3,0.3,0.6,0.5,1,0.8c0.2,0.2,0.4,0.3,0.6,0.5c0.3,0.3,0.7,0.6,1,0.8c0.2,0.1,0.3,0.3,0.5,0.4c0.5,0.4,1,0.8,1.5,1.2l0,0
	c0.5,0.4,1,0.8,1.5,1.2c0.2,0.2,0.4,0.3,0.6,0.5c0.3,0.3,0.7,0.5,1,0.8c0.2,0.2,0.4,0.3,0.6,0.5c0.4,0.3,0.8,0.7,1.2,1
	s0.8,0.6,1.1,0.9c0.2,0.2,0.4,0.4,0.7,0.5c0.3,0.3,0.7,0.6,1,0.8c0.2,0.2,0.4,0.3,0.6,0.5c1,0.8,2.1,1.7,3.1,2.5
	c0.2,0.1,0.3,0.3,0.5,0.4c0.4,0.3,0.7,0.6,1.1,0.9c0.2,0.2,0.4,0.3,0.6,0.5c0.3,0.3,0.7,0.5,1,0.8c0.2,0.2,0.4,0.3,0.6,0.5
	c0.3,0.3,0.7,0.5,1,0.8c0.2,0.2,0.4,0.3,0.6,0.5c0.3,0.3,0.7,0.5,1,0.8c0.2,0.1,0.4,0.3,0.5,0.4c1,0.8,2.1,1.6,3.1,2.3
	c0.2,0.1,0.3,0.2,0.5,0.4c0.4,0.3,0.7,0.5,1.1,0.8c0.2,0.1,0.4,0.3,0.6,0.4c0.3,0.2,0.7,0.5,1,0.7c0.2,0.1,0.4,0.3,0.6,0.4
	c0.3,0.2,0.7,0.4,1,0.6c0.2,0.1,0.4,0.3,0.6,0.4c0.4,0.2,0.7,0.4,1.1,0.7c0.2,0.1,0.3,0.2,0.5,0.3c0.5,0.3,1.1,0.6,1.6,0.9l0,0
	c0.5,0.3,1,0.6,1.6,0.9c0.2,0.1,0.3,0.2,0.5,0.3c0.4,0.2,0.7,0.4,1.1,0.6c0.2,0.1,0.4,0.2,0.6,0.3c0.3,0.2,0.7,0.3,1,0.5
	c0.2,0.1,0.4,0.2,0.6,0.3c0.3,0.2,0.7,0.3,1,0.4c0.2,0.1,0.4,0.2,0.6,0.3c0.4,0.2,0.7,0.3,1.1,0.4c0.2,0.1,0.4,0.1,0.5,0.2
	c0.5,0.2,1.1,0.4,1.6,0.6l0,0c0.5,0.2,1.1,0.4,1.6,0.5c0.2,0.1,0.4,0.1,0.5,0.1c0.4,0.1,0.7,0.2,1.1,0.3c0.2,0.1,0.4,0.1,0.6,0.1
	c0.3,0.1,0.7,0.2,1,0.2c0.2,0,0.4,0.1,0.6,0.1c0.3,0.1,0.7,0.1,1,0.2c0.2,0,0.4,0.1,0.6,0.1c0.4,0.1,0.8,0.1,1.1,0.1
	c0.2,0,0.4,0,0.5,0.1c1.1,0.1,2.2,0.1,3.3,0.1c0.2,0,0.4,0,0.5,0c0.4,0,0.8,0,1.1-0.1c0.2,0,0.4,0,0.6-0.1c0.4,0,0.7-0.1,1.1-0.1
	c0.2,0,0.4-0.1,0.7-0.1c0.4-0.1,0.7-0.1,1.1-0.2c0.2,0,0.4-0.1,0.6-0.1c0.4-0.1,0.8-0.2,1.2-0.3c0.2,0,0.4-0.1,0.6-0.1
	c0.6-0.2,1.1-0.3,1.7-0.5c30-9.7,41-63.6,71.1-54.3c17.4,5.3,21.2,29,35.7,39.9c18.1,13.5,44.9,1.6,59.5-15.6c0.8-1,1.7-2,2.5-3
	c0.3-0.3,0.5-0.6,0.7-1c0.6-0.7,1.1-1.4,1.6-2.2c0.3-0.4,0.5-0.7,0.8-1.1c0.5-0.7,1.1-1.5,1.6-2.3c0.2-0.3,0.4-0.6,0.6-0.9
	c0.7-1.1,1.5-2.1,2.2-3.2c0.1-0.1,0.2-0.2,0.2-0.4c0.6-1,1.3-2,1.9-2.9c0.2-0.4,0.5-0.8,0.7-1.1c0.5-0.8,1-1.5,1.5-2.3
	c0.3-0.5,0.6-0.9,0.9-1.4c0.6-0.9,1.2-1.9,1.8-2.8c0.7-1.1,1.4-2.3,2.2-3.4c0.1-0.2,0.2-0.3,0.3-0.5c0.6-0.9,1.2-1.8,1.8-2.7
	c0.2-0.4,0.5-0.7,0.7-1c0.5-0.7,1-1.5,1.5-2.2c0.3-0.4,0.5-0.7,0.8-1.1c0.5-0.8,1.1-1.6,1.6-2.3c0.2-0.3,0.4-0.6,0.6-0.9
	c0.8-1,1.5-2.1,2.3-3.1c0.2-0.2,0.3-0.4,0.5-0.6c0.5-0.6,1-1.3,1.5-1.9c0.1-0.1,0.1-0.1,0.2-0.2c4.7-5.4,11-5.1,11.2-5
	c1.9-0.7,7.9,0.6,12,5.9c0,0,0,0,0.1,0.1l0,0c0,0.1,0.1,0.1,0.1,0.2c0.3,0.5,0.6,1,1,1.5c0.1,0.2,0.2,0.4,0.3,0.5
	c0.3,0.4,0.5,0.9,0.7,1.4c0.1,0.2,0.2,0.3,0.2,0.5c0.3,0.6,0.6,1.2,0.9,1.9c0,0.1,0.1,0.1,0.1,0.2c0.2,0.6,0.5,1.2,0.7,1.7
	c0.1,0.2,0.2,0.4,0.2,0.6c0.2,0.5,0.4,1,0.5,1.5c0.1,0.2,0.1,0.4,0.2,0.6c0.2,0.7,0.4,1.4,0.6,2.1c0,0.1,0,0.1,0,0.2
	c0.2,0.6,0.3,1.3,0.5,1.9c0.1,0.2,0.1,0.4,0.2,0.7c0.1,0.5,0.2,1.1,0.3,1.6c0,0.2,0.1,0.4,0.1,0.6c0.1,0.7,0.3,1.5,0.4,2.2
	c0,0.1,0,0.1,0,0.2c0.1,0.7,0.2,1.4,0.3,2.1c0,0.2,0.1,0.5,0.1,0.7c0.1,0.6,0.1,1.1,0.2,1.7c0,0.2,0.1,0.4,0.1,0.7
	c0.1,0.8,0.2,1.5,0.2,2.3v0.1c0.1,0.7,0.1,1.5,0.2,2.2c0,0.2,0,0.5,0,0.7c0,0.6,0.1,1.2,0.1,1.7c0,0.2,0,0.5,0,0.7
	c0,0.8,0.1,1.6,0.1,2.4v0.1c0,0.8,0,1.5,0,2.3c0,0.2,0,0.5,0,0.7c0,0.6,0,1.2,0,1.8c0,0.2,0,0.5,0,0.7c0,0.8,0,1.6,0,2.4
	c0,0,0,0,0,0.1c0,0.8,0,1.6-0.1,2.3c0,0.2,0,0.5,0,0.7c0,0.6,0,1.2-0.1,1.7c0,0.2,0,0.4,0,0.7c0,0.8-0.1,1.5-0.1,2.3c0,0,0,0,0,0.1
	c0,0.8-0.1,1.5-0.1,2.3c0,0.2,0,0.5,0,0.7c0,0.6-0.1,1.1-0.1,1.7c0,0.2,0,0.5,0,0.7c0,0.7-0.1,1.4-0.1,2.2
	c-1.4,26.2,16,61.8,40.2,51.8c33.1-13.7,3.5-84.1,38.4-91.8c18.3-4,31.2,16.6,45.2,29c7.8,6.9,17.1,11.7,26.4,16.4
	c17.1,8.7,34.2,17.4,51.3,26v-194H-0.4V82.8c10.2-7.3,21.3-13.1,33.5-16.7C64.4,56.9,103.6,68,117.2,97.7z"/>
<path class="st0" d="M1718.4,80.6L1718.4,80.6L1718.4,80.6z"/>
<path class="st0" d="M1711.5,31.7c-0.1-0.2-0.2-0.4-0.3-0.5C1711.3,31.4,1711.4,31.5,1711.5,31.7z"/>
<path class="st0" d="M1369.3,87.2c0,0.3-0.1,0.6-0.1,0.9C1369.2,87.8,1369.3,87.5,1369.3,87.2z"/>
<path class="st0" d="M1712.5,33.5c-0.1-0.2-0.2-0.3-0.3-0.5C1712.3,33.2,1712.4,33.4,1712.5,33.5z"/>
<path class="st0" d="M1368.9,90.3c0,0.3-0.1,0.7-0.1,1C1368.8,91,1368.8,90.7,1368.9,90.3z"/>
<path class="st0" d="M1710.2,29.7c0-0.1-0.1-0.1-0.1-0.2C1710.2,29.5,1710.2,29.6,1710.2,29.7z"/>
<path class="st0" d="M1672.9,48.5c-0.6,0.9-1.2,1.9-1.8,2.8C1671.7,50.3,1672.3,49.4,1672.9,48.5z"/>
<path class="st0" d="M1718.6,69.7c0,0.2,0,0.5,0,0.7C1718.6,70.1,1718.6,69.9,1718.6,69.7z"/>
<path class="st0" d="M1718.1,86c0-0.2,0-0.5,0-0.7C1718.2,85.5,1718.1,85.7,1718.1,86z"/>
<path class="st0" d="M1680.1,37.4c-0.3,0.4-0.5,0.7-0.8,1.1C1679.6,38.2,1679.8,37.8,1680.1,37.4z"/>
<path class="st0" d="M1370.6,80.2c-0.1,0.3-0.1,0.6-0.2,0.9C1370.5,80.8,1370.6,80.5,1370.6,80.2z"/>
<path class="st0" d="M1718.2,83.6c0-0.2,0-0.5,0-0.7C1718.3,83.1,1718.3,83.3,1718.2,83.6z"/>
<path class="st0" d="M1677.8,40.8c-0.2,0.3-0.5,0.7-0.7,1C1677.4,41.5,1677.6,41.1,1677.8,40.8z"/>
<path class="st0" d="M1713.4,35.6c0-0.1-0.1-0.1-0.1-0.2C1713.4,35.5,1713.4,35.5,1713.4,35.6z"/>
<path class="st0" d="M1675.4,44.6c-0.1,0.2-0.2,0.3-0.3,0.5C1675.1,44.9,1675.3,44.7,1675.4,44.6z"/>
<path class="st0" d="M1369.9,83.8c0,0.1,0,0.2-0.1,0.3C1369.8,84,1369.9,83.9,1369.9,83.8z"/>
<path class="st0" d="M1685.1,30.5c-0.2,0.2-0.3,0.4-0.5,0.6C1684.8,30.9,1685,30.7,1685.1,30.5z"/>
<path class="st0" d="M1682.3,34.2c-0.2,0.3-0.4,0.6-0.6,0.9C1681.9,34.8,1682.1,34.5,1682.3,34.2z"/>
<path class="st0" d="M1718,54.6c0-0.2,0-0.4-0.1-0.7C1717.9,54.2,1718,54.4,1718,54.6z"/>
<path class="st0" d="M1718.5,78.2c0-0.2,0-0.4,0-0.7C1718.5,77.8,1718.5,78,1718.5,78.2z"/>
<path class="st0" d="M1717.7,52.2c0-0.2-0.1-0.5-0.1-0.7C1717.6,51.8,1717.7,52,1717.7,52.2z"/>
<path class="st0" d="M1367.6,103.7c0,0.3,0,0.6-0.1,0.9C1367.5,104.3,1367.6,104,1367.6,103.7z"/>
<path class="st0" d="M1717.3,49.5c0-0.1,0-0.1,0-0.2C1717.3,49.3,1717.3,49.4,1717.3,49.5z"/>
<path class="st0" d="M1371.4,77c-0.1,0.3-0.2,0.6-0.2,1C1371.2,77.7,1371.3,77.4,1371.4,77z"/>
<path class="st0" d="M1718.5,62.4c0-0.2,0-0.5,0-0.7C1718.5,62,1718.5,62.2,1718.5,62.4z"/>
<path class="st0" d="M1718.4,60c0-0.2,0-0.5,0-0.7C1718.4,59.5,1718.4,59.7,1718.4,60z"/>
<path class="st0" d="M1718.6,64.9C1718.6,64.9,1718.6,64.8,1718.6,64.9C1718.6,64.8,1718.6,64.9,1718.6,64.9z"/>
<path class="st0" d="M1718.2,57.1V57C1718.2,57,1718.2,57,1718.2,57.1z"/>
<path class="st0" d="M1718.6,67.9c0-0.2,0-0.5,0-0.7C1718.6,67.4,1718.6,67.7,1718.6,67.9z"/>
<path class="st0" d="M1715.1,40c-0.1-0.2-0.1-0.4-0.2-0.6C1715,39.6,1715,39.8,1715.1,40z"/>
<path class="st0" d="M1718.5,75.8c0-0.2,0-0.5,0-0.7C1718.6,75.3,1718.6,75.6,1718.5,75.8z"/>
<path class="st0" d="M1368.5,93.7c0,0.2-0.1,0.5-0.1,0.7C1368.4,94.2,1368.4,93.9,1368.5,93.7z"/>
<path class="st0" d="M1715.8,42.2c0-0.1,0-0.1,0-0.2C1715.7,42.1,1715.7,42.2,1715.8,42.2z"/>
<path class="st0" d="M1714.4,37.9c-0.1-0.2-0.1-0.4-0.2-0.6C1714.2,37.5,1714.3,37.7,1714.4,37.9z"/>
<path class="st0" d="M1716.9,47.1c0-0.2-0.1-0.4-0.1-0.6C1716.8,46.7,1716.8,46.9,1716.9,47.1z"/>
<path class="st0" d="M1718.6,72.8C1718.6,72.8,1718.6,72.7,1718.6,72.8C1718.6,72.7,1718.6,72.8,1718.6,72.8z"/>
<path class="st0" d="M1368.1,97.5c0,0.2,0,0.5-0.1,0.7C1368.1,97.9,1368.1,97.7,1368.1,97.5z"/>
<path class="st0" d="M1367.8,100.6c0,0.3-0.1,0.7-0.1,1C1367.8,101.2,1367.8,100.9,1367.8,100.6z"/>
<path class="st0" d="M1716.4,44.8c-0.1-0.2-0.1-0.4-0.2-0.7C1716.3,44.4,1716.4,44.6,1716.4,44.8z"/>
<path class="st0" d="M1460.8,99.5c-0.4-0.2-0.7-0.4-1.1-0.6C1460.1,99.2,1460.5,99.4,1460.8,99.5z"/>
<path class="st0" d="M1453.8,95.5c-0.3-0.2-0.7-0.4-1-0.6C1453.1,95.1,1453.5,95.3,1453.8,95.5z"/>
<path class="st0" d="M1452.2,94.4c-0.3-0.2-0.7-0.4-1-0.7C1451.5,94,1451.9,94.2,1452.2,94.4z"/>
<path class="st0" d="M1413,64.2c-0.2-0.1-0.4-0.3-0.6-0.4C1412.6,63.9,1412.8,64,1413,64.2z"/>
<path class="st0" d="M1414.5,65.2c-0.2-0.1-0.4-0.3-0.6-0.4C1414.1,64.9,1414.3,65.1,1414.5,65.2z"/>
<path class="st0" d="M1449,92.2c-1.1-0.8-2.1-1.5-3.1-2.3C1446.9,90.7,1448,91.5,1449,92.2z"/>
<path class="st0" d="M1450.6,93.4c-0.4-0.2-0.7-0.5-1.1-0.8C1449.9,92.9,1450.2,93.1,1450.6,93.4z"/>
<path class="st0" d="M1455.5,96.6c-0.4-0.2-0.7-0.4-1.1-0.7C1454.8,96.1,1455.1,96.3,1455.5,96.6z"/>
<path class="st0" d="M1459.2,98.7c-0.5-0.3-1-0.6-1.6-0.9C1458.2,98.1,1458.7,98.4,1459.2,98.7z"/>
<path class="st0" d="M1425.9,73.8c-0.2-0.1-0.3-0.3-0.5-0.4C1425.6,73.6,1425.8,73.7,1425.9,73.8z"/>
<path class="st0" d="M1457.6,97.8c-0.5-0.3-1.1-0.6-1.6-0.9C1456.5,97.2,1457.1,97.5,1457.6,97.8z"/>
<path class="st0" d="M1462.4,100.3c-0.3-0.2-0.7-0.3-1-0.5C1461.8,100,1462.1,100.2,1462.4,100.3z"/>
<path class="st0" d="M1409.8,62.1c-0.2-0.1-0.3-0.2-0.5-0.3C1409.4,61.9,1409.6,62,1409.8,62.1z"/>
<path class="st0" d="M1416,66.3c-0.2-0.1-0.3-0.2-0.5-0.3C1415.7,66.1,1415.9,66.2,1416,66.3z"/>
<path class="st0" d="M1411.4,63.1c-0.2-0.1-0.4-0.2-0.6-0.4C1411,62.9,1411.2,63,1411.4,63.1z"/>
<path class="st0" d="M1439,84.5c-1-0.8-2.1-1.7-3.1-2.5C1436.9,82.8,1437.9,83.7,1439,84.5z"/>
<path class="st0" d="M1435.3,81.5c-0.3-0.3-0.7-0.6-1-0.8C1434.6,80.9,1434.9,81.2,1435.3,81.5z"/>
<path class="st0" d="M1433.6,80.1c-0.4-0.3-0.8-0.6-1.1-0.9C1432.8,79.5,1433.2,79.8,1433.6,80.1z"/>
<path class="st0" d="M1422.8,71.4c-0.2-0.2-0.4-0.3-0.6-0.5C1422.4,71.1,1422.6,71.2,1422.8,71.4z"/>
<path class="st0" d="M1431.2,78.2c-0.2-0.2-0.4-0.3-0.6-0.5C1430.8,77.8,1431,78,1431.2,78.2z"/>
<path class="st0" d="M1427.5,75.1L1427.5,75.1L1427.5,75.1z"/>
<path class="st0" d="M1429.6,76.8c-0.2-0.2-0.4-0.3-0.6-0.5C1429.2,76.5,1429.4,76.7,1429.6,76.8z"/>
<path class="st0" d="M1424.4,72.6c-0.2-0.2-0.4-0.3-0.6-0.5C1424,72.3,1424.2,72.4,1424.4,72.6z"/>
<path class="st0" d="M1443.7,88.3c-0.3-0.3-0.7-0.5-1-0.8C1443,87.8,1443.4,88,1443.7,88.3z"/>
<path class="st0" d="M1419.6,68.9c-0.2-0.1-0.3-0.3-0.5-0.4C1419.3,68.6,1419.5,68.8,1419.6,68.9z"/>
<path class="st0" d="M1445.3,89.5c-0.3-0.3-0.7-0.5-1-0.8C1444.6,89,1445,89.3,1445.3,89.5z"/>
<path class="st0" d="M1442.1,87c-0.3-0.3-0.7-0.5-1-0.8C1441.4,86.5,1441.8,86.8,1442.1,87z"/>
<path class="st0" d="M1421.3,70.1c-0.2-0.1-0.4-0.3-0.6-0.4C1420.9,69.8,1421.1,70,1421.3,70.1z"/>
<path class="st0" d="M1464.1,101.1c-0.3-0.1-0.7-0.3-1-0.4C1463.4,100.8,1463.8,100.9,1464.1,101.1z"/>
<path class="st0" d="M1440.5,85.8c-0.4-0.3-0.7-0.6-1.1-0.9C1439.8,85.2,1440.2,85.5,1440.5,85.8z"/>
<path class="st0" d="M1483.6,104.4c-0.4,0-0.7,0.1-1.1,0.1C1482.9,104.5,1483.3,104.4,1483.6,104.4z"/>
<path class="st0" d="M1374.6,67.3c-0.1,0.3-0.3,0.6-0.4,0.9C1374.3,68,1374.5,67.6,1374.6,67.3z"/>
<path class="st0" d="M1487.2,103.7c-0.4,0.1-0.8,0.2-1.2,0.3C1486.4,103.9,1486.8,103.8,1487.2,103.7z"/>
<path class="st0" d="M1489.4,103.1c-0.6,0.2-1.1,0.4-1.7,0.5C1488.3,103.4,1488.9,103.3,1489.4,103.1z"/>
<path class="st0" d="M1670.3,52.6c-0.5,0.8-1,1.5-1.5,2.3C1669.3,54.2,1669.8,53.4,1670.3,52.6z"/>
<path class="st0" d="M1658.3,70c-0.8,1-1.6,2-2.5,3C1656.7,72,1657.5,71,1658.3,70z"/>
<path class="st0" d="M1485.4,104.1c-0.4,0.1-0.7,0.1-1.1,0.2C1484.7,104.2,1485,104.2,1485.4,104.1z"/>
<path class="st0" d="M1397.8,56.6L1397.8,56.6L1397.8,56.6z"/>
<path class="st0" d="M1665.9,59.4c-0.7,1.1-1.4,2.1-2.2,3.2C1664.5,61.5,1665.2,60.5,1665.9,59.4z"/>
<path class="st0" d="M1372.2,74c-0.1,0.2-0.1,0.4-0.1,0.5C1372.1,74.4,1372.1,74.2,1372.2,74z"/>
<path class="st0" d="M1668.1,56.1c-0.6,1-1.3,2-1.9,2.9C1666.8,58,1667.4,57.1,1668.1,56.1z"/>
<path class="st0" d="M1660.7,66.9c-0.5,0.7-1.1,1.5-1.6,2.2C1659.6,68.3,1660.1,67.6,1660.7,66.9z"/>
<path class="st0" d="M1399.8,57.3c-0.2-0.1-0.3-0.1-0.5-0.2C1399.5,57.2,1399.7,57.2,1399.8,57.3z"/>
<path class="st0" d="M1663.1,63.5c-0.5,0.8-1.1,1.5-1.6,2.3C1662,65,1662.6,64.3,1663.1,63.5z"/>
<path class="st0" d="M1373.4,70.4c-0.1,0.3-0.2,0.5-0.3,0.8C1373.2,70.9,1373.3,70.6,1373.4,70.4z"/>
<path class="st0" d="M1404.6,59.3c-0.2-0.1-0.4-0.2-0.6-0.3C1404.2,59.2,1404.4,59.2,1404.6,59.3z"/>
<path class="st0" d="M1471.2,103.5c-0.4-0.1-0.7-0.2-1.1-0.3C1470.5,103.3,1470.9,103.4,1471.2,103.5z"/>
<path class="st0" d="M1406.2,60.1c-0.2-0.1-0.3-0.2-0.5-0.3C1405.8,60,1406,60,1406.2,60.1z"/>
<path class="st0" d="M1407.7,61L1407.7,61L1407.7,61z"/>
<path class="st0" d="M1469.6,103.1c-0.5-0.2-1.1-0.3-1.6-0.5C1468.5,102.8,1469.1,102.9,1469.6,103.1z"/>
<path class="st0" d="M1468,102.6c-0.5-0.2-1.1-0.4-1.6-0.6C1466.9,102.2,1467.4,102.4,1468,102.6z"/>
<path class="st0" d="M1465.8,101.8c-0.4-0.1-0.7-0.3-1.1-0.4C1465.1,101.5,1465.4,101.6,1465.8,101.8z"/>
<path class="st0" d="M1480.2,104.6c-1.1,0-2.2,0-3.3-0.1C1478,104.6,1479.1,104.6,1480.2,104.6z"/>
<path class="st0" d="M1401.5,57.9c-0.2-0.1-0.4-0.2-0.6-0.2C1401.1,57.8,1401.3,57.9,1401.5,57.9z"/>
<path class="st0" d="M1472.9,103.9c-0.3-0.1-0.7-0.1-1-0.2C1472.2,103.8,1472.6,103.8,1472.9,103.9z"/>
<path class="st0" d="M1481.9,104.5c-0.4,0-0.8,0-1.1,0.1C1481.2,104.6,1481.5,104.6,1481.9,104.5z"/>
<path class="st0" d="M1476.4,104.4c-0.4,0-0.8-0.1-1.1-0.1C1475.6,104.4,1476,104.4,1476.4,104.4z"/>
<path class="st0" d="M1403,58.6c-0.2-0.1-0.4-0.2-0.6-0.3C1402.6,58.4,1402.8,58.5,1403,58.6z"/>
<path class="st0" d="M1474.6,104.2c-0.3-0.1-0.7-0.1-1-0.2C1473.9,104.1,1474.2,104.2,1474.6,104.2z"/>
<ellipse class="st0" cx="490.6" cy="163.4" rx="13.8" ry="19.9"/>
<line class="st4" x1="1052.3" y1="-111.4" x2="1052.3" y2="479.7"/>
<g class="st5">
	<path class="st6" d="M52.2,63c0,0,73.3-3.3,71.5,68.5c0,0,6.7-22.3-6.5-43.6c-6.4-10.3-16.4-18-27.8-22
		C79.7,62.4,65.6,59.3,52.2,63z"/>
	<path class="st6" d="M259.1,61.4c0,0,14-9.7,30.5,3.9c3.8,3.2,7,7.1,9.5,11.4c5.9,10.1,20.8,35.7,21.8,39.1
		c0,0-14.6-37.4-22.5-47.6c0,0-2.6-3.5-6.8-6.9c-8-6.4-19.1-7.6-28.3-3C261.6,59.1,260.1,60.2,259.1,61.4z"/>
	<path class="st6" d="M401.8,77.6C402.2,78.2,415,62,429,62.3c14.7,0.2,23.5,13.3,23.5,13.3s16.9,26.5,28.2,23.3
		c0,0-10.1,0.9-25.7-23c-0.8-1.3-1.7-2.5-2.7-3.6c-3.7-4.2-12.5-12.6-23.4-11.8C428.8,60.6,414.1,60.2,401.8,77.6z"/>
	<path class="st6" d="M523.7,69.1c0,0,15.6-15.6,42.7-9.7c27,5.9,39.8,27.2,39.8,27.2s-7.1-23.1-39.1-28.6
		C535,52.5,523.7,69.1,523.7,69.1z"/>
	<path class="st6" d="M725.3,56.4c0,0,12.4-3.1,24.3,7.8c12.1,11.1,7,10.7,22.4,23.5c0,0-10.5-12-13.7-17.5
		c-0.9-1.6-2.6-3.9-4.4-5.8c-3.1-3.4-8-7.3-14.3-8.2C728.1,54.6,725.1,56.4,725.3,56.4z"/>
	<path class="st6" d="M885.2,51c0,0,30.9,3.7,42.1,55.4c0,0-0.7-25.2-14.6-42.9c-14-17.7-29.4-12.7-29.4-12.7"/>
	<path class="st6" d="M1070,149.1c0,0,17.5-8.8,41,19.3s56,21.8,56,21.8s-27.4,4.3-53.4-26.3C1087.6,133.2,1070,149.1,1070,149.1z"
		/>
	<path class="st6" d="M1255.6,142.7c0,0,24.6,13.1,25.9,39.6c0,0,3.4-16-7.2-29C1263.7,140.4,1255.6,142.7,1255.6,142.7z"/>
	<path class="st6" d="M1381.9,55.3c0,0,11.5-12.1,37.7,10.5s39.6,33.2,56.7,35.5c0,0-10.2,2.3-51.8-36.6c-0.9-0.8-1.7-1.7-2.6-2.6
		c-2.9-3-12.9-11.9-28.2-12.7C1393.8,49.4,1383.3,50.5,1381.9,55.3z"/>
	<path class="st6" d="M1554.5,44.5c0,0,16.1-0.5,27.1,22.3c0,0-0.6-9.4-10.5-16.9C1561.2,42.3,1554.6,44.5,1554.5,44.5"/>
	<path class="st6" d="M1691.5,21.6c0,0,10.7-5.4,18.6,4.6c7.8,10,8.6,38.5,8.6,38.5s3-23.1-5.2-39.4S1691.5,21.6,1691.5,21.6z"/>
	<path class="st6" d="M1796.7,45c0,0,17.1-5.6,39.8,23.8c0,0-6.3-18.5-23.6-24.5C1812.8,44.2,1800.3,41.5,1796.7,45z"/>
</g>
<g class="st5">
	<path class="st7" d="M485.9,173.1c2.7,3.9,6.6,5.4,6.8,6.5c0.4,1.2-5.1,1.1-9.3-4.6c-4.2-5.8-2.5-11-1.5-10.3
		C482.8,165.2,483.1,169.4,485.9,173.1z"/>
</g>
</svg>
