<?xml version="1.0" encoding="utf-8"?>
<!-- Generator: Adobe Illustrator 27.7.0, SVG Export Plug-In . SVG Version: 6.00 Build 0)  -->
<svg version="1.1" id="레이어_1" xmlns="http://www.w3.org/2000/svg" xmlns:xlink="http://www.w3.org/1999/xlink" x="0px"
	 y="0px" viewBox="0 0 200 50" style="enable-background:new 0 0 200 50;" xml:space="preserve">
<style type="text/css">
	.st0{fill:#FFFFFF;}
	.st1{fill:#656EB3;}
</style>
<path class="st0" d="M11.6,29.8c-1.7-8.1,0.9-16.3,9-19.2c0.8-0.3,2.1-0.5,3-0.6c2.6-0.2,6.5,0.7,7.7,3.1c0-2.4,0.6-3,2.8-3
	c3.8,0,2.2,3.8,2.3,6.5c0.2,3.5,0.4,5.6-2.5,5.6c-2.1,0-2.3-1.3-3.1-2.8c-1.1-2.1-2.8-3.4-5.1-3.7c-2.3-0.2-4,0.4-5.3,1.5
	c-1.5,1.2-2.7,3.4-3.1,5.7C16.9,26,17.2,29,19,31.5c1.6,2.3,4.4,3.4,7.5,2.8c1.8-0.4,3.5-1.6,4.4-2.5c1.2-1.3,2.4-2.1,3.8-1.1
	c2,1.5,1.5,3.4,0.8,4.4c-1.5,2.2-5.4,5.3-12,4.9C17.1,39.5,12.7,35,11.6,29.8z"/>
<path class="st1" d="M24.6,39c-0.4,0-0.7,0-1.1,0c-6.3-0.5-10.1-5.1-11-9.4c-1.4-6.5,0-15.1,8.4-18.1c0.6-0.2,1.6-0.4,2.8-0.5
	c0.2,0,0.4,0,0.6,0c2.4,0,5.2,0.9,6.1,2.6l1.9-0.4c0-1.9,0.3-2,1.8-2c0.6,0,1,0.1,1.2,0.3c0.4,0.5,0.3,1.8,0.2,3
	c-0.1,0.7-0.2,1.5-0.1,2.2l0,0.3c0.1,1.8,0.2,3.4-0.3,3.9c-0.2,0.2-0.6,0.3-1.2,0.3c-1.1,0-1.3-0.4-1.8-1.5
	c-0.1-0.2-0.2-0.5-0.4-0.8c-1.3-2.4-3.3-3.9-5.9-4.2c-0.4,0-0.7,0-1,0c-2,0-3.7,0.6-5.1,1.8c-1.7,1.3-3,3.8-3.4,6.3
	c-0.5,3.9,0.1,6.9,1.9,9.4c1.5,2.1,3.9,3.4,6.7,3.4c0.6,0,1.2-0.1,1.8-0.2c2-0.5,3.9-1.8,4.9-2.8c0.8-0.9,1.4-1.3,1.8-1.3
	c0.2,0,0.4,0.1,0.7,0.3c1.6,1.2,0.9,2.5,0.6,3C33.2,36.7,29.8,39,24.6,39z"/>
<path class="st0" d="M36.5,36.4c0-2.3,0.6-2.7,3.1-2.7c0.6-1.7,0.8-2.7,1.4-4.6c0.7-2.3,1-3.6,1.8-6.4c0.6-2.3,1-3.4,1.6-5.5
	c0.4-1.6,0.7-2.3,1.4-4.7c0.5-1.5,2.1-2.1,4.7-2.1c3.3,0,4.5,0.8,5,2.3c0.6,1.9,1,3.1,1.4,4.5c0.8,2.7,1.1,3.8,1.7,5.9
	c1.2,4.5,1.9,6.8,2.9,10.6c2.6-0.1,2.9,0.2,3,2.8c0.1,4-4.3,2.4-7.4,2.8c-2.6,0.4-4.2,0-4.3-2c-0.2-2.8,0-3.1,2.7-3.4
	c-0.4-1.1-0.7-2.2-1-3.1c-2.7,0.2-5.5,0.2-8,0.1c-0.2,0.8-0.4,1.5-0.9,3c2.5,0.3,2.7,0.7,2.7,2.9s-0.6,2.5-6.5,2.5
	C37,39.4,36.5,39.2,36.5,36.4z M53.2,25.5c-1.6-6.8-2.1-8.2-2.6-10.9c-0.4,2.9-1.2,4.6-2.7,11C49.2,25.6,51.8,25.6,53.2,25.5z"/>
<path class="st1" d="M55.5,38.4c-1.5,0-1.7-0.5-1.7-1.2c-0.2-2.1-0.2-2.1,1.8-2.4l1.3-0.1l-0.4-1.2c-0.2-0.7-0.4-1.3-0.6-2
	c-0.1-0.4-0.2-0.8-0.4-1.1l-0.2-0.7l-0.8,0.1c-1.5,0.1-3,0.2-4.7,0.2c-1.1,0-2.2,0-3.2-0.1l-0.8,0l-0.2,0.8
	c-0.2,0.8-0.4,1.4-0.9,2.9l-0.4,1.2l1.2,0.1c1.8,0.2,1.8,0.2,1.8,1.9c0,1.3,0,1.5-5.5,1.5c-0.6,0-1.1,0-1.5,0c-2.8,0-2.8,0-2.8-1.9
	c0-1.6,0-1.7,2.1-1.7h0.7l0.2-0.7c0.4-1,0.6-1.8,0.8-2.6c0.2-0.6,0.3-1.2,0.6-2c0.4-1.4,0.7-2.4,1-3.5c0.2-0.8,0.5-1.7,0.8-2.9
	c0.4-1.4,0.7-2.4,1-3.4c0.2-0.6,0.4-1.3,0.6-2.1c0.2-0.9,0.4-1.5,0.7-2.3c0.2-0.6,0.4-1.3,0.7-2.4c0.2-0.6,0.8-1.4,3.7-1.4
	c3.2,0,3.8,0.8,4.1,1.6l0.4,1.4c0.4,1.2,0.7,2.1,1,3.1c0.6,2,0.9,3.1,1.3,4.4l0.4,1.5c0.6,2.2,1.1,3.9,1.5,5.5
	c0.5,1.6,0.9,3.2,1.4,5.1l0.2,0.8l0.8,0c0.2,0,0.5,0,0.7,0c1.2,0,1.2,0,1.3,1.9c0,0.6-0.1,1-0.3,1.3c-0.4,0.4-1.4,0.5-2.2,0.5
	c-0.4,0-0.8,0-1.2,0c-0.5,0-0.9,0-1.4,0c-0.5,0-1,0-1.4,0.1C56.4,38.4,55.9,38.4,55.5,38.4z M49.6,14.5c-0.2,1.5-0.5,2.7-1,4.5
	c-0.4,1.5-1,3.5-1.6,6.4l-0.3,1.2h1.3c1.4,0,3.9,0,5.4-0.1l1.2-0.1l-0.3-1.1c-0.7-3-1.2-5-1.6-6.5c-0.5-1.8-0.7-2.9-1-4.4L49.6,14.5
	z"/>
<path class="st0" d="M71.8,37.2c0,1-0.1,1.7-0.6,2c-0.7,0.4-4.9,0.9-4.9-1.5c0-2.1,0.1-3.6-0.2-5.7c-0.4-3.3,0-4.3,2.4-4.3
	c1.7,0,2.2,1.5,3.5,3.1c2.1,2.6,4.3,3.5,6.2,3.5c1.9,0,2.8-0.8,2.6-2.5C80.2,27.9,66,25.7,66,17.7c0-4.8,3.8-7.6,8.4-7.6
	c2.9,0,5.3,1,6.8,2.5c0-1.9,0.6-2.2,2.7-2.3c2.7-0.2,3.1,0.7,2.9,3.8c-0.1,1.1,0,1.9,0.1,3.4c0.2,3.6-0.2,3.8-2.6,3.8
	c-1.1,0-1.7-0.5-2.9-2.1c-1.7-2.3-4.3-3.7-6.3-3.6c-1.9,0.1-2.6,1.1-2.5,2.2c0.3,3,14.8,5.4,14.8,14.1c0,5.3-3.6,8-8.3,8
	C75.9,39.8,73.5,38.6,71.8,37.2z"/>
<path class="st1" d="M79.1,38.9c-2.5-0.1-4.8-0.9-6.7-2.5l-1.6-1.3v2.1c0,0.9-0.1,1.1-0.1,1.2c-0.1,0-0.7,0.2-1.5,0.2
	c-0.6,0-1.2-0.1-1.5-0.3c-0.3-0.2-0.4-0.3-0.4-0.6c0-0.4,0-0.8,0-1.2c0-1.5,0-2.9-0.2-4.6c-0.1-0.6-0.3-2.4,0.1-2.9
	c0.2-0.2,0.6-0.3,1.3-0.3c0.7,0,1,0.4,1.8,1.5c0.3,0.4,0.5,0.8,0.9,1.2c2.6,3.2,5.2,3.9,7,3.9c1.3,0,2.3-0.4,2.9-1
	c0.6-0.6,0.8-1.5,0.7-2.6c-0.3-2.1-2.8-3.4-6-5.1c-4.1-2.2-8.8-4.7-8.8-8.9c0-4.6,3.7-6.6,7.4-6.6c2.5,0,4.7,0.8,6.1,2.2l1.7,1.7
	v-2.4c0-1.2,0-1.2,1.7-1.3c0.2,0,0.4,0,0.6,0c0.5,0,0.9,0.1,1,0.2c0.4,0.4,0.3,1.9,0.2,2.5c-0.1,1,0,1.7,0,2.8l0.1,0.8
	c0.1,1.9,0,2.5-0.1,2.6c-0.1,0.1-1.1,0.1-1.5,0.1c-0.6,0-0.9-0.1-2.1-1.7c-1.8-2.4-4.5-4-6.9-4c-0.1,0-0.2,0-0.3,0
	c-1.5,0.1-2.4,0.7-2.8,1.2c-0.5,0.6-0.7,1.3-0.7,2.1c0.2,1.6,2.2,2.7,5.1,4.2c4.3,2.2,9.7,4.9,9.7,9.8
	C86.4,36.3,83.7,38.9,79.1,38.9z"/>
<path class="st0" d="M94.9,36.3c0-2.1,0.7-2.5,5-2.7c0-0.8-0.1-1.4-0.1-2.1c0-1.5-0.1-2.2-0.1-3.8c0-0.9-0.1-2.5-0.1-4.5
	c0-2.7,0-3.8,0.1-5.7v-1.3c-2,0-3.5-0.1-5-0.2c0,0.8,0,1.3,0,1.9c-0.1,2.7-0.6,3.4-2.6,3.5c-3.1,0.2-3.3-0.4-2.9-4.2
	c0.2-2.4-0.8-4.9,1.3-6.3c1-0.7,3.4-0.6,4.4-0.6c2.9,0,4.8,0.1,7.4,0.3c2.1,0.1,3.4,0.1,5.8,0.1l5.1-0.1c2,0,2.5,0.5,2.5,6.8
	c0,3.9-0.3,4.2-2.7,4.2c-3,0-3.4-0.4-3.1-2.9c0.1-1,0-1.6,0-2.4c-1.7,0.1-2.6,0.1-4.4,0c-0.1,0.8-0.1,1.6-0.2,2.4
	c-0.1,2.7-0.1,4.6-0.1,7.2c0,2.7,0.1,4.8,0.2,7.5c4.7-0.1,5,0.2,4.5,4c-0.2,1.5-2.1,1.8-4.6,1.7c-2.2-0.1-4.1-0.1-6.5,0.2
	C95.8,39.6,94.9,39.5,94.9,36.3z"/>
<path class="st1" d="M97.1,38.4c-0.9,0-1.2,0-1.2-2.1c0-1.3,0-1.5,4-1.7l1,0v-1c0-0.4,0-0.8-0.1-1.2c0-0.3,0-0.6,0-0.9
	c0-0.8,0-1.3,0-1.9c0-0.6,0-1.1,0-1.9c0-0.4,0-0.9,0-1.4c0-0.8-0.1-1.9-0.1-3.1c0-2.7,0-3.8,0.1-5.6l0-2.4h-1c-2,0-3.5-0.1-4.9-0.2
	l-1.1-0.1v3c-0.1,2.4-0.4,2.4-1.6,2.5c-0.3,0-0.6,0-0.9,0c-0.8,0-1-0.1-1-0.2c-0.3-0.3-0.1-2.1,0-3c0.1-0.8,0-1.5,0-2.2
	c-0.1-1.7-0.1-2.7,0.9-3.4c0.3-0.2,1-0.4,3-0.4l0.8,0c2.9,0,4.8,0.1,7.3,0.3c2.2,0.1,3.5,0.1,5.9,0.1l5.1-0.1c1.1,0,1.5,0,1.5,5.8
	c0,3.2,0,3.2-1.7,3.2c-1.6,0-2-0.2-2.1-0.2c0,0-0.2-0.3,0-1.5c0.1-0.8,0.1-1.3,0-1.8c0-0.2,0-0.5,0-0.7v-1.1l-1.1,0.1
	c-0.8,0-1.5,0.1-2.1,0.1c-0.6,0-1.3,0-2.2-0.1l-0.9-0.1l-0.1,0.9c-0.1,0.4-0.1,0.8-0.1,1.3c0,0.4,0,0.8-0.1,1.1
	c-0.1,2.8-0.1,4.7-0.1,7.3c0,2.3,0.1,4.2,0.2,6.3l0.1,2.2l1,0c0.4,0,0.8,0,1.2,0c1.4,0,2.2,0.1,2.4,0.3c0.3,0.3,0.1,1.8,0,2.6
	c-0.1,0.7-1.6,0.8-2.8,0.8c-0.3,0-0.5,0-0.8,0c-0.8,0-1.6-0.1-2.4-0.1c-1.5,0-2.8,0.1-4.3,0.3C98.1,38.4,97.6,38.4,97.1,38.4z"/>
<path class="st0" d="M116.7,36.3c0.1-1.6,0.6-2.4,4.4-2.5c0.3-8.2,0.4-11.6,0-17.4c-3.6-0.3-4.3-0.6-4.4-2.7c-0.1-2.9,0.6-3.3,4-3
	c2.3,0.2,4,0.2,6.1,0c3.4-0.3,4.4-0.1,4.4,2.7c0,2.4-0.7,2.8-4.4,3.1c0.3,5.9,0.3,9.1,0.1,17.2c3.1-0.6,4.1-0.2,4.2,2.4
	c0.2,2.7-0.5,3.2-3.1,3.2c-1.6,0-2.6,0-4.7,0C117.1,39.2,116.5,38.5,116.7,36.3z"/>
<path class="st1" d="M123.3,38.3c-1.3,0-4.9-0.1-5.5-0.8c-0.1-0.2-0.2-0.5-0.1-1.1c0.1-1,0.1-1.5,3.4-1.6l0.9,0l0-0.9
	c0.3-8.1,0.4-11.6,0-17.5l-0.1-0.9l-0.9-0.1c-3.4-0.3-3.4-0.5-3.5-1.8c0-1,0-1.6,0.2-1.8c0.1-0.1,0.4-0.2,1.2-0.2
	c0.4,0,0.8,0,1.5,0.1c1.2,0.1,2.2,0.2,3.2,0.2c1,0,2,0,3.1-0.2c0.8-0.1,1.3-0.1,1.7-0.1c1.3,0,1.6,0.1,1.6,1.8c0,1.6,0,1.8-3.5,2.1
	l-1,0.1l0,1c0.3,6,0.3,9.2,0.1,17.1l0,1.2l1.2-0.2c0.8-0.2,1.4-0.2,1.8-0.2c0.7,0,1.1,0,1.2,1.7c0.1,1.3,0,1.7-0.2,1.8
	c-0.3,0.3-1.5,0.3-1.9,0.3H123.3z"/>
<path class="st0" d="M152.1,36.5c-1.3-1.8-2.3-3.2-3.5-5c-1-1.5-3.2-4.8-4.6-6.8c-0.9-1.3-1.5-2.7-2.3-5.1c0.4,2.6,0.5,5,0.6,7.3
	c0.2,2.9,0.2,3.8,0.2,6.7c3.9,0,4.6,0.3,4.2,3.2c-0.3,2.5-1,2.9-5.6,2.6c-1.9-0.1-3.2-0.2-4.6-0.1c-3,0.2-3.6,0-3.8-2.6
	c-0.3-2.6,0.6-3.2,4.2-3.2c0-2.6,0-3.2,0-6c0-2.9,0-4,0-7c0-1.3-0.1-2.5-0.1-3.9c-3.5,0.4-3.9,0.1-3.9-3c0-2.3,0.7-2.8,5-2.8
	c0.7,0,3-0.1,3.9,0.3c1.3,0.6,1.8,1.5,3.3,3.8c1,1.5,1.8,2.9,2.8,4.3c1.3,2.1,2.7,3.9,4,5.8c1.7,2.5,2.3,3.6,2.9,5.9
	c-0.2-2.9-0.3-4.1-0.4-6c-0.1-2.3-0.1-2.7-0.2-5.1c0-1,0-2,0-3c-3.3,0.1-4.3-0.2-4.3-3.1c0-2.4,0.3-2.8,7.2-2.8h3.1
	c2.6,0,3.2,0.4,3.2,3c0,2.5-0.5,2.9-3.6,2.9v2.9c0,2.3,0,3.3,0,5.6c0,4.6,0.1,6.1,0.1,10.3c0,2.9-0.2,4.3-3.1,4.4
	C155,39.9,154.2,39.4,152.1,36.5z"/>
<path class="st1" d="M156.8,39c-1.3-0.1-1.9-0.3-3.9-3.1c-1.2-1.7-2.2-3.1-3.5-5c-1.1-1.6-3.2-4.8-4.6-6.8c-0.8-1.1-1.4-2.4-2.2-4.8
	l-1.9,0.5c0.4,2.5,0.5,4.9,0.6,7.1l0,0.1c0.2,2.9,0.2,3.7,0.2,6.6v1h1c0.9,0,2.9,0,3.2,0.4c0.1,0.1,0.2,0.5,0,1.7
	c-0.2,1.5-0.2,1.8-2.5,1.8c-0.5,0-1.2,0-2.1-0.1l-0.8,0c-1-0.1-1.9-0.1-2.7-0.1c-0.4,0-0.9,0-1.3,0c-0.5,0-0.9,0.1-1.3,0.1
	c0,0,0,0,0,0c-1.2,0-1.3,0-1.4-1.7c-0.1-0.9,0-1.4,0.2-1.6c0.4-0.5,1.9-0.5,3.1-0.5h1v-14c0-0.7,0-1.3,0-1.9c0-0.6-0.1-1.3-0.1-2
	v-1.1l-1.1,0.1c-0.8,0.1-1.3,0.1-1.7,0.1c-0.3,0-0.7,0-0.8-0.2c-0.2-0.3-0.2-1.5-0.2-2c0-1.5,0-1.8,4-1.8c0,0,0.8,0,1.1,0
	c1.7,0,2.2,0.2,2.4,0.2c0.9,0.4,1.3,1,2.5,2.9l0.4,0.6c0.4,0.6,0.8,1.2,1.1,1.8c0.6,0.9,1.1,1.7,1.7,2.6c0.8,1.3,1.7,2.6,2.6,3.8
	c0.5,0.7,0.9,1.3,1.4,2c1.7,2.4,2.2,3.4,2.8,5.6l2-0.3l-0.2-2.1c-0.1-1.5-0.2-2.5-0.2-3.8c-0.1-1.2-0.1-1.9-0.1-2.7
	c0-0.6,0-1.3-0.1-2.4l0-4l-1,0c-0.3,0-0.6,0-0.9,0c-0.7,0-1.7,0-2-0.3c-0.3-0.2-0.4-0.8-0.4-1.8c0-1.6,0-1.8,6.2-1.8h3.1
	c2.1,0,2.2,0.1,2.2,2c0,1.9,0,1.9-2.6,1.9h-1v9.5c0,2.4,0,3.9,0.1,5.4c0,1.4,0,2.8,0,4.9C158.9,38.6,158.7,38.9,156.8,39z"/>
<path class="st0" d="M165,32.2c-2.4-6.3-1.1-14.1,2.9-18.3c1.7-1.8,4.9-3.6,8-3.7c3.2-0.2,5.9,0.8,7.4,2.7c0-2,0.9-2.6,2.5-2.7
	c2.7-0.3,3.4,0.8,2.9,4c-0.2,1.7-0.1,3.5-0.1,4.2c0,1.8-0.4,2.4-2.6,2.4c-1.5,0-1.8-0.2-3.1-2.2c-0.8-1.1-2.5-2.7-5-2.9
	c-2.4-0.1-4.1,0.7-5.5,1.8c-1.3,1.2-2.5,3-2.8,5.9c-0.3,2.8,0.1,5.6,1.7,7.9c1.3,1.8,3.4,2.9,6.1,2.8c3.6-0.2,5.2-2.3,5.5-5.1
	c-1.5,0-2.2,0-2.9,0c-1.5,0-2.9-0.3-2.9-2.1c0-3.1,0.1-3.5,8.3-3.5c2.8,0,3.3,0.6,3.3,3.6c0,8.2-4.9,13-11.9,13
	C171.3,40,167,37.4,165,32.2z"/>
<path class="st1" d="M176.8,39c-5.3,0-9.1-2.5-10.9-7.2c-2.2-5.9-1.1-13.3,2.7-17.3c1.5-1.6,4.4-3.3,7.3-3.4c0.3,0,0.5,0,0.8,0
	c2.5,0,4.6,0.9,5.8,2.3l1.8,2.3v-2.9c0-1.4,0.4-1.6,1.6-1.7c0.3,0,0.5,0,0.7,0c0.5,0,0.9,0.1,1,0.3c0.2,0.2,0.4,0.9,0.1,2.6
	c-0.2,1.5-0.1,2.9-0.1,3.8c0,0.2,0,0.4,0,0.5c0,1.3,0,1.4-1.6,1.4c-1.1,0-1.1,0-2.3-1.7c-0.7-1-2.6-3.1-5.8-3.4c-0.2,0-0.3,0-0.5,0
	c-2.1,0-4,0.6-5.7,2c-1.9,1.7-2.9,3.9-3.2,6.6c-0.4,3.4,0.3,6.3,1.9,8.6c1.5,2.1,3.8,3.2,6.6,3.2c0.1,0,0.2,0,0.4,0
	c3.8-0.2,6.1-2.3,6.5-6L184,28h-4c-1.9,0-1.9-0.6-1.9-1.1c0-2.4,0-2.5,7.3-2.5c2.1,0,2.3,0,2.3,2.6C187.7,34.4,183.5,39,176.8,39z"
	/>
</svg>
