<?xml version="1.0" encoding="utf-8"?>
<!-- Generator: Adobe Illustrator 24.1.1, SVG Export Plug-In . SVG Version: 6.00 Build 0)  -->
<svg version="1.1" id="레이어_1" xmlns="http://www.w3.org/2000/svg" xmlns:xlink="http://www.w3.org/1999/xlink" x="0px"
	 y="0px" viewBox="0 0 200 50" style="enable-background:new 0 0 200 50;" xml:space="preserve">
<style type="text/css">
	.st0{fill:#FFFFFF;}
	.st1{fill:#656EB3;}
</style>
<path class="st0" d="M-22.3-119.7c-1.7-8.1,0.9-16.3,9-19.2c0.8-0.3,2.1-0.5,3-0.6c2.6-0.2,6.5,0.7,7.7,3.1c0-2.4,0.6-3,2.8-3
	c3.8,0,2.2,3.8,2.3,6.5c0.2,3.5,0.4,5.6-2.5,5.6c-2.1,0-2.3-1.3-3.1-2.8c-1.1-2.1-2.8-3.4-5.1-3.7c-2.3-0.2-4,0.4-5.3,1.5
	c-1.5,1.2-2.7,3.4-3.1,5.7c-0.4,3.1-0.1,6.1,1.7,8.6c1.6,2.3,4.4,3.4,7.5,2.8c1.8-0.4,3.5-1.6,4.4-2.5c1.2-1.3,2.4-2.1,3.8-1.1
	c2,1.5,1.5,3.4,0.8,4.4c-1.5,2.2-5.4,5.3-12,4.9C-16.8-110-21.2-114.5-22.3-119.7z"/>
<path class="st1" d="M-9.3-110.5c-0.4,0-0.7,0-1.1,0c-6.3-0.5-10.1-5.1-11-9.4c-1.4-6.5,0-15.1,8.4-18.1c0.6-0.2,1.6-0.4,2.8-0.5
	c0.2,0,0.4,0,0.6,0c2.4,0,5.2,0.9,6.1,2.6l1.9-0.4c0-1.9,0.3-2,1.8-2c0.6,0,1,0.1,1.2,0.3c0.4,0.5,0.3,1.8,0.2,3
	c-0.1,0.7-0.2,1.5-0.1,2.2v0.3c0.1,1.8,0.2,3.4-0.3,3.9c-0.2,0.2-0.6,0.3-1.2,0.3c-1.1,0-1.3-0.4-1.8-1.5c-0.1-0.2-0.2-0.5-0.4-0.8
	c-1.3-2.4-3.3-3.9-5.9-4.2c-0.4,0-0.7,0-1,0c-2,0-3.7,0.6-5.1,1.8c-1.7,1.3-3,3.8-3.4,6.3c-0.5,3.9,0.1,6.9,1.9,9.4
	c1.5,2.1,3.9,3.4,6.7,3.4c0.6,0,1.2-0.1,1.8-0.2c2-0.5,3.9-1.8,4.9-2.8c0.8-0.9,1.4-1.3,1.8-1.3c0.2,0,0.4,0.1,0.7,0.3
	c1.6,1.2,0.9,2.5,0.6,3C-0.7-112.8-4.1-110.5-9.3-110.5z"/>
<path class="st0" d="M2.6-113.1c0-2.3,0.6-2.7,3.1-2.7c0.6-1.7,0.8-2.7,1.4-4.6c0.7-2.3,1-3.6,1.8-6.4c0.6-2.3,1-3.4,1.6-5.5
	c0.4-1.6,0.7-2.3,1.4-4.7c0.5-1.5,2.1-2.1,4.7-2.1c3.3,0,4.5,0.8,5,2.3c0.6,1.9,1,3.1,1.4,4.5c0.8,2.7,1.1,3.8,1.7,5.9
	c1.2,4.5,1.9,6.8,2.9,10.6c2.6-0.1,2.9,0.2,3,2.8c0.1,4-4.3,2.4-7.4,2.8c-2.6,0.4-4.2,0-4.3-2c-0.2-2.8,0-3.1,2.7-3.4
	c-0.4-1.1-0.7-2.2-1-3.1c-2.7,0.2-5.5,0.2-8,0.1c-0.2,0.8-0.4,1.5-0.9,3c2.5,0.3,2.7,0.7,2.7,2.9c0,2.2-0.6,2.5-6.5,2.5
	C3.1-110.1,2.6-110.3,2.6-113.1z M19.3-124c-1.6-6.8-2.1-8.2-2.6-10.9c-0.4,2.9-1.2,4.6-2.7,11C15.3-123.9,17.9-123.9,19.3-124z"/>
<path class="st1" d="M21.6-111.1c-1.5,0-1.7-0.5-1.7-1.2c-0.2-2.1-0.2-2.1,1.8-2.4l1.3-0.1l-0.4-1.2c-0.2-0.7-0.4-1.3-0.6-2
	c-0.1-0.4-0.2-0.8-0.4-1.1l-0.2-0.7l-0.8,0.1c-1.5,0.1-3,0.2-4.7,0.2c-1.1,0-2.2,0-3.2-0.1h-0.8l-0.2,0.8c-0.2,0.8-0.4,1.4-0.9,2.9
	l-0.4,1.2l1.2,0.1c1.8,0.2,1.8,0.2,1.8,1.9c0,1.3,0,1.5-5.5,1.5c-0.6,0-1.1,0-1.5,0c-2.8,0-2.8,0-2.8-1.9c0-1.6,0-1.7,2.1-1.7h0.7
	l0.2-0.7c0.4-1,0.6-1.8,0.8-2.6c0.2-0.6,0.3-1.2,0.6-2c0.4-1.4,0.7-2.4,1-3.5c0.2-0.8,0.5-1.7,0.8-2.9c0.4-1.4,0.7-2.4,1-3.4
	c0.2-0.6,0.4-1.3,0.6-2.1c0.2-0.9,0.4-1.5,0.7-2.3c0.2-0.6,0.4-1.3,0.7-2.4c0.2-0.6,0.8-1.4,3.7-1.4c3.2,0,3.8,0.8,4.1,1.6l0.4,1.4
	c0.4,1.2,0.7,2.1,1,3.1c0.6,2,0.9,3.1,1.3,4.4l0.4,1.5c0.6,2.2,1.1,3.9,1.5,5.5c0.5,1.6,0.9,3.2,1.4,5.1l0.2,0.8h0.8
	c0.2,0,0.5,0,0.7,0c1.2,0,1.2,0,1.3,1.9c0,0.6-0.1,1-0.3,1.3c-0.4,0.4-1.4,0.5-2.2,0.5c-0.4,0-0.8,0-1.2,0c-0.5,0-0.9,0-1.4,0
	s-1,0-1.4,0.1C22.5-111.1,22-111.1,21.6-111.1z M15.7-135c-0.2,1.5-0.5,2.7-1,4.5c-0.4,1.5-1,3.5-1.6,6.4l-0.3,1.2h1.3
	c1.4,0,3.9,0,5.4-0.1l1.2-0.1l-0.3-1.1c-0.7-3-1.2-5-1.6-6.5c-0.5-1.8-0.7-2.9-1-4.4L15.7-135z"/>
<path class="st0" d="M37.9-112.3c0,1-0.1,1.7-0.6,2c-0.7,0.4-4.9,0.9-4.9-1.5c0-2.1,0.1-3.6-0.2-5.7c-0.4-3.3,0-4.3,2.4-4.3
	c1.7,0,2.2,1.5,3.5,3.1c2.1,2.6,4.3,3.5,6.2,3.5c1.9,0,2.8-0.8,2.6-2.5c-0.6-3.9-14.8-6.1-14.8-14.1c0-4.8,3.8-7.6,8.4-7.6
	c2.9,0,5.3,1,6.8,2.5c0-1.9,0.6-2.2,2.7-2.3c2.7-0.2,3.1,0.7,2.9,3.8c-0.1,1.1,0,1.9,0.1,3.4c0.2,3.6-0.2,3.8-2.6,3.8
	c-1.1,0-1.7-0.5-2.9-2.1c-1.7-2.3-4.3-3.7-6.3-3.6c-1.9,0.1-2.6,1.1-2.5,2.2c0.3,3,14.8,5.4,14.8,14.1c0,5.3-3.6,8-8.3,8
	C42-109.7,39.6-110.9,37.9-112.3z"/>
<path class="st1" d="M45.2-110.6c-2.5-0.1-4.8-0.9-6.7-2.5l-1.6-1.3v2.1c0,0.9-0.1,1.1-0.1,1.2c-0.1,0-0.7,0.2-1.5,0.2
	c-0.6,0-1.2-0.1-1.5-0.3c-0.3-0.2-0.4-0.3-0.4-0.6c0-0.4,0-0.8,0-1.2c0-1.5,0-2.9-0.2-4.6c-0.1-0.6-0.3-2.4,0.1-2.9
	c0.2-0.2,0.6-0.3,1.3-0.3c0.7,0,1,0.4,1.8,1.5c0.3,0.4,0.5,0.8,0.9,1.2c2.6,3.2,5.2,3.9,7,3.9c1.3,0,2.3-0.4,2.9-1s0.8-1.5,0.7-2.6
	c-0.3-2.1-2.8-3.4-6-5.1c-4.1-2.2-8.8-4.7-8.8-8.9c0-4.6,3.7-6.6,7.4-6.6c2.5,0,4.7,0.8,6.1,2.2l1.7,1.7v-2.4c0-1.2,0-1.2,1.7-1.3
	c0.2,0,0.4,0,0.6,0c0.5,0,0.9,0.1,1,0.2c0.4,0.4,0.3,1.9,0.2,2.5c-0.1,1,0,1.7,0,2.8l0.1,0.8c0.1,1.9,0,2.5-0.1,2.6
	c-0.1,0.1-1.1,0.1-1.5,0.1c-0.6,0-0.9-0.1-2.1-1.7c-1.8-2.4-4.5-4-6.9-4c-0.1,0-0.2,0-0.3,0c-1.5,0.1-2.4,0.7-2.8,1.2
	c-0.5,0.6-0.7,1.3-0.7,2.1c0.2,1.6,2.2,2.7,5.1,4.2c4.3,2.2,9.7,4.9,9.7,9.8C52.5-113.2,49.8-110.6,45.2-110.6z"/>
<path class="st0" d="M61-113.2c0-2.1,0.7-2.5,5-2.7c0-0.8-0.1-1.4-0.1-2.1c0-1.5-0.1-2.2-0.1-3.8c0-0.9-0.1-2.5-0.1-4.5
	c0-2.7,0-3.8,0.1-5.7v-1.3c-2,0-3.5-0.1-5-0.2c0,0.8,0,1.3,0,1.9c-0.1,2.7-0.6,3.4-2.6,3.5c-3.1,0.2-3.3-0.4-2.9-4.2
	c0.2-2.4-0.8-4.9,1.3-6.3c1-0.7,3.4-0.6,4.4-0.6c2.9,0,4.8,0.1,7.4,0.3c2.1,0.1,3.4,0.1,5.8,0.1l5.1-0.1c2,0,2.5,0.5,2.5,6.8
	c0,3.9-0.3,4.2-2.7,4.2c-3,0-3.4-0.4-3.1-2.9c0.1-1,0-1.6,0-2.4c-1.7,0.1-2.6,0.1-4.4,0c-0.1,0.8-0.1,1.6-0.2,2.4
	c-0.1,2.7-0.1,4.6-0.1,7.2c0,2.7,0.1,4.8,0.2,7.5c4.7-0.1,5,0.2,4.5,4c-0.2,1.5-2.1,1.8-4.6,1.7c-2.2-0.1-4.1-0.1-6.5,0.2
	C61.9-109.9,61-110,61-113.2z"/>
<path class="st1" d="M63.2-111.1c-0.9,0-1.2,0-1.2-2.1c0-1.3,0-1.5,4-1.7h1v-1c0-0.4,0-0.8-0.1-1.2c0-0.3,0-0.6,0-0.9
	c0-0.8,0-1.3,0-1.9c0-0.6,0-1.1,0-1.9c0-0.4,0-0.9,0-1.4c0-0.8-0.1-1.9-0.1-3.1c0-2.7,0-3.8,0.1-5.6v-2.4h-1c-2,0-3.5-0.1-4.9-0.2
	l-1.1-0.1v3c-0.1,2.4-0.4,2.4-1.6,2.5c-0.3,0-0.6,0-0.9,0c-0.8,0-1-0.1-1-0.2c-0.3-0.3-0.1-2.1,0-3c0.1-0.8,0-1.5,0-2.2
	c-0.1-1.7-0.1-2.7,0.9-3.4c0.3-0.2,1-0.4,3-0.4h0.8c2.9,0,4.8,0.1,7.3,0.3c2.2,0.1,3.5,0.1,5.9,0.1l5.1-0.1c1.1,0,1.5,0,1.5,5.8
	c0,3.2,0,3.2-1.7,3.2c-1.6,0-2-0.2-2.1-0.2c0,0-0.2-0.3,0-1.5c0.1-0.8,0.1-1.3,0-1.8c0-0.2,0-0.5,0-0.7v-1.1l-1.1,0.1
	c-0.8,0-1.5,0.1-2.1,0.1s-1.3,0-2.2-0.1l-0.9-0.1l-0.1,0.9c-0.1,0.4-0.1,0.8-0.1,1.3c0,0.4,0,0.8-0.1,1.1c-0.1,2.8-0.1,4.7-0.1,7.3
	c0,2.3,0.1,4.2,0.2,6.3l0.1,2.2h1c0.4,0,0.8,0,1.2,0c1.4,0,2.2,0.1,2.4,0.3c0.3,0.3,0.1,1.8,0,2.6c-0.1,0.7-1.6,0.8-2.8,0.8
	c-0.3,0-0.5,0-0.8,0c-0.8,0-1.6-0.1-2.4-0.1c-1.5,0-2.8,0.1-4.3,0.3C64.2-111.1,63.7-111.1,63.2-111.1z"/>
<path class="st0" d="M82.8-113.2c0.1-1.6,0.6-2.4,4.4-2.5c0.3-8.2,0.4-11.6,0-17.4c-3.6-0.3-4.3-0.6-4.4-2.7c-0.1-2.9,0.6-3.3,4-3
	c2.3,0.2,4,0.2,6.1,0c3.4-0.3,4.4-0.1,4.4,2.7c0,2.4-0.7,2.8-4.4,3.1c0.3,5.9,0.3,9.1,0.1,17.2c3.1-0.6,4.1-0.2,4.2,2.4
	c0.2,2.7-0.5,3.2-3.1,3.2c-1.6,0-2.6,0-4.7,0C83.2-110.3,82.6-111,82.8-113.2z"/>
<path class="st1" d="M89.4-111.2c-1.3,0-4.9-0.1-5.5-0.8c-0.1-0.2-0.2-0.5-0.1-1.1c0.1-1,0.1-1.5,3.4-1.6h0.9v-0.9
	c0.3-8.1,0.4-11.6,0-17.5L88-134l-0.9-0.1c-3.4-0.3-3.4-0.5-3.5-1.8c0-1,0-1.6,0.2-1.8c0.1-0.1,0.4-0.2,1.2-0.2c0.4,0,0.8,0,1.5,0.1
	c1.2,0.1,2.2,0.2,3.2,0.2s2,0,3.1-0.2c0.8-0.1,1.3-0.1,1.7-0.1c1.3,0,1.6,0.1,1.6,1.8c0,1.6,0,1.8-3.5,2.1l-1,0.1v1
	c0.3,6,0.3,9.2,0.1,17.1v1.2l1.2-0.2c0.8-0.2,1.4-0.2,1.8-0.2c0.7,0,1.1,0,1.2,1.7c0.1,1.3,0,1.7-0.2,1.8c-0.3,0.3-1.5,0.3-1.9,0.3
	C93.8-111.2,89.4-111.2,89.4-111.2z"/>
<path class="st0" d="M118.2-113c-1.3-1.8-2.3-3.2-3.5-5c-1-1.5-3.2-4.8-4.6-6.8c-0.9-1.3-1.5-2.7-2.3-5.1c0.4,2.6,0.5,5,0.6,7.3
	c0.2,2.9,0.2,3.8,0.2,6.7c3.9,0,4.6,0.3,4.2,3.2c-0.3,2.5-1,2.9-5.6,2.6c-1.9-0.1-3.2-0.2-4.6-0.1c-3,0.2-3.6,0-3.8-2.6
	c-0.3-2.6,0.6-3.2,4.2-3.2c0-2.6,0-3.2,0-6c0-2.9,0-4,0-7c0-1.3-0.1-2.5-0.1-3.9c-3.5,0.4-3.9,0.1-3.9-3c0-2.3,0.7-2.8,5-2.8
	c0.7,0,3-0.1,3.9,0.3c1.3,0.6,1.8,1.5,3.3,3.8c1,1.5,1.8,2.9,2.8,4.3c1.3,2.1,2.7,3.9,4,5.8c1.7,2.5,2.3,3.6,2.9,5.9
	c-0.2-2.9-0.3-4.1-0.4-6c-0.1-2.3-0.1-2.7-0.2-5.1c0-1,0-2,0-3c-3.3,0.1-4.3-0.2-4.3-3.1c0-2.4,0.3-2.8,7.2-2.8h3.1
	c2.6,0,3.2,0.4,3.2,3c0,2.5-0.5,2.9-3.6,2.9v2.9c0,2.3,0,3.3,0,5.6c0,4.6,0.1,6.1,0.1,10.3c0,2.9-0.2,4.3-3.1,4.4
	C121.1-109.6,120.3-110.1,118.2-113z"/>
<path class="st1" d="M122.9-110.5c-1.3-0.1-1.9-0.3-3.9-3.1c-1.2-1.7-2.2-3.1-3.5-5c-1.1-1.6-3.2-4.8-4.6-6.8
	c-0.8-1.1-1.4-2.4-2.2-4.8l-1.9,0.5c0.4,2.5,0.5,4.9,0.6,7.1v0.1c0.2,2.9,0.2,3.7,0.2,6.6v1h1c0.9,0,2.9,0,3.2,0.4
	c0.1,0.1,0.2,0.5,0,1.7c-0.2,1.5-0.2,1.8-2.5,1.8c-0.5,0-1.2,0-2.1-0.1h-0.8c-1-0.1-1.9-0.1-2.7-0.1c-0.4,0-0.9,0-1.3,0
	c-0.5,0-0.9,0.1-1.3,0.1l0,0c-1.2,0-1.3,0-1.4-1.7c-0.1-0.9,0-1.4,0.2-1.6c0.4-0.5,1.9-0.5,3.1-0.5h1v-14c0-0.7,0-1.3,0-1.9
	c0-0.6-0.1-1.3-0.1-2v-1.1l-1.1,0.1c-0.8,0.1-1.3,0.1-1.7,0.1c-0.3,0-0.7,0-0.8-0.2c-0.2-0.3-0.2-1.5-0.2-2c0-1.5,0-1.8,4-1.8
	c0,0,0.8,0,1.1,0c1.7,0,2.2,0.2,2.4,0.2c0.9,0.4,1.3,1,2.5,2.9l0.4,0.6c0.4,0.6,0.8,1.2,1.1,1.8c0.6,0.9,1.1,1.7,1.7,2.6
	c0.8,1.3,1.7,2.6,2.6,3.8c0.5,0.7,0.9,1.3,1.4,2c1.7,2.4,2.2,3.4,2.8,5.6l2-0.3l-0.2-2.1c-0.1-1.5-0.2-2.5-0.2-3.8
	c-0.1-1.2-0.1-1.9-0.1-2.7c0-0.6,0-1.3-0.1-2.4v-4h-1c-0.3,0-0.6,0-0.9,0c-0.7,0-1.7,0-2-0.3c-0.3-0.2-0.4-0.8-0.4-1.8
	c0-1.6,0-1.8,6.2-1.8h3.1c2.1,0,2.2,0.1,2.2,2c0,1.9,0,1.9-2.6,1.9h-1v9.5c0,2.4,0,3.9,0.1,5.4c0,1.4,0,2.8,0,4.9
	C125-110.9,124.8-110.6,122.9-110.5z"/>
<path class="st0" d="M131.1-117.3c-2.4-6.3-1.1-14.1,2.9-18.3c1.7-1.8,4.9-3.6,8-3.7c3.2-0.2,5.9,0.8,7.4,2.7c0-2,0.9-2.6,2.5-2.7
	c2.7-0.3,3.4,0.8,2.9,4c-0.2,1.7-0.1,3.5-0.1,4.2c0,1.8-0.4,2.4-2.6,2.4c-1.5,0-1.8-0.2-3.1-2.2c-0.8-1.1-2.5-2.7-5-2.9
	c-2.4-0.1-4.1,0.7-5.5,1.8c-1.3,1.2-2.5,3-2.8,5.9c-0.3,2.8,0.1,5.6,1.7,7.9c1.3,1.8,3.4,2.9,6.1,2.8c3.6-0.2,5.2-2.3,5.5-5.1
	c-1.5,0-2.2,0-2.9,0c-1.5,0-2.9-0.3-2.9-2.1c0-3.1,0.1-3.5,8.3-3.5c2.8,0,3.3,0.6,3.3,3.6c0,8.2-4.9,13-11.9,13
	C137.4-109.5,133.1-112.1,131.1-117.3z"/>
<path class="st1" d="M142.9-110.5c-5.3,0-9.1-2.5-10.9-7.2c-2.2-5.9-1.1-13.3,2.7-17.3c1.5-1.6,4.4-3.3,7.3-3.4c0.3,0,0.5,0,0.8,0
	c2.5,0,4.6,0.9,5.8,2.3l1.8,2.3v-2.9c0-1.4,0.4-1.6,1.6-1.7c0.3,0,0.5,0,0.7,0c0.5,0,0.9,0.1,1,0.3c0.2,0.2,0.4,0.9,0.1,2.6
	c-0.2,1.5-0.1,2.9-0.1,3.8c0,0.2,0,0.4,0,0.5c0,1.3,0,1.4-1.6,1.4c-1.1,0-1.1,0-2.3-1.7c-0.7-1-2.6-3.1-5.8-3.4c-0.2,0-0.3,0-0.5,0
	c-2.1,0-4,0.6-5.7,2c-1.9,1.7-2.9,3.9-3.2,6.6c-0.4,3.4,0.3,6.3,1.9,8.6c1.5,2.1,3.8,3.2,6.6,3.2c0.1,0,0.2,0,0.4,0
	c3.8-0.2,6.1-2.3,6.5-6l0.1-1h-4c-1.9,0-1.9-0.6-1.9-1.1c0-2.4,0-2.5,7.3-2.5c2.1,0,2.3,0,2.3,2.6
	C153.8-115.1,149.6-110.5,142.9-110.5z"/>
<g>
	<path class="st0" d="M55.6,47c-0.4,0-0.6,0-1,0c-5.6-0.4-8.9-4.5-9.7-8.3c-1.2-5.7,0-13.4,7.4-16c0.5-0.2,1.4-0.4,2.5-0.4
		c0.2,0,0.4,0,0.5,0c2.1,0,4.6,0.8,5.4,2.3l1.7-0.4c0-1.7,0.3-1.8,1.6-1.8c0.5,0,0.9,0.1,1.1,0.3c0.4,0.4,0.3,1.6,0.2,2.7
		c-0.1,0.6-0.2,1.3-0.1,1.9v0.3c0.1,1.6,0.2,3-0.3,3.4c-0.2,0.2-0.5,0.3-1.1,0.3c-1,0-1.1-0.4-1.6-1.3c-0.1-0.2-0.2-0.4-0.4-0.7
		c-1.1-2.1-2.9-3.4-5.2-3.7c-0.4,0-0.6,0-0.9,0c-1.8,0-3.3,0.5-4.5,1.6c-1.5,1.1-2.7,3.4-3,5.6c-0.4,3.4,0.1,6.1,1.7,8.3
		c1.3,1.9,3.4,3,5.9,3c0.5,0,1.1-0.1,1.6-0.2c1.8-0.4,3.4-1.6,4.3-2.5c0.7-0.8,1.2-1.1,1.6-1.1c0.2,0,0.4,0.1,0.6,0.3
		c1.4,1.1,0.8,2.2,0.5,2.7C63.2,45,60.2,47,55.6,47z"/>
	<path class="st0" d="M83,46.5c-1.3,0-1.5-0.4-1.5-1.1c-0.2-1.9-0.2-1.9,1.6-2.1l1.1-0.1l-0.4-1.1c-0.2-0.6-0.4-1.1-0.5-1.8
		c-0.1-0.4-0.2-0.7-0.4-1l-0.2-0.6l-0.7,0.1C80.7,39,79.4,39,77.9,39c-1,0-1.9,0-2.8-0.1h-0.7l-0.2,0.7c-0.2,0.7-0.4,1.2-0.8,2.6
		L73,43.3l1.1,0.1c1.6,0.2,1.6,0.2,1.6,1.7c0,1.1,0,1.3-4.9,1.3c-0.5,0-1,0-1.3,0c-2.5,0-2.5,0-2.5-1.7c0-1.4,0-1.5,1.9-1.5h0.6
		l0.2-0.6c0.4-0.9,0.5-1.6,0.7-2.3c0.2-0.5,0.3-1.1,0.5-1.8c0.4-1.2,0.6-2.1,0.9-3.1c0.2-0.7,0.4-1.5,0.7-2.6c0.4-1.2,0.6-2.1,0.9-3
		c0.2-0.5,0.4-1.1,0.5-1.9c0.2-0.8,0.4-1.3,0.6-2c0.2-0.5,0.4-1.1,0.6-2.1c0.2-0.5,0.7-1.2,3.3-1.2c2.8,0,3.4,0.7,3.6,1.4l0.4,1.2
		c0.4,1.1,0.6,1.9,0.9,2.7c0.5,1.8,0.8,2.7,1.1,3.9l0.4,1.3c0.5,1.9,1,3.4,1.3,4.9c0.4,1.4,0.8,2.8,1.2,4.5l0.2,0.7h0.7
		c0.2,0,0.4,0,0.6,0c1.1,0,1.1,0,1.1,1.7c0,0.5-0.1,0.9-0.3,1.1c-0.4,0.4-1.2,0.4-1.9,0.4c-0.4,0-0.7,0-1.1,0c-0.4,0-0.8,0-1.2,0
		s-0.9,0-1.2,0.1C83.7,46.5,83.3,46.5,83,46.5z M77.7,25.3c-0.2,1.3-0.4,2.4-0.9,4c-0.4,1.3-0.9,3.1-1.4,5.7L75.2,36h1.1
		c1.2,0,3.4,0,4.8-0.1l1.1-0.1l-0.3-1c-0.6-2.7-1.1-4.4-1.4-5.7c-0.4-1.6-0.6-2.6-0.9-3.9L77.7,25.3z"/>
	<path class="st0" d="M103.8,46.9c-2.2-0.1-4.2-0.8-5.9-2.2l-1.4-1.1v1.9c0,0.8-0.1,1-0.1,1.1c-0.1,0-0.6,0.2-1.3,0.2
		c-0.5,0-1.1-0.1-1.3-0.3s-0.4-0.3-0.4-0.5c0-0.4,0-0.7,0-1.1c0-1.3,0-2.6-0.2-4.1c-0.1-0.5-0.3-2.1,0.1-2.6
		c0.2-0.2,0.5-0.3,1.1-0.3c0.6,0,0.9,0.4,1.6,1.3c0.3,0.4,0.4,0.7,0.8,1.1c2.3,2.8,4.6,3.4,6.2,3.4c1.1,0,2-0.4,2.6-0.9
		c0.5-0.5,0.7-1.3,0.6-2.3c-0.3-1.9-2.5-3-5.3-4.5c-3.6-1.9-7.8-4.2-7.8-7.9c0-4.1,3.3-5.8,6.5-5.8c2.2,0,4.2,0.7,5.4,1.9l1.5,1.5
		v-2.1c0-1.1,0-1.1,1.5-1.1c0.2,0,0.4,0,0.5,0c0.4,0,0.8,0.1,0.9,0.2c0.4,0.4,0.3,1.7,0.2,2.2c-0.1,0.9,0,1.5,0,2.5l0.1,0.7
		c0.1,1.7,0,2.2-0.1,2.3s-1,0.1-1.3,0.1c-0.5,0-0.8-0.1-1.9-1.5c-1.6-2.1-4-3.5-6.1-3.5c-0.1,0-0.2,0-0.3,0
		c-1.3,0.1-2.1,0.6-2.5,1.1C97.2,27,97,27.6,97,28.3c0.2,1.4,1.9,2.4,4.5,3.7c3.8,1.9,8.6,4.3,8.6,8.7
		C110.3,44.6,107.9,46.9,103.8,46.9z"/>
	<path class="st0" d="M119.7,46.5c-0.8,0-1.1,0-1.1-1.9c0-1.1,0-1.3,3.5-1.5h0.9v-0.9c0-0.4,0-0.7-0.1-1.1c0-0.3,0-0.5,0-0.8
		c0-0.7,0-1.1,0-1.7s0-1,0-1.7c0-0.4,0-0.8,0-1.2c0-0.7-0.1-1.7-0.1-2.7c0-2.4,0-3.4,0.1-5V26h-0.9c-1.8,0-3.1-0.1-4.3-0.2l-1-0.1
		v2.7c-0.1,2.1-0.4,2.1-1.4,2.2c-0.3,0-0.5,0-0.8,0c-0.7,0-0.9-0.1-0.9-0.2c-0.3-0.3-0.1-1.9,0-2.7c0.1-0.7,0-1.3,0-1.9
		c-0.1-1.5-0.1-2.4,0.8-3c0.3-0.2,0.9-0.4,2.7-0.4h0.7c2.6,0,4.2,0.1,6.5,0.3c1.9,0.1,3.1,0.1,5.2,0.1l4.5-0.1c1,0,1.3,0,1.3,5.1
		c0,2.8,0,2.8-1.5,2.8c-1.4,0-1.8-0.2-1.9-0.2c0,0-0.2-0.3,0-1.3c0.1-0.7,0.1-1.1,0-1.6c0-0.2,0-0.4,0-0.6v-1l-1,0.1
		c-0.7,0-1.3,0.1-1.9,0.1c-0.5,0-1.1,0-1.9-0.1l-0.8-0.1l-0.1,0.8c-0.1,0.4-0.1,0.7-0.1,1.1c0,0.4,0,0.7-0.1,1
		c-0.1,2.5-0.1,4.2-0.1,6.5c0,2,0.1,3.7,0.2,5.6l0.1,1.9h0.9c0.4,0,0.7,0,1.1,0c1.2,0,1.9,0.1,2.1,0.3c0.3,0.3,0.1,1.6,0,2.3
		c-0.1,0.6-1.4,0.7-2.5,0.7c-0.3,0-0.4,0-0.7,0c-0.7,0-1.4-0.1-2.1-0.1c-1.3,0-2.5,0.1-3.8,0.3C120.6,46.5,120.2,46.5,119.7,46.5z"
		/>
	<path class="st0" d="M142.9,46.4c-1.1,0-4.3-0.1-4.9-0.7c-0.1-0.2-0.2-0.4-0.1-1c0.1-0.9,0.1-1.3,3-1.4h0.8v-0.8
		c0.3-7.2,0.4-10.3,0-15.5l-0.1-0.8l-0.8-0.1c-3-0.3-3-0.4-3.1-1.6c0-0.9,0-1.4,0.2-1.6c0.1-0.1,0.4-0.2,1.1-0.2
		c0.4,0,0.7,0,1.3,0.1c1.1,0.1,1.9,0.2,2.8,0.2c0.9,0,1.8,0,2.7-0.2c0.7-0.1,1.1-0.1,1.5-0.1c1.1,0,1.4,0.1,1.4,1.6
		c0,1.4,0,1.6-3.1,1.9l-0.9,0.1v0.9c0.3,5.3,0.3,8.1,0.1,15.1v1.1l1.1-0.2c0.7-0.2,1.2-0.2,1.6-0.2c0.6,0,1,0,1.1,1.5
		c0.1,1.1,0,1.5-0.2,1.6c-0.3,0.3-1.3,0.3-1.7,0.3C146.8,46.4,142.9,46.4,142.9,46.4z"/>
	<path class="st0" d="M172.5,47c-1.1-0.1-1.7-0.3-3.4-2.7c-1.1-1.5-1.9-2.7-3.1-4.4c-1-1.4-2.8-4.2-4.1-6c-0.7-1-1.2-2.1-1.9-4.2
		l-1.7,0.4c0.4,2.2,0.4,4.3,0.5,6.3v0.1c0.2,2.6,0.2,3.3,0.2,5.8v0.9h0.9c0.8,0,2.6,0,2.8,0.4c0.1,0.1,0.2,0.4,0,1.5
		c-0.2,1.3-0.2,1.6-2.2,1.6c-0.4,0-1.1,0-1.9-0.1h-0.7c-0.9-0.1-1.7-0.1-2.4-0.1c-0.4,0-0.8,0-1.1,0c-0.4,0-0.8,0.1-1.1,0.1l0,0
		c-1.1,0-1.1,0-1.2-1.5c-0.1-0.8,0-1.2,0.2-1.4c0.4-0.4,1.7-0.4,2.7-0.4h0.9V30.7c0-0.6,0-1.1,0-1.7s-0.1-1.1-0.1-1.8v-1l-1,0.1
		c-0.7,0.1-1.1,0.1-1.5,0.1c-0.3,0-0.6,0-0.7-0.2c-0.2-0.3-0.2-1.3-0.2-1.8c0-1.3,0-1.6,3.5-1.6c0,0,0.7,0,1,0
		c1.5,0,1.9,0.2,2.1,0.2c0.8,0.4,1.1,0.9,2.2,2.6l0.4,0.5c0.4,0.5,0.7,1.1,1,1.6c0.5,0.8,1,1.5,1.5,2.3c0.7,1.1,1.5,2.3,2.3,3.4
		c0.4,0.6,0.8,1.1,1.2,1.8c1.5,2.1,1.9,3,2.5,5l1.8-0.3l-0.2-1.9c-0.1-1.3-0.2-2.2-0.2-3.4c-0.1-1.1-0.1-1.7-0.1-2.4
		c0-0.5,0-1.1-0.1-2.1v-3.5h-0.9c-0.3,0-0.5,0-0.8,0c-0.6,0-1.5,0-1.8-0.3c-0.3-0.2-0.4-0.7-0.4-1.6c0-1.4,0-1.6,5.5-1.6h2.7
		c1.9,0,1.9,0.1,1.9,1.8c0,1.7,0,1.7-2.3,1.7h-0.9v8.4c0,2.1,0,3.4,0.1,4.8c0,1.2,0,2.5,0,4.3C174.4,46.6,174.2,46.9,172.5,47z"/>
	<path class="st0" d="M190.2,47c-4.7,0-8-2.2-9.6-6.4c-1.9-5.2-1-11.8,2.4-15.3c1.3-1.4,3.9-2.9,6.5-3c0.3,0,0.4,0,0.7,0
		c2.2,0,4.1,0.8,5.1,2l1.6,2v-2.6c0-1.2,0.4-1.4,1.4-1.5c0.3,0,0.4,0,0.6,0c0.4,0,0.8,0.1,0.9,0.3c0.2,0.2,0.4,0.8,0.1,2.3
		c-0.2,1.3-0.1,2.6-0.1,3.4c0,0.2,0,0.4,0,0.4c0,1.1,0,1.2-1.4,1.2c-1,0-1,0-2-1.5c-0.6-0.9-2.3-2.7-5.1-3c-0.2,0-0.3,0-0.4,0
		c-1.9,0-3.5,0.5-5,1.8c-1.7,1.5-2.6,3.4-2.8,5.8c-0.4,3,0.3,5.6,1.7,7.6c1.3,1.9,3.4,2.8,5.8,2.8c0.1,0,0.2,0,0.4,0
		c3.4-0.2,5.4-2,5.7-5.3l0.1-0.9h-3.5c-1.7,0-1.7-0.5-1.7-1c0-2.1,0-2.2,6.5-2.2c1.9,0,2,0,2,2.3C199.9,42.9,196.2,47,190.2,47z"/>
</g>
</svg>
