<?xml version="1.0" encoding="utf-8"?>
<!-- Generator: Adobe Illustrator 27.7.0, SVG Export Plug-In . SVG Version: 6.00 Build 0)  -->
<svg version="1.1" id="레이어_1" xmlns="http://www.w3.org/2000/svg" xmlns:xlink="http://www.w3.org/1999/xlink" x="0px"
	 y="0px" viewBox="0 0 358.5 177.7" style="enable-background:new 0 0 358.5 177.7;" xml:space="preserve">
<style type="text/css">
	.st0{fill:#FFFFFF;}
	.st1{fill:#CCE1F5;}
</style>
<g>
	<path class="st0" d="M93.2,109.6c-0.6-12.7-10.3-23.5-23.5-23.5c-12.3,0-24.1,10.8-23.5,23.5c0.6,12.7,10.3,23.5,23.5,23.5
		C82,133.1,93.8,122.3,93.2,109.6z"/>
	<path class="st0" d="M328.9,93.7c-8.4,0-16.4,7.4-16,16c0.4,8.7,7,16,16,16c8.4,0,16.4-7.4,16-16C344.5,101,337.8,93.7,328.9,93.7z
		"/>
	<path class="st0" d="M336.5,105.8c-0.7-12.9-11.8-22.3-26.8-22.9c-1.1,0-2.2-0.1-3.2-0.2c-0.3,0-0.5,0-0.7,0
		c-1.6-0.3-3.4-0.9-3.9-1c-5-1.1-9.8-2.4-14.7-3.7c-8.9-2.4-17.9-4.7-26.8-7.1c-18.2-4.8-36.5-9.7-54.7-14.5
		c-11.9-3.1-23-6.7-35.7-4.5c-9.7,1.7-16,7.3-24.3,11.2c-0.4,0.2-1.5,0.5-2.1,0.8c-1.1,0.3-2.2,0.6-3.3,0.9
		c-1.8,0.4-3.5,0.8-5.3,1.1c-0.5,0.1-1.1,0.2-1.6,0.3c-3.6-0.3-7.9,0.6-11.6,0.7c-4,0.1-8.1,0-12.1-0.1c-21.3-0.6-43.4-1.7-63.7,5
		c-6.7,2.2-12.3,5.1-16,10.5c-3.4,4.9-4.8,12.1-2.7,17.6c4.1,10.9,19,20.6,33,16c3.8-1.2,7.7-2.3,11.6-3c0.4-0.1,0.9-0.1,1.3-0.2
		c1.4,0,6.1-0.5,6.7-0.5c8.6-0.4,17.2,0,25.7,0.2c17.1,0.5,35.2,0.5,51.6-4.2c8.7-2.5,16.4-5.9,23.8-10.4c3.1,0.8,6.3,1.5,9.4,2.4
		c17.9,4.7,35.7,9.5,53.6,14.2c21.3,5.7,43.2,13.3,65.7,14.2C323.7,129.3,337.1,117.8,336.5,105.8z"/>
	<path class="st0" d="M51,119.2c2.3-4.3,5.9-8.4,10-11.3c7.9-5.7,19.6-9.2,30.8-9.2c8.2,0,15.6,1.6,22,4.4c0.7-1.4,1.6-2.8,2.6-4.1
		c2.9-6.5,7.9-12.1,14.9-16.8c13.1-9.5,32.5-15.3,50.9-15.3c19.5,0,36.8,5.9,50.9,15.3c4,2.6,7.3,5.6,10,8.9c3.3-0.6,6.7-0.9,10-0.9
		c14.5,0,26.7,5.1,34.5,12.8c2.6-0.4,5.3-0.6,7.9-0.6c19.6,0,35.1,9.3,41,21.8c4.1-1.8,7.6-4,10.1-7.7c2.9-4.3,4.2-10.6,2.4-15.5
		c-3-7.9-12.6-15.3-22.9-15c-3.8-17.5-20.7-31.4-42.7-31.4c-2.6,0-5.3,0.2-7.9,0.7c-7.8-9.1-20-15.1-34.5-15.1
		c-3.3,0-6.7,0.4-10,1.1c-2.8-3.8-6.1-7.4-10-10.5c-14.1-11-31.4-18-50.9-18c-18.5,0-37.9,6.9-50.9,18c-7,5.6-12,12.2-14.9,19.8
		c-1,1.6-1.8,3.2-2.6,4.9c-6.4-3.3-13.8-5.2-22-5.2c-11.2,0-22.9,4.1-30.8,10.9c-4.1,3.5-7.7,8.3-10,13.4c-0.9-0.1-1.8-0.1-2.7-0.1
		C21.8,74.3,8,85.1,8.7,97.7c0.7,12.7,12.1,23.5,27.5,23.5c0.1,0,0.2,0,0.3,0c3.7-1.3,7.8-2.1,11.9-2.1
		C49.3,119.1,50.1,119.1,51,119.2z"/>
	<path class="st1" d="M72.9,136c8.6,0,17-3.9,22.2-9.7c3.1,8.2,8.3,15.8,15.8,21.8c13.2,10.3,29.4,16.9,47.7,16.9
		c17.3,0,35.5-6.4,47.7-16.9c5.9-5,11-11.7,14.6-18.8c1.1,0.8,2.4,1.5,3.8,2.1c18.2,7.3,37.1,9.3,57,7.1c17.7-2,34.1-7.1,50.7-12.7
		c1.4-0.5,2.7-0.9,3.9-1.5c-5.9-12.5-21.4-21.8-41-21.8c-2.6,0-5.3,0.2-7.9,0.6c-7.8-7.7-20-12.8-34.5-12.8c-3.3,0-6.7,0.3-10,0.9
		c-2.8-3.2-6.1-6.2-10-8.9c-14.1-9.4-31.4-15.3-50.9-15.3c-18.5,0-37.9,5.8-50.9,15.3c-7,4.7-12,10.3-14.9,16.8
		c-1,1.3-1.8,2.7-2.6,4.1c-6.4-2.8-13.8-4.4-22-4.4c-11.2,0-22.9,3.5-30.8,9.2c-4.1,3-7.7,7-10,11.3c-0.9-0.1-1.8-0.1-2.7-0.1
		c-4.1,0-8.2,0.8-11.9,2.1c3.6,0,7.1-0.7,10.4-2C50.4,128.8,60.3,136,72.9,136z"/>
</g>
</svg>
