<?xml version="1.0" encoding="utf-8"?>
<!-- Generator: Adobe Illustrator 27.7.0, SVG Export Plug-In . SVG Version: 6.00 Build 0)  -->
<svg version="1.1" id="레이어_1" xmlns="http://www.w3.org/2000/svg" xmlns:xlink="http://www.w3.org/1999/xlink" x="0px"
	 y="0px" viewBox="0 0 1056.7 676.6" style="enable-background:new 0 0 1056.7 676.6;" xml:space="preserve">
<style type="text/css">
	.st0{fill:#808080;}
	.st1{fill:#F4E8BD;}
	.st2{fill:#656EB2;}
	.st3{fill:none;stroke:#D19B90;stroke-miterlimit:10;}
	.st4{fill:#FCD2C0;}
	.st5{fill:none;stroke:#EDAE9D;stroke-miterlimit:10;}
	.st6{fill:none;stroke:#D5646D;stroke-width:2;stroke-miterlimit:10;}
	.st7{fill:none;stroke:#656EB2;stroke-width:2;stroke-miterlimit:10;}
	.st8{fill:#EDAE9D;}
	.st9{fill:url(#SVGID_1_);}
	.st10{fill:none;stroke:#EEB6AC;stroke-width:2;stroke-miterlimit:10;}
	.st11{fill:none;stroke:#F4E8BD;stroke-width:2;stroke-miterlimit:10;}
	.st12{fill:#EEB6AC;}
	.st13{fill:#D5646D;}
	.st14{fill:url(#SVGID_00000013180009832695973500000005047464715110110348_);}
	.st15{fill:#89333A;}
	.st16{clip-path:url(#SVGID_00000147899641493205525360000002359329583685543349_);fill:#89333A;}
	.st17{clip-path:url(#SVGID_00000063591843390552841880000009296672622361938078_);fill:#89333A;}
	.st18{clip-path:url(#SVGID_00000040571228717434455880000010306215529652834747_);fill:#89333A;}
	.st19{clip-path:url(#SVGID_00000119108690640107770700000016294649090317620132_);fill:#89333A;}
	.st20{clip-path:url(#SVGID_00000116233297842671374210000009213386697768599424_);fill:#89333A;}
	.st21{clip-path:url(#SVGID_00000070829269739465406170000010511453520288101505_);fill:#89333A;}
	.st22{clip-path:url(#SVGID_00000061436338966799690640000016671446287932852654_);fill:#89333A;}
	.st23{clip-path:url(#SVGID_00000111894328219642603550000013925156588274828421_);}
	.st24{clip-path:url(#SVGID_00000001624642111649861180000010661099752138622089_);}
	.st25{clip-path:url(#SVGID_00000011745837008458211010000015681024292866418309_);}
	.st26{clip-path:url(#SVGID_00000065069738755447102220000009198829733853991090_);}
	.st27{clip-path:url(#SVGID_00000166673787332097080180000000837146728661159309_);}
	.st28{clip-path:url(#SVGID_00000052783713381255031260000002609651885517062794_);}
	.st29{clip-path:url(#SVGID_00000091700232763266623420000011752133333271275924_);}
	.st30{fill:#EFB7AD;}
	.st31{fill:#93673A;}
	.st32{fill:#5B5C5F;}
	.st33{fill:#D8AAA4;}
	.st34{fill:#C6606C;}
	.st35{fill:none;}
</style>
<g>
	<g>
		<path class="st0" d="M296.6,92.4l-26.6,0c-5.6,0-10.2-3-10.2-6.7l0-5.7c0-3.7,4.6-6.7,10.2-6.7l26.6,0c5.6,0,10.2,3,10.2,6.7v5.7
			C306.8,89.4,302.2,92.4,296.6,92.4z M270,76c-3.4,0-6.1,1.8-6.1,4l0,5.7c0,2.2,2.7,4,6.1,4l26.6,0c3.4,0,6.1-1.8,6.1-4V80
			c0-2.2-2.7-4-6.1-4L270,76z"/>
	</g>
</g>
<g>
	<g>
		<path class="st0" d="M331.6,86.9l-26.8,0c-5.7,0-10.3-1.3-10.3-2.9v-2.4c0-1.6,4.6-2.9,10.3-2.9h26.8c5.7,0,10.3,1.3,10.3,2.9V84
			C341.9,85.6,337.3,86.9,331.6,86.9z M304.8,79.9c-3.4,0-6.2,0.8-6.2,1.7l0,2.4c0,0.9,2.8,1.7,6.2,1.7h26.8c3.4,0,6.2-0.8,6.2-1.7
			l0-2.4c0-0.9-2.8-1.7-6.2-1.7H304.8z"/>
	</g>
</g>
<g>
	<g>
		<path class="st0" d="M367.1,92.4l-26.6,0c-5.6,0-10.2-3-10.2-6.7V80c0-3.7,4.6-6.7,10.2-6.7l26.6,0c5.6,0,10.2,3,10.2,6.7v5.7
			C377.3,89.4,372.7,92.4,367.1,92.4z M340.5,76c-3.4,0-6.1,1.8-6.1,4v5.7c0,2.2,2.7,4,6.1,4l26.6,0c3.4,0,6.1-1.8,6.1-4V80
			c0-2.2-2.7-4-6.1-4L340.5,76z"/>
	</g>
</g>
<g>
	<g>
		<path class="st0" d="M402.1,86.9l-26.8,0c-5.7,0-10.3-1.3-10.3-2.9v-2.4c0-1.6,4.6-2.9,10.3-2.9h26.8c5.7,0,10.3,1.3,10.3,2.9
			l0,2.4C412.4,85.6,407.8,86.9,402.1,86.9z M375.3,79.9c-3.4,0-6.2,0.8-6.2,1.7V84c0,0.9,2.8,1.7,6.2,1.7h26.8
			c3.4,0,6.2-0.8,6.2-1.7v-2.4c0-0.9-2.8-1.7-6.2-1.7H375.3z"/>
	</g>
</g>
<g>
	<g>
		<path class="st0" d="M508,91.9l-26.6,0c-5.6,0-10.2-3-10.2-6.7v-5.7c0-3.7,4.6-6.7,10.2-6.7l26.6,0c5.6,0,10.2,3,10.2,6.7l0,5.7
			C518.3,88.9,513.7,91.9,508,91.9z M481.5,75.5c-3.4,0-6.1,1.8-6.1,4v5.7c0,2.2,2.7,4,6.1,4l26.6,0c3.4,0,6.1-1.8,6.1-4v-5.7
			c0-2.2-2.7-4-6.1-4L481.5,75.5z"/>
	</g>
</g>
<g>
	<g>
		<path class="st0" d="M543.1,86.4l-26.8,0c-5.7,0-10.3-1.3-10.3-2.9v-2.4c0-1.6,4.6-2.9,10.3-2.9h26.8c5.7,0,10.3,1.3,10.3,2.9
			l0,2.4C553.4,85.1,548.8,86.4,543.1,86.4z M516.3,79.4c-3.4,0-6.2,0.8-6.2,1.7v2.4c0,0.9,2.8,1.7,6.2,1.7h26.8
			c3.4,0,6.2-0.8,6.2-1.7v-2.4c0-0.9-2.8-1.7-6.2-1.7L516.3,79.4z"/>
	</g>
</g>
<g>
	<g>
		<path class="st0" d="M578.5,91.9l-26.6,0c-5.6,0-10.2-3-10.2-6.7v-5.7c0-3.7,4.6-6.7,10.2-6.7l26.6,0c5.6,0,10.2,3,10.2,6.7v5.7
			C588.7,88.9,584.2,91.9,578.5,91.9z M552,75.5c-3.4,0-6.1,1.8-6.1,4v5.7c0,2.2,2.7,4,6.1,4l26.6,0c3.4,0,6.1-1.8,6.1-4v-5.7
			c0-2.2-2.7-4-6.1-4L552,75.5z"/>
	</g>
</g>
<g>
	<g>
		<path class="st0" d="M437.6,92.4l-26.6,0c-5.6,0-10.2-3-10.2-6.7V80c0-3.7,4.6-6.7,10.2-6.7l26.6,0c5.6,0,10.2,3,10.2,6.7v5.7
			C447.8,89.4,443.2,92.4,437.6,92.4z M411,76c-3.4,0-6.1,1.8-6.1,4v5.7c0,2.2,2.7,4,6.1,4l26.6,0c3.4,0,6.1-1.8,6.1-4V80
			c0-2.2-2.7-4-6.1-4L411,76z"/>
	</g>
</g>
<g>
	<g>
		<path class="st0" d="M472.2,86.4l-26.8,0c-5.7,0-10.3-1.3-10.3-2.9v-2.4c0-1.6,4.6-2.9,10.3-2.9h26.8c5.7,0,10.3,1.3,10.3,2.9v2.4
			C482.6,85.1,477.9,86.4,472.2,86.4z M445.4,79.4c-3.4,0-6.2,0.8-6.2,1.7l0,2.4c0,0.9,2.8,1.7,6.2,1.7h26.8c3.4,0,6.2-0.8,6.2-1.7
			l0-2.4c0-0.9-2.8-1.7-6.2-1.7L445.4,79.4z"/>
	</g>
</g>
<g>
	<g>
		<path class="st0" d="M612.7,86.6h-26.8c-5.7,0-10.3-1.3-10.3-2.9v-2.4c0-1.6,4.6-2.9,10.3-2.9l26.8,0c5.7,0,10.3,1.3,10.3,2.9v2.4
			C623.1,85.3,618.4,86.6,612.7,86.6z M585.9,79.6c-3.4,0-6.2,0.8-6.2,1.7l0,2.4c0,0.9,2.8,1.7,6.2,1.7l26.8,0
			c3.4,0,6.2-0.8,6.2-1.7l0-2.4c0-0.9-2.8-1.7-6.2-1.7H585.9z"/>
	</g>
</g>
<g>
	<g>
		<path class="st0" d="M718.7,91.6l-26.6,0c-5.6,0-10.2-3-10.2-6.7v-5.7c0-3.7,4.6-6.7,10.2-6.7l26.6,0c5.6,0,10.2,3,10.2,6.7v5.7
			C728.9,88.6,724.3,91.6,718.7,91.6z M692.1,75.2c-3.4,0-6.1,1.8-6.1,4v5.7c0,2.2,2.7,4,6.1,4l26.6,0c3.4,0,6.1-1.8,6.1-4l0-5.7
			c0-2.2-2.7-4-6.1-4L692.1,75.2z"/>
	</g>
</g>
<g>
	<g>
		<path class="st0" d="M753.7,86.1l-26.8,0c-5.7,0-10.3-1.3-10.3-2.9v-2.4c0-1.6,4.6-2.9,10.3-2.9h26.8c5.7,0,10.3,1.3,10.3,2.9v2.4
			C764,84.8,759.4,86.1,753.7,86.1z M726.9,79.1c-3.4,0-6.2,0.8-6.2,1.7v2.4c0,0.9,2.8,1.7,6.2,1.7h26.8c3.4,0,6.2-0.8,6.2-1.7v-2.4
			c0-0.9-2.8-1.7-6.2-1.7H726.9z"/>
	</g>
</g>
<g>
	<g>
		<path class="st0" d="M789.2,91.6l-26.6,0c-5.6,0-10.2-3-10.2-6.7v-5.7c0-3.7,4.6-6.7,10.2-6.7l26.6,0c5.6,0,10.2,3,10.2,6.7v5.7
			C799.4,88.6,794.8,91.6,789.2,91.6z M762.6,75.2c-3.4,0-6.1,1.8-6.1,4v5.7c0,2.2,2.7,4,6.1,4l26.6,0c3.4,0,6.1-1.8,6.1-4v-5.7
			c0-2.2-2.7-4-6.1-4L762.6,75.2z"/>
	</g>
</g>
<g>
	<g>
		<path class="st0" d="M648.2,92.1l-26.6,0c-5.6,0-10.2-3-10.2-6.7v-5.7c0-3.7,4.6-6.7,10.2-6.7l26.6,0c5.6,0,10.2,3,10.2,6.7v5.7
			C658.4,89.1,653.8,92.1,648.2,92.1z M621.6,75.7c-3.4,0-6.1,1.8-6.1,4v5.7c0,2.2,2.7,4,6.1,4l26.6,0c3.4,0,6.1-1.8,6.1-4v-5.7
			c0-2.2-2.7-4-6.1-4L621.6,75.7z"/>
	</g>
</g>
<g>
	<g>
		<path class="st0" d="M682.9,86.1l-26.8,0c-5.7,0-10.3-1.3-10.3-2.9v-2.4c0-1.6,4.6-2.9,10.3-2.9h26.8c5.7,0,10.3,1.3,10.3,2.9v2.4
			C693.2,84.8,688.6,86.1,682.9,86.1z M656.1,79.1c-3.4,0-6.2,0.8-6.2,1.7v2.4c0,0.9,2.8,1.7,6.2,1.7h26.8c3.4,0,6.2-0.8,6.2-1.7
			v-2.4c0-0.9-2.8-1.7-6.2-1.7H656.1z"/>
	</g>
</g>
<g>
	<polygon class="st1" points="1047.3,407.3 923,490.2 814.1,308.3 921.3,236.8 	"/>
	
		<rect x="850.2" y="264" transform="matrix(0.9555 -0.2949 0.2949 0.9555 -65.3489 286.7315)" class="st2" width="135.4" height="192"/>
	<path class="st3" d="M836.4,18.4c0,0-2.4,3.6-2.3,4.9"/>
	<path class="st4" d="M819.5,40.9l0.5-9.1c0-0.2,0-0.4,0.1-0.6c0.4-3.3,2.5-6.1,5.4-7.8l12.1-6.8l4.4-3.2l1.9-1.3
		c1.7-1.3,3.6-2.1,5.6-2.5c6-1.3,12.2,1.4,15.6,6.5l2.3,3.4c0.6,0.9,1.4,1.7,2.4,2.2l13.3,7.4l-35.1,21.2l-12.3,7.5
		c-3,4.1-6.4,4.5-10.5,4.5c-3.2,0-8.3-1.7-8-4.9C817.5,51.2,818.9,46.9,819.5,40.9z"/>
	<path class="st5" d="M845.9,22.6c0,0-2.7,2.7-2.5,3.6"/>
	<line class="st6" x1="838.3" y1="130.6" x2="812.8" y2="291.8"/>
	<g>
		<path class="st0" d="M836.6,85.7c-0.2,0.1-0.5,0.1-0.7,0.1l-46-0.2c-1.8,0-3.3-1.5-3.3-3.3c0-1.8,1.5-3.3,3.3-3.3l46,0.2
			c1.8,0,3.3,1.5,3.3,3.3C839.1,84.1,838,85.4,836.6,85.7z"/>
	</g>
	<g>
		<g>
			<path class="st0" d="M864.8,92.4l-27.5,0c-5.8,0-10.6-3-10.6-6.7v-5.7c0-3.7,4.7-6.7,10.6-6.7l27.5,0c5.8,0,10.6,3,10.6,6.7v5.7
				C875.4,89.4,870.7,92.4,864.8,92.4z M837.3,76c-3.5,0-6.4,1.8-6.4,4v5.7c0,2.2,2.8,4,6.4,4l27.5,0c3.5,0,6.4-1.8,6.4-4v-5.7
				c0-2.2-2.8-4-6.4-4L837.3,76z"/>
		</g>
	</g>
	<circle class="st0" cx="865.6" cy="81" r="52.8"/>
	<path class="st7" d="M821.5,52.6c0,0,27.5-11.3,102.1,224.1"/>
	<path class="st7" d="M888.1,38.8c0,0-29.6-1.9-24.8,245"/>
	<g>
		<path class="st0" d="M789.1,85.4c0.2,0.1,0.5,0.1,0.7,0.1l46-0.2c1.8,0,3.3-1.5,3.3-3.3c0-1.8-1.5-3.3-3.3-3.3l-46,0.2
			c-1.8,0-3.3,1.5-3.3,3.3C786.5,83.8,787.6,85.1,789.1,85.4z"/>
	</g>
	<g>
		<path class="st8" d="M829.6,123.2c-3.9-0.6-5.3-6.3-5.1-9.9c0.1-0.9,0.5-1.8,1.1-2.4l0,0c0,0,0.3-15.7,0.3-15.7
			c0.1-2.9,1.1-5.8,2.9-8.1v0l-1.1-6.3c-1.2-7.1-0.3-14.4,2.5-21l1.1-2.6l-0.7-5.4c-0.7-5.6-0.1-11.3,1.9-16.6l1.7-4.8
			c0.9-2.6,3.4-4.3,6.2-4.3l31,0.3c3,0,5.9,0.8,8.4,2.3l6.5,3.8l4.2,1.5c3.7,1.4,6.3,4.9,6.5,8.8l0.8,18.7l2.8,4.6
			c2.7,4.5,2.6,10.1-0.2,14.5l-4.8,7.6l-0.2,5.2c-0.2,5.1-2.1,9.9-5.4,13.9l-5,6.1l-4.2,10.8c-1.4,3.6-4.4,6.2-8.1,7.2l-6.4,1.6
			l-3.4,1.7c-3.1,1.5-6-3.6-9.5-4.1l-1.6,0c12.9-39.6-12,0.3-15.4-3.5L829.6,123.2z"/>
		<path class="st4" d="M831.7,126.8c-5.3-3.1-6.8-10.4-2.6-15c0.2-0.2,0.3-0.4,0.5-0.5l0.4-0.4l0.3-15.7c0.1-2.9,1.1-5.8,2.9-8.1v0
			l-1.1-6.3c-1.2-7.1-0.3-14.4,2.5-21l1.1-2.6l-0.7-5.4c-0.7-5.6-0.1-11.3,1.9-16.6l1.7-4.8c0.9-2.6,3.4-4.3,6.2-4.3l31,0.3
			c3,0,5.9,0.8,8.4,2.3l6.5,3.8l4.2,1.5c3.7,1.4,6.3,4.9,6.5,8.8l0.8,18.7l2.8,4.6c2.7,4.5,2.6,10.1-0.2,14.5l-4.8,7.6l-0.2,5.2
			c-0.2,5.1-2.1,9.9-5.4,13.9l-5,6.1l-4.2,10.8c-1.4,3.6-4.4,6.2-8.1,7.2l-6.4,1.6l-3.4,1.7c-3.1,1.5-6.7,2.1-10.1,1.6l-4.1-0.6
			c-5.1-0.7-10.1-2.5-14.5-5.1L831.7,126.8z"/>
		<path class="st5" d="M835.6,57.2c0,0,34.9-6.2,49.2,5.6"/>
		<line class="st5" x1="884.7" y1="55.9" x2="876.7" y2="58.4"/>
		<path class="st5" d="M833.1,87c0,0,46.2,2.5,49.9,5.7"/>
		<path class="st5" d="M882.5,87.6c0,0-6,1.9-10.4,2.6"/>
		<path class="st5" d="M829.9,110.8c0,0,28.6,9.6,43.4,5.3"/>
	</g>
	
		<linearGradient id="SVGID_1_" gradientUnits="userSpaceOnUse" x1="-1527.4821" y1="63.1945" x2="-1522.4202" y2="76.9717" gradientTransform="matrix(-0.6992 -4.836105e-02 -7.979858e-02 1.1537 -240.8648 -101.7284)">
		<stop  offset="0" style="stop-color:#9B2A21"/>
		<stop  offset="0.1279" style="stop-color:#A02A21"/>
		<stop  offset="0.3288" style="stop-color:#AC291F"/>
		<stop  offset="0.5168" style="stop-color:#BB281C"/>
		<stop  offset="0.6575" style="stop-color:#B9281D"/>
		<stop  offset="0.7763" style="stop-color:#B3291D"/>
		<stop  offset="0.8871" style="stop-color:#AA291F"/>
		<stop  offset="0.9925" style="stop-color:#9D2A21"/>
		<stop  offset="1" style="stop-color:#9B2A21"/>
	</linearGradient>
	<path class="st9" d="M819.6,40.5c0,0,2.5,0.3,4.9,3.2c1.3,1.6,0.2,7.1-0.9,10.3c-1.7,4.6-2.8,7.5-2.8,7.5c-0.7-0.3-4,6.3-4.4,7.9
		C814.8,59.8,815.4,50.2,819.6,40.5z"/>
	<line class="st10" x1="792.4" y1="287.4" x2="831.7" y2="126.8"/>
	<path class="st6" d="M854.9,25.2c5.3-1.9,29.7-41.3,29.9,274.6"/>
	<line class="st10" x1="896.9" y1="299.8" x2="870.5" y2="133"/>
	<path class="st11" d="M843.4,279.8c0,0-8.5-269.1,8.2-253.5"/>
	<polygon class="st12" points="906.3,508.7 746.4,451.1 781.8,275.3 896.3,290.7 	"/>
	<polygon class="st13" points="955.7,494.1 906.3,508.7 896.3,290.7 913.4,295 	"/>
</g>
<g>
	<g>
		<path class="st0" d="M220.9,86.6c0.2,0.1,0.5,0.1,0.7,0.1l46-0.2c1.8,0,3.3-1.5,3.3-3.3c0-1.8-1.5-3.3-3.3-3.3l-46,0.2
			c-1.8,0-3.3,1.5-3.3,3.3C218.4,85,219.5,86.3,220.9,86.6z"/>
	</g>
	<g>
		<path class="st0" d="M268.4,86.4c-0.2,0.1-0.5,0.1-0.7,0.1l-46-0.2c-1.8,0-3.3-1.5-3.3-3.3c0-1.8,1.5-3.3,3.3-3.3l46,0.2
			c1.8,0,3.3,1.5,3.3,3.3C271,84.7,269.9,86,268.4,86.4z"/>
	</g>
	<polygon class="st1" points="9.3,407.3 133.6,490.2 242.5,308.3 135.3,236.8 	"/>
	
		<rect x="71" y="264" transform="matrix(-0.9555 -0.2949 0.2949 -0.9555 165.1083 744.921)" class="st2" width="135.4" height="192"/>
	<path class="st3" d="M220.2,18.4c0,0,2.4,3.6,2.3,4.9"/>
	<path class="st4" d="M237.1,40.9l-0.5-9.1c0-0.2,0-0.4-0.1-0.6c-0.4-3.3-2.5-6.1-5.4-7.8L219,16.7l-4.4-3.2l-1.9-1.3
		c-1.7-1.3-3.6-2.1-5.6-2.5c-6-1.3-12.2,1.4-15.6,6.5l-2.3,3.4c-0.6,0.9-1.4,1.7-2.4,2.2l-13.3,7.4l35.1,21.2l12.3,7.5
		c3,4.1,6.4,4.5,10.5,4.5c3.2,0,8.3-1.7,8-4.9C239.1,51.2,237.7,46.9,237.1,40.9z"/>
	<path class="st5" d="M210.7,22.6c0,0,2.7,2.7,2.5,3.6"/>
	<line class="st6" x1="218.3" y1="130.6" x2="243.8" y2="291.8"/>
	<g>
		<path class="st0" d="M220,85.7c0.2,0.1,0.5,0.1,0.7,0.1l46-0.2c1.8,0,3.3-1.5,3.3-3.3c0-1.8-1.5-3.3-3.3-3.3l-46,0.2
			c-1.8,0-3.3,1.5-3.3,3.3C217.5,84.1,218.6,85.4,220,85.7z"/>
	</g>
	<g>
		<g>
			<path class="st0" d="M181.2,85.7l0-5.7c0-3.7,4.7-6.7,10.6-6.7l27.5,0c5.8,0,10.6,3,10.6,6.7v5.7c0,3.7-4.7,6.7-10.6,6.7l-27.5,0
				C185.9,92.4,181.2,89.4,181.2,85.7z M191.8,76c-3.5,0-6.4,1.8-6.4,4v5.7c0,2.2,2.8,4,6.4,4l27.5,0c3.5,0,6.4-1.8,6.4-4l0-5.7
				c0-2.2-2.8-4-6.4-4L191.8,76z"/>
		</g>
	</g>
	<circle class="st0" cx="191" cy="81" r="52.8"/>
	<path class="st7" d="M235.1,52.6c0,0-27.5-11.3-102.1,224.1"/>
	<path class="st7" d="M168.5,38.8c0,0,29.6-1.9,24.8,245"/>
	<g>
		<path class="st0" d="M263.3,85.9c-0.2,0.1-0.5,0.1-0.7,0.1l-46-0.2c-1.8,0-3.3-1.5-3.3-3.3c0-1.8,1.5-3.3,3.3-3.3l46,0.2
			c1.8,0,3.3,1.5,3.3,3.3C265.8,84.2,264.7,85.5,263.3,85.9z"/>
	</g>
	<g>
		<path class="st8" d="M227.1,123.2c3.9-0.6,5.3-6.3,5.1-9.9c-0.1-0.9-0.5-1.8-1.1-2.4l0,0c0,0-0.3-15.7-0.3-15.7
			c-0.1-2.9-1.1-5.8-2.9-8.1v0l1.1-6.3c1.2-7.1,0.3-14.4-2.5-21l-1.1-2.6l0.7-5.4c0.7-5.6,0.1-11.3-1.9-16.6l-1.7-4.8
			c-0.9-2.6-3.4-4.3-6.2-4.3l-31,0.3c-3,0-5.9,0.8-8.4,2.3l-6.5,3.8l-4.2,1.5c-3.7,1.4-6.3,4.9-6.5,8.8l-0.8,18.7l-2.8,4.6
			c-2.7,4.5-2.6,10.1,0.2,14.5l4.8,7.6l0.2,5.2c0.2,5.1,2.1,9.9,5.4,13.9l5,6.1l4.2,10.8c1.4,3.6,4.4,6.2,8.1,7.2l6.4,1.6l3.4,1.7
			c3.1,1.5,6-3.6,9.5-4.1l1.6,0c-12.9-39.6,12,0.3,15.4-3.5L227.1,123.2z"/>
		<path class="st4" d="M225,126.8c5.3-3.1,6.8-10.4,2.6-15c-0.2-0.2-0.3-0.4-0.5-0.5l-0.4-0.4l-0.3-15.7c-0.1-2.9-1.1-5.8-2.9-8.1v0
			l1.1-6.3c1.2-7.1,0.3-14.4-2.5-21l-1.1-2.6l0.7-5.4c0.7-5.6,0.1-11.3-1.9-16.6l-1.7-4.8c-0.9-2.6-3.4-4.3-6.2-4.3l-31,0.3
			c-3,0-5.9,0.8-8.4,2.3l-6.5,3.8l-4.2,1.5c-3.7,1.4-6.3,4.9-6.5,8.8l-0.8,18.7l-2.8,4.6c-2.7,4.5-2.6,10.1,0.2,14.5l4.8,7.6
			l0.2,5.2c0.2,5.1,2.1,9.9,5.4,13.9l5,6.1l4.2,10.8c1.4,3.6,4.4,6.2,8.1,7.2l6.4,1.6l3.4,1.7c3.1,1.5,6.7,2.1,10.1,1.6l4.1-0.6
			c5.1-0.7,10.1-2.5,14.5-5.1L225,126.8z"/>
		<path class="st5" d="M221,57.2c0,0-34.9-6.2-49.2,5.6"/>
		<line class="st5" x1="171.9" y1="55.9" x2="180" y2="58.4"/>
		<path class="st5" d="M223.5,87c0,0-46.2,2.5-49.9,5.7"/>
		<path class="st5" d="M174.1,87.6c0,0,6,1.9,10.4,2.6"/>
		<path class="st5" d="M226.7,110.8c0,0-28.6,9.6-43.4,5.3"/>
	</g>
	
		<linearGradient id="SVGID_00000168108000665723543910000010439985278110810777_" gradientUnits="userSpaceOnUse" x1="3957.0684" y1="293.1038" x2="3962.1304" y2="306.881" gradientTransform="matrix(0.6992 -4.836105e-02 7.979858e-02 1.1537 -2555.4331 -101.7284)">
		<stop  offset="0" style="stop-color:#9B2A21"/>
		<stop  offset="0.1279" style="stop-color:#A02A21"/>
		<stop  offset="0.3288" style="stop-color:#AC291F"/>
		<stop  offset="0.5168" style="stop-color:#BB281C"/>
		<stop  offset="0.6575" style="stop-color:#B9281D"/>
		<stop  offset="0.7763" style="stop-color:#B3291D"/>
		<stop  offset="0.8871" style="stop-color:#AA291F"/>
		<stop  offset="0.9925" style="stop-color:#9D2A21"/>
		<stop  offset="1" style="stop-color:#9B2A21"/>
	</linearGradient>
	<path style="fill:url(#SVGID_00000168108000665723543910000010439985278110810777_);" d="M237.1,40.5c0,0-2.5,0.3-4.9,3.2
		c-1.3,1.6-0.2,7.1,0.9,10.3c1.7,4.6,2.8,7.5,2.8,7.5c0.7-0.3,4,6.3,4.4,7.9C241.8,59.8,241.2,50.2,237.1,40.5z"/>
	<line class="st10" x1="264.3" y1="287.4" x2="225" y2="126.8"/>
	<path class="st6" d="M201.7,25.2c-5.3-1.9-29.7-41.3-29.9,274.6"/>
	<line class="st10" x1="159.7" y1="299.8" x2="186.1" y2="133"/>
	<path class="st11" d="M213.2,279.8c0,0,8.5-269.1-8.2-253.5"/>
	<polygon class="st12" points="150.3,508.7 310.2,451.1 274.9,275.3 160.3,290.7 	"/>
	<polygon class="st13" points="101,494.1 150.3,508.7 160.3,290.7 143.2,295 	"/>
</g>
<g>
	<path class="st15" d="M648.8,356.3c-18-15.7-98.3-54.2-98.3-54.2l-37.9,336.1l0,0l8.7,4.9l9.5-4.3l0,0l0,0l75.4-34.8
		C647.6,555.2,648.8,356.3,648.8,356.3z"/>
	<path class="st15" d="M553.7,599.4L553.7,599.4c-18.6,3.8-36.9-8.5-40.7-27.1l-28.3-140.6c-3.8-18.6,8.5-36.9,27.1-40.7l0,0
		c18.6-3.8,36.9,8.5,40.7,27.1l28.3,140.6C584.5,577.4,572.3,595.6,553.7,599.4z"/>
	<g>
		<g>
			<path id="XMLID_00000121257085906049389030000017925415070035190400_" class="st15" d="M521.4,302.4c0,0-83.1,32.1-102.2,46.3
				c0,0-14.4,198.4,23,250.3l90.9,50.8L521.4,302.4z"/>
		</g>
		<g>
			<defs>
				<path id="SVGID_00000133515817812266127070000005394096655512690315_" d="M521.4,302.4c0,0-83.1,32.1-102.2,46.3
					c0,0-14.4,198.4,23,250.3l90.9,50.8L521.4,302.4z"/>
			</defs>
			<clipPath id="SVGID_00000102524732712169343340000009999515338340157630_">
				<use xlink:href="#SVGID_00000133515817812266127070000005394096655512690315_"  style="overflow:visible;"/>
			</clipPath>
			<path style="clip-path:url(#SVGID_00000102524732712169343340000009999515338340157630_);fill:#89333A;" d="M92.7,148
				c-9.9,66.9-11.8,134.9-5.9,202.2"/>
		</g>
		<g>
			<defs>
				<path id="SVGID_00000090992358692948735530000018013038367536870055_" d="M521.4,302.4c0,0-83.1,32.1-102.2,46.3
					c0,0-14.4,198.4,23,250.3l90.9,50.8L521.4,302.4z"/>
			</defs>
			<clipPath id="SVGID_00000166633940914840118730000006376794463715890072_">
				<use xlink:href="#SVGID_00000090992358692948735530000018013038367536870055_"  style="overflow:visible;"/>
			</clipPath>
			<path style="clip-path:url(#SVGID_00000166633940914840118730000006376794463715890072_);fill:#89333A;" d="M49,269.7
				c-8.4,81.5-20.1,162.5-35,243.1"/>
		</g>
		<g>
			<defs>
				<path id="SVGID_00000047022951731427076260000013791342943609305016_" d="M521.4,302.4c0,0-83.1,32.1-102.2,46.3
					c0,0-14.4,198.4,23,250.3l90.9,50.8L521.4,302.4z"/>
			</defs>
			<clipPath id="SVGID_00000088093784281695211090000011500955480074839475_">
				<use xlink:href="#SVGID_00000047022951731427076260000013791342943609305016_"  style="overflow:visible;"/>
			</clipPath>
			<path style="clip-path:url(#SVGID_00000088093784281695211090000011500955480074839475_);fill:#89333A;" d="M21,168.9
				c2.5,35.8,5,71.5,7.5,107.3"/>
		</g>
		<g>
			<defs>
				<path id="SVGID_00000037655470755502335590000013196250094696162193_" d="M521.4,302.4c0,0-83.1,32.1-102.2,46.3
					c0,0-14.4,198.4,23,250.3l90.9,50.8L521.4,302.4z"/>
			</defs>
			<clipPath id="SVGID_00000036951967835362862740000007996237147480404634_">
				<use xlink:href="#SVGID_00000037655470755502335590000013196250094696162193_"  style="overflow:visible;"/>
			</clipPath>
			<path style="clip-path:url(#SVGID_00000036951967835362862740000007996237147480404634_);fill:#89333A;" d="M53,177.4
				c18.4,24.2,32,51.9,43.7,80c12.1,29,22.5,60.4,17.2,91.3"/>
		</g>
		<g>
			<defs>
				<path id="SVGID_00000010276960464016804710000007594424100481623943_" d="M521.4,302.4c0,0-83.1,32.1-102.2,46.3
					c0,0-14.4,198.4,23,250.3l90.9,50.8L521.4,302.4z"/>
			</defs>
			<clipPath id="SVGID_00000088104160739218061950000003041755404271156901_">
				<use xlink:href="#SVGID_00000010276960464016804710000007594424100481623943_"  style="overflow:visible;"/>
			</clipPath>
			<path style="clip-path:url(#SVGID_00000088104160739218061950000003041755404271156901_);fill:#89333A;" d="M225.7,227.2
				c-1.3,48.5-2.7,96.9-4,145.3"/>
		</g>
		<g>
			<defs>
				<path id="SVGID_00000180353882660719220660000015430188574556112801_" d="M521.4,302.4c0,0-83.1,32.1-102.2,46.3
					c0,0-14.4,198.4,23,250.3l90.9,50.8L521.4,302.4z"/>
			</defs>
			<clipPath id="SVGID_00000022520224972249508100000014806542553355869852_">
				<use xlink:href="#SVGID_00000180353882660719220660000015430188574556112801_"  style="overflow:visible;"/>
			</clipPath>
			<path style="clip-path:url(#SVGID_00000022520224972249508100000014806542553355869852_);fill:#89333A;" d="M221.1,291.2
				c-13.9,55.9-20.7,113.6-20.2,171.3"/>
		</g>
		<g>
			<defs>
				<path id="SVGID_00000057125912593811196340000014239289132965739144_" d="M521.4,302.4c0,0-83.1,32.1-102.2,46.3
					c0,0-14.4,198.4,23,250.3l90.9,50.8L521.4,302.4z"/>
			</defs>
			<clipPath id="SVGID_00000146486180931283899240000012250548535266678442_">
				<use xlink:href="#SVGID_00000057125912593811196340000014239289132965739144_"  style="overflow:visible;"/>
			</clipPath>
			<path style="clip-path:url(#SVGID_00000146486180931283899240000012250548535266678442_);fill:#89333A;" d="M221.2,214.9
				c-2.5,57.4-6.3,114.7-11.1,171.9"/>
		</g>
		<g>
			<defs>
				<path id="SVGID_00000040550540417272241490000000760644306699360646_" d="M521.4,302.4c0,0-83.1,32.1-102.2,46.3
					c0,0-14.4,198.4,23,250.3l90.9,50.8L521.4,302.4z"/>
			</defs>
			<clipPath id="SVGID_00000065793594423722944590000012226493811559210660_">
				<use xlink:href="#SVGID_00000040550540417272241490000000760644306699360646_"  style="overflow:visible;"/>
			</clipPath>
			<g style="clip-path:url(#SVGID_00000065793594423722944590000012226493811559210660_);">
				<path class="st15" d="M94.9,157.4c-1.1,44.7,1.4,89.5,7.6,133.8"/>
			</g>
		</g>
		<g>
			<defs>
				<path id="SVGID_00000067208457403411058170000010328719880914107566_" d="M521.4,302.4c0,0-83.1,32.1-102.2,46.3
					c0,0-14.4,198.4,23,250.3l90.9,50.8L521.4,302.4z"/>
			</defs>
			<clipPath id="SVGID_00000124134009589407170900000011422615353878814123_">
				<use xlink:href="#SVGID_00000067208457403411058170000010328719880914107566_"  style="overflow:visible;"/>
			</clipPath>
			<g style="clip-path:url(#SVGID_00000124134009589407170900000011422615353878814123_);">
				<path class="st15" d="M131.7,261c-6.1,51.6-0.8,104.6,15.5,153.9"/>
			</g>
		</g>
		<g>
			<defs>
				<path id="SVGID_00000118390989599467537130000014081009627263543963_" d="M521.4,302.4c0,0-83.1,32.1-102.2,46.3
					c0,0-14.4,198.4,23,250.3l90.9,50.8L521.4,302.4z"/>
			</defs>
			<clipPath id="SVGID_00000109750027087460475770000003692247574366265473_">
				<use xlink:href="#SVGID_00000118390989599467537130000014081009627263543963_"  style="overflow:visible;"/>
			</clipPath>
			<g style="clip-path:url(#SVGID_00000109750027087460475770000003692247574366265473_);">
				<path class="st15" d="M247.4,294.8c-13.2,72.3-13.6,146.9-1.5,219.5"/>
			</g>
		</g>
		<g>
			<defs>
				<path id="SVGID_00000112591253089238966030000000049757098885288869_" d="M521.4,302.4c0,0-83.1,32.1-102.2,46.3
					c0,0-14.4,198.4,23,250.3l90.9,50.8L521.4,302.4z"/>
			</defs>
			<clipPath id="SVGID_00000132046101078768448130000000786683243760489633_">
				<use xlink:href="#SVGID_00000112591253089238966030000000049757098885288869_"  style="overflow:visible;"/>
			</clipPath>
			<g style="clip-path:url(#SVGID_00000132046101078768448130000000786683243760489633_);">
				<path class="st15" d="M285.1,371.2c-6.4,55.9-8.6,112.2-6.8,168.4"/>
			</g>
		</g>
		<g>
			<defs>
				<path id="SVGID_00000142173450075456422960000005796352267696724897_" d="M521.4,302.4c0,0-83.1,32.1-102.2,46.3
					c0,0-14.4,198.4,23,250.3l90.9,50.8L521.4,302.4z"/>
			</defs>
			<clipPath id="SVGID_00000128467303719677981810000001474068116154405261_">
				<use xlink:href="#SVGID_00000142173450075456422960000005796352267696724897_"  style="overflow:visible;"/>
			</clipPath>
			<g style="clip-path:url(#SVGID_00000128467303719677981810000001474068116154405261_);">
				<path class="st15" d="M506.1,752.5"/>
			</g>
		</g>
		<g>
			<defs>
				<path id="SVGID_00000163050551557703588220000013181697487581953677_" d="M521.4,302.4c0,0-83.1,32.1-102.2,46.3
					c0,0-14.4,198.4,23,250.3l90.9,50.8L521.4,302.4z"/>
			</defs>
			<clipPath id="SVGID_00000032606508266881291830000010556039633444514701_">
				<use xlink:href="#SVGID_00000163050551557703588220000013181697487581953677_"  style="overflow:visible;"/>
			</clipPath>
			<g style="clip-path:url(#SVGID_00000032606508266881291830000010556039633444514701_);">
				<path class="st15" d="M507,567.2"/>
			</g>
		</g>
		<g>
			<defs>
				<path id="SVGID_00000146466172179512541170000005904284525308613807_" d="M521.4,302.4c0,0-83.1,32.1-102.2,46.3
					c0,0-14.4,198.4,23,250.3l90.9,50.8L521.4,302.4z"/>
			</defs>
			<clipPath id="SVGID_00000063610629596943479460000011041229698117910698_">
				<use xlink:href="#SVGID_00000146466172179512541170000005904284525308613807_"  style="overflow:visible;"/>
			</clipPath>
			<g style="clip-path:url(#SVGID_00000063610629596943479460000011041229698117910698_);">
				<path class="st15" d="M498.7,296.3"/>
			</g>
		</g>
	</g>
	<path class="st30" d="M582.2,334.6l-25.6-24.7l-1.6-56.7c-0.3-10.9-9.5-19.5-20.3-19.3l-9.5,0.3c-10.9,0.3-19.5,9.5-19.3,20.3
		l1.6,56.8l-24.2,26.2l48.1,118.4c-0.1,1.4,0.4,2.8,1.5,3.8l3.4,8.3v0.6l0.1-0.3l0.2,0.5l-0.1-0.8L582.2,334.6z M536.3,464.3
		l-0.3-3.9c0.1,0,0.2,0,0.3,0V464.3z"/>
	<path class="st13" d="M637.2,73.3c2-3.7,2.3-8,1.7-12c-1.4-8.1-7.3-14-13.7-18.7c-4.1-3-8.7-3.7-12.8-2.5
		c-1.5-6-6.5-10.8-12.6-12.5c-10.6-2.9-18.7,2.5-23.1,10.8c-8.9-0.3-16.3,3.7-21.7,10.7c-2.3,3.1-1.5,7.3,0.4,10.5
		c-2,3-3.4,6.2-3.9,9.3c-1.4,9,4.5,16.8,13.1,19.2c4.4,1.2,8.5,0.5,12.3-0.7c-1.3,2-2.9,3.9-3.5,5.9c-2.4,8.8,3.9,17.3,13,17.9
		c6.1,0.4,13.1-2.4,18.2-5.6c0.7-0.5,1.3-0.8,2.1-1.4c5,0.7,10,0.9,14.9,0.9c4.6-0.1,7.9-2.8,9.3-6.5c3.7-1.3,6.8-3.9,8.9-8
		C643.2,84.2,641.2,78,637.2,73.3z"/>
	<g>
		<g>
			<path class="st13" d="M635,90.5c5.5,3.5,7.6,10.1,6.3,16.3c-1.7,7.9-6.9,14.6-8.7,22.5c-0.8,3.7-1.1,7.7,0.1,11.3
				c1.2,3.7,3.9,6.1,5.7,9.5c2.8,5.3-2.5,10.3-5.3,14.5c-1.7,2.6-3.3,5.6-3,8.8c0.3,4.2,3.1,7.7,6.1,10.4c1.3,1.2,3.4-0.8,2-2
				c-2.6-2.3-5.4-5.5-5.4-9.3c0.1-2.7,1.7-5.2,3.2-7.3c3-4.3,7.5-9.4,5.4-15c-1.3-3.6-4.4-6-5.8-9.6c-1.4-3.6-1.1-7.5-0.2-11.1
				c2.1-7.9,7.3-14.7,8.7-22.8c1.2-7.2-1.3-14.7-7.7-18.6C634.8,87.1,633.4,89.6,635,90.5L635,90.5z"/>
		</g>
	</g>
	<g>
		<g>
			<path class="st31" d="M438.5,156c5.5,3.5,7.6,10.1,6.3,16.3c-1.7,7.9-6.9,14.6-8.7,22.5c-0.8,3.7-1.1,7.7,0.1,11.3
				c1.2,3.7,3.9,6.1,5.7,9.5c2.8,5.3-2.5,10.3-5.3,14.5c-1.7,2.6-3.3,5.6-3,8.8c0.3,4.2,3.1,7.7,6.1,10.4c1.3,1.2,3.4-0.8,2-2
				c-2.6-2.3-5.4-5.5-5.4-9.3c0.1-2.7,1.7-5.2,3.2-7.3c3-4.3,7.5-9.4,5.4-15c-1.3-3.6-4.4-6-5.8-9.6s-1.1-7.5-0.2-11.1
				c2.1-7.9,7.3-14.7,8.7-22.8c1.2-7.2-1.3-14.7-7.7-18.6C438.4,152.6,437,155.1,438.5,156L438.5,156z"/>
		</g>
	</g>
	<ellipse class="st30" cx="531" cy="160.2" rx="96.1" ry="115"/>
	<path class="st31" d="M553.4,141.6c0-3,8.3-5.5,18.4-5.5s18.4,2.4,18.4,5.5H553.4z"/>
	<path class="st31" d="M468,141.6c0-3,8.3-5.5,18.4-5.5c10.1,0,18.4,2.4,18.4,5.5H468z"/>
	<ellipse class="st32" cx="497.9" cy="165.6" rx="5.1" ry="5.4"/>
	<ellipse class="st32" cx="561.3" cy="165.6" rx="5.1" ry="5.4"/>
	<g>
		<path class="st31" d="M476.6,38.6c8.1-1.9,16.4-3.3,24.9-3.7c18.5-0.9,37.6,0.3,54.9,6.1c17.3,5.8,32.6,16.4,39.5,30.5l0.5,1.3
			c-12.2,13-30.7,20.7-48.8,27.9c-33.6,13.6-67.8,27.4-105,32.2c-1.9,0.3-3.9,0.5-5.5-0.1c-2.3-0.7-3.9-2.5-5.2-4.3
			c-11.8-16.4-15.6-37.5-3.5-54.4C441.9,55.5,458.1,43.6,476.6,38.6z"/>
	</g>
	<g>
		<ellipse class="st30" cx="435" cy="165.2" rx="26.1" ry="32.2"/>
		<ellipse class="st30" cx="627.1" cy="165.2" rx="26.1" ry="32.2"/>
	</g>
	<g>
		<path class="st31" d="M572.6,81.4c7.2,24.2,41.4,35.6,48.3,59.9c5.8-5.4,6.3-13.9,6.2-21.5c-0.2-9.4-0.8-19-4.4-27.7
			c-3.7-8.8-10.7-16.8-20.4-20c-9.7-3.2-22-0.3-27.2,7.9L572.6,81.4z"/>
	</g>
	<path class="st33" d="M622.8,172.8c0,0,7.8-8.4,16.9-6.6C639.8,166.2,626.6,159.3,622.8,172.8z"/>
	<path class="st33" d="M440.7,172.8c0,0-7.8-8.4-16.9-6.6C423.8,166.2,436.9,159.3,440.7,172.8z"/>
	<g>
		<g>
			<path class="st31" d="M623.3,156c5.5,3.5,7.6,10.1,6.3,16.3c-1.7,7.9-6.9,14.6-8.7,22.5c-0.8,3.7-1.1,7.7,0.1,11.3
				c1.2,3.7,3.9,6.1,5.7,9.5c2.8,5.3-2.5,10.3-5.3,14.5c-1.7,2.6-3.3,5.6-3,8.8c0.3,4.2,3.1,7.7,6.1,10.4c1.3,1.2,3.4-0.8,2-2
				c-2.6-2.3-5.4-5.5-5.4-9.3c0.1-2.7,1.7-5.2,3.2-7.3c3-4.3,7.5-9.4,5.4-15c-1.3-3.6-4.4-6-5.8-9.6s-1.1-7.5-0.2-11.1
				c2.1-7.9,7.3-14.7,8.7-22.8c1.2-7.2-1.3-14.7-7.7-18.6C623.1,152.6,621.7,155.1,623.3,156L623.3,156z"/>
		</g>
	</g>
	<g>
		<ellipse class="st13" cx="533.2" cy="239.3" rx="14.4" ry="17.3"/>
		<path class="st15" d="M524.1,240.8c0,0,7.9-3.1,18.1,0C542.3,240.8,532.8,235.1,524.1,240.8z"/>
	</g>
	<path class="st33" d="M531,206.8c-4.1,0-7.5-2.3-8-5.2c0,0.3-0.1,0.5-0.1,0.8c0,3.3,3.6,5.9,8.1,5.9c4.4,0,8.1-2.6,8.1-5.9
		c0-0.3,0-0.5-0.1-0.8C538.5,204.5,535.1,206.8,531,206.8z"/>
	<path class="st32" d="M491.1,158.4c0,0,1.4,5.7,5.2,6.1l2.2-1.3C498.3,163.1,494.5,163.9,491.1,158.4z"/>
	<path class="st32" d="M489.8,163.1c0,0,2.3,3.4,4.8,2.7l1-1.4C495.6,164.4,493.3,165.9,489.8,163.1z"/>
	<ellipse class="st32" cx="561.3" cy="165.4" rx="5.1" ry="5.4"/>
	<path class="st32" d="M568.2,158.2c0,0-1.4,5.7-5.2,6.1l-2.2-1.3C560.9,163,564.7,163.8,568.2,158.2z"/>
	<path class="st32" d="M569.4,162.9c0,0-2.3,3.4-4.8,2.7l-1-1.4C563.6,164.2,565.9,165.7,569.4,162.9z"/>
	<path class="st34" d="M577,38.5c0,0,13.8,3.6,14,14.2C591,52.7,594.7,39.5,577,38.5z"/>
	<path class="st34" d="M637,73.3c0,0-5.3-2.8-9.9-0.5c0,0,9.6,0.9,12.8,4.8C639.9,77.6,639.7,76.1,637,73.3z"/>
	<path class="st15" d="M459.6,538.2L459.6,538.2c-18.6,3.8-36.9-8.5-40.7-27.1l-28.3-140.6c-3.8-18.6,8.5-36.9,27.1-40.7l0,0
		c18.6-3.8,36.9,8.5,40.7,27.1l28.3,140.6C490.3,516.1,478.2,534.4,459.6,538.2z"/>
	<path class="st15" d="M597.1,534.5L597.1,534.5c18.6,3.8,36.9-8.5,40.7-27.1l28.3-140.6c3.8-18.6-8.5-36.9-27.1-40.7l0,0
		c-18.6-3.8-36.9,8.5-40.7,27.1l-28.3,140.6C566.4,512.5,578.5,530.8,597.1,534.5z"/>
	<polygon class="st35" points="532.8,640 523.3,644.3 523.9,644.7 	"/>
	<path class="st33" d="M532.8,640L532.8,640L532.8,640z"/>
	<path class="st33" d="M506.5,271.4c0,0,17.4,8.5,49.1,0v1.9c0,0-24.7,9.5-49.1,0V271.4z"/>
</g>
</svg>
