<?xml version="1.0" encoding="utf-8"?>
<!-- Generator: Adobe Illustrator 27.7.0, SVG Export Plug-In . SVG Version: 6.00 Build 0)  -->
<svg version="1.1" id="레이어_1" xmlns="http://www.w3.org/2000/svg" xmlns:xlink="http://www.w3.org/1999/xlink" x="0px"
	 y="0px" viewBox="0 0 858.9 676.6" style="enable-background:new 0 0 858.9 676.6;" xml:space="preserve">
<style type="text/css">
	.st0{stroke:#FAB8A1;stroke-miterlimit:10;}
	.st1{fill:#808080;}
	.st2{fill:#302C29;}
	.st3{fill:#FCD2C0;}
	.st4{fill:url(#SVGID_1_);}
	.st5{fill:url(#SVGID_00000078737698020094259080000007756006472652233091_);}
	.st6{fill:none;stroke:#EDAE9D;stroke-miterlimit:10;}
	.st7{fill:none;}
	.st8{fill:#EDAE9D;}
	.st9{fill:#474747;}
	.st10{fill:url(#SVGID_00000158002954495259277840000015756311823232695438_);}
	.st11{fill:url(#SVGID_00000044890009955266250980000012952289345000882614_);}
	.st12{fill:url(#SVGID_00000183949249723250059590000000298843655066691983_);}
	.st13{fill:#9B2A21;}
	.st14{fill:#010101;}
	.st15{fill:#EFB7AD;}
	.st16{fill:url(#SVGID_00000153705336481803641240000006946665830415908228_);}
	.st17{fill:#666FB4;}
	.st18{fill:#D8AAA4;}
	.st19{fill:#566094;}
	.st20{fill:#5C5D60;}
	.st21{fill:none;stroke:#5C5D60;stroke-miterlimit:10;}
</style>
<path class="st0" d="M358.3,258.5"/>
<g>
	<path class="st1" d="M351.3,196.2c1.3,0,2.4-1,2.5-2.3c0.1-1.4-0.9-2.6-2.3-2.7l-28.8-2.5c-1.4-0.1-2.6,0.9-2.7,2.3
		c-0.1,1.4,0.9,2.6,2.3,2.7l28.8,2.5C351.1,196.2,351.2,196.2,351.3,196.2z"/>
</g>
<g>
	<g>
		<path class="st1" d="M418.2,191.9l-2.7-6.9c-1.7-4.5,1.1-9.8,6.2-11.8l24.4-9.5c5.2-2,10.8,0,12.5,4.5l2.7,6.9
			c1.7,4.5-1.1,9.8-6.2,11.8l-24.4,9.5C425.6,198.4,420,196.4,418.2,191.9z M423,176.5c-3.1,1.2-4.8,4.4-3.7,7.1l2.7,6.9
			c1,2.7,4.4,3.9,7.5,2.7l24.4-9.5c3.1-1.2,4.8-4.4,3.7-7.1l-2.7-6.9c-1-2.7-4.4-3.9-7.5-2.7L423,176.5z"/>
	</g>
</g>
<g>
	<g>
		<path class="st1" d="M481.3,178l4.4-6c2.8-3.9,8.8-4.3,13.3-1l21.1,15.5c4.5,3.3,5.8,9.1,2.9,13l-4.4,6c-2.8,3.9-8.8,4.3-13.3,1
			L484.3,191C479.8,187.7,478.5,181.8,481.3,178z M496.9,173.8c-2.7-2-6.3-1.7-8,0.6l-4.4,6c-1.7,2.3-0.9,5.8,1.8,7.8l21.1,15.5
			c2.7,2,6.3,1.7,8-0.6l4.4-6c1.7-2.3,0.9-5.8-1.8-7.8L496.9,173.8z"/>
	</g>
</g>
<g>
	<g>
		<path class="st1" d="M342,195.9l0.8-7.4c0.5-4.8,6.2-8.1,12.6-7.4l30.4,3.4c6.4,0.7,11.2,5.2,10.7,10l-0.8,7.4
			c-0.5,4.8-6.2,8.1-12.6,7.4l-30.4-3.4C346.3,205.2,341.5,200.7,342,195.9z M355.1,184.7c-3.9-0.4-7.3,1.5-7.6,4.4l-0.8,7.4
			c-0.3,2.9,2.6,5.5,6.4,6l30.4,3.4c3.9,0.4,7.3-1.5,7.6-4.4l0.8-7.4c0.3-2.9-2.6-5.5-6.4-6L355.1,184.7z"/>
	</g>
</g>
<g>
	<g>
		<path class="st1" d="M384,199.8l-0.8-3.1c-0.5-2,3.4-4.8,8.9-6.2l25.5-6.9c5.4-1.5,10.3-1,10.8,1l0.8,3.1c0.5,2-3.4,4.8-8.9,6.2
			l-25.5,6.9C389.4,202.2,384.5,201.8,384,199.8z M392.4,191.9c-3.2,0.9-5.6,2.6-5.3,3.7l0.8,3.1c0.3,1.2,3.2,1.4,6.5,0.6l25.5-6.9
			c3.2-0.9,5.6-2.6,5.3-3.7l-0.8-3.1c-0.3-1.2-3.2-1.4-6.5-0.6L392.4,191.9z"/>
	</g>
</g>
<g>
	<g>
		<path class="st1" d="M447.2,179.5l0.5-3.1c0.3-2,5.1-3,10.6-2.1l26.1,4c5.5,0.9,9.8,3.2,9.5,5.2l-0.5,3.1c-0.3,2-5.1,3-10.6,2.1
			l-26.1-4C451.1,183.9,446.9,181.5,447.2,179.5z M458.1,175.7c-3.3-0.5-6.2,0.1-6.4,1.3l-0.5,3.1c-0.2,1.2,2.4,2.6,5.7,3.1l26.1,4
			c3.3,0.5,6.2-0.1,6.4-1.3l0.5-3.1c0.2-1.2-2.4-2.6-5.7-3.1L458.1,175.7z"/>
	</g>
</g>
<g>
	<g>
		<path class="st1" d="M508,200.4l0.5-3.1c0.3-2,5.1-3,10.6-2.1l26.1,4c5.5,0.9,9.8,3.2,9.5,5.2l-0.5,3.1c-0.3,2-5.1,3-10.6,2.1
			l-26.1-4C511.9,204.7,507.7,202.4,508,200.4z M518.9,196.6c-3.3-0.5-6.2,0.1-6.4,1.3L512,201c-0.2,1.2,2.4,2.6,5.7,3.1l26.1,4
			c3.3,0.5,6.2-0.1,6.4-1.3l0.5-3.1c0.2-1.2-2.4-2.6-5.7-3.1L518.9,196.6z"/>
	</g>
</g>
<g>
	<g>
		<path class="st1" d="M603.5,184.6l-0.4-7.4c-0.2-4.8,4.8-9,11.3-9.3l30.6-1.5c6.5-0.3,11.9,3.3,12.2,8.1l0.4,7.4
			c0.2,4.8-4.8,9-11.3,9.3l-30.6,1.5C609.1,193.1,603.7,189.4,603.5,184.6z M614.6,171.5c-3.9,0.2-6.9,2.7-6.8,5.6l0.4,7.4
			c0.1,2.9,3.4,5.1,7.3,4.9l30.6-1.5c3.9-0.2,6.9-2.7,6.8-5.6l-0.4-7.4c-0.1-2.9-3.4-5.1-7.3-4.9L614.6,171.5z"/>
	</g>
</g>
<g>
	<g>
		<path class="st1" d="M643.4,178.9l1-3c0.6-2,5.5-2.2,10.8-0.4l25.2,8.1c5.3,1.7,9.2,4.7,8.5,6.6l-1,3c-0.6,2-5.5,2.2-10.8,0.4
			l-25.2-8.1C646.7,183.9,642.8,180.9,643.4,178.9z M654.8,176.9c-3.2-1-6.1-0.9-6.5,0.3l-1,3c-0.4,1.2,1.9,3,5.1,4l25.2,8.1
			c3.2,1,6.1,0.9,6.5-0.3l1-3c0.4-1.2-1.9-3-5.1-4L654.8,176.9z"/>
	</g>
</g>
<g>
	<g>
		<path class="st1" d="M537.6,203.8l1.2-7.3c0.8-4.7,6.6-7.8,13-6.7l30.2,4.9c6.4,1,11,5.7,10.2,10.5l-1.2,7.3
			c-0.8,4.7-6.6,7.8-13,6.7l-30.2-4.9C541.4,213.3,536.8,208.6,537.6,203.8z M551.2,193.2c-3.8-0.6-7.3,1.2-7.8,4l-1.2,7.3
			c-0.5,2.8,2.3,5.7,6.1,6.3l30.2,4.9c3.8,0.6,7.3-1.2,7.8-4l1.2-7.3c0.5-2.8-2.3-5.7-6.1-6.3L551.2,193.2z"/>
	</g>
</g>
<g>
	<g>
		<path class="st1" d="M582,212l-2.1-2.4c-1.4-1.5,0.9-5.8,5.1-9.6l19.7-17.7c4.2-3.7,8.7-5.5,10.1-4l2.1,2.4
			c1.4,1.5-0.9,5.8-5.1,9.6L592.1,208C587.9,211.8,583.4,213.6,582,212z M586,201.2c-2.5,2.2-3.9,4.8-3.1,5.7l2.1,2.4
			c0.8,0.9,3.5-0.2,6-2.4l19.7-17.7c2.5-2.2,3.9-4.8,3.1-5.7l-2.1-2.4c-0.8-0.9-3.5,0.2-6,2.4L586,201.2z"/>
	</g>
</g>
<g>
	<g>
		<path class="st1" d="M759.8,184.3l25.5,5.9c5.4,1.2,8.9,6.1,7.9,10.7l-1.7,7.2c-1.1,4.7-6.4,7.5-11.8,6.2l-25.5-5.9
			c-5.4-1.2-8.9-6.1-7.9-10.7l1.7-7.2C749.1,185.9,754.4,183.1,759.8,184.3z M780.6,211c3.2,0.7,6.4-0.9,7.1-3.7l1.7-7.2
			c0.6-2.8-1.5-5.7-4.7-6.4l-25.5-5.9c-3.2-0.7-6.4,0.9-7.1,3.7l-1.7,7.2c-0.6,2.8,1.5,5.7,4.7,6.4L780.6,211z"/>
	</g>
</g>
<g>
	<g>
		<path class="st1" d="M813.6,182l18.6-18.4c3.9-3.9,9.9-4.3,13.3-0.9l5.2,5.3c3.4,3.4,2.9,9.4-1,13.3L831,199.6
			c-3.9,3.9-9.9,4.3-13.3,0.9l-5.2-5.3C809.2,191.8,809.6,185.9,813.6,182z M847.2,178.7c2.4-2.3,2.6-5.9,0.6-8l-5.2-5.3
			c-2-2-5.6-1.8-8,0.5L816,184.4c-2.4,2.3-2.6,5.9-0.6,8l5.2,5.3c2,2,5.6,1.8,8-0.5L847.2,178.7z"/>
	</g>
</g>
<g>
	<g>
		<path class="st1" d="M683.1,180.1l29.6-7.8c6.3-1.6,12.4,0.8,13.6,5.4l1.9,7.2c1.2,4.6-2.9,9.8-9.2,11.4l-29.6,7.8
			c-6.3,1.6-12.4-0.8-13.6-5.4l-1.9-7.2C672.8,186.9,676.9,181.8,683.1,180.1z M718.2,193c3.8-1,6.2-4.1,5.5-6.8l-1.9-7.2
			c-0.7-2.8-4.4-4.3-8.1-3.3l-29.6,7.8c-3.8,1-6.2,4.1-5.5,6.8l1.9,7.2c0.7,2.8,4.4,4.3,8.1,3.3L718.2,193z"/>
	</g>
</g>
<g>
	<g>
		<path class="st1" d="M723.6,185.2l26.3,3.1c5.6,0.7,9.9,2.9,9.7,4.9l-0.4,3.1c-0.2,2-5,3.2-10.5,2.5l-26.3-3.1
			c-5.6-0.7-9.9-2.9-9.7-4.9l0.4-3.1C713.3,185.7,718,184.6,723.6,185.2z M748.8,197.4c3.3,0.4,6.2-0.3,6.3-1.5l0.4-3.1
			c0.1-1.2-2.5-2.5-5.8-2.9l-26.3-3.1c-3.3-0.4-6.2,0.3-6.3,1.5l-0.4,3.1c-0.1,1.2,2.5,2.5,5.8,2.9L748.8,197.4z"/>
	</g>
</g>
<g>
	<g>
		<path class="st1" d="M787.2,192.1l25.3-7.8c5.4-1.6,10.2-1.4,10.8,0.6l0.9,3c0.6,2-3.3,4.9-8.6,6.5l-25.3,7.8
			c-5.4,1.6-10.2,1.4-10.8-0.6l-0.9-3C777.9,196.7,781.8,193.8,787.2,192.1z M815.1,193.1c3.2-1,5.5-2.7,5.2-3.9l-0.9-3
			c-0.4-1.2-3.3-1.3-6.5-0.3l-25.3,7.8c-3.2,1-5.5,2.7-5.2,3.9l0.9,3c0.4,1.2,3.3,1.3,6.5,0.3L815.1,193.1z"/>
	</g>
</g>
<g>
	<g>
		<path class="st1" d="M848.4,169l26.1-4.1c5.5-0.9,10.3,0.1,10.6,2.1l0.5,3.1c0.3,2-3.9,4.4-9.5,5.3l-26.1,4.1
			c-5.5,0.9-10.3-0.1-10.6-2.1l-0.5-3.1C838.6,172.2,842.9,169.9,848.4,169z M876,173.9c3.3-0.5,5.9-1.9,5.7-3.2l-0.5-3.1
			c-0.2-1.2-3.1-1.8-6.4-1.3l-26.1,4.1c-3.3,0.5-5.9,1.9-5.7,3.2l0.5,3.1c0.2,1.2,3.1,1.8,6.4,1.3L876,173.9z"/>
	</g>
</g>
<g>
	<g>
		<path class="st1" d="M946.6,181.4l30.6,1.3c6.5,0.3,11.6,4.4,11.4,9.2l-0.3,7.4c-0.2,4.8-5.7,8.5-12.1,8.2l-30.6-1.3
			c-6.5-0.3-11.6-4.4-11.4-9.2l0.3-7.4C934.7,184.7,940.1,181.1,946.6,181.4z M976.2,204c3.9,0.2,7.1-2,7.3-4.9l0.3-7.4
			c0.1-2.9-2.9-5.4-6.8-5.5l-30.6-1.3c-3.9-0.2-7.1,2-7.3,4.9l-0.3,7.4c-0.1,2.9,2.9,5.4,6.8,5.5L976.2,204z"/>
	</g>
</g>
<g>
	<g>
		<path class="st1" d="M1018.2,199.5l30.6,1.3c6.5,0.3,11.6,4.4,11.4,9.2l-0.3,7.4c-0.2,4.8-5.7,8.5-12.1,8.2l-30.6-1.3
			c-6.5-0.3-11.6-4.4-11.4-9.2l0.3-7.4C1006.3,202.9,1011.7,199.2,1018.2,199.5z M1047.8,222.2c3.9,0.2,7.1-2,7.3-4.9l0.3-7.4
			c0.1-2.9-2.9-5.4-6.8-5.5l-30.6-1.3c-3.9-0.2-7.1,2-7.3,4.9l-0.3,7.4c-0.1,2.9,2.9,5.4,6.8,5.5L1047.8,222.2z"/>
	</g>
</g>
<g>
	<g>
		<path class="st1" d="M987.4,193l24.2,10.7c5.1,2.3,8.6,5.7,7.8,7.5l-1.3,2.9c-0.8,1.9-5.7,1.5-10.8-0.7l-24.2-10.7
			c-5.1-2.3-8.6-5.7-7.8-7.5l1.3-2.9C977.4,190.4,982.3,190.7,987.4,193z M1007.8,212c3.1,1.4,6,1.6,6.5,0.4l1.3-2.9
			c0.5-1.1-1.6-3.2-4.7-4.5l-24.2-10.7c-3.1-1.4-6-1.6-6.5-0.4l-1.3,2.9c-0.5,1.1,1.6,3.2,4.7,4.5L1007.8,212z"/>
	</g>
</g>
<g>
	<g>
		<path class="st1" d="M878.7,160.1l30.2-5c6.4-1.1,12.2,1.9,13,6.7l1.2,7.3c0.8,4.7-3.8,9.5-10.2,10.5l-30.2,5
			c-6.4,1.1-12.2-1.9-13-6.7l-1.2-7.3C867.8,165.9,872.3,161.2,878.7,160.1z M912.4,176.2c3.8-0.6,6.6-3.5,6.1-6.3l-1.2-7.3
			c-0.5-2.8-4-4.6-7.8-4l-30.2,5c-3.8,0.6-6.6,3.5-6.1,6.3l1.2,7.3c0.5,2.8,4,4.6,7.8,4L912.4,176.2z"/>
	</g>
</g>
<g>
	<g>
		<path class="st1" d="M923,166.2l19.8,17.6c4.2,3.7,6.5,8,5.1,9.5l-2.1,2.4c-1.4,1.5-5.9-0.2-10.1-4L916,174.1
			c-4.2-3.7-6.5-8-5.1-9.5l2.1-2.4C914.3,160.7,918.8,162.5,923,166.2z M936.7,190.6c2.5,2.2,5.2,3.3,6,2.4l2.1-2.4
			c0.8-0.9-0.6-3.5-3.1-5.7L922,167.3c-2.5-2.2-5.2-3.3-6-2.4l-2.1,2.4c-0.8,0.9,0.6,3.5,3.1,5.7L936.7,190.6z"/>
	</g>
</g>
<g>
	<path class="st2" d="M163.5,329.9l97,30.7c15,4.8,23.2,21.6,18.2,37.5l0,0c-5,15.9-21.4,25-36.4,20.2l-97-30.7L163.5,329.9z"/>
	
		<ellipse transform="matrix(0.3017 -0.9534 0.9534 0.3017 -234.6743 396.3915)" class="st2" cx="153.3" cy="358.4" rx="30.3" ry="18"/>
</g>
<path class="st3" d="M108.8,362.5l4.8-71.7c1.3-20,7.6-39,17.9-54.3l8.1-12c24.9-17.4,30.9-41.3,30.9-41.3L123.3-4.7l78.2-10.6
	c4.8-0.7,9.4,2.6,10.3,7.4l39.6,196.5c0.9,4.3,1.2,8.8,1.1,13.2l-0.6,19.1l8.4,112.8c1,13.4,0.2,26.9-2.5,39.9L244.2,441
	c-0.9,4.4-2.6,8.5-5,12l-5.5,8.1l-6.2,14.9c-0.9,2.2-2.1,4.1-3.5,5.8l-36.7,42.5l-3.1,11.9l-2.2,8l-10.6,0.9l-2.4,12.8
	c-1.1,5.9-1.2,11.6-1,16.5c-8.9-17.7-12.7-38.8-10.5-59.7l9.7-96.7c5.3-42.3,3.6-71.2-5.1-86.6c-2.4-3.1-5.1-3.9-8.3-1.6
	c-4.1,3.6-7.7,22.6-11,57.5c-2.2,10.5-7.3,19.7-14.4,26L96.6,441L108.8,362.5z"/>
<linearGradient id="SVGID_1_" gradientUnits="userSpaceOnUse" x1="-753.2721" y1="547.5131" x2="-753.2721" y2="584.6799" gradientTransform="matrix(-1 0 0 1 -579.015 0)">
	<stop  offset="0" style="stop-color:#EFB7AD"/>
	<stop  offset="0.9955" style="stop-color:#D5646D"/>
</linearGradient>
<path class="st4" d="M167.2,564.5l4.4-23.7l10.8,2l-12.1,45.6l-0.8-1.3c0,0,0,0,0-0.1c-2.4-4-3.5-8.7-3.3-13.3
	C166.3,570.7,166.6,567.6,167.2,564.5z"/>
<linearGradient id="SVGID_00000027590661520745054480000017251446978002002062_" gradientUnits="userSpaceOnUse" x1="3164.4578" y1="-535.4607" x2="3164.4578" y2="-498.2939" gradientTransform="matrix(1.0605 0.5241 -0.443 0.8965 -3483.2727 -771.5529)">
	<stop  offset="0" style="stop-color:#EFB7AD"/>
	<stop  offset="0.9955" style="stop-color:#D5646D"/>
</linearGradient>
<path style="fill:url(#SVGID_00000027590661520745054480000017251446978002002062_);" d="M109.7,425.8l5.9-23.6l-12.3-3.9l-7.4,47.2
	l1.4-0.8c0,0,0,0,0.1,0c4.3-2.3,7.5-5.9,9.4-10.2C107.9,431.8,109,428.9,109.7,425.8z"/>
<path class="st6" d="M233.7,461.1l9-67.8c0,0,12.2-25.1,6.1-39.6"/>
<path class="st6" d="M187.2,524.3c0,0,30.2-72.9,31.1-135c0-3.1,0.9-6.2,2.5-8.9c3.4-5.9,9-18.4,7.4-35.1"/>
<path class="st7" d="M210.7,228.9c-29.1,0-52.9-10.5-57.5-24.7l1.3-1.9l-1.3,1.9c-0.3-0.9-0.5-1.8-0.6-2.7c-1.6-11,8.2-20,14.2-24.4
	c11.9-8.7,28.7-14.5,47.4-16.5c4.5-0.5,9-0.7,13.4-0.7c30.8,0,55.8,11.8,58.1,27.4c1.6,11-8.2,20-14.2,24.4
	c-5.4,3.9-11.8,7.3-18.9,9.9l-0.4-5.2l0.4,5.2c-8.6,3.2-18.3,5.5-28.5,6.6C219.6,228.6,215.1,228.9,210.7,228.9z"/>
<path class="st8" d="M139.5,224.5l18.5-27.6c6.1-9.1,7.8-20.5,4.7-31L113.3,1.2c-0.7-2.3,0.8-4.7,3.2-5l6.7-0.9l47.2,187.9
	C170.4,183.2,164.5,207.1,139.5,224.5z"/>
<path class="st9" d="M212.6,145.2c30.6-3.3,58.7,3.7,74,16.6l41.8-2.1l2.3,45.4l-41.7,2.1c-8,8.7-20.3,16.2-35.5,21.3l-0.8-11.5
	c7.1-2.7,13.5-6,18.9-9.9c6-4.4,15.8-13.4,14.2-24.4c-2.3-15.6-27.3-27.4-58.1-27.4c-4.4,0-8.9,0.2-13.4,0.7
	c-18.7,2-35.6,7.9-47.4,16.5c-6,4.4-15.8,13.4-14.2,24.4c0.1,0.9,0.3,1.8,0.6,2.7l-7.7,11.7c-3-4-4.9-8.3-5.6-13
	C136.3,173.7,168.8,149.9,212.6,145.2z"/>
<path class="st1" d="M212.6,149.8c30.6-3.3,58.7,3.7,74,16.6l41.8-2.1l2.3,45.4l-41.7,2.1c-8,8.7-20.3,16.2-35.5,21.3l-0.8-11.5
	c7.1-2.7,13.5-6,18.9-9.9c6-4.4,15.8-13.4,14.2-24.4c-2.3-15.6-27.3-27.4-58.1-27.4c-4.4,0-8.9,0.2-13.4,0.7
	c-18.7,2-35.6,7.9-47.4,16.5c-6,4.4-15.8,13.4-14.2,24.4c0.1,0.9,0.3,1.8,0.6,2.7l-7.7,11.7c-3-4-4.9-8.3-5.6-13
	C136.3,178.2,168.8,154.5,212.6,149.8z"/>
<g>
	
		<linearGradient id="SVGID_00000179637461157286942750000002054034599154859951_" gradientUnits="userSpaceOnUse" x1="-5219.2896" y1="2166.9692" x2="-5171.3389" y2="2166.9692" gradientTransform="matrix(-0.3017 0.9534 0.9024 0.2855 -3393.5608 4685.8423)">
		<stop  offset="0" style="stop-color:#808080"/>
		<stop  offset="0.5142" style="stop-color:#E6E7E8"/>
		<stop  offset="1" style="stop-color:#808080"/>
	</linearGradient>
	<path style="fill:url(#SVGID_00000179637461157286942750000002054034599154859951_);" d="M101.7,317.5l47.8,15.1
		c11.9,3.8,18.4,17.1,14.4,29.7l0,0c-4,12.6-17,19.8-28.9,16l-47.8-15.1L101.7,317.5z"/>
	
		<linearGradient id="SVGID_00000139275892842747030550000016412524950787439258_" gradientUnits="userSpaceOnUse" x1="-5219.3291" y1="2127.5559" x2="-5171.2988" y2="2127.5559" gradientTransform="matrix(-0.3017 0.9534 0.9024 0.2855 -3393.5608 4685.8423)">
		<stop  offset="0" style="stop-color:#808080"/>
		<stop  offset="0.9955" style="stop-color:#E6E7E8"/>
	</linearGradient>
	<path style="fill:url(#SVGID_00000139275892842747030550000016412524950787439258_);" d="M86.4,363c7.5,2.4,16.9-5.9,20.9-18.6
		c4-12.6,1.1-24.8-6.4-27.2c-7.5-2.4-16.9,5.9-20.9,18.6C76,348.4,78.8,360.6,86.4,363z"/>
	
		<linearGradient id="SVGID_00000064348879581706146460000011946692141682043796_" gradientUnits="userSpaceOnUse" x1="517.0325" y1="713.4825" x2="517.0325" y2="749.534" gradientTransform="matrix(-0.9128 -0.2505 -0.2685 0.9632 732.4236 -241.0813)">
		<stop  offset="0" style="stop-color:#9B2A21"/>
		<stop  offset="0.1279" style="stop-color:#A02A21"/>
		<stop  offset="0.3288" style="stop-color:#AC291F"/>
		<stop  offset="0.5168" style="stop-color:#BB281C"/>
		<stop  offset="0.6575" style="stop-color:#B9281D"/>
		<stop  offset="0.7763" style="stop-color:#B3291D"/>
		<stop  offset="0.8871" style="stop-color:#AA291F"/>
		<stop  offset="0.9925" style="stop-color:#9D2A21"/>
		<stop  offset="1" style="stop-color:#9B2A21"/>
	</linearGradient>
	<path style="fill:url(#SVGID_00000064348879581706146460000011946692141682043796_);" d="M46.8,342.5c5.3-3.3,4.3-15.4-2.1-26.9
		c-3.6-6.4-8.1-11.3-12.3-13.8l0.1-0.2l58.8,18.6c9.1,2.9,14.1,13.1,11,22.7l0,0c-3,9.6-13,15.1-22.1,12.2l-36.9-11.7
		C44.6,343.4,45.7,343.2,46.8,342.5z"/>
	<path class="st13" d="M39.7,342c-4.4-2.4-9.2-7.5-13-14.3c-0.3-0.5-0.6-1.1-0.9-1.6c-5.6-11-6.3-22.2-1.2-25.3
		c2.3-1.5,5.5-1,8.9,1.1c4.2,2.5,8.7,7.4,12.3,13.8c6.4,11.6,7.4,23.6,2.1,26.9c-1,0.6-2.2,0.9-3.5,0.8
		C42.9,343.4,41.4,342.9,39.7,342z"/>
</g>
<g>
	<g>
		<path class="st14" d="M522.1,71.2c-14.3,13.5-28.5,27-42.7,40.6c-4.6,4.3-9.1,8.7-12.3,14.2c-10.2,18.1-1.2,42.6-11.9,60.5
			c-9.1,15.3-30.4,21.1-37.6,37.5c-9.5,21.7,11.3,47,4.1,69.6c-3.6,11.3-13.7,19.3-20.1,29.4c-8.1,12.8-10.1,28.3-10.9,43.3
			c-0.1,2.1-0.2,4.2,0.7,6.1c1.2,2.7,4.2,4,6.9,5.1c54.8,23,113.9,36.4,173.4,39c3.2,0.2,6.9,0.2,9.5-1.7c3.5-2.6,4.2-7.5,4.5-11.9
			c7.6-117,15.2-234.5,5.6-351.3c-28.6,10.2-56.8,21.1-84.7,33L522.1,71.2z"/>
	</g>
	<g>
		<path class="st14" d="M636.9,52.8c14.3,13.5,28.5,27,42.7,40.6c4.6,4.3,9.1,8.7,12.3,14.2c10.2,18.1,1.2,42.6,11.9,60.5
			c9.1,15.3,30.4,21.1,37.6,37.5c9.5,21.7-11.3,47-4.1,69.6c3.6,11.3,13.7,19.3,20.1,29.4c8.1,12.8,10.1,28.3,10.9,43.3
			c0.1,2.1,0.2,4.2-0.7,6.1c-1.2,2.7-4.2,4-6.9,5.1c-54.8,23-113.9,36.4-173.4,39c-3.2,0.2-6.9,0.2-9.5-1.7
			c-3.5-2.6-4.2-7.5-4.5-11.9c-7.6-117-15.2-234.5-5.6-351.3c28.6,10.2,56.8,21.1,84.7,33L636.9,52.8z"/>
	</g>
	<path class="st15" d="M733.9,603.5l-9.1-125.9c-1.4-19.2-13.8-34-27.6-32.7l-5,0.4c-13.8,1.1-24,17.8-22.6,37l9.1,125.9
		L733.9,603.5z"/>
	
		<linearGradient id="SVGID_00000163067816175839295120000012710755989617480636_" gradientUnits="userSpaceOnUse" x1="630.4454" y1="163.5956" x2="726.9756" y2="163.5956" gradientTransform="matrix(1 0 0 -1 0 581.7381)">
		<stop  offset="0" style="stop-color:#666FB4"/>
		<stop  offset="0.9955" style="stop-color:#566094"/>
	</linearGradient>
	<path style="fill:url(#SVGID_00000163067816175839295120000012710755989617480636_);" d="M717.7,379.2c-0.7-9.5-4.1-18-9-23.9
		l0.2-0.2c0,0-27.7-29-65.6-28.7l-12.9,15.7l32.2,41.6v0.1l9.1,125.9l55.2-4.6L717.7,379.2z"/>
	<path class="st17" d="M463.7,356.1c0,0,26.3-29,62.4-28.7l12.2,15.7l-34.9,47.6L463.7,356.1z"/>
	<path class="st15" d="M439.9,604.4l8.7-125.9c1.3-19.2,13.1-34,26.3-32.7l4.8,0.4c13.1,1.1,22.8,17.8,21.4,37l-8.7,125.9
		L439.9,604.4z"/>
	<path class="st17" d="M446.6,506.1l8.7-125.9c1.3-19.2,13.1-34,26.3-32.7l4.8,0.4c13.1,1.1,22.8,17.8,21.4,37l-8.7,125.9
		L446.6,506.1z"/>
	<line class="st7" x1="718.4" y1="266.2" x2="725.2" y2="265.1"/>
	<path class="st17" d="M634.7,493.4h-48c-35.2,0-64-28.7-64-64l0,0c0-35.2,28.7-64,64-64h48c35.2,0,64,28.7,64,64l0,0
		C698.7,464.6,670,493.4,634.7,493.4z"/>
	<path class="st17" d="M698.7,430.2L698.7,430.2c0,35.2-28.7,64-64,64h-48c-35.2,0-64-28.7-64-64l0,0"/>
	<path class="st17" d="M566.8,593.3L566.8,593.3c-35.2,0-64-28.7-64-64l0,0c0-35.2,28.7-64,64-64l0,0c35.2,0,64,28.7,64,64l0,0
		C630.7,564.6,601.9,593.3,566.8,593.3z"/>
	<path class="st17" d="M489.1,380.5c14.6-14.9,79.6-51.2,79.6-51.2L599.3,647l0,0l-7,4.6l-7.7-4.1l0,0l0,0l-61-32.8
		C490,568.6,489.1,380.5,489.1,380.5z"/>
	<path class="st17" d="M674.1,380.5c-11.6-14.9-63.1-51.2-63.1-51.2L586.7,647l0,0l5.6,4.6l6.1-4.1l0,0l0,0l48.5-32.8
		C673.3,568.6,674.1,380.5,674.1,380.5z"/>
	<ellipse class="st15" cx="491.3" cy="162.3" rx="26.5" ry="32.7"/>
	<ellipse class="st15" cx="676.7" cy="163.5" rx="26.5" ry="32.7"/>
	<path class="st18" d="M678,170.8c0,0,7.9-8.5,17.1-6.7C695.2,164.2,681.9,157,678,170.8z"/>
	<path class="st18" d="M494.4,167.8c0,0-7.9-8.5-17.1-6.7C477.2,161.1,490.5,154.1,494.4,167.8z"/>
	<path class="st15" d="M588.7,356.9L588.7,356.9c-14.9,0-27.2-12.3-27.2-27.2v-68.8c0-14.9,12.3-27.2,27.2-27.2l0,0
		c14.9,0,27.2,12.3,27.2,27.2v68.8C615.8,344.7,603.6,356.9,588.7,356.9z"/>
	<path class="st15" d="M665.9,329.7h-95.3l1.6-3.4l-10.8-8c-3,2.8-39.3,9.5-48.2,11.1c-1.2,0.2-1.9,0.4-1.9,0.4
		c0,49.6,34.7,89.8,77.3,89.8c2.1,0,4.1-0.1,6.1-0.3c-0.6-5.6-3.6-10.2-3.6-10.2c5.2,3,6.5,6.7,6.2,9.9
		C635.9,413.9,665.9,375.9,665.9,329.7z"/>
	<path class="st18" d="M591.1,409c0,0,3,4.6,3.6,10.2c0.9-0.1,1.7-0.2,2.6-0.3C597.6,415.7,596.4,412,591.1,409z"/>
	<path class="st15" d="M665.9,329.7c0,0-0.7-0.1-1.9-0.4c-8.9-1.6-45.1-8.4-48.2-11.1l-10.8,8l10.8,23.3h29.1"/>
	<path class="st19" d="M671.1,481.6c0,0-25.8,16.5-107.8,10.7c0,0,54.5,15.9,107-0.7L671.1,481.6z"/>
	<ellipse class="st15" cx="588.7" cy="162.3" rx="97.4" ry="116.5"/>
	<g>
		<path class="st14" d="M650.5,54.9c-3.6-10.9-12.9-19.4-23.7-24.3c-10.9-4.9-23.1-6.1-35-5.4c-27.3,1.5-53.9,13.4-72.3,32.7
			s-28.3,45.6-26.5,71.5c15.6,1.7,31.4-3.4,44.6-11.5c13.2-8.1,24.3-18.9,35-29.7c5.9-5.9,12.1-12,20-15c13.1-5.1,28.1-1,42.3-0.6
			c2,0.1,4,0,5.7-0.8c6.3-3,3.4-12.2,6.6-18.2L650.5,54.9z"/>
	</g>
	<g>
		<path class="st14" d="M640.4,72.8c-4.1,13.2-1.3,28.1,7,39.3c8.1,10.8,21.3,18.8,24.3,31.6c4.5-3,8.9-5.8,13.3-8.8
			c2.8-1.8,5.5-3.7,7-6.5c1.3-2.4,1.5-5.1,1.5-7.8c0.5-27.4-14.6-54.6-38.7-70.2c-2.1-1.3-4.4-2.7-6.9-2.6c-4,0.2-6.9,3.7-8.3,7.3
			c-2.1,5.2-2.3,11-0.7,16.4L640.4,72.8z"/>
	</g>
	<path class="st14" d="M534.7,137.1c0.3-1.9,8.9-2.9,19.1-2.2c10.2,0.7,18.3,2.8,17.9,4.7L534.7,137.1z"/>
	<path class="st14" d="M648.9,137.1c-0.3-1.9-8.9-2.9-19.1-2.2c-10.2,0.7-18.3,2.8-17.9,4.7L648.9,137.1z"/>
	<g>
		<ellipse class="st20" cx="564.3" cy="166.6" rx="5.1" ry="5.4"/>
		<path class="st20" d="M557.3,159.3c0,0,1.4,5.8,5.2,6.2l2.2-1.3C564.8,164.2,560.9,165,557.3,159.3z"/>
	</g>
	<g>
		<ellipse class="st20" cx="616.9" cy="168.4" rx="5.1" ry="5.4"/>
		<path class="st20" d="M624,161.1c0,0-1.4,5.8-5.2,6.2l-2.2-1.3C616.5,166.1,620.4,166.8,624,161.1z"/>
	</g>
	<path class="st18" d="M595.3,206.2c-2.4,2.6-6.8,2.4-10.1-0.2c0.2,0.3,0.5,0.6,0.8,0.8c3.4,3.2,8.3,3.6,10.9,0.9
		c2.6-2.8,2-7.6-1.4-10.9c-0.3-0.3-0.6-0.5-0.9-0.7C597.3,199.4,597.7,203.8,595.3,206.2z"/>
	<path class="st21" d="M613.7,231.7c0,6.3-9.8,11.4-21.9,11.4c-12.1,0-21.9-5.1-21.9-11.4"/>
</g>
</svg>
