<?xml version="1.0" encoding="utf-8"?>
<!-- Generator: Adobe Illustrator 24.1.1, SVG Export Plug-In . SVG Version: 6.00 Build 0)  -->
<svg version="1.1" id="Layer_1" xmlns="http://www.w3.org/2000/svg" xmlns:xlink="http://www.w3.org/1999/xlink" x="0px" y="0px"
	 viewBox="0 0 1000 332.9" style="enable-background:new 0 0 1000 332.9;" xml:space="preserve">
<style type="text/css">
	.st0{fill:none;stroke:#656EB3;stroke-width:3.4272;stroke-miterlimit:10;}
	.st1{fill:none;stroke:#656EB3;stroke-width:2.0563;stroke-miterlimit:10;}
	.st2{fill:#656EB3;}
	.st3{font-family:'Arial-BoldMT';}
	.st4{font-size:24.9px;}
</style>
<g>
	<line class="st0" x1="70.8" y1="47.9" x2="931.7" y2="47.9"/>
	<line class="st0" x1="70.8" y1="87" x2="931.7" y2="87"/>
	<line class="st0" x1="70.8" y1="165.3" x2="931.7" y2="165.3"/>
	<line class="st0" x1="70.8" y1="204.4" x2="931.7" y2="204.4"/>
	<line class="st0" x1="70.8" y1="243.5" x2="931.7" y2="243.5"/>
	<line class="st0" x1="70.8" y1="282.6" x2="931.7" y2="282.6"/>
	<line class="st1" x1="80.2" y1="66.5" x2="922.4" y2="66.5"/>
	<line class="st1" x1="80.2" y1="105.6" x2="922.4" y2="105.6"/>
	<line class="st1" x1="80.2" y1="183.8" x2="922.4" y2="183.8"/>
	<line class="st1" x1="80.2" y1="222.9" x2="922.4" y2="222.9"/>
	<line class="st1" x1="80.2" y1="262" x2="922.4" y2="262"/>
	<line class="st0" x1="70.8" y1="126.1" x2="931.7" y2="126.1"/>
	<line class="st1" x1="80.2" y1="144.7" x2="922.4" y2="144.7"/>
	<g>
		<text transform="matrix(1 0 0 1 16.7408 56.8173)" class="st2 st3 st4">200</text>
		<text transform="matrix(1 0 0 1 16.7408 95.5966)" class="st2 st3 st4">190</text>
		<text transform="matrix(1 0 0 1 16.7408 134.3779)" class="st2 st3 st4">180</text>
		<text transform="matrix(1 0 0 1 16.7408 173.1572)" class="st2 st3 st4">170</text>
		<text transform="matrix(1 0 0 1 16.7408 211.9394)" class="st2 st3 st4">160</text>
		<text transform="matrix(1 0 0 1 16.7408 250.7207)" class="st2 st3 st4">150</text>
		<text transform="matrix(1 0 0 1 16.7408 289.4999)" class="st2 st3 st4">140</text>
	</g>
	<g>
		<text transform="matrix(1 0 0 1 941.714 55.4243)" class="st2 st3 st4">200</text>
		<text transform="matrix(1 0 0 1 941.714 94.2036)" class="st2 st3 st4">190</text>
		<text transform="matrix(1 0 0 1 941.714 132.9848)" class="st2 st3 st4">180</text>
		<text transform="matrix(1 0 0 1 941.714 171.7636)" class="st2 st3 st4">170</text>
		<text transform="matrix(1 0 0 1 941.714 210.5459)" class="st2 st3 st4">160</text>
		<text transform="matrix(1 0 0 1 941.714 249.3271)" class="st2 st3 st4">150</text>
		<text transform="matrix(1 0 0 1 941.714 288.1064)" class="st2 st3 st4">140</text>
	</g>
</g>
</svg>
