<?xml version="1.0" encoding="utf-8"?>
<!-- Generator: Adobe Illustrator 27.7.0, SVG Export Plug-In . SVG Version: 6.00 Build 0)  -->
<svg version="1.1" id="레이어_1" xmlns="http://www.w3.org/2000/svg" xmlns:xlink="http://www.w3.org/1999/xlink" x="0px"
	 y="0px" viewBox="0 0 200 50" style="enable-background:new 0 0 200 50;" xml:space="preserve">
<style type="text/css">
	.st0{fill:#FFFFFF;}
	.st1{fill:#D6646D;}
</style>
<path class="st0" d="M10.6,35.1c-0.2-2.3,0-2.8,1.9-2.8h1.8c0-0.6,0-1.3,0-2c0-1.1,0-1.8,0.1-3.9c0.1-2.5,0.2-3.4,0.1-5.9
	c0-1,0-2-0.1-3.2c-3.1-0.2-3.6-0.4-3.6-2.1c0-2.7,0.6-3,4.3-2.6c1,0.1,3.6,0,4.6,0c3.2-0.1,3.7,0.4,3.7,2.7c0,1.7-0.5,2.2-4.2,2.1
	c0.1,1,0.1,2,0.1,3c0,2.4,0,3.1-0.1,5.5c-0.1,1.3-0.2,2.4-0.2,3.8c0,0.7,0,1.6,0.1,2.6c2.5,0.1,4.9,0.1,7.3,0
	c-0.1-1.4-0.1-2.4,0-3.3c0.3-2,0.5-2.2,2.5-2.2c2.8,0,2.8,0.8,2.4,4.2c-0.3,2.3,0.3,4.6-0.6,5.6c-0.9,0.8-2.5,0.6-2.9,0.6
	c-4.2,0-9.5,0-14.1,0C11.8,37.2,10.8,36.7,10.6,35.1z"/>
<path class="st1" d="M13.7,36.2c-2,0-2.1-0.6-2.1-1.1c-0.1-0.9-0.1-1.5,0-1.7c0,0,0,0,0,0c0,0,0.2-0.1,0.9-0.1h2.8l-0.1-1.1
	c0-0.6,0-1.3,0-1.9l0-0.6c0-0.8,0-1.6,0.1-3.2c0.1-2.6,0.2-3.5,0.1-5.9c0-1,0-2.1-0.1-3.2l-0.1-0.9l-0.9-0.1
	c-2.7-0.2-2.7-0.2-2.7-1.1c0-1.7,0.1-1.7,1.2-1.7c0.5,0,1.1,0,1.9,0.1c0.4,0,1,0.1,1.8,0.1c1.1,0,2.3,0,2.9-0.1c0.2,0,0.3,0,0.5,0
	c2.2,0,2.2,0.2,2.2,1.7c0,0.9,0,1.1-2.1,1.1c-0.3,0-0.6,0-1,0l-1.1,0l0.1,1.1c0.1,1,0.1,2,0.1,2.9c0,2.5,0,3.1-0.1,5.5
	c0,0.4,0,0.8-0.1,1.2c-0.1,0.8-0.1,1.7-0.1,2.6c0,0.6,0,1.6,0.1,2.7l0.1,0.9l0.9,0c1.2,0,2.5,0.1,3.7,0.1s2.4,0,3.7-0.1l1.1,0
	l-0.1-1.1c-0.1-1.3-0.1-2.3,0-3.1c0-0.3,0.1-1.1,0.3-1.3c0.1-0.1,1-0.1,1.2-0.1c1.2,0,1.4,0.2,1.5,0.2c0.2,0.3,0,1.8-0.1,2.9
	c-0.1,1-0.1,1.9-0.1,2.7c0,1,0,2-0.3,2.3c-0.1,0.1-0.5,0.3-1.4,0.3c-0.2,0-0.4,0-0.6,0c-0.1,0-0.2,0-0.3,0c-0.8,0-1.7,0-2.6,0
	c-1.8,0-3.8,0-5.7,0C17.5,36.2,15.6,36.2,13.7,36.2z"/>
<path class="st1" d="M13-18c-2.1,0-2.4-0.7-2.4-1.4c-0.1-0.6-0.1-1.7,0.1-1.9c0.1-0.1,0.5-0.2,1.2-0.2h2.5l0-0.7c0-0.6,0-1.3,0-1.9
	l0-0.6c0-0.8,0-1.6,0.1-3.3c0.1-2.4,0.2-3.3,0.1-5.9c0-1,0-2-0.1-3.2l0-0.6l-0.6,0c-3-0.2-3-0.3-3-1.4c0-1.9,0.2-2,1.6-2
	c0.5,0,1.1,0,2,0.1c0.4,0,1,0.1,1.8,0.1c1.1,0,2.3,0,2.9-0.1c0.2,0,0.3,0,0.5,0c2.5,0,2.5,0.4,2.5,2c0,1,0,1.4-2.5,1.4
	c-0.3,0-0.6,0-1,0l-0.7,0l0.1,0.7c0.1,0.9,0.1,2,0.1,2.9c0,2.5,0,3.1-0.1,5.5c0,0.4,0,0.8-0.1,1.2c-0.1,0.8-0.1,1.6-0.1,2.6
	c0,0.6,0,1.6,0.1,2.7l0.1,0.6l0.6,0c1.2,0,2.5,0.1,3.7,0.1s2.4,0,3.6-0.1l0.7,0l-0.1-0.7c-0.1-1.4-0.1-2.3,0-3.2
	c0.2-1.6,0.2-1.6,1.8-1.6c1,0,1.5,0.1,1.7,0.3c0.3,0.4,0.2,1.8,0,3.1c-0.1,0.9-0.1,1.8-0.1,2.6c0,1.1,0,2.2-0.4,2.6
	C29.4-18.2,28.9-18,28-18c-0.2,0-0.4,0-0.6,0c-0.1,0-0.2,0-0.3,0c-0.8,0-1.7,0-2.6,0c-1.8,0-3.8,0-5.7,0C16.8-18,14.9-18,13-18z"/>
<path class="st0" d="M38.6,36.7C36.7,35.8,35,34,34,32c-1.2-2.4-1.8-6.3-1.1-10.2c0.6-3.5,2.8-6.5,5.6-8.2c2.9-1.8,7.5-2.1,10.6-0.5
	c2.6,1.4,4,3.1,5.2,5.6c0.9,1.8,1.5,4.6,1.3,7.5c-0.3,4-2.4,9.3-7.6,11C44.7,38.4,41.1,38,38.6,36.7z M48.4,31.2
	c2.6-2.7,2.8-8,1.1-11c-0.9-1.5-2.1-2.6-3.7-3C42.8,16.5,40.4,18,39,20c-1.6,2.6-2.2,7.4,0.4,10.7c0.7,1,1.6,1.4,2.9,1.8
	C44.8,33.4,47,32.6,48.4,31.2z"/>
<path class="st1" d="M43.8,36.9c-1.7,0-3.4-0.4-4.8-1.1c-1.7-0.9-3.3-2.5-4.2-4.3c-1-2-1.7-5.7-1-9.5c0.6-3.1,2.5-6,5.1-7.6
	c1.4-0.9,3.4-1.4,5.4-1.4c1.6,0,3,0.3,4.2,0.9c2.3,1.2,3.6,2.6,4.8,5.2c0.9,1.9,1.3,4.5,1.2,7c-0.3,3.9-2.2,8.5-6.9,10.1
	C46.5,36.7,45.2,36.9,43.8,36.9z M44.2,16c-2.4,0-4.6,1.3-6,3.5c-1.9,3-2.3,8.3,0.4,11.9c1,1.3,2.2,1.8,3.3,2.2
	c0.8,0.2,1.6,0.4,2.3,0.4c1.9,0,3.6-0.7,4.8-2c3-3.1,3.1-9,1.2-12.2c-1-1.7-2.5-3-4.3-3.4C45.3,16.1,44.8,16,44.2,16z"/>
<path class="st1" d="M43.2-17.3c-1.8,0-3.6-0.4-4.9-1.1c-1.8-0.9-3.4-2.6-4.3-4.4c-1.2-2.5-1.6-6.3-1-9.8c0.6-3.2,2.6-6.1,5.3-7.8
	c1.5-0.9,3.5-1.5,5.6-1.5c1.6,0,3.2,0.3,4.4,1c2.3,1.2,3.7,2.7,4.9,5.3c0.9,1.9,1.4,4.7,1.2,7.2c-0.3,4-2.3,8.8-7.1,10.4
	C45.9-17.5,44.5-17.3,43.2-17.3z M43.5-38.2c-2.2,0-4.4,1.2-5.7,3.3c-1.9,2.9-2.2,8,0.4,11.5c0.9,1.2,2.1,1.7,3.2,2.1
	c0.7,0.2,1.5,0.4,2.2,0.4c1.8,0,3.4-0.7,4.6-1.9c2.9-3,3-8.7,1.1-11.8c-1-1.7-2.4-2.8-4.1-3.3C44.6-38.1,44.1-38.2,43.5-38.2z"/>
<path class="st0" d="M58.3,29.1c-1.5-7,0.7-14,7.7-16.5c0.7-0.3,1.8-0.4,2.6-0.5c2.2-0.2,5.5,0.6,6.6,2.7c0-2.1,0.5-2.6,2.4-2.6
	c3.3,0,1.9,3.3,2,5.6c0.1,3,0.3,4.8-2.2,4.8c-1.8,0-1.9-1.1-2.7-2.4c-1-1.8-2.4-3-4.4-3.2c-2-0.2-3.4,0.4-4.6,1.3
	c-1.3,1-2.3,2.9-2.6,4.9c-0.4,2.7-0.1,5.2,1.4,7.4c1.4,2,3.8,3,6.5,2.4c1.5-0.3,3-1.4,3.7-2.2c1.1-1.1,2.1-1.8,3.3-1
	c1.7,1.3,1.3,2.9,0.6,3.8c-1.3,1.9-4.7,4.6-10.3,4.2C63,37.5,59.2,33.6,58.3,29.1z"/>
<path class="st1" d="M69.4,36.8c-0.3,0-0.7,0-1,0c-5.2-0.3-8.3-4.2-9.1-7.9c-1.2-5.5,0-12.8,7.1-15.4c0.5-0.2,1.3-0.3,2.3-0.4
	c0.2,0,0.4,0,0.6,0c1.9,0,4.3,0.7,5,2.1l1.9-0.5c0-1.6,0.1-1.6,1.4-1.6c0.3,0,0.8,0,1,0.3c0.3,0.4,0.2,1.5,0.1,2.4
	c-0.1,0.7-0.1,1.3-0.1,2l0,0.4c0.1,1.4,0.1,2.8-0.2,3.2c-0.2,0.2-0.6,0.2-1,0.2c-0.8,0-0.9-0.2-1.4-1.2c-0.1-0.2-0.2-0.5-0.4-0.7
	c-1.2-2.2-3-3.4-5.2-3.7c-0.3,0-0.6,0-0.9,0c-1.7,0-3.1,0.5-4.4,1.5c-1.5,1.2-2.7,3.3-3,5.5c-0.4,3.2,0.1,5.9,1.6,8.1
	c1.3,1.9,3.4,3,5.8,3c0.6,0,1.1-0.1,1.7-0.2c1.8-0.4,3.4-1.6,4.3-2.5c0.2-0.3,1-1,1.5-1c0.1,0,0.2,0,0.5,0.2
	c1.2,0.8,0.9,1.8,0.4,2.4C77.4,33.7,75,36.8,69.4,36.8z"/>
<path class="st1" d="M68.7-17.3c-0.3,0-0.7,0-1,0c-5.4-0.3-8.6-4.4-9.4-8.2c-1.6-7.4,1.3-13.6,7.3-15.7c0.5-0.2,1.3-0.3,2.4-0.4
	c0.2,0,0.4,0,0.7,0c2,0,4.5,0.7,5.3,2.3l1.3-0.3c0-1.8,0.2-1.9,1.7-1.9c0.6,0,1,0.1,1.2,0.4c0.4,0.5,0.3,1.6,0.2,2.7
	c-0.1,0.6-0.1,1.3-0.1,1.9l0,0.4c0.1,1.6,0.1,2.9-0.3,3.4c-0.2,0.2-0.6,0.3-1.2,0.3c-1,0-1.3-0.4-1.7-1.4c-0.1-0.2-0.2-0.5-0.4-0.7
	c-1.2-2.1-2.8-3.3-4.9-3.5c-0.3,0-0.6,0-0.9,0c-1.6,0-2.9,0.5-4.2,1.5c-1.5,1.1-2.6,3.2-2.9,5.3c-0.4,3.1,0.1,5.8,1.5,7.8
	c1.3,1.8,3.3,2.8,5.5,2.8c0.5,0,1.1-0.1,1.6-0.2c1.7-0.4,3.3-1.5,4.1-2.4c0.7-0.8,1.3-1.1,1.7-1.1c0.2,0,0.5,0.1,0.7,0.3
	c1.5,1.1,0.8,2.4,0.5,2.9C76.1-19.4,73.2-17.3,68.7-17.3z"/>
<path class="st0" d="M79.7,34.8c0-1.9,0.5-2.3,2.6-2.3c0.5-1.5,0.7-2.3,1.2-3.9c0.6-2,0.9-3.1,1.5-5.5c0.5-2,0.9-3,1.4-4.8
	c0.4-1.4,0.6-2,1.2-4c0.4-1.3,1.8-1.8,4-1.8c2.9,0,3.9,0.6,4.3,2c0.5,1.7,0.9,2.7,1.2,3.8c0.7,2.3,1,3.2,1.4,5
	c1.1,3.9,1.6,5.8,2.5,9.1c2.2-0.1,2.5,0.1,2.6,2.4c0.1,3.4-3.7,2-6.4,2.4c-2.2,0.3-3.6,0-3.7-1.7c-0.2-2.4,0-2.7,2.3-2.9
	c-0.3-1-0.6-1.9-0.8-2.7c-2.3,0.1-4.7,0.2-6.8,0.1c-0.2,0.6-0.4,1.3-0.7,2.6c2.1,0.3,2.3,0.6,2.3,2.5c0,1.9-0.5,2.1-5.5,2.2
	C80.1,37.3,79.7,37.2,79.7,34.8z M94,25.4c-1.4-5.8-1.8-7-2.2-9.4c-0.4,2.5-1,3.9-2.3,9.5C90.6,25.5,92.8,25.5,94,25.4z"/>
<path class="st1" d="M96.1,36.4c-1.3,0-1.4-0.4-1.4-0.9c0-0.4-0.1-1.4,0-1.6c0.2-0.1,1.1-0.2,1.4-0.2l1.2-0.1L97,32.4
	c-0.2-0.5-0.3-1-0.5-1.5c-0.1-0.4-0.2-0.8-0.3-1.1L95.9,29l-0.8,0c-1.5,0.1-3,0.1-4.6,0.1c-0.7,0-1.5,0-2.2,0l-0.8,0l-0.2,0.7
	c-0.2,0.5-0.3,0.9-0.5,1.7l-0.6,2l1.2,0.1c1.5,0.2,1.5,0.2,1.5,1.5c0,1,0,1.1-4.6,1.2l-0.8,0c-2.8,0-2.8,0-2.8-1.5
	c0-1.3,0-1.3,1.6-1.3H83l0.2-0.7c0.4-1.1,0.6-1.9,0.9-2.9l0.3-1.1c0.6-1.9,0.9-3,1.5-5.5c0.3-1.1,0.5-1.9,0.8-2.7
	c0.2-0.6,0.4-1.2,0.6-2c0.3-1.2,0.5-1.8,1-3.2l0.2-0.8c0.1-0.3,0.4-1.1,3.1-1.1c2.9,0,3.2,0.7,3.4,1.3l0.2,0.7
	c0.4,1.3,0.7,2.2,1,3.1l0.4,1.4c0.4,1.4,0.7,2.2,1,3.6c0.9,3.4,1.4,5.3,2.2,7.8l0.6,2.1l0.8,0c0.2,0,0.5,0,0.7,0
	c0.6,0,0.7,0.1,0.7,0.1c0,0,0.1,0.3,0.1,1.3c0,0.5-0.1,0.8-0.2,1c-0.3,0.3-1.2,0.4-1.8,0.4c-0.3,0-0.6,0-1,0c-0.4,0-0.7,0-1.1,0
	c-0.6,0-1,0-1.4,0.1C96.8,36.4,96.4,36.4,96.1,36.4z M90.8,15.9c-0.2,1.3-0.5,2.3-0.9,3.9c-0.4,1.3-0.8,3-1.4,5.5l-0.3,1.2h1.3
	c1.2,0,3.4,0,4.6-0.1l1.2,0L95,25.2c-0.6-2.5-1-4.1-1.3-5.4c-0.4-1.7-0.7-2.6-0.9-3.9L90.8,15.9z"/>
<path class="st1" d="M95.4-17.8c-1.4,0-1.7-0.4-1.7-1.2c-0.1-2-0.1-2,1.7-2.2l0.8-0.1L96-22.1c-0.2-0.5-0.3-1-0.5-1.5
	c-0.1-0.4-0.2-0.8-0.3-1.1L95-25.2l-0.5,0C93-25.1,91.4-25,89.9-25c-0.8,0-1.5,0-2.2,0l-0.5,0L87-24.6c-0.2,0.5-0.3,1-0.5,1.7
	l-0.5,1.6l0.8,0.1c1.8,0.2,1.8,0.3,1.8,1.8c0,1.3,0,1.5-4.9,1.5c-0.3,0-0.6,0-0.8,0c-3.2,0-3.2-0.1-3.2-1.8c0-1.5,0.1-1.6,2-1.6h0.5
	l0.2-0.5c0.4-1.1,0.6-1.9,0.9-2.9c0.1-0.3,0.2-0.7,0.3-1.1c0.6-1.9,0.9-3,1.5-5.5c0.3-1.1,0.5-1.9,0.8-2.7c0.2-0.6,0.4-1.2,0.6-2
	c0.3-1.2,0.5-1.8,1-3.2l0.3-0.8c0.2-0.6,0.8-1.4,3.4-1.4c2.9,0,3.4,0.7,3.7,1.5l0.2,0.7c0.4,1.3,0.7,2.2,1,3.1l0.4,1.4
	c0.4,1.4,0.7,2.2,1,3.6c0.9,3.4,1.4,5.3,2.2,7.8l0.5,1.8l0.5,0c0.2,0,0.5,0,0.7,0c1.1,0,1.2,0,1.2,1.7c0,0.6-0.1,1-0.3,1.2
	c-0.4,0.4-1.3,0.5-2.1,0.5c-0.3,0-0.6,0-1,0c-0.4,0-0.7,0-1.1,0c-0.5,0-1,0-1.4,0.1C96.2-17.8,95.8-17.8,95.4-17.8z M90.4-38.6
	c-0.2,1.3-0.5,2.4-0.9,3.9c-0.4,1.3-0.8,3-1.4,5.5l-0.2,0.8h0.8c1.1,0,3.3,0,4.6-0.1l0.8,0L94-29.2c-0.6-2.5-1-4.1-1.3-5.4
	c-0.4-1.7-0.7-2.7-0.9-4L90.4-38.6z"/>
<path class="st0" d="M106.5,34.7c0-1.8,0.6-2.2,4.3-2.3c0-0.6-0.1-1.2-0.1-1.8c0-1.3-0.1-1.9-0.1-3.2c0-0.7-0.1-2.1-0.1-3.9
	c0-2.3,0-3.2,0.1-4.9l0-1.1c-1.7,0-3-0.1-4.3-0.2c0,0.6,0,1.1,0,1.6c-0.1,2.3-0.5,2.9-2.2,3c-2.7,0.2-2.9-0.3-2.5-3.6
	c0.2-2.1-0.6-4.2,1.1-5.4c0.9-0.6,2.9-0.5,3.8-0.5c2.5,0,4.1,0.1,6.4,0.2c1.8,0.1,3,0.1,5,0.1l4.4-0.1c1.7,0,2.1,0.4,2.1,5.8
	c0,3.4-0.3,3.6-2.3,3.6c-2.6,0-2.9-0.3-2.7-2.5c0.1-0.8,0-1.4,0-2c-1.5,0.1-2.2,0.1-3.7,0c-0.1,0.7-0.1,1.4-0.1,2.1
	c-0.1,2.3-0.1,3.9-0.1,6.2c0,2.3,0.1,4.1,0.1,6.4c4-0.1,4.3,0.2,3.8,3.4c-0.2,1.3-1.8,1.6-4,1.5c-1.9-0.1-3.5-0.1-5.5,0.1
	C107.3,37.6,106.5,37.4,106.5,34.7z"/>
<path class="st1" d="M108.5,36.4c-0.8,0-1,0-1-1.6c0-0.9,0-1.2,3.4-1.3l1,0l-0.1-1.2c0-0.5-0.1-1.1-0.1-1.5c0-0.6,0-1.1,0-1.6
	c0-0.5,0-1-0.1-1.7c0-0.4-0.1-1.6-0.1-3.9c0-2.3,0-3.2,0.1-4.9l0.1-2.1h-1c-1.8,0-3.1-0.1-4.2-0.2l-1.1-0.1v1.1c0,0.6,0,1.1,0,1.6
	c-0.1,2-0.3,2-1.3,2.1c-0.3,0-0.5,0-0.7,0c-0.6,0-0.8-0.1-0.8-0.1c-0.2-0.3,0-1.8,0-2.4c0.1-0.7,0-1.3,0-2c-0.1-1.6,0-2.2,0.7-2.7
	c0.2-0.2,0.9-0.4,2.6-0.4l0.6,0c2.3,0,3.9,0.1,6,0.2l0.3,0c1.2,0.1,2.1,0.1,3.1,0.1c0.6,0,1.2,0,2,0l4.5-0.1c0.6,0,1,0,1,4.8
	c0,0.6,0,2.3-0.2,2.5c-0.1,0-0.3,0.1-1,0.1c-1.2,0-1.6-0.1-1.7-0.2c0,0-0.1-0.3,0-1.3c0.1-0.7,0-1.2,0-1.7l0-1.5l-1,0
	c-0.7,0-1.3,0-1.8,0c-0.5,0-1.1,0-1.8,0l-1,0l-0.1,0.9c-0.1,0.7-0.1,1.4-0.1,2.1c-0.1,2.4-0.1,4-0.1,6.3c0,2,0,3.5,0.1,5.3l0.1,2.1
	l1,0c0.4,0,0.8,0,1.1,0c1.5,0,1.8,0.2,1.8,0.2c0.2,0.2,0,1.6-0.1,2.1c-0.1,0.6-1.6,0.6-2.2,0.6c-0.2,0-0.5,0-0.7,0
	c-0.7,0-1.4-0.1-2-0.1c-1.2,0-2.3,0.1-3.7,0.2C109.4,36.3,108.9,36.4,108.5,36.4z"/>
<path class="st1" d="M107.9-17.8c-0.9,0-1.3,0-1.3-2c0-1.1,0-1.5,3.7-1.7l0.7,0l0-0.9c0-0.6-0.1-1.1-0.1-1.5c0-0.6,0-1.1,0-1.6
	c0-0.5,0-1-0.1-1.7c0-0.4-0.1-1.7-0.1-3.9c0-2.3,0-3.2,0.1-4.9l0.1-1.8h-0.7c-1.8,0-3.1-0.1-4.3-0.2l-0.7-0.1v0.7c0,0.6,0,1.1,0,1.6
	c-0.1,2.3-0.5,2.3-1.6,2.4c-0.3,0-0.5,0-0.8,0c-0.5,0-0.9-0.1-1-0.2c-0.3-0.3-0.1-1.8-0.1-2.7c0.1-0.7,0-1.3,0-1.9
	c-0.1-1.5-0.1-2.4,0.8-3c0.6-0.4,2.3-0.4,2.8-0.4l0.6,0c2.3,0,3.9,0.1,6,0.2l0.3,0c1.2,0.1,2.1,0.1,3.1,0.1c0.6,0,1.2,0,2,0l4.4-0.1
	l0.1,0c0.9,0,1.3,0,1.3,5.2c0,3,0,3-1.6,3c-0.5,0-1.7,0-1.9-0.3c-0.2-0.2-0.1-1.1-0.1-1.5c0.1-0.7,0-1.2,0-1.6c0-0.2,0-0.3,0-0.5
	v-0.7l-0.7,0c-0.8,0-1.3,0.1-1.8,0.1s-1.1,0-1.8-0.1l-0.6,0l-0.1,0.6c-0.1,0.7-0.1,1.4-0.1,2.1c-0.1,2.4-0.1,3.9-0.1,6.3
	c0,2,0,3.5,0.1,5.4l0.1,1.8l0.7,0c0.4,0,0.8,0,1.1,0c0.8,0,1.8,0,2.1,0.3c0.3,0.3,0.1,1.3,0,2.3c0,0.2-0.1,0.9-2.5,0.9
	c-0.2,0-0.5,0-0.7,0c-0.7,0-1.4-0.1-2-0.1c-1.2,0-2.3,0.1-3.6,0.2C108.8-17.8,108.3-17.8,107.9-17.8z"/>
<path class="st0" d="M125.2,34.7c0.1-1.4,0.5-2,3.7-2.2c0.2-7.1,0.3-10,0-15c-3.1-0.3-3.7-0.5-3.8-2.3c-0.1-2.5,0.5-2.8,3.4-2.6
	c2,0.2,3.4,0.2,5.3,0c3-0.3,3.7-0.1,3.7,2.3c0,2-0.6,2.4-3.8,2.6c0.2,5.1,0.3,7.8,0.1,14.8c2.7-0.5,3.5-0.2,3.6,2
	c0.1,2.3-0.4,2.8-2.7,2.8c-1.4,0-2.2,0-4,0C125.6,37.2,125.1,36.6,125.2,34.7z"/>
<path class="st1" d="M130.8,36.2c-2.7,0-4.2-0.2-4.5-0.5c-0.1-0.1-0.1-0.4-0.1-0.9c0.1-0.8,0.1-1.1,2.8-1.2l0.9,0l0-0.9
	c0.2-7.2,0.3-10.1,0-15.1l0-0.9l-0.9-0.1c-2.8-0.2-2.8-0.3-2.9-1.4c0-1.1,0.1-1.4,0.2-1.4c0,0,0.2-0.2,1-0.2c0.3,0,0.7,0,1.2,0.1
	c1,0.1,1.9,0.1,2.8,0.1c0.9,0,1.7,0,2.7-0.1c0.7-0.1,1.1-0.1,1.5-0.1c1,0,1.2,0,1.2,1.4c0,1.3,0,1.4-2.9,1.6l-1,0.1l0,1
	c0.2,5,0.3,7.7,0.1,14.7l0,1.2l1.2-0.2c0.7-0.1,1.2-0.2,1.5-0.2c0.6,0,0.8,0,0.9,1.3c0.1,1.1-0.1,1.4-0.1,1.5
	c-0.1,0.1-0.4,0.2-1.5,0.2c-0.6,0-1.2,0-1.7,0C132.5,36.2,131.8,36.2,130.8,36.2z"/>
<path class="st1" d="M130.2-18c-1.9,0-4.2-0.1-4.8-0.7c-0.2-0.2-0.2-0.5-0.2-1.1c0.1-1,0.1-1.4,3.1-1.6l0.6,0l0-0.6
	c0.2-7.3,0.3-10.1,0-15l0-0.6l-0.6-0.1c-3.1-0.3-3.1-0.5-3.2-1.7c0-0.9,0-1.5,0.2-1.7c0.2-0.2,0.6-0.3,1.2-0.3c0.3,0,0.7,0,1.2,0.1
	c1,0.1,1.9,0.1,2.7,0.1c0.8,0,1.7,0,2.6-0.1c0.7-0.1,1.1-0.1,1.5-0.1c1.2,0,1.5,0.1,1.5,1.7c0,1.4,0,1.7-3.2,2l-0.6,0l0,0.7
	c0.2,5,0.3,7.7,0.1,14.8l0,0.8l0.8-0.1c0.7-0.1,1.2-0.2,1.6-0.2c0.8,0,1.2,0.1,1.3,1.6c0.1,1,0,1.5-0.2,1.7
	c-0.2,0.2-0.8,0.3-1.8,0.3c-0.6,0-1.2,0-1.7,0C131.8-18,131.1-18,130.2-18z"/>
<path class="st0" d="M144.8,36.7c-1.9-1-3.6-2.7-4.6-4.7c-1.2-2.4-1.8-6.3-1.1-10.2c0.6-3.5,2.8-6.5,5.6-8.2
	c2.9-1.8,7.5-2.1,10.6-0.5c2.6,1.4,4,3.1,5.2,5.6c0.9,1.8,1.5,4.6,1.3,7.5c-0.3,4-2.4,9.3-7.6,11C150.9,38.4,147.3,38,144.8,36.7z
	 M154.6,31.2c2.6-2.7,2.8-8,1.1-11c-0.9-1.5-2.1-2.6-3.7-3c-2.9-0.7-5.3,0.8-6.6,2.8c-1.6,2.6-2.2,7.4,0.4,10.7
	c0.7,1,1.6,1.4,2.9,1.8C151,33.4,153.3,32.6,154.6,31.2z"/>
<path class="st1" d="M150.1,36.9c-1.7,0-3.4-0.4-4.8-1.1c-1.7-0.9-3.3-2.5-4.2-4.3c-1-2-1.7-5.7-1-9.5c0.6-3.1,2.5-6,5.1-7.6
	c1.4-0.9,3.4-1.4,5.4-1.4c1.6,0,3,0.3,4.2,0.9c2.3,1.2,3.6,2.6,4.8,5.2c0.9,1.9,1.3,4.5,1.2,7c-0.3,3.9-2.2,8.5-6.9,10.1
	C152.7,36.7,151.4,36.9,150.1,36.9z M150.5,16c-2.4,0-4.6,1.3-6,3.5c-1.9,3-2.3,8.3,0.4,11.9c1,1.3,2.2,1.8,3.3,2.2
	c0.8,0.2,1.6,0.4,2.3,0.4c1.9,0,3.6-0.7,4.8-2c3-3.1,3.1-9,1.2-12.2c-1-1.7-2.5-3-4.3-3.4C151.6,16.1,151,16,150.5,16z"/>
<path class="st1" d="M149.4-17.3c-1.8,0-3.6-0.4-4.9-1.1c-1.8-0.9-3.4-2.6-4.3-4.4c-1.2-2.5-1.6-6.3-1-9.8c0.6-3.2,2.6-6.1,5.3-7.8
	c1.5-0.9,3.5-1.5,5.6-1.5c1.6,0,3.2,0.3,4.4,1c2.3,1.2,3.7,2.7,4.9,5.3c0.9,1.9,1.4,4.7,1.2,7.2c-0.3,4-2.3,8.8-7.1,10.4
	C152.1-17.5,150.8-17.3,149.4-17.3z M149.8-38.2c-2.2,0-4.4,1.2-5.7,3.3c-1.9,2.9-2.2,8,0.4,11.5c0.9,1.2,2.1,1.7,3.2,2.1
	c0.7,0.2,1.5,0.4,2.2,0.4c1.8,0,3.4-0.7,4.6-1.9c2.9-3,3-8.7,1.1-11.8c-1-1.7-2.4-2.8-4.1-3.3C150.9-38.1,150.3-38.2,149.8-38.2z"/>
<path class="st0" d="M179.8,34.9c-1.2-1.6-2-2.8-3-4.3c-0.9-1.3-2.7-4.1-3.9-5.9c-0.8-1.2-1.3-2.3-2-4.4c0.4,2.2,0.4,4.3,0.5,6.3
	c0.1,2.5,0.1,3.3,0.1,5.7c3.3,0,3.9,0.2,3.6,2.7c-0.3,2.1-0.9,2.5-4.8,2.2c-1.6-0.1-2.8-0.1-3.9-0.1c-2.6,0.1-3.1,0-3.3-2.2
	c-0.2-2.2,0.5-2.8,3.6-2.8c0-2.2,0-2.8,0-5.1c0-2.5,0-3.4,0-6c0-1.1-0.1-2.2-0.1-3.3c-3,0.3-3.4,0.1-3.4-2.6c0-1.9,0.6-2.4,4.3-2.4
	c0.6,0,2.6-0.1,3.3,0.2c1.2,0.5,1.6,1.3,2.8,3.3c0.9,1.3,1.6,2.5,2.4,3.7c1.2,1.8,2.3,3.3,3.4,5c1.4,2.2,2,3.1,2.5,5
	c-0.2-2.5-0.2-3.5-0.3-5.2c-0.1-2-0.1-2.3-0.1-4.4c0-0.9,0-1.7,0-2.6c-2.9,0.1-3.7-0.2-3.7-2.7c0-2,0.3-2.4,6.2-2.4h2.6
	c2.2,0,2.8,0.3,2.8,2.6c0,2.2-0.4,2.5-3.1,2.5v2.5c0,1.9,0,2.8,0,4.8c0,3.9,0.1,5.3,0.1,8.9c0,2.5-0.1,3.7-2.6,3.8
	C182.3,37.8,181.7,37.4,179.8,34.9z"/>
<path class="st1" d="M183.7,36.7c-0.9,0-1.3-0.1-3-2.5c-1.2-1.6-2-2.7-3-4.2c-0.9-1.3-2.7-4.1-4-5.9c-0.8-1.1-1.2-2.2-1.9-4.2
	l-1.9,0.5c0.3,1.9,0.4,3.7,0.5,5.5l0,0.7c0.1,2.5,0.1,3.2,0.1,5.7v1h1c0.7,0,2.4,0,2.6,0.3c0,0,0.2,0.2,0,1.3
	c-0.2,1.2-0.2,1.4-2,1.4c-0.5,0-1.1,0-1.8-0.1c-1.1-0.1-2-0.1-2.7-0.1c-0.5,0-0.9,0-1.3,0c-0.4,0-0.8,0-1.1,0c0,0,0,0,0,0
	c-1,0-1,0-1.2-1.4c-0.1-0.9,0-1.2,0.1-1.3c0.2-0.2,0.7-0.4,2.2-0.4l1.2,0l0-1c0-2.2,0-2.8,0-5.2c0-1.2,0-2.1,0-2.9c0-0.9,0-1.7,0-3
	c0-0.5,0-1.1,0-1.6c0-0.6,0-1.1,0-1.7v-1.1l-1.1,0.1c-0.7,0.1-1.1,0.1-1.5,0.1c-0.5,0-0.6-0.1-0.6-0.1c-0.1-0.1-0.2-0.4-0.2-1.7
	c0-1.1,0-1.4,2.9-1.4l1.2,0c1.6,0,2,0.1,2.1,0.2c0.7,0.3,1,0.7,2,2.3l1.1,1.8c0.5,0.8,1,1.7,1.6,2.5c0.6,0.9,1.2,1.7,1.7,2.5
	c0.6,0.8,1.1,1.6,1.7,2.4c1.4,2.1,1.9,3,2.4,4.8l2-0.3c-0.2-2.5-0.2-3.5-0.3-5.1c0-1.1-0.1-4.4-0.1-4.4c0-0.8,0-1.7,0-2.5v-1l-1,0
	c-0.2,0-0.7,0-0.7,0c-0.4,0-1.4,0-1.7-0.3c-0.1-0.1-0.3-0.4-0.3-1.4c0-1.2,0-1.4,5.2-1.4h2.6c1.8,0,1.8,0,1.8,1.6
	c0,1.5,0,1.5-2.1,1.5h-1v3.5c0,1,0,1.7,0,2.4c0,0.7,0,1.4,0,2.5c0,1.6,0,2.8,0.1,3.9c0,1.5,0,2.8,0,4.9c0,2.6-0.2,2.7-1.6,2.8
	L183.7,36.7z"/>
<path class="st1" d="M183-17.5c-1,0-1.5-0.2-3.3-2.6c-1.2-1.6-2-2.7-3-4.3l0,0c-0.9-1.3-2.7-4.1-3.9-5.8c-0.8-1.1-1.3-2.3-1.9-4.2
	l-1.3,0.3c0.3,1.9,0.4,3.8,0.5,5.5l0,0.6c0.1,2.5,0.1,3.2,0.1,5.7v0.7h0.7c1.3,0,2.6,0,2.9,0.4c0.2,0.3,0.2,1,0.1,1.6
	c-0.2,1.3-0.2,1.7-2.3,1.7c-0.5,0-1,0-1.8-0.1c-1.1-0.1-2-0.1-2.7-0.1c-0.5,0-0.9,0-1.3,0c-0.4,0-0.8,0-1.1,0c0,0,0,0,0,0
	c-1.1,0-1.3,0-1.5-1.7c-0.1-0.8,0-1.3,0.2-1.5c0.3-0.3,1.1-0.5,2.5-0.5l0.9,0l0-0.7c0-2.2,0-2.8,0-5.2c0-1.2,0-2.1,0-2.9
	c0-0.9,0-1.7,0-3c0-0.5,0-1.1,0-1.6c0-0.6,0-1.1,0-1.7v-0.8l-0.7,0.1c-0.7,0.1-1.1,0.1-1.5,0.1c-0.8,0-0.9-0.2-0.9-0.3
	c-0.2-0.3-0.2-1.1-0.2-1.8c0-1.3,0-1.7,3.3-1.7l0.3,0l0.3,0c0.2,0,0.4,0,0.6,0c1.5,0,2,0.1,2.2,0.2c0.8,0.4,1.2,0.9,2.2,2.5l0.3,0.5
	c0.3,0.4,0.5,0.8,0.8,1.2c0.5,0.8,1,1.6,1.6,2.5c0.6,0.9,1.2,1.7,1.7,2.5c0.6,0.8,1.1,1.6,1.7,2.5c1.4,2.2,1.9,3,2.4,4.9l1.3-0.2
	c-0.2-2.4-0.2-3.5-0.3-5.2c0-1.1-0.1-1.7-0.1-2.3c0-0.5,0-1.1-0.1-2.1c0-0.8,0-1.7,0-2.5v-0.7l-0.7,0c-0.2,0-0.5,0-0.7,0
	c-1.1,0-1.7-0.1-1.9-0.3c-0.2-0.2-0.4-0.5-0.4-1.7c0-1.5,0-1.7,5.6-1.7h2.6c2,0,2.1,0.1,2.1,1.9c0,1.7,0,1.8-2.5,1.8H185v3.2
	c0,1,0,1.7,0,2.4c0,0.7,0,1.4,0,2.5c0,1.6,0,2.8,0.1,4c0,1.5,0,2.8,0,4.9c0,2.6-0.2,3.1-2,3.1L183-17.5z"/>
</svg>
