<?xml version="1.0" encoding="utf-8"?>
<!-- Generator: Adobe Illustrator 24.1.1, SVG Export Plug-In . SVG Version: 6.00 Build 0)  -->
<svg version="1.1" id="레이어_1" xmlns="http://www.w3.org/2000/svg" xmlns:xlink="http://www.w3.org/1999/xlink" x="0px"
	 y="0px" viewBox="0 0 200 50" style="enable-background:new 0 0 200 50;" xml:space="preserve">
<style type="text/css">
	.st0{fill:#FFFFFF;}
	.st1{fill:#D6646D;}
</style>
<path class="st0" d="M-327.3,173.8c-0.2-2.3,0-2.8,1.9-2.8h1.8c0-0.6,0-1.3,0-2c0-1.1,0-1.8,0.1-3.9c0.1-2.5,0.2-3.4,0.1-5.9
	c0-1,0-2-0.1-3.2c-3.1-0.2-3.6-0.4-3.6-2.1c0-2.7,0.6-3,4.3-2.6c1,0.1,3.6,0,4.6,0c3.2-0.1,3.7,0.4,3.7,2.7c0,1.7-0.5,2.2-4.2,2.1
	c0.1,1,0.1,2,0.1,3c0,2.4,0,3.1-0.1,5.5c-0.1,1.3-0.2,2.4-0.2,3.8c0,0.7,0,1.6,0.1,2.6c2.5,0.1,4.9,0.1,7.3,0
	c-0.1-1.4-0.1-2.4,0-3.3c0.3-2,0.5-2.2,2.5-2.2c2.8,0,2.8,0.8,2.4,4.2c-0.3,2.3,0.3,4.6-0.6,5.6c-0.9,0.8-2.5,0.6-2.9,0.6
	c-4.2,0-9.5,0-14.1,0C-326.1,175.9-327.1,175.4-327.3,173.8z"/>
<path class="st1" d="M-324.2,174.9c-2,0-2.1-0.6-2.1-1.1c-0.1-0.9-0.1-1.5,0-1.7l0,0c0,0,0.2-0.1,0.9-0.1h2.8l-0.1-1.1
	c0-0.6,0-1.3,0-1.9v-0.6c0-0.8,0-1.6,0.1-3.2c0.1-2.6,0.2-3.5,0.1-5.9c0-1,0-2.1-0.1-3.2l-0.1-0.9l-0.9-0.1
	c-2.7-0.2-2.7-0.2-2.7-1.1c0-1.7,0.1-1.7,1.2-1.7c0.5,0,1.1,0,1.9,0.1c0.4,0,1,0.1,1.8,0.1c1.1,0,2.3,0,2.9-0.1c0.2,0,0.3,0,0.5,0
	c2.2,0,2.2,0.2,2.2,1.7c0,0.9,0,1.1-2.1,1.1c-0.3,0-0.6,0-1,0h-1.1l0.1,1.1c0.1,1,0.1,2,0.1,2.9c0,2.5,0,3.1-0.1,5.5
	c0,0.4,0,0.8-0.1,1.2c-0.1,0.8-0.1,1.7-0.1,2.6c0,0.6,0,1.6,0.1,2.7l0.1,0.9h0.9c1.2,0,2.5,0.1,3.7,0.1c1.2,0,2.4,0,3.7-0.1h1.1
	l-0.1-1.1c-0.1-1.3-0.1-2.3,0-3.1c0-0.3,0.1-1.1,0.3-1.3c0.1-0.1,1-0.1,1.2-0.1c1.2,0,1.4,0.2,1.5,0.2c0.2,0.3,0,1.8-0.1,2.9
	c-0.1,1-0.1,1.9-0.1,2.7c0,1,0,2-0.3,2.3c-0.1,0.1-0.5,0.3-1.4,0.3c-0.2,0-0.4,0-0.6,0c-0.1,0-0.2,0-0.3,0c-0.8,0-1.7,0-2.6,0
	c-1.8,0-3.8,0-5.7,0C-320.4,174.9-322.3,174.9-324.2,174.9z"/>
<path class="st0" d="M-299.3,175.4c-1.9-0.9-3.6-2.7-4.6-4.7c-1.2-2.4-1.8-6.3-1.1-10.2c0.6-3.5,2.8-6.5,5.6-8.2
	c2.9-1.8,7.5-2.1,10.6-0.5c2.6,1.4,4,3.1,5.2,5.6c0.9,1.8,1.5,4.6,1.3,7.5c-0.3,4-2.4,9.3-7.6,11
	C-293.2,177.1-296.8,176.7-299.3,175.4z M-289.5,169.9c2.6-2.7,2.8-8,1.1-11c-0.9-1.5-2.1-2.6-3.7-3c-3-0.7-5.4,0.8-6.8,2.8
	c-1.6,2.6-2.2,7.4,0.4,10.7c0.7,1,1.6,1.4,2.9,1.8C-293.1,172.1-290.9,171.3-289.5,169.9z"/>
<path class="st1" d="M-294.1,175.6c-1.7,0-3.4-0.4-4.8-1.1c-1.7-0.9-3.3-2.5-4.2-4.3c-1-2-1.7-5.7-1-9.5c0.6-3.1,2.5-6,5.1-7.6
	c1.4-0.9,3.4-1.4,5.4-1.4c1.6,0,3,0.3,4.2,0.9c2.3,1.2,3.6,2.6,4.8,5.2c0.9,1.9,1.3,4.5,1.2,7c-0.3,3.9-2.2,8.5-6.9,10.1
	C-291.4,175.4-292.7,175.6-294.1,175.6z M-293.7,154.7c-2.4,0-4.6,1.3-6,3.5c-1.9,3-2.3,8.3,0.4,11.9c1,1.3,2.2,1.8,3.3,2.2
	c0.8,0.2,1.6,0.4,2.3,0.4c1.9,0,3.6-0.7,4.8-2c3-3.1,3.1-9,1.2-12.2c-1-1.7-2.5-3-4.3-3.4C-292.6,154.8-293.1,154.7-293.7,154.7z"/>
<path class="st0" d="M-279.6,167.8c-1.5-7,0.7-14,7.7-16.5c0.7-0.3,1.8-0.4,2.6-0.5c2.2-0.2,5.5,0.6,6.6,2.7c0-2.1,0.5-2.6,2.4-2.6
	c3.3,0,1.9,3.3,2,5.6c0.1,3,0.3,4.8-2.2,4.8c-1.8,0-1.9-1.1-2.7-2.4c-1-1.8-2.4-3-4.4-3.2s-3.4,0.4-4.6,1.3c-1.3,1-2.3,2.9-2.6,4.9
	c-0.4,2.7-0.1,5.2,1.4,7.4c1.4,2,3.8,3,6.5,2.4c1.5-0.3,3-1.4,3.7-2.2c1.1-1.1,2.1-1.8,3.3-1c1.7,1.3,1.3,2.9,0.6,3.8
	c-1.3,1.9-4.7,4.6-10.3,4.2C-274.9,176.2-278.7,172.3-279.6,167.8z"/>
<path class="st1" d="M-268.5,175.5c-0.3,0-0.7,0-1,0c-5.2-0.3-8.3-4.2-9.1-7.9c-1.2-5.5,0-12.8,7.1-15.4c0.5-0.2,1.3-0.3,2.3-0.4
	c0.2,0,0.4,0,0.6,0c1.9,0,4.3,0.7,5,2.1l1.9-0.5c0-1.6,0.1-1.6,1.4-1.6c0.3,0,0.8,0,1,0.3c0.3,0.4,0.2,1.5,0.1,2.4
	c-0.1,0.7-0.1,1.3-0.1,2v0.4c0.1,1.4,0.1,2.8-0.2,3.2c-0.2,0.2-0.6,0.2-1,0.2c-0.8,0-0.9-0.2-1.4-1.2c-0.1-0.2-0.2-0.5-0.4-0.7
	c-1.2-2.2-3-3.4-5.2-3.7c-0.3,0-0.6,0-0.9,0c-1.7,0-3.1,0.5-4.4,1.5c-1.5,1.2-2.7,3.3-3,5.5c-0.4,3.2,0.1,5.9,1.6,8.1
	c1.3,1.9,3.4,3,5.8,3c0.6,0,1.1-0.1,1.7-0.2c1.8-0.4,3.4-1.6,4.3-2.5c0.2-0.3,1-1,1.5-1c0.1,0,0.2,0,0.5,0.2
	c1.2,0.8,0.9,1.8,0.4,2.4C-260.5,172.4-262.9,175.5-268.5,175.5z"/>
<path class="st0" d="M-258.2,173.5c0-1.9,0.5-2.3,2.6-2.3c0.5-1.5,0.7-2.3,1.2-3.9c0.6-2,0.9-3.1,1.5-5.5c0.5-2,0.9-3,1.4-4.8
	c0.4-1.4,0.6-2,1.2-4c0.4-1.3,1.8-1.8,4-1.8c2.9,0,3.9,0.6,4.3,2c0.5,1.7,0.9,2.7,1.2,3.8c0.7,2.3,1,3.2,1.4,5
	c1.1,3.9,1.6,5.8,2.5,9.1c2.2-0.1,2.5,0.1,2.6,2.4c0.1,3.4-3.7,2-6.4,2.4c-2.2,0.3-3.6,0-3.7-1.7c-0.2-2.4,0-2.7,2.3-2.9
	c-0.3-1-0.6-1.9-0.8-2.7c-2.3,0.1-4.7,0.2-6.8,0.1c-0.2,0.6-0.4,1.3-0.7,2.6c2.1,0.3,2.3,0.6,2.3,2.5c0,1.9-0.5,2.1-5.5,2.2
	C-257.8,176-258.2,175.9-258.2,173.5z M-243.9,164.1c-1.4-5.8-1.8-7-2.2-9.4c-0.4,2.5-1,3.9-2.3,9.5
	C-247.3,164.2-245.1,164.2-243.9,164.1z"/>
<path class="st1" d="M-241.8,175.1c-1.3,0-1.4-0.4-1.4-0.9c0-0.4-0.1-1.4,0-1.6c0.2-0.1,1.1-0.2,1.4-0.2l1.2-0.1l-0.3-1.2
	c-0.2-0.5-0.3-1-0.5-1.5c-0.1-0.4-0.2-0.8-0.3-1.1l-0.3-0.8h-0.8c-1.5,0.1-3,0.1-4.6,0.1c-0.7,0-1.5,0-2.2,0h-0.8l-0.2,0.7
	c-0.2,0.5-0.3,0.9-0.5,1.7l-0.6,2l1.2,0.1c1.5,0.2,1.5,0.2,1.5,1.5c0,1,0,1.1-4.6,1.2h-0.8c-2.8,0-2.8,0-2.8-1.5
	c0-1.3,0-1.3,1.6-1.3h0.7l0.2-0.7c0.4-1.1,0.6-1.9,0.9-2.9l0.3-1.1c0.6-1.9,0.9-3,1.5-5.5c0.3-1.1,0.5-1.9,0.8-2.7
	c0.2-0.6,0.4-1.2,0.6-2c0.3-1.2,0.5-1.8,1-3.2l0.2-0.8c0.1-0.3,0.4-1.1,3.1-1.1c2.9,0,3.2,0.7,3.4,1.3l0.2,0.7
	c0.4,1.3,0.7,2.2,1,3.1l0.4,1.4c0.4,1.4,0.7,2.2,1,3.6c0.9,3.4,1.4,5.3,2.2,7.8l0.6,2.1h0.8c0.2,0,0.5,0,0.7,0
	c0.6,0,0.7,0.1,0.7,0.1s0.1,0.3,0.1,1.3c0,0.5-0.1,0.8-0.2,1c-0.3,0.3-1.2,0.4-1.8,0.4c-0.3,0-0.6,0-1,0c-0.4,0-0.7,0-1.1,0
	c-0.6,0-1,0-1.4,0.1C-241.1,175.1-241.5,175.1-241.8,175.1z M-247.1,154.6c-0.2,1.3-0.5,2.3-0.9,3.9c-0.4,1.3-0.8,3-1.4,5.5
	l-0.3,1.2h1.3c1.2,0,3.4,0,4.6-0.1h1.2l-0.3-1.2c-0.6-2.5-1-4.1-1.3-5.4c-0.4-1.7-0.7-2.6-0.9-3.9L-247.1,154.6z"/>
<path class="st0" d="M-231.4,173.4c0-1.8,0.6-2.2,4.3-2.3c0-0.6-0.1-1.2-0.1-1.8c0-1.3-0.1-1.9-0.1-3.2c0-0.7-0.1-2.1-0.1-3.9
	c0-2.3,0-3.2,0.1-4.9v-1.1c-1.7,0-3-0.1-4.3-0.2c0,0.6,0,1.1,0,1.6c-0.1,2.3-0.5,2.9-2.2,3c-2.7,0.2-2.9-0.3-2.5-3.6
	c0.2-2.1-0.6-4.2,1.1-5.4c0.9-0.6,2.9-0.5,3.8-0.5c2.5,0,4.1,0.1,6.4,0.2c1.8,0.1,3,0.1,5,0.1l4.4-0.1c1.7,0,2.1,0.4,2.1,5.8
	c0,3.4-0.3,3.6-2.3,3.6c-2.6,0-2.9-0.3-2.7-2.5c0.1-0.8,0-1.4,0-2c-1.5,0.1-2.2,0.1-3.7,0c-0.1,0.7-0.1,1.4-0.1,2.1
	c-0.1,2.3-0.1,3.9-0.1,6.2s0.1,4.1,0.1,6.4c4-0.1,4.3,0.2,3.8,3.4c-0.2,1.3-1.8,1.6-4,1.5c-1.9-0.1-3.5-0.1-5.5,0.1
	C-230.6,176.3-231.4,176.1-231.4,173.4z"/>
<path class="st1" d="M-229.4,175.1c-0.8,0-1,0-1-1.6c0-0.9,0-1.2,3.4-1.3h1l-0.1-1.2c0-0.5-0.1-1.1-0.1-1.5c0-0.6,0-1.1,0-1.6
	s0-1-0.1-1.7c0-0.4-0.1-1.6-0.1-3.9s0-3.2,0.1-4.9l0.1-2.1h-1c-1.8,0-3.1-0.1-4.2-0.2l-1.1-0.1v1.1c0,0.6,0,1.1,0,1.6
	c-0.1,2-0.3,2-1.3,2.1c-0.3,0-0.5,0-0.7,0c-0.6,0-0.8-0.1-0.8-0.1c-0.2-0.3,0-1.8,0-2.4c0.1-0.7,0-1.3,0-2c-0.1-1.6,0-2.2,0.7-2.7
	c0.2-0.2,0.9-0.4,2.6-0.4h0.6c2.3,0,3.9,0.1,6,0.2h0.3c1.2,0.1,2.1,0.1,3.1,0.1c0.6,0,1.2,0,2,0l4.5-0.1c0.6,0,1,0,1,4.8
	c0,0.6,0,2.3-0.2,2.5c-0.1,0-0.3,0.1-1,0.1c-1.2,0-1.6-0.1-1.7-0.2c0,0-0.1-0.3,0-1.3c0.1-0.7,0-1.2,0-1.7v-1.5h-1
	c-0.7,0-1.3,0-1.8,0s-1.1,0-1.8,0h-1l-0.1,0.9c-0.1,0.7-0.1,1.4-0.1,2.1c-0.1,2.4-0.1,4-0.1,6.3c0,2,0,3.5,0.1,5.3l0.1,2.1h1
	c0.4,0,0.8,0,1.1,0c1.5,0,1.8,0.2,1.8,0.2c0.2,0.2,0,1.6-0.1,2.1c-0.1,0.6-1.6,0.6-2.2,0.6c-0.2,0-0.5,0-0.7,0c-0.7,0-1.4-0.1-2-0.1
	c-1.2,0-2.3,0.1-3.7,0.2C-228.5,175-229,175.1-229.4,175.1z"/>
<path class="st0" d="M-212.7,173.4c0.1-1.4,0.5-2,3.7-2.2c0.2-7.1,0.3-10,0-15c-3.1-0.3-3.7-0.5-3.8-2.3c-0.1-2.5,0.5-2.8,3.4-2.6
	c2,0.2,3.4,0.2,5.3,0c3-0.3,3.7-0.1,3.7,2.3c0,2-0.6,2.4-3.8,2.6c0.2,5.1,0.3,7.8,0.1,14.8c2.7-0.5,3.5-0.2,3.6,2
	c0.1,2.3-0.4,2.8-2.7,2.8c-1.4,0-2.2,0-4,0C-212.3,175.9-212.8,175.3-212.7,173.4z"/>
<path class="st1" d="M-207.1,174.9c-2.7,0-4.2-0.2-4.5-0.5c-0.1-0.1-0.1-0.4-0.1-0.9c0.1-0.8,0.1-1.1,2.8-1.2h0.9v-0.9
	c0.2-7.2,0.3-10.1,0-15.1v-0.9l-0.9-0.1c-2.8-0.2-2.8-0.3-2.9-1.4c0-1.1,0.1-1.4,0.2-1.4c0,0,0.2-0.2,1-0.2c0.3,0,0.7,0,1.2,0.1
	c1,0.1,1.9,0.1,2.8,0.1c0.9,0,1.7,0,2.7-0.1c0.7-0.1,1.1-0.1,1.5-0.1c1,0,1.2,0,1.2,1.4c0,1.3,0,1.4-2.9,1.6l-1,0.1v1
	c0.2,5,0.3,7.7,0.1,14.7v1.2l1.2-0.2c0.7-0.1,1.2-0.2,1.5-0.2c0.6,0,0.8,0,0.9,1.3c0.1,1.1-0.1,1.4-0.1,1.5
	c-0.1,0.1-0.4,0.2-1.5,0.2c-0.6,0-1.2,0-1.7,0C-205.4,174.9-206.1,174.9-207.1,174.9z"/>
<path class="st0" d="M-193.1,175.4c-1.9-1-3.6-2.7-4.6-4.7c-1.2-2.4-1.8-6.3-1.1-10.2c0.6-3.5,2.8-6.5,5.6-8.2
	c2.9-1.8,7.5-2.1,10.6-0.5c2.6,1.4,4,3.1,5.2,5.6c0.9,1.8,1.5,4.6,1.3,7.5c-0.3,4-2.4,9.3-7.6,11
	C-187,177.1-190.6,176.7-193.1,175.4z M-183.3,169.9c2.6-2.7,2.8-8,1.1-11c-0.9-1.5-2.1-2.6-3.7-3c-2.9-0.7-5.3,0.8-6.6,2.8
	c-1.6,2.6-2.2,7.4,0.4,10.7c0.7,1,1.6,1.4,2.9,1.8C-186.9,172.1-184.6,171.3-183.3,169.9z"/>
<path class="st1" d="M-187.8,175.6c-1.7,0-3.4-0.4-4.8-1.1c-1.7-0.9-3.3-2.5-4.2-4.3c-1-2-1.7-5.7-1-9.5c0.6-3.1,2.5-6,5.1-7.6
	c1.4-0.9,3.4-1.4,5.4-1.4c1.6,0,3,0.3,4.2,0.9c2.3,1.2,3.6,2.6,4.8,5.2c0.9,1.9,1.3,4.5,1.2,7c-0.3,3.9-2.2,8.5-6.9,10.1
	C-185.2,175.4-186.5,175.6-187.8,175.6z M-187.4,154.7c-2.4,0-4.6,1.3-6,3.5c-1.9,3-2.3,8.3,0.4,11.9c1,1.3,2.2,1.8,3.3,2.2
	c0.8,0.2,1.6,0.4,2.3,0.4c1.9,0,3.6-0.7,4.8-2c3-3.1,3.1-9,1.2-12.2c-1-1.7-2.5-3-4.3-3.4C-186.3,154.8-186.9,154.7-187.4,154.7z"/>
<path class="st0" d="M-158.1,173.6c-1.2-1.6-2-2.8-3-4.3c-0.9-1.3-2.7-4.1-3.9-5.9c-0.8-1.2-1.3-2.3-2-4.4c0.4,2.2,0.4,4.3,0.5,6.3
	c0.1,2.5,0.1,3.3,0.1,5.7c3.3,0,3.9,0.2,3.6,2.7c-0.3,2.1-0.9,2.5-4.8,2.2c-1.6-0.1-2.8-0.1-3.9-0.1c-2.6,0.1-3.1,0-3.3-2.2
	s0.5-2.8,3.6-2.8c0-2.2,0-2.8,0-5.1c0-2.5,0-3.4,0-6c0-1.1-0.1-2.2-0.1-3.3c-3,0.3-3.4,0.1-3.4-2.6c0-1.9,0.6-2.4,4.3-2.4
	c0.6,0,2.6-0.1,3.3,0.2c1.2,0.5,1.6,1.3,2.8,3.3c0.9,1.3,1.6,2.5,2.4,3.7c1.2,1.8,2.3,3.3,3.4,5c1.4,2.2,2,3.1,2.5,5
	c-0.2-2.5-0.2-3.5-0.3-5.2c-0.1-2-0.1-2.3-0.1-4.4c0-0.9,0-1.7,0-2.6c-2.9,0.1-3.7-0.2-3.7-2.7c0-2,0.3-2.4,6.2-2.4h2.6
	c2.2,0,2.8,0.3,2.8,2.6c0,2.2-0.4,2.5-3.1,2.5v2.5c0,1.9,0,2.8,0,4.8c0,3.9,0.1,5.3,0.1,8.9c0,2.5-0.1,3.7-2.6,3.8
	C-155.6,176.5-156.2,176.1-158.1,173.6z"/>
<path class="st1" d="M-154.2,175.4c-0.9,0-1.3-0.1-3-2.5c-1.2-1.6-2-2.7-3-4.2c-0.9-1.3-2.7-4.1-4-5.9c-0.8-1.1-1.2-2.2-1.9-4.2
	l-1.9,0.5c0.3,1.9,0.4,3.7,0.5,5.5v0.7c0.1,2.5,0.1,3.2,0.1,5.7v1h1c0.7,0,2.4,0,2.6,0.3c0,0,0.2,0.2,0,1.3c-0.2,1.2-0.2,1.4-2,1.4
	c-0.5,0-1.1,0-1.8-0.1c-1.1-0.1-2-0.1-2.7-0.1c-0.5,0-0.9,0-1.3,0c-0.4,0-0.8,0-1.1,0l0,0c-1,0-1,0-1.2-1.4c-0.1-0.9,0-1.2,0.1-1.3
	c0.2-0.2,0.7-0.4,2.2-0.4h1.2v-1c0-2.2,0-2.8,0-5.2c0-1.2,0-2.1,0-2.9c0-0.9,0-1.7,0-3c0-0.5,0-1.1,0-1.6c0-0.6,0-1.1,0-1.7v-1.1
	l-1.1,0.1c-0.7,0.1-1.1,0.1-1.5,0.1c-0.5,0-0.6-0.1-0.6-0.1c-0.1-0.1-0.2-0.4-0.2-1.7c0-1.1,0-1.4,2.9-1.4h1.2c1.6,0,2,0.1,2.1,0.2
	c0.7,0.3,1,0.7,2,2.3l1.1,1.8c0.5,0.8,1,1.7,1.6,2.5c0.6,0.9,1.2,1.7,1.7,2.5c0.6,0.8,1.1,1.6,1.7,2.4c1.4,2.1,1.9,3,2.4,4.8l2-0.3
	c-0.2-2.5-0.2-3.5-0.3-5.1c0-1.1-0.1-4.4-0.1-4.4c0-0.8,0-1.7,0-2.5v-1h-1c-0.2,0-0.7,0-0.7,0c-0.4,0-1.4,0-1.7-0.3
	c-0.1-0.1-0.3-0.4-0.3-1.4c0-1.2,0-1.4,5.2-1.4h2.6c1.8,0,1.8,0,1.8,1.6c0,1.5,0,1.5-2.1,1.5h-1v3.5c0,1,0,1.7,0,2.4s0,1.4,0,2.5
	c0,1.6,0,2.8,0.1,3.9c0,1.5,0,2.8,0,4.9C-152.6,175.2-152.8,175.3-154.2,175.4L-154.2,175.4z"/>
<g>
	<path class="st0" d="M15.5,49.5c-2.1,0-2.2-0.6-2.2-1.2c-0.1-1-0.1-1.6,0-1.8l0,0c0,0,0.2-0.1,1-0.1h3l-0.1-1.2c0-0.6,0-1.4,0-2
		v-0.6c0-0.8,0-1.7,0.1-3.4c0.1-2.7,0.2-3.7,0.1-6.2c0-1.1,0-2.2-0.1-3.4l-0.1-1l-1-0.1c-2.9-0.2-2.9-0.2-2.9-1.2
		c0-1.8,0.1-1.8,1.3-1.8c0.5,0,1.2,0,2,0.1c0.4,0,1.1,0.1,1.9,0.1c1.2,0,2.4,0,3.1-0.1c0.2,0,0.3,0,0.5,0c2.3,0,2.3,0.2,2.3,1.8
		c0,1,0,1.2-2.2,1.2c-0.3,0-0.6,0-1.1,0h-1.2l0.1,1.2c0.1,1.1,0.1,2.1,0.1,3.1c0,2.6,0,3.3-0.1,5.8c0,0.4,0,0.8-0.1,1.3
		c-0.1,0.8-0.1,1.8-0.1,2.7c0,0.6,0,1.7,0.1,2.9l0.1,1h1c1.3,0,2.6,0.1,3.9,0.1c1.3,0,2.5,0,3.9-0.1h1.2l-0.1-1.2
		c-0.1-1.4-0.1-2.4,0-3.3c0-0.3,0.1-1.2,0.3-1.4c0.1-0.1,1.1-0.1,1.3-0.1c1.3,0,1.5,0.2,1.6,0.2c0.2,0.3,0,1.9-0.1,3.1
		c-0.1,1.1-0.1,2-0.1,2.9c0,1.1,0,2.1-0.3,2.4c-0.1,0.1-0.5,0.3-1.5,0.3c-0.2,0-0.4,0-0.6,0c-0.1,0-0.2,0-0.3,0c-0.8,0-1.8,0-2.7,0
		c-1.9,0-4,0-6,0C19.5,49.5,17.5,49.5,15.5,49.5z"/>
	<path class="st0" d="M47.3,50.3c-1.8,0-3.6-0.4-5.1-1.2c-1.8-1-3.5-2.6-4.4-4.5c-1.1-2.1-1.8-6-1.1-10c0.6-3.3,2.6-6.3,5.4-8
		c1.5-1,3.6-1.5,5.7-1.5c1.7,0,3.2,0.3,4.4,1c2.4,1.3,3.8,2.7,5.1,5.5c1,2,1.4,4.8,1.3,7.4c-0.3,4.1-2.3,9-7.3,10.7
		C50.1,50,48.8,50.3,47.3,50.3z M47.7,28.2c-2.5,0-4.9,1.4-6.3,3.7c-2,3.2-2.4,8.8,0.4,12.6c1.1,1.4,2.3,1.9,3.5,2.3
		c0.8,0.2,1.7,0.4,2.4,0.4c2,0,3.8-0.7,5.1-2.1c3.2-3.3,3.3-9.5,1.3-12.9c-1.1-1.8-2.6-3.2-4.5-3.6C48.9,28.3,48.3,28.2,47.7,28.2z"
		/>
	<path class="st0" d="M74.3,50.1c-0.3,0-0.7,0-1.1,0c-5.5-0.3-8.8-4.4-9.6-8.3c-1.3-5.8,0-13.5,7.5-16.3c0.5-0.2,1.4-0.3,2.4-0.4
		c0.2,0,0.4,0,0.6,0c2,0,4.5,0.7,5.3,2.2l2-0.5c0-1.7,0.1-1.7,1.5-1.7c0.3,0,0.8,0,1.1,0.3c0.3,0.4,0.2,1.6,0.1,2.5
		c-0.1,0.7-0.1,1.4-0.1,2.1v0.4c0.1,1.5,0.1,3-0.2,3.4c-0.2,0.2-0.6,0.2-1.1,0.2c-0.8,0-1-0.2-1.5-1.3c-0.1-0.2-0.2-0.5-0.4-0.7
		c-1.3-2.3-3.2-3.6-5.5-3.9c-0.3,0-0.6,0-1,0c-1.8,0-3.3,0.5-4.7,1.6c-1.6,1.3-2.9,3.5-3.2,5.8c-0.4,3.4,0.1,6.2,1.7,8.6
		c1.4,2,3.6,3.2,6.1,3.2c0.6,0,1.2-0.1,1.8-0.2c1.9-0.4,3.6-1.7,4.5-2.6c0.2-0.3,1.1-1.1,1.6-1.1c0.1,0,0.2,0,0.5,0.2
		c1.3,0.8,1,1.9,0.4,2.5C82.8,46.9,80.3,50.1,74.3,50.1z"/>
	<path class="st0" d="M102.6,49.7c-1.4,0-1.5-0.4-1.5-1c0-0.4-0.1-1.5,0-1.7c0.2-0.1,1.2-0.2,1.5-0.2l1.3-0.1l-0.3-1.3
		c-0.2-0.5-0.3-1.1-0.5-1.6c-0.1-0.4-0.2-0.8-0.3-1.2l-0.3-0.8h-0.8C99.9,42,98.3,42,96.6,42c-0.7,0-1.6,0-2.3,0h-0.8l-0.2,0.7
		c-0.2,0.5-0.3,1-0.5,1.8l-0.6,2.1l1.3,0.1c1.6,0.2,1.6,0.2,1.6,1.6c0,1.1,0,1.2-4.9,1.3h-0.8c-3,0-3,0-3-1.6c0-1.4,0-1.4,1.7-1.4
		h0.7l0.2-0.7c0.4-1.2,0.6-2,1-3.1l0.3-1.2c0.6-2,1-3.2,1.6-5.8c0.3-1.2,0.5-2,0.8-2.9c0.2-0.6,0.4-1.3,0.6-2.1
		c0.3-1.3,0.5-1.9,1.1-3.4l0.2-0.8c0.1-0.3,0.4-1.2,3.3-1.2c3.1,0,3.4,0.7,3.6,1.4l0.2,0.7c0.4,1.4,0.7,2.3,1.1,3.3l0.4,1.5
		c0.4,1.5,0.7,2.3,1.1,3.8c1,3.6,1.5,5.6,2.3,8.2l0.6,2.2h0.8c0.2,0,0.5,0,0.7,0c0.6,0,0.7,0.1,0.7,0.1s0.1,0.3,0.1,1.4
		c0,0.5-0.1,0.8-0.2,1.1c-0.3,0.3-1.3,0.4-1.9,0.4c-0.3,0-0.6,0-1.1,0s-0.7,0-1.2,0c-0.6,0-1.1,0-1.5,0.1
		C103.3,49.7,102.9,49.7,102.6,49.7z M97,28.1c-0.2,1.4-0.5,2.4-1,4.1c-0.4,1.4-0.8,3.2-1.5,5.8l-0.3,1.3h1.4c1.3,0,3.6,0,4.9-0.1
		h1.3l-0.3-1.3c-0.6-2.6-1.1-4.3-1.4-5.7c-0.4-1.8-0.7-2.7-1-4.1L97,28.1z"/>
	<path class="st0" d="M115.7,49.7c-0.8,0-1.1,0-1.1-1.7c0-1,0-1.3,3.6-1.4h1.1l-0.1-1.3c0-0.5-0.1-1.2-0.1-1.6c0-0.6,0-1.2,0-1.7
		c0-0.5,0-1.1-0.1-1.8c0-0.4-0.1-1.7-0.1-4.1c0-2.4,0-3.4,0.1-5.2l0.1-2.2H118c-1.9,0-3.3-0.1-4.4-0.2l-1.2-0.1v1.2
		c0,0.6,0,1.2,0,1.7c-0.1,2.1-0.3,2.1-1.4,2.2c-0.3,0-0.5,0-0.7,0c-0.6,0-0.8-0.1-0.8-0.1c-0.2-0.3,0-1.9,0-2.5c0.1-0.7,0-1.4,0-2.1
		c-0.1-1.7,0-2.3,0.7-2.9c0.2-0.2,1-0.4,2.7-0.4h0.6c2.4,0,4.1,0.1,6.3,0.2h0.3c1.3,0.1,2.2,0.1,3.3,0.1c0.6,0,1.3,0,2.1,0l4.8-0.1
		c0.6,0,1.1,0,1.1,5.1c0,0.6,0,2.4-0.2,2.6c-0.1,0-0.3,0.1-1.1,0.1c-1.3,0-1.7-0.1-1.8-0.2c0,0-0.1-0.3,0-1.4c0.1-0.7,0-1.3,0-1.8
		v-1.6h-1.1c-0.7,0-1.4,0-1.9,0c-0.5,0-1.2,0-1.9,0h-1.1l-0.1,1c-0.1,0.7-0.1,1.5-0.1,2.2c-0.1,2.5-0.1,4.2-0.1,6.7
		c0,2.1,0,3.7,0.1,5.6l0.1,2.2h1.1c0.4,0,0.8,0,1.2,0c1.6,0,1.9,0.2,1.9,0.2c0.2,0.2,0,1.7-0.1,2.2c-0.1,0.6-1.7,0.6-2.3,0.6
		c-0.2,0-0.5,0-0.7,0c-0.7,0-1.5-0.1-2.1-0.1c-1.3,0-2.4,0.1-3.9,0.2C116.6,49.6,116.1,49.7,115.7,49.7z"/>
	<path class="st0" d="M139.2,49.5c-2.9,0-4.4-0.2-4.8-0.5c-0.1-0.1-0.1-0.4-0.1-1c0.1-0.8,0.1-1.2,3-1.3h1v-1c0.2-7.6,0.3-10.7,0-16
		v-1l-1-0.1c-3-0.2-3-0.3-3.1-1.5c0-1.2,0.1-1.5,0.2-1.5c0,0,0.2-0.2,1.1-0.2c0.3,0,0.7,0,1.3,0.1c1.1,0.1,2,0.1,3,0.1
		c1,0,1.8,0,2.9-0.1c0.7-0.1,1.2-0.1,1.6-0.1c1.1,0,1.3,0,1.3,1.5c0,1.4,0,1.5-3.1,1.7l-1.1,0.1V30c0.2,5.3,0.3,8.1,0.1,15.5v1.3
		l1.3-0.2c0.7-0.1,1.3-0.2,1.6-0.2c0.6,0,0.8,0,1,1.4c0.1,1.2-0.1,1.5-0.1,1.6c-0.1,0.1-0.4,0.2-1.6,0.2c-0.6,0-1.3,0-1.8,0
		C141,49.5,140.3,49.5,139.2,49.5z"/>
	<path class="st0" d="M159.6,50.3c-1.8,0-3.6-0.4-5.1-1.2c-1.8-1-3.5-2.6-4.4-4.5c-1.1-2.1-1.8-6-1.1-10c0.6-3.3,2.6-6.3,5.4-8
		c1.5-1,3.6-1.5,5.7-1.5c1.7,0,3.2,0.3,4.4,1c2.4,1.3,3.8,2.7,5.1,5.5c1,2,1.4,4.8,1.3,7.4c-0.3,4.1-2.3,9-7.3,10.7
		C162.4,50,161,50.3,159.6,50.3z M160,28.2c-2.5,0-4.9,1.4-6.3,3.7c-2,3.2-2.4,8.8,0.4,12.6c1.1,1.4,2.3,1.9,3.5,2.3
		c0.8,0.2,1.7,0.4,2.4,0.4c2,0,3.8-0.7,5.1-2.1c3.2-3.3,3.3-9.5,1.3-12.9c-1.1-1.8-2.6-3.2-4.5-3.6C161.2,28.3,160.6,28.2,160,28.2z
		"/>
	<path class="st0" d="M195.1,50c-1,0-1.4-0.1-3.2-2.6c-1.3-1.7-2.1-2.9-3.2-4.4c-1-1.4-2.9-4.3-4.2-6.2c-0.8-1.2-1.3-2.3-2-4.4
		l-2,0.5c0.3,2,0.4,3.9,0.5,5.8v0.7c0.1,2.6,0.1,3.4,0.1,6v1.1h1.1c0.7,0,2.5,0,2.7,0.3c0,0,0.2,0.2,0,1.4c-0.2,1.3-0.2,1.5-2.1,1.5
		c-0.5,0-1.2,0-1.9-0.1c-1.2-0.1-2.1-0.1-2.9-0.1c-0.5,0-1,0-1.4,0c-0.4,0-0.8,0-1.2,0l0,0c-1.1,0-1.1,0-1.3-1.5
		c-0.1-1,0-1.3,0.1-1.4c0.2-0.2,0.7-0.4,2.3-0.4h1.3v-1.1c0-2.3,0-3,0-5.5c0-1.3,0-2.2,0-3.1c0-1,0-1.8,0-3.2c0-0.5,0-1.2,0-1.7
		c0-0.6,0-1.2,0-1.8v-1.2l-1.2,0.1c-0.7,0.1-1.2,0.1-1.6,0.1c-0.5,0-0.6-0.1-0.6-0.1c-0.1-0.1-0.2-0.4-0.2-1.8c0-1.2,0-1.5,3.1-1.5
		h1.3c1.7,0,2.1,0.1,2.2,0.2c0.7,0.3,1.1,0.7,2.1,2.4l1.2,1.9c0.5,0.8,1.1,1.8,1.7,2.6c0.6,1,1.3,1.8,1.8,2.6
		c0.6,0.8,1.2,1.7,1.8,2.5c1.5,2.2,2,3.2,2.5,5.1l2.1-0.3c-0.2-2.6-0.2-3.7-0.3-5.4c0-1.2-0.1-4.7-0.1-4.7c0-0.8,0-1.8,0-2.6v-1.1
		h-1.1c-0.2,0-0.7,0-0.7,0c-0.4,0-1.5,0-1.8-0.3c-0.1-0.1-0.3-0.4-0.3-1.5c0-1.3,0-1.5,5.5-1.5h2.7c1.9,0,1.9,0,1.9,1.7
		c0,1.6,0,1.6-2.2,1.6h-1.1v3.7c0,1.1,0,1.8,0,2.5s0,1.5,0,2.6c0,1.7,0,3,0.1,4.1c0,1.6,0,3,0,5.2C196.8,49.8,196.6,49.9,195.1,50
		L195.1,50z"/>
</g>
</svg>
