<?xml version="1.0" encoding="utf-8"?>
<!-- Generator: Adobe Illustrator 24.1.1, SVG Export Plug-In . SVG Version: 6.00 Build 0)  -->
<svg version="1.1" id="레이어_1" xmlns="http://www.w3.org/2000/svg" xmlns:xlink="http://www.w3.org/1999/xlink" x="0px"
	 y="0px" viewBox="0 0 800 600" style="enable-background:new 0 0 800 600;" xml:space="preserve">
<style type="text/css">
	.st0{fill:#EFB7AC;}
	.st1{fill:#D6656E;}
	.st2{fill:#FFFFFF;}
</style>
<g>
	<g>
		<path class="st0" d="M258.6,502.2c6.4,10.9,20.5,14.9,33.5,10.2c0.2,0.3,0.3,0.8,0.7,1.2c0.2,0.2,0.2,0.3,0.3,0.5
			c0.2,0.2,0.3,0.3,0.3,0.3c0.2,0.2,0.3,0.3,0.5,0.3c0.2,0.2,0.3,0.2,0.5,0.3c0.2,0.2,0.3,0.2,0.5,0.3c0.2,0,0.3,0.2,0.5,0.2
			c0.2,0,0.3,0.2,0.5,0.2c0.2,0,0.3,0.2,0.5,0.2c0.2,0,0.3,0,0.5,0c0.2,0,0.3,0,0.5,0c0.2,0,0.3,0,0.5,0c0.2,0,0.3,0,0.5-0.2
			c0.2,0,0.3-0.2,0.5-0.2c0.2,0,0.3-0.2,0.5-0.2c0.2,0,0.3-0.2,0.5-0.3c0.2-0.2,0.3-0.2,0.5-0.3c0.2-0.2,0.3-0.2,0.5-0.3
			c0.2-0.2,0.3-0.3,0.3-0.3c0.2-0.2,0.3-0.3,0.3-0.5c0.2-0.2,0.2-0.3,0.3-0.5c0.2-0.2,0.2-0.3,0.3-0.5c0.2-0.2,0.2-0.3,0.2-0.5
			c0-0.2,0.2-0.3,0.2-0.5c0-0.2,0.2-0.3,0.2-0.5c0-0.2,0-0.3,0-0.5c0-0.2,0-0.3,0-0.5c0-0.2,0-0.3,0-0.5c0-0.2,0-0.3-0.2-0.5
			c0-0.2-0.2-0.3-0.2-0.5c0-0.2-0.2-0.3-0.2-0.5c0-0.2-0.2-0.3-0.3-0.5l-0.2-0.2c10.7-8.2,15.3-21.5,11.4-32.4
			c3.9-1,40.1-9.7,56,8.6l0,0c0.7,1,2,1.3,2.9,0.7C415.7,456,493,397.7,534.3,366.4c2-1.5,0-4.9-2.2-3.5
			c-45.5,24.5-131.7,68.8-175.6,96.6h-0.2c-2.5,1.8-12.1,3.5-12.1,3.5l0,0c-5.4,0.3-11.1,1.2-16.9,2.3c-7,1.5-12.9,3.2-16.9,4.5
			c-7.9-11.6-25-14.3-39.2-5.9C257.2,472.1,251.2,489.5,258.6,502.2z M275,468.4c11.6-6.9,25.7-4.4,31.4,5.7
			c5.7,9.9,1,23.7-10.6,30.4c-0.2,0-0.3,0.2-0.3,0.2s-0.2,0-0.2,0.2c-0.2,0-0.3,0.2-0.5,0.3c-0.2,0-0.2,0.2-0.3,0.2
			c-11.2,5.7-24.3,3-29.9-6.5C258.7,488.8,263.4,475.2,275,468.4z"/>
		<path class="st1" d="M409,486.3l3.9-4.5c17.4-15.9,53.5-6.5,53.8-6.5c-2.2,11.2,3.7,24.2,15.4,31.5c14.6,9.2,32.5,6.4,40.3-6
			c0.5-0.8,0.8-1.5,1.2-2.3l0,0v-0.2l0,0c1.2-2.3,6-2.2,6-2.2l0,0c4.2,0.3,8.6-0.5,12.4-2.2c6.5-3,10.4-8.7,13.8-14.8
			c1-1.7,0.5-4-1.2-5c-1.7-1-4-0.5-5,1.2c-2.9,4.9-5.7,9.6-10.6,12.1c-1.5,0.7-3.2,1.2-4.9,1.5c-0.3,0-6.7,0.3-9.2-6.4l0,0
			c-1.8-7.9-7-15.6-15.1-20.6c-14.6-9.2-32.5-6.4-40.3,6c-0.5,0.7-0.8,1.3-1.2,2.2c-4-1.2-9.7-2.9-16.4-4.2
			c-5.9-1.2-11.6-1.8-16.9-2.2l0,0c0,0-9.6-1.5-12.1-3.4h-0.2c-44.1-27.5-130.2-72-176-95.9c-2.3-1.2-4.4,2-2.2,3.5
			c39.4,29.4,111.2,83.5,156,112.9l0,0l0,0c1.5,1,3.2,2,4.7,3C406.7,484.3,407.8,485.3,409,486.3z M507.1,466.5
			c11.4,7.2,15.8,21,9.7,30.7c-6,9.7-20.1,11.9-31.5,4.7c-11.4-7.2-15.8-21-9.7-30.7C481.6,461.3,495.7,459.3,507.1,466.5z"/>
		<ellipse class="st0" cx="387.8" cy="453.5" rx="5.5" ry="5.5"/>
	</g>
	<g>
		<g>
			<path class="st2" d="M232,186.7c-7.8,0-15-2-21.2-5.8c-0.3,0.7-0.8,1.2-1.3,1.7l-0.3,0.3c-2.8,2.5-7,2.7-8.3,2.7
				c-6.7,0-11.5-4-12-10c-0.3-3-0.3-5.3-0.3-7.8c0-2.2-0.2-4.5-0.3-7.5c-0.7-7.2-0.8-13.3,3-17.5c2-2.2,4.7-3.5,8-3.5
				c0,0,0.3,0,0.5,0c6.2,0,8.8,4.7,10.3,7.5c0.3,0.7,0.8,1.5,1.3,2.3l0.2,0.2l0.2,0.3c4.2,8.5,11.2,13.5,18.7,13.5
				c3.2,0,5.3-0.7,6.5-1.8c0.7-0.8,1-2,1-3.8c-0.3-5.3-9.8-9.7-19-14c-13.7-6.3-30.5-14.2-30.7-31.5c0-7.3,2.5-13.7,7.5-18.7
				c5.7-5.8,14.2-9,23.8-9h0.5c7,0.2,13.5,1.8,19,4.8c0.3-0.5,0.7-1,1.2-1.5c2-2.2,4.8-3.5,8-3.5c0.3,0,0.7,0,1,0
				c1.3,0,5.5,0,8.5,3.2c3.3,3.7,3,9,2.8,12.5c0,3,0,5,0.2,9.7c0.3,5.7,0.7,11.3-2.8,15c-2.8,3.2-6.8,3.2-8,3.3l0,0
				c-6,0-8.5-4.2-10.3-7.2c-0.3-0.7-0.7-1.2-1.2-2c-3.8-6.5-10.5-10.5-17.3-10.7c-2.8,0-5.2,0.7-6.2,1.8c-0.5,0.5-0.8,1.2-0.8,2
				c0.5,2.2,9.7,6.2,14.5,8.3c14.8,6.5,35,15.5,35.2,37.5c0,8.3-2.7,15.3-7.8,20.5c-5.7,5.7-14,8.7-23.5,8.7L232,186.7z"/>
			<path class="st1" d="M232,182.7c-9.5,0-17.7-3-23.8-8.8c0,2.5-0.2,4.7-1.5,6l-0.2,0.2c-1.3,1.2-3.8,1.7-5.7,1.7
				c-4.5,0-7.7-2.5-8-6.3c-0.2-3-0.3-5.2-0.3-7.5c0-2.3-0.2-4.7-0.3-7.8c-0.5-6.2-0.7-11.7,2-14.5c1.2-1.3,3-2.2,5.2-2.2
				c0.2,0,0.3,0,0.5,0c3.8,0,5.3,2.7,6.8,5.3c0.5,0.8,0.8,1.7,1.5,2.5v0.2v0.2c4.8,9.7,13.2,15.7,22.2,15.7h0.2c4.2,0,7.3-1,9.2-3
				c1.5-1.7,2.2-3.8,2.2-6.8c-0.3-7.8-10.5-12.5-21.3-17.5c-13.2-6.2-28.2-13-28.3-27.8c0-6.2,2.2-11.7,6.3-15.8
				c5-5,12.3-7.8,20.8-7.8h0.5c8.2,0.2,15.7,2.7,21.2,7c0.2-1.8,0.8-3.7,2-5c1.3-1.3,3-2.2,5.2-2.3c0.3,0,0.5,0,0.8,0
				c1.7,0,3.8,0.2,5.5,2c2,2.2,2,5.7,1.8,9.5c0,3.2,0,5.3,0.2,10.2c0.3,5.8,0.3,9.8-1.8,12.2c-1.5,1.7-3.7,2-5.2,2l0,0
				c-3.5,0-5-2.5-6.7-5.3c-0.3-0.7-0.8-1.3-1.2-2c-4.5-7.5-12.5-12.5-20.8-12.5l0,0c-4,0-7.2,1-9.2,3c-1.3,1.3-2,3-2,4.8
				c0.2,4.5,8.3,8.2,17,11.8c14.5,6.5,32.7,14.5,32.8,33.8c0,7.2-2.3,13.3-6.7,17.7c-4.8,4.8-12.2,7.5-20.7,7.5L232,182.7z"/>
			<path class="st2" d="M232,184.4c-8.5,0-16.2-2.5-22.3-7.2c-0.3,1.5-0.8,2.8-1.8,3.8c-2.3,2.2-6,2.3-7,2.3c-5.5,0-9.2-3.2-9.7-7.8
				c-0.3-3-0.3-5.2-0.3-7.7c0-2.2-0.2-4.5-0.3-7.7c-0.5-6.7-0.7-12.3,2.3-15.8c1-1.2,3-2.7,6.3-2.8h0.5c4.8,0,6.8,3.7,8.3,6.3
				c0.3,0.7,0.8,1.5,1.5,2.3l0.2,0.2l0.2,0.2c4.5,9.2,12.3,14.7,20.7,14.7l0,0c2.7,0,6.2-0.5,8.2-2.5c1.2-1.3,1.7-3,1.7-5.5
				c-0.3-6.8-10-11.2-20.3-16c-13.7-6.3-29.2-13.5-29.3-29.5c0-6.7,2.3-12.5,6.8-17c5.3-5.3,13.2-8.2,22.2-8.2h0.5
				c7.7,0.2,14.7,2.2,20.2,5.8c0.3-1.2,1-2.3,1.8-3.3c1.2-1.2,3-2.7,6.5-2.8h0.8c3,0,5.2,0.8,6.8,2.5c2.5,2.7,2.5,6.7,2.2,10.7
				c0,3.2,0,5.2,0.2,9.8c0.3,6.3,0.3,10.5-2.2,13.3c-2.2,2.3-5.3,2.5-6.3,2.5l0,0c-4.5,0-6.5-3.2-8.2-6.2c-0.3-0.7-0.8-1.3-1.2-2
				c-4.2-7.2-11.7-11.7-19.3-11.7l0,0c-3.5,0-6.3,0.8-8,2.5c-1,1-1.5,2.3-1.5,3.7c0.2,3.5,8.5,7.2,16,10.3
				c14.2,6.3,33.7,14.8,33.8,35.3c0,7.7-2.5,14.2-7.2,18.8c-5.2,5.2-13,8-21.8,8H232V184.4z"/>
			<path class="st1" d="M205.2,167c0.5,4.3,1.2,9.7-0.2,11.2c-1.7,1.5-9.3,2.3-9.7-3.2c-0.5-5.7-0.2-8.7-0.7-15.3
				c-0.7-8.7-0.7-14.2,4.8-14.3c3.5-0.2,4.2,2.8,6.7,6.8c6,11.8,15.8,16.8,24.3,17c8.3,0,14.3-3.7,13.8-12.2
				c-1-19.7-49.5-20.2-49.7-45.2c0-13.3,11-21.3,25.3-21.2c9.8,0.2,18.5,3.8,23.5,10.2c-0.3-5-0.3-10.3,5-10.5s6,2.3,5.7,9
				c0,3.3,0,5.5,0.2,10.3c0.5,8.7,0.2,11.5-4.7,11.7c-2.7,0-3.5-2.3-6-6.2c-4.7-8-13.5-13.5-22.7-13.5c-8.7,0-13.5,4.5-13.5,10.3
				c0.5,14.7,49.5,15.5,49.7,45.7c0,15.2-11,23-25.2,22.8C220,180.2,211,175,205.2,167z"/>
			<path class="st2" d="M320.6,184.7c-3,0-7.3-0.3-10.3-3.7c-0.8-1-1.5-2.2-2-3.3c-1.8,4.5-6.3,6.7-13.5,6.7h-0.5
				c-3.3,0.2-9.8,0.3-16.3,0.3c-5,0-12.5,0-16.3-5c-1.5-1.8-3-5.2-1.7-10.3c1.7-6.7,7.5-8,12.7-8.3c0-3,0-6,0-9
				c-0.2-14-0.2-27.2,0.3-41.5c-11-1-13.3-7.2-13.8-11.2c-0.2-1.3-0.5-5.3,2.5-8.5c3.8-4.2,9.8-4.3,23-4.5h11c7,0,11.5,2.2,13.3,6.7
				c0.3-0.7,0.8-1.3,1.5-2c4-4.5,11.2-4.8,18.7-4.8c1.7,0,3.5,0,5.3,0h2.7c12,0.2,20.7,0.2,21.2,11.3c0.3,9.3-7.2,11.3-13.7,11.8
				c0,7.3,0,14.5-0.2,21.5c-0.2,10.5-0.2,20.5,0.2,30c4.2,0.2,8.3,1,11.2,4c1.3,1.5,3,4.2,2.7,8.5c-0.8,11.2-11.7,11.2-15.7,11.2
				c-1.3,0-2.7,0-4.3,0h-3c-0.8,0-2,0-3.3,0c-2.8,0-5.8,0-9.2,0.2C322.2,184.7,321.4,184.7,320.6,184.7z M296.7,160.9
				c3.8,0.3,9.7,1.5,11.7,6.8c2.2-5.2,7.7-6.3,11.8-6.5c-0.2-5.3-0.2-10.8-0.2-16.5c-8.8,0.3-17.7,0.5-23.5,0.5c0,2.7,0,5.3,0,8
				C296.7,155.7,296.7,158.2,296.7,160.9z M296.9,109.7c-0.2,3.7-0.5,7.2-0.5,11.2c6.7,0,15.5-0.2,23.8-0.5c0-0.8,0-1.8,0-2.7
				c0-2.7,0-5.3,0-8.2c-4.5-0.5-9.7-1.7-11.8-6.3C306.2,107.7,301.1,109.2,296.9,109.7z"/>
			<path class="st1" d="M320.6,180.7c-2.3,0-5.5-0.3-7.3-2.3c-1.3-1.5-1.8-3.7-1.5-6.5c0.7-6.7,6.8-6.7,11.8-6.8c0.3,0,0.7,0,1,0
				c-0.2-7.7-0.3-16-0.2-24.7c-11,0.5-23.2,0.7-29.8,0.7c-0.7,0-1.2,0-1.8,0c0,4.2,0,8.2,0,12.2c0,3.7,0.2,7.5,0,11.5
				c0.5,0,1.2,0,1.7,0c4.3,0.2,10.8,0.5,10.7,7.5c-0.2,8-7.2,8-10.5,8h-0.5c-3.5,0.2-10,0.3-16.3,0.3c-5.5,0-10.7-0.3-13.2-3.5
				c-1.3-1.7-1.7-4-1-6.8c1.3-5.2,6.7-5.3,12-5.5c0.3,0,0.5,0,0.8,0c0-4.3,0-8.7-0.2-12.8c-0.2-15.2-0.3-29.5,0.5-45.3
				c-0.3,0-0.8,0-1.2,0c-8,0-12.3-2.5-12.8-7.5c-0.2-1.5-0.2-3.7,1.5-5.5c2.5-2.8,7.5-3.2,20.2-3.2h11c3.5,0,10,0,10.2,7.7
				c0,6.7-6.7,7.8-12.5,8.2c-0.5,6.3-0.8,11.7-0.8,18.8c0.7,0,1.3,0,2,0c8.2,0,19.7-0.2,30-0.7c0-2.3,0-4.3,0-6.3
				c0-3.8,0.2-7.3,0-12c-0.2,0-0.3,0-0.5,0c-5.5-0.3-11.7-0.8-12.3-6.7c-0.2-2.2,0.3-4,1.7-5.5c2.7-2.8,7.8-3.5,15.7-3.5
				c1.7,0,3.5,0,5.3,0h2.7c12,0.2,17,0.2,17.2,7.5c0.3,7.2-6.8,7.7-13.7,8l0,0c0.2,8.5,0,17,0,25.2c-0.2,11.8-0.2,23.2,0.3,34
				c0.2,0,0.3,0,0.3,0c5,0.2,9.2,0.2,11.7,2.8c1.2,1.3,1.8,3.2,1.7,5.5c-0.7,7.3-7.2,7.3-11.7,7.3c-1.3,0-3,0-4.7-0.2h-2.5
				c-1,0-2.2,0-3.3,0c-2.8,0-6,0-9.3,0.2C322.1,180.7,321.2,180.7,320.6,180.7z"/>
			<path class="st2" d="M320.6,182.4c-2.5,0-6.2-0.3-8.7-3c-1.7-1.8-2.3-4.5-2-7.8c0.8-7.7,7.8-8.2,12.8-8.2
				c-0.2-6.7-0.2-13.8-0.2-21.3c-10.5,0.5-21.8,0.5-28.2,0.5h-0.2c0,3.5,0,7,0,10.5c0,3.2,0.2,6.5,0,10c0,0,0,0,0.2,0
				c4,0.2,12.5,0.5,12.3,9.2c-0.2,9.7-9.2,9.7-12.2,9.7h-0.5c-3.3,0.2-9.8,0.3-16.2,0.3c-6,0-11.5-0.3-14.5-4
				c-1.7-2.2-2.2-5-1.2-8.3c1.5-6,7.5-6.5,12.7-6.7c0-3.8,0-7.5-0.2-11.2c-0.2-14.7-0.2-28.5,0.5-43.7c-10.8-0.2-13.5-5-13.8-9.2
				c-0.2-1-0.3-4.3,2-6.8c3.2-3.5,8.8-3.7,21.3-3.7h11c3.2,0,11.7,0,11.8,9.3c0.2,7.5-6.8,9.2-12.7,9.8c-0.3,5.2-0.7,9.8-0.7,15.7
				h0.2c7.7,0,18.5-0.2,28.3-0.5c0-1.7,0-3.3,0-4.8c0-3.3,0.2-6.5,0-10.3c-5.3-0.3-12.2-1.2-12.8-8.2c-0.3-3.3,1-5.7,2.2-6.8
				c3-3.3,8.5-4,16.8-4c1.7,0,3.5,0,5.3,0h2.7c12,0.2,18.5,0.2,18.8,9.2c0.3,8.2-7.3,9.3-13.7,9.7c0.2,8,0,16,0,23.7
				c-0.2,11.3-0.2,22,0.2,32.3c4.7,0.2,9,0.3,11.7,3.3c1.5,1.7,2.3,4,2.2,6.7c-0.7,8.8-9.2,8.8-13.3,8.8c-1.3,0-3,0-4.7-0.2h-2.5
				h-3.3c-2.8,0-6,0-9.2,0.2C322.2,182.4,321.2,182.4,320.6,182.4z"/>
			<path class="st1" d="M266.2,170.9c1-4.2,6.5-3.5,12.8-3.8c0-22-0.7-40.8,0.5-63c-7,0.5-13.7-0.2-14.2-5.3
				c-0.5-5.7,3.3-6,19.3-6.2h10.2c5.2,0,8.5,0.3,8.7,5.3c0,5-5.8,5.7-12.5,6c-0.7,8.3-1,14.3-0.8,23.5c11.8,0,25.7-0.2,36.7-0.8
				c0-8.7,0.3-13.5,0-22.8c-6.3-0.5-12.2-0.2-12.7-4.8c-0.7-6.7,7.8-6.5,20.3-6.3c14.2,0.2,17.3-0.2,17.7,5.3
				c0.2,5.5-5.8,5.2-13.8,5.7c0.3,22.3-0.7,44,0.3,63.7c7.7,0.2,14-0.5,13.7,5.8c-0.5,5.8-5.7,5.2-16.3,5c-3.7,0-8.2,0-12.8,0.2
				c-5.8,0.3-9.5-0.2-9-6.2c0.7-5.7,6.7-4.3,13-4.8c-0.3-10.2-0.3-20.2-0.2-29.5c-11,0.7-25,0.8-36.3,0.8c-0.2,10,0.2,18,0,28.2
				c5.7,0.8,12.5-0.8,12.5,5.3c-0.2,5-3.3,5.8-8.7,5.7c-3.8,0.2-10.5,0.3-16.3,0.3C270.2,178.2,264.4,177.7,266.2,170.9z"/>
			<path class="st2" d="M420.6,184.9c-2.7,0-5.7-0.2-8.8-0.3c-3.5-0.2-7-0.3-10.3-0.3c-6.8,0-11,0.2-15.2,0.3
				c-4,0.2-7.8,0.3-13.3,0.3h-4c-5.5-0.2-10.3-0.2-13.5-4.2c-3-3.7-2.2-8.3-2-9.8c1.3-8.2,8-9.7,13.2-10c0-8.8,0-16.7,0-24.3
				c0-8.8-0.2-17.3,0-26.3c-4.3-0.3-8.5-1.2-11.2-4.5c-2-2.7-2.7-6-1.8-9.8c2-9.5,11.8-9.5,18.5-9.5h51.8c11.7,0,11.8,12,11.8,17.8
				c0,1.7,0,3.2,0.2,4.7c0.7,5.8,0.8,11.7-2.8,15.8c-1.5,1.7-4.3,3.7-9.2,3.7c-3.3-0.2-5.7-1-7.3-2.5c-0.2,6.3-0.3,11-0.3,17
				c1.7-2.3,4.5-3.8,8.8-3.8c3.5,0,6.5,1.2,8.5,3.3c4,4,3.8,10.2,3.8,15.7c0,2.5-0.2,4.8-0.2,7.5v1.7c0,0.7,0,1.2,0,2
				c0,3.3,0.2,7.2-1.5,10.2C432.6,184.9,424.9,184.9,420.6,184.9z M399.3,160.4c4.5,0,9.2,0.2,14.5,0.3c0-1.8,0-3.7-0.2-5.5
				c0-0.7,0-1.3,0-2.2c-2.5,2.7-6.2,4-9.8,4c-3.5,0-6.8-1.3-8.8-3.5c-1.8-1.8-2.7-4.5-2.5-7.2v-1.2c-0.3,0-1.3,0-1.7,0
				c0,0,0,10.5,0.2,15.2C393.7,160.5,396.6,160.4,399.3,160.4z M390.4,110.2c-0.2,4-0.2,7.8,0,11.7c1,0,1.8,0,2.8,0
				c0.7-4.2,2.3-9.8,7.7-11.7H390.4z M409.4,110.2c1.3,0.3,2.3,1,3.2,1.5c0-0.2,0-1.3,0-1.5H409.4z"/>
			<path class="st1" d="M420.6,180.9c-2.7,0-5.7-0.2-8.8-0.3c-3.3-0.2-6.8-0.3-10.2-0.3c-6.8,0-11.2,0.2-15.3,0.3
				c-4,0.2-7.7,0.3-13.2,0.3c-1,0-2,0-3,0h-0.8c-4.8-0.2-8.3-0.2-10.5-2.7c-1.7-2-1.5-4.7-1.2-6.5c1.2-6.8,7.7-6.8,12.5-6.8h0.7
				c0-10.5,0-19.7,0-28.5c0-10-0.2-19.5,0-30.2h-0.2c-5.2-0.2-9.5-0.2-11.8-3.2c-1.3-1.7-1.7-3.8-1-6.5c1.3-6.3,8-6.3,14.5-6.3h51.8
				c7.7,0,7.8,7.7,7.8,13.8c0,1.7,0,3.3,0.2,4.8c0.5,5.3,0.8,10-1.7,12.8c-1.3,1.5-3.5,2.3-6.2,2.3h-0.3c-7.2-0.2-7.2-7-7.3-13
				c0-1.7-0.2-3.2-0.3-4.8h-29.7c-0.3,6.7-0.3,13.2,0,19.7c1.2,0,2.3,0,3.7,0c2.2,0,4.5,0,6.7-0.2c0.3-5.3,1.5-12,7.7-12.2
				c0.2,0,0.5,0,0.7,0c2.5,0,4.3,0.7,5.7,2c1.8,2,2,4.7,2,7.2c-0.3,9-0.3,14.8-0.3,23.3c0,4.7-4.5,7-8.7,7c-2.5,0-4.7-0.8-6-2.2
				c-1-1.2-1.5-2.5-1.5-4.2l0.2-5.5c-1.7,0-3.3,0-5,0l0,0c-1.7,0-3.2,0-4.8,0v4.8c0,5.7,0.2,12.3,0.2,18.5c4.2-0.2,8.2-0.2,12.2-0.2
				c5.5,0,11.3,0.2,18.5,0.5c0.2-3,0.2-6.3,0-9.7c0-6.2,0.2-12.3,7.7-12.3c2.5,0,4.3,0.7,5.7,2.2c2.8,2.8,2.7,8,2.7,12.8
				c0,2.5-0.2,4.8-0.2,7.5v1.5c0,0.7,0,1.3,0,2.2c0,2.8,0.2,6-1,8.2C430.6,180.5,425.6,180.9,420.6,180.9z"/>
			<path class="st2" d="M420.6,182.5c-2.7,0-5.8-0.2-9-0.3c-3.3-0.2-6.8-0.3-10.2-0.3c-6.8,0-11.2,0.2-15.3,0.3
				c-4,0.2-7.8,0.3-13.3,0.3h-3.8c-5.2-0.2-9.2-0.2-11.7-3.3c-2.3-2.8-1.7-6.7-1.5-7.8c1.3-7.7,8.3-8.2,13.2-8.2
				c0-9.8,0-18.5,0-26.8c0-9.5-0.2-18.5,0-28.5c-4.8-0.2-9.2-0.5-11.7-3.7c-1.7-2-2-4.7-1.3-8c1.7-7.7,9.7-7.7,16.2-7.7h51.8
				c9.3,0,9.5,9.3,9.5,15.5c0,1.5,0,3.2,0.2,4.8c0.5,5.3,0.8,10.7-2.2,14c-1.7,2-4.2,2.8-7.3,2.8c-9.2-0.2-9.2-8.7-9.2-14.8
				c0-1,0-2.2-0.2-3.2h-26.5c-0.2,5.5-0.2,11,0,16.3c0.7,0,1.3,0,2.2,0c1.7,0,3.3,0,5.2,0c0.5-5.5,2.2-12,9.2-12.2h0.7
				c3,0,5.2,0.8,6.8,2.5c2.3,2.3,2.5,5.5,2.5,8.3c-0.3,9-0.3,14.7-0.3,23.2c0,5-4.5,8.7-10.3,8.7c-2.8,0-5.5-1-7.2-2.8
				c-1.3-1.5-2-3.3-1.8-5.3l0.2-3.7c-1,0-5.3,0-6.3,0c0,0,0.2,14.3,0.2,19.8c3.7-0.2,7.2-0.2,10.5-0.2c5.2,0,10.5,0.2,16.8,0.3
				c0-2.5,0-5.2,0-8c0-6,0.2-14.2,9.3-14.2c3,0,5.2,0.8,6.8,2.7c3.3,3.3,3.2,8.8,3.2,14c0,2.5-0.2,4.8-0.2,7.5v1.5
				c0,0.7,0,1.3,0,2.2c0,3,0.2,6.5-1.3,9C431.6,182,426.1,182.5,420.6,182.5z"/>
			<path class="st1" d="M359.9,172c0.8-5.3,6.2-4.8,13.2-4.8c0.2-24.7-0.3-41.7,0-63.2c-8-0.3-14.7,0.3-13-6.8
				c0.8-4,4.5-4.5,12.2-4.5h51.8c6.8,0,5,8.5,5.7,16.5c0.8,7.8,0.7,12.8-5.8,12.7c-4.5-0.2-5-3.5-5-10.8c0-2.3-0.2-4.8-0.5-7.2h-34
				c-0.5,8.8-0.3,16.8,0,24.3c5,0.3,9.7,0.2,14.8,0c0.3-5.8,0.7-12,5.5-12.2c5.3-0.2,6,2.8,5.8,6.7c-0.3,9.5-0.3,15.2-0.3,23.3
				c0,6-11.7,6.3-11.3,0.8l0.3-8c-5.3,0.2-9.3,0-14.7,0.2c0,7.3,0.2,18.7,0.2,28c12-0.5,21.7-0.3,35.2,0.2c0.3-3.5,0.3-7.7,0.2-12.2
				c0-6.2,0.2-10,5.5-10c5.8,0,6,5.3,5.8,12.7c0,3-0.2,5.7-0.2,9c-0.2,2.5,0.3,7.2-0.8,9.3c-2.3,4.3-16.5,1.8-28.8,1.8
				c-14.3,0-17.8,0.7-31.5,0.7C362.7,178.4,358.7,178.5,359.9,172z"/>
			<path class="st2" d="M495.8,184.9c-10,0-11.7-6.7-12-9.5c-0.2-1.5-0.7-6.2,2.3-9.8c1.3-1.7,3.2-2.7,5-3.2
				c-0.5-1.8-1.2-3.8-1.7-5.7c-4.3,0.2-8.7,0.3-13,0.3c-2,0-4,0-5.8,0c-0.5,1.8-1.2,3.7-1.7,5.7c3.7,1,7.5,3.5,7.5,10.7
				c0,3.2-1,5.8-2.8,7.8c-3.7,3.7-8.7,3.7-17.8,3.7c0,0-5.3,0-6.2,0c-5.3,0-16.5,0-16.5-12.2c0-9.2,6.5-11,10.8-11.5
				c0.7-2,1.3-4,1.8-6.2c0.7-2.5,1.5-5,2.3-7.5c1.2-3.8,2.2-7,3.3-10.8c0.8-2.7,1.7-5.3,2.7-8.7c1.2-3.7,2-6.3,3-9
				c0.8-2.3,1.7-4.7,2.5-7.7l1.8-5.5c1-3.2,2-6.3,3.5-10.8s5.3-9.7,14.8-9.7c8.3,0,13.7,3.3,15.7,10c2.3,7.2,3.5,11,5.2,16l2,6.3
				c1.3,4.2,2.3,7,3.7,11.3c2,6.7,3.8,12.7,5.5,18.5l0.2,0.3c1.3,4.5,2.7,8.8,4,13.2c4.7,0.3,11,2.2,11,11.8c0,3.2-1,5.8-3.2,8
				c-3.5,3.5-8.7,4-13.2,4c-1.5,0-3,0-4.5-0.2c-1.3,0-2.7-0.2-3.8-0.2c-0.8,0-1.7,0-2.2,0.2C498.4,184.9,496.9,184.9,495.8,184.9z
				 M479.8,124.7c-0.8,2.7-1.8,5.7-2.7,8.7c1.8,0,3.7,0,5.3-0.2C481.6,130.2,480.6,127.3,479.8,124.7z"/>
			<path class="st1" d="M495.8,180.9c-4.8,0-7.5-2-8-6c-0.2-2-0.3-4.8,1.3-6.8c1.5-1.8,3.8-2.3,6.8-2.7c-1.2-4.3-2.5-9.2-3.8-13
				c-5.2,0.3-10.5,0.5-15.8,0.5c-3,0-5.8,0-8.7-0.2c-1.3,3.7-2.5,8-3.8,12.5l-0.2,0.3c0.3,0,0.8,0.2,1.2,0.2c3.7,0.5,7.3,1,7.5,7.3
				c0,2.2-0.5,3.8-1.7,5c-2.5,2.5-6.7,2.5-15,2.5c0,0-5.3,0-6.2,0c-5.7,0-12.5,0-12.5-8c0-7,4.8-7.5,9.8-7.7c1.2-2.8,2-5.8,2.8-9
				c0.7-2.3,1.3-4.8,2.2-7.3c1.3-3.8,2.2-7.2,3.3-10.8c0.8-2.5,1.7-5.3,2.7-8.5c1.2-3.5,2-6.3,3-9c0.8-2.3,1.7-4.7,2.5-7.7
				c0.7-1.8,1.2-3.5,1.7-5.2c1-3.3,2-6.5,3.7-11.2s5.2-7,11-7c6.5,0,10.3,2.3,12,7.2c2.3,7.2,3.5,11,5.3,16c0.8,2.5,1.5,4.5,2,6.2
				c1.3,4,2.3,7,3.7,11.3c2.2,6.8,3.8,13,5.7,18.8c1.7,5.5,3.2,10.7,4.8,16c4.7,0,10,0.2,10,7.8c0,2.2-0.7,3.8-2,5.2
				c-2.5,2.5-6.5,2.8-10.3,2.8c-1.5,0-3,0-4.3-0.2c-1.3,0-2.7-0.2-4-0.2c-1,0-1.8,0-2.7,0.2C498.1,180.9,496.9,180.9,495.8,180.9z
				 M471.8,137.3c1.3,0,2.7,0,4.2,0l0,0c3.8,0,8-0.2,12-0.3c-1.7-5.8-3.3-10.8-4.7-15.3c-1.2-4-2.3-7.5-3.2-10.5
				c-0.8,3-2,6.3-3.2,10C475.1,126,473.4,131.5,471.8,137.3z"/>
			<path class="st2" d="M495.8,182.5c-7.7,0-9.3-4.7-9.7-7.5c-0.3-2.2-0.3-5.5,1.7-8.2c1.5-1.8,3.5-2.7,6-3c-0.8-3.3-2-6.8-2.8-9.8
				c-4.8,0.3-9.7,0.5-14.7,0.5c-2.5,0-5.2,0-7.5-0.2c-1,2.8-2,6.3-3,9.8c3.5,0.5,8,1.7,8.2,8.8c0,2.7-0.7,4.7-2.2,6.2
				c-3,3-7.7,3-16.2,3h-6.2c-5.3,0-14.2,0-14.2-9.8c0-7.8,5.3-9,10.3-9.3c0.8-2.5,1.7-5.2,2.5-7.8c0.7-2.3,1.3-4.8,2.3-7.3
				c1.3-3.8,2.2-7.2,3.3-10.8c0.8-2.5,1.7-5.3,2.7-8.5c1.2-3.7,2-6.3,3-9c0.8-2.3,1.7-4.7,2.5-7.7l1.7-5.2c1-3.3,2-6.5,3.7-11.3
				c1.8-5.3,6.2-8.2,12.7-8.2c7.3,0,11.7,2.7,13.5,8.3c2.3,7.2,3.5,11,5.3,16l2,6.2c1.3,4,2.3,7,3.7,11.3c2.2,6.8,4,13,5.7,18.8
				c1.5,5,2.8,9.8,4.3,14.8c4.5,0.2,10.5,1,10.5,9.5c0,3.2-1.3,5.2-2.5,6.3c-2.8,2.8-7.5,3.3-11.5,3.3c-1.5,0-3,0-4.5-0.2
				c-1.3,0-2.7-0.2-4-0.2c-0.8,0-1.7,0-2.5,0.2C498.4,182.5,496.9,182.5,495.8,182.5z M475.9,135.7c3.2,0,6.5,0,9.7-0.2
				c-1.5-5-2.8-9.3-4.2-13.3c-0.5-1.8-1.2-3.7-1.7-5.2c-0.5,1.5-1,3-1.5,4.7c-1.3,4.3-2.8,9-4.3,14
				C474.6,135.7,475.3,135.7,475.9,135.7z"/>
			<path class="st1" d="M439.4,172.5c0-5.3,3.3-5.2,9-5.3c2.3-5.7,3.7-11.7,5.7-17.8c2.2-6.5,3.5-11.5,6-19.5
				c2-6.7,3.5-10.2,5.5-16.7c1.8-5.8,2.8-9.3,5.2-16.3c1.2-3.7,4-5.3,8.8-5.3c6.2,0,8.7,2.3,9.7,5.7c2.3,7.2,3.5,11.2,5.3,16.2
				c2.5,7.8,3.7,11.2,5.7,17.5c4.3,13.8,7.3,24.8,11,36.5c5.8,0,9.3-0.5,9.3,5.5c0,8.3-13.5,4.8-21.2,5.5c-5.3,0.7-8.8,0.3-9.3-3.7
				c-0.8-6.5,2.3-6.7,8.8-7.2c-1.2-5.5-3.5-12.8-5.2-17.7c-9.3,0.7-19.2,0.8-27.8,0.3c-1.8,4.7-3.5,10.8-5.2,17.2
				c6.2,1.3,9.2,0,9.2,5.7c0,5.3-4.2,5.2-15.8,5.2C444.1,178.4,439.4,178.9,439.4,172.5z M490.9,139.3c-5.7-19.3-10.2-31.5-11-38.7
				c-0.8,8.7-6.5,21.7-11.2,39C475.4,140,483.9,139.7,490.9,139.3z"/>
			<path class="st2" d="M594.6,186.4c-4.5,0-8.7-1.5-12-4.2c-6.2-5.2-7-13-7.7-20c-0.3-4-0.8-8.2-2.2-11.3c-1.2-2.7-3.7-4-13-4
				c-1.7,0-3.3,0-5,0.2l0,0c0,2.8,0.2,5.7,0.2,9c0,1.5,0,3,0,4.5c5.8,0.7,13.3,2.7,13.3,12.2c-0.2,5.3-2.7,11.8-14,11.8
				c-1.3,0-2.7,0-4.2-0.2c-1.7,0-3.8-0.2-6.2-0.2c-3.3,0-6,0.2-8,0.3c-0.3,0-0.7,0-1,0.2c-1.7,0.3-3.5,0.7-5.5,0.7
				c-3.2,0-5.8-0.8-8-2.5c-2-1.5-4.3-4.5-4.3-9.7c0-9.8,6.7-11.7,13.7-12.2c0-3.8,0-7.3,0-11.5c-0.2-6.5,0-11.5,0-17.5l0.2-9.2
				c0-4.3,0.2-8.3,0.2-12.8c-5.5-0.2-13.8-1.3-13.8-12.7c0-11,10.8-11.2,18.7-11.2h4.8c0,0,9.7,0,11.8,0c1.8,0,3.7,0,5.3,0
				c1.5,0,3,0,4.5,0c9.7,0,17,0.7,23.8,4.3c5.3,2.7,10.2,7.7,12.7,13.3c5.2,11.7,2.7,26.8-5.3,34.3c3.8,5,5,11.5,5.5,16.8
				c0.2,1.2,0.2,2.3,0.3,3.8c0,0.2,0,0.3,0,0.5c1-0.3,1.8-0.5,2.7-0.5h0.5c1.7,0,5.5,0.8,7.7,5.5c1.8,4.2,1.8,11-1.5,15.5
				C606.1,183.7,600.8,186.4,594.6,186.4z M558.5,124.2c2.2,0,4.2,0.2,6,0.2c7.8,0,11.7-1,12.5-3c0.7-1.7,0.8-5.7,0-7.8
				c-0.8-2.2-5.5-3.3-14-3.3c-2.3,0-4.8,0-7.2,0.2h-0.7c0,1.5,0,3,0,4.5c0,2.8,0,5.3,0,7.8c0,0.5,0,1,0,1.5
				C556.1,124.2,557.3,124.2,558.5,124.2z"/>
			<path class="st1" d="M594.6,182.4c-3.5,0-6.8-1.2-9.3-3.3c-5-4.2-5.5-10.8-6.2-17.3c-0.3-4.3-0.8-8.8-2.5-12.5
				c-2.3-5.3-8-6.3-16.7-6.3c-2.2,0-4.5,0-7,0.2c-0.7,0-1.5,0-2.2,0c0,1.3,0,2.7,0,4c0,2.8,0.2,5.7,0.2,9c0,2.3,0,4.7-0.2,7.2
				c0,0.3,0,0.8,0,1.2h0.2c6,0.3,13.3,0.5,13.2,8.3c-0.2,7.8-6.8,7.8-10,7.8c-1.3,0-2.7,0-4.2-0.2h-0.2c-1.5,0-3.7-0.2-6-0.2
				c-3.5,0-6.3,0.2-8.3,0.3c-0.5,0-0.8,0.2-1.5,0.2c-1.3,0.2-3,0.5-4.7,0.5c-2.3,0-4.2-0.5-5.5-1.7c-1.8-1.3-2.8-3.7-2.8-6.5
				c0-7.3,4.3-8,13.7-8.5v-1.3c0-4.8,0.2-9,0-14c-0.2-6.3,0-11.5,0-17.3l0.2-9c0-5.5,0.2-10.7,0.2-16.8c-1,0-1.8,0-2.8-0.2
				c-5.5-0.2-11-0.3-11-8.7c0-7,6.5-7,14.7-7.2h2.2c0.8,0,1.7,0,2.7,0c1.7,0,3.5,0,5.5,0s4.2,0,6.3,0c1.8,0,3.7,0,5.5,0
				c1.5,0,3,0,4.5,0c9,0,15.8,0.7,22,3.8c4.7,2.3,8.7,6.5,10.8,11.3c4.5,10.3,2.3,24.3-5,30.3c-0.8,0.7-1.8,1.3-2.8,1.8
				c0.7,0.5,1.3,1,2,1.7c4,4.3,5.3,10.8,5.8,16.2c0.2,1,0.2,2.3,0.2,3.7c0.2,2,0.3,6.3,1,7.3c0.2,0.3,0.5,0.3,0.8,0.3
				c0.2,0,0.5,0,0.7-0.2c0,0,0.2-0.3,0.2-0.5c0.3-0.8,1.2-3,4.2-3.2h0.2h0.2c1,0,3,0.5,4.2,3.2c1.3,3,1.3,8.2-1,11.3
				C603.6,180.4,599.5,182.4,594.6,182.4z M551.6,128.2c2.3,0,4.5,0,6.8,0.2c2,0,4.2,0.2,6,0.2c8.5,0,14.5-1,16.3-5.5
				c1-2.5,1.3-7.5,0-10.8c-1.7-4.2-6.8-5.8-17.7-5.8c-2.5,0-5.2,0.2-7.7,0.2c-1.3,0-2.8,0.2-4.2,0.2c0,3,0,5.7-0.2,8.3
				c0,2.8,0,5.5,0,8c0,1.7,0,3.5,0,5.5C551.1,128.2,551.3,128.2,551.6,128.2z"/>
			<path class="st2" d="M594.6,184c-4,0-7.7-1.3-10.5-3.7c-5.5-4.7-6.2-11.7-6.8-18.5c-0.3-4.2-0.8-8.5-2.3-12
				c-1.8-4-5.7-5.3-15.2-5.3c-2.2,0-4.5,0-6.8,0.2h-0.5c0,0.8,0,1.5,0,2.3c0,2.8,0.2,5.7,0.2,9c0,2.2,0,4.3-0.2,6.7
				c5.8,0.3,13.5,1.3,13.3,10c-0.2,9.5-8.8,9.5-11.7,9.5c-1.3,0-2.7,0-4.2-0.2c-1.7,0-3.8-0.2-6-0.2c-3.3,0-6.3,0.2-8.2,0.3
				c-0.5,0-0.8,0.2-1.3,0.2c-1.3,0.2-3,0.5-4.8,0.5c-2.7,0-4.8-0.7-6.7-2c-1.5-1.2-3.5-3.5-3.5-7.8c0-8.3,5.2-9.5,13.7-10
				c0-4.7,0.2-8.8,0-13.7c-0.2-6.3,0-11.5,0-17.5l0.2-9.2c0-5,0.2-9.7,0.2-15c-0.3,0-0.8,0-1.2,0c-5.3-0.2-12.7-0.3-12.7-10.3
				c0-8.7,8.3-8.7,16.3-8.8h4.7c0,0,9.7,0,11.8,0c1.8,0,3.7,0,5.5,0c1.5,0,3,0,4.5,0c9.2,0,16.3,0.7,22.8,4c5,2.5,9.3,7,11.5,12.2
				c4.8,11,2.3,25.8-5.5,32.3c-0.3,0.3-0.7,0.5-1,0.8c0.2,0.2,0.2,0.2,0.3,0.3c4.3,4.7,5.7,11.7,6.3,17c0.2,1,0.2,2.3,0.3,3.7
				c0,1.3,0.2,3.3,0.3,4.8c0.8-1.2,2.2-2.5,4.8-2.7c2.8,0.2,4.8,1.7,6,4.2c1.7,3.5,1.5,9.3-1.2,13C604.6,181.7,600,184,594.6,184z
				 M552.6,126.5c2,0,3.8,0,5.7,0.2c2,0,4,0.2,6,0.2c9.3,0,13.5-1.2,14.7-4.3c0.8-2.2,1-6.8,0-9.7c-1.3-3.3-6.2-4.8-16.2-4.8
				c-2.5,0-5.2,0.2-7.7,0.2c-0.8,0-1.7,0-2.5,0c0,2.3,0,4.5,0,6.7c0,2.8,0,5.3,0,8C552.6,123.8,552.6,125,552.6,126.5z"/>
			<path class="st1" d="M535.3,178.2c-2.8,0.2-11.8,3.2-11.8-5.2c0-5.7,2.5-5.7,13.7-6.2c0-6.3,0.2-11.3,0-17.7
				c-0.2-7.7,0-13.7,0.2-21.5c0.2-8.3,0.2-15,0.3-23.8c-8.5-0.8-13.8,1.2-13.8-6.7c0-5.2,4.8-4.7,14.5-4.8c5.3,0,13,0.2,20,0
				c10-0.2,18.3-0.2,25.5,3.5c4.5,2.3,8,6.3,9.7,10.2c4.3,9.7,1.8,22.5-4.3,27.7c-2.5,2.2-6.2,3.2-10,3.2c4,0.3,7,1.8,8.8,3.7
				c3.3,3.5,4.5,9,5.2,14.7c0.3,3.7,0.2,10.2,1.8,12.2c1,1.3,3.2,1.7,4.7,0.7c1.7-1.2,0.8-3.2,3.2-3.3c3.2,0.2,3.8,7.5,1.3,10.7
				c-3.5,5.2-12.2,6-17.2,1.7c-7.3-6-3.7-19.3-8-29c-4.2-9.2-15.7-7.8-30.3-7.5c0,5.5,0.2,9.7,0.2,15.3c0,3.5-0.2,7-0.2,10.5
				c7,0.3,13.5-0.2,13.5,6c-0.2,5.8-4.5,5.7-12,5.3C546.6,177.9,539.8,177.7,535.3,178.2L535.3,178.2z M582.8,123.7
				c1.2-3.2,1.5-8.7,0-12.7c-3.7-9.5-20.7-7.2-34-7c0,7.2-0.2,13-0.2,18.5c0,2.3,0,5.2,0,7.8C563.8,130.2,579.1,133,582.8,123.7z"/>
		</g>
		<g>
			<g>
				<path class="st2" d="M120.5,322.6c-2.2,0-4.7-0.2-7.2-0.3l-2.2-0.2c-1.5,0-3.7-0.2-6-0.2c-2.3,0-4.5,0-6,0.2
					c-2,0.2-3.7,0.2-5.3,0.2c-12.8,0-14.8-8.3-15-13.3c0-4.2,1.2-7.5,3.5-10c3.3-3.5,7.8-4.2,12.5-4.3c0-5.7,0-10.8,0-16.3
					c0-4.8,0-9.8,0-15.3c0-9.3,0.2-15.2,0.5-24.2v-1.3c0-2.8,0-5.8,0-8.7c-6.2-0.5-14.3-3-14.3-15.2C81,200,96.3,200,104.7,200
					c2.7,0,5.7,0,10.2,0.2c11.7,0.3,16.7,9.8,19.5,18c4.5,11.8,7.7,20.7,11.8,32.7c0.7,1.8,1.5,4,2.3,6.3c0.8,2.2,1.7,4.3,2.5,6.8
					c3.2-9.2,6.7-18.7,9-25.7l1.3-3.8c1.8-5,3.5-10.2,5.7-16c2.2-5.8,6.5-18,16.8-18c20.3,0,36.3,0,36.3,13.7c0,6-2.5,13-13.8,14.2
					v0.5c0.2,3,0.2,5.7,0.2,8.3c0,5.2,0.2,9.7,0.3,14.2v0.7c0.2,5.5,0.3,10.8,0.3,16.7c0,10-0.2,18-0.2,26.2
					c6.3,0.5,14.7,2.5,15.2,13.2c0.2,3.5-1,6.7-3.3,9c-4.5,4.8-11.8,5.2-22.5,5.2h-3.8c-14.3,0-26.8,0-27.5-11.5
					c-0.3-4.2,0.8-7.8,3.3-10.7c2.8-3.2,6.7-4.3,10.3-5c0.2-8.7,0.2-18,0.2-27.2c-1,2.7-1.8,5.3-2.7,7.7c-2.5,7.5-6,17-8.7,24.2
					l-0.3,0.8c-2.2,5.5-5.3,14-16.5,14c-11.5,0-15.3-9.7-16.7-13.3l-0.2-0.3c-3.7-9-8-21.3-11.5-31c0,1.8,0,3.7,0,5.3
					c0,6.7,0.2,13.3,0,20.3c6.2,1.3,15,4.8,13.5,16.7C135.5,317.1,132.5,322.6,120.5,322.6z"/>
				<path class="st1" d="M120.5,318.6c-2.2,0-4.5-0.2-7-0.3l-2.2-0.2c-1.5,0-3.8-0.2-6.2-0.2s-4.7,0-6.2,0.2c-2,0.2-3.7,0.2-5.2,0.2
					c-3,0-10.7,0-11-9.5c0-3,0.7-5.5,2.3-7.2c3-3,7.5-3,12.8-3.2c0.3,0,0.7,0,0.8,0c0-7.2,0-13.5,0-20.3c0-4.8,0-9.7,0-15.2
					c0-9.3,0.2-15.2,0.5-24.2v-1.2c0-3.8,0-7.8-0.2-11.7v-1c-7.8-0.2-14.2-1.3-14.2-11.3c0-9.5,11.3-9.5,19.5-9.5
					c2.7,0,5.7,0,10,0.2c7.5,0.2,12,4.7,15.8,15.3c4.5,12,7.7,20.7,11.8,32.7c0.7,2,1.5,4.2,2.3,6.5c2,5.2,4.3,11.3,6.2,17.8
					c4-11.8,9.3-26.7,12.8-36.7l1.3-4c1.7-4.8,3.5-10,5.7-16c2.7-7.7,6.5-15.5,13.2-15.5c18.8,0,32.3,0,32.3,9.7
					c0,10.3-9.5,10.3-13,10.3c-0.3,0-0.7,0-1,0c0,1.5,0.2,3,0.2,4.7c0.2,2.7,0.2,5.3,0.2,8.2c0,5.3,0.2,10.2,0.3,14.7
					c0.2,5.5,0.3,10.7,0.3,16.7c0,11.3-0.2,20-0.3,29.2v0.7c0.5,0,0.8,0,1.3,0c6.3,0.3,13.7,0.8,14,9.5c0.2,2.5-0.7,4.5-2.2,6.2
					c-3.5,3.7-10,3.8-19.7,3.8h-3.8c-13.3,0-23,0-23.5-7.7c-0.2-3.2,0.5-5.8,2.3-7.7c2.7-3,7-3.8,11.3-4c0.3-11.3,0.3-23.8,0.2-36
					c0,0,0-16.7,0-18.8c-2.2,6.7-4.7,13.8-7.2,20.7c-1.2,3.3-2.3,6.7-3.3,9.7c-2.5,7.5-6,16.8-8.7,24.2l-0.3,0.8
					c-2,5.3-4.3,11.5-12.8,11.5c-8.7,0-11.5-7.3-13-10.8l-0.2-0.3c-5.5-13.3-12.7-34.3-15.3-42.3l-1-3c-0.8-2.7-1.8-5.7-2.8-8.5
					c0,2.3,0,4.5,0,6.7c0,2.3,0,4.7,0,6.8c0,5.8,0,11.2,0.2,16.3c0,8,0.2,15.7,0,23.7c5.7,0.8,15,2.3,13.5,12.8
					C131.4,318.6,123.5,318.6,120.5,318.6z"/>
				<path class="st2" d="M120.5,319.7c-2.2,0-4.5-0.2-7-0.3l-2.2-0.2c-1.7,0-3.8-0.2-6.2-0.2s-4.5,0-6.2,0.2
					c-1.8,0.2-3.7,0.2-5.2,0.2c-2.8,0-11.8,0-12-10.5c0-3.3,0.8-6,2.7-8c3.2-3.3,8.2-3.3,13.3-3.5c0-6.7,0-12.8,0-19.2
					c0-4.8,0-9.7,0-15.2c0-9.3,0.2-15.3,0.5-24.2v-1.2c0-3.8,0-7.7-0.2-11.5c-7.5-0.3-14.2-1.8-14.2-12.3
					c0-10.7,12.5-10.7,20.7-10.7c2.8,0,6.2,0,10,0.2c9.8,0.3,14,8.2,16.8,16c4.5,12,7.7,20.7,11.8,32.7c0.7,1.8,1.5,4.2,2.3,6.5
					c1.7,4.3,3.5,9.3,5.3,14.7c3.8-11.2,8.5-24.5,11.8-33.7l1.3-3.8c1.7-5,3.5-10,5.7-16c2.8-8,6.8-16.2,14.2-16.2
					c19.5,0,33.5,0,33.5,10.7c0,11.2-10.3,11.3-14,11.3c0,1.2,0,2.3,0.2,3.5c0.2,2.7,0.2,5.3,0.2,8.2c0,5.3,0.2,10.2,0.3,14.7
					c0.2,5.5,0.3,10.8,0.3,16.7c0,11.2-0.2,19.5-0.2,28.8h0.2c6.2,0.3,14.7,0.8,15,10.5c0.2,3.5-1.3,5.7-2.5,7
					c-3.8,3.8-10.5,4.2-20.5,4.2h-4c-14,0-24,0-24.5-8.7c-0.2-3.5,0.7-6.3,2.7-8.5c2.7-3,6.8-4,11-4.3c0.3-11,0.2-23.2,0.2-35v-12.2
					c-1.7,4.8-3.3,9.7-5,14.5c-1.2,3.3-2.3,6.7-3.3,9.7c-2.7,7.5-6,16.8-8.7,24.2l-0.3,0.8c-2,5.3-4.7,12.2-13.8,12.2
					c-9.5,0-12.7-8-14-11.5l-0.2-0.3c-5.5-13.3-12.8-35.2-15.3-42.3l-1.8-5.3v6.8c0,5.8,0,11.2,0.2,16.3c0,7.7,0.2,15,0,22.7
					c5.8,1,15,3,13.5,13.8C132.4,319.7,123.5,319.7,120.5,319.7z"/>
				<path class="st1" d="M85.7,308.9c-0.2-8.3,7.2-7,16-7.3c0.2-13.7,0-24.2,0-38.3c0-9.7,0.2-15.7,0.5-25.2c0-5.2,0-10.5-0.2-15.7
					c-10,0-14.2-0.5-14.2-8.5c0-6.5,7.2-7,26.5-6.3c5.7,0.2,9.7,3.3,13.2,13.3c4.2,11.2,7.7,20.3,11.8,32.7
					c2.3,6.8,6.3,16.5,9.2,26.5c1,3.5,1.7,6.7,2.2,11c0.7-4.3,1.3-8.3,2.2-11.3c4-12,9.7-28,13.5-38.5c2.2-6.2,4.3-12.3,7-19.8
					c3.2-8.7,6.3-13.5,10.3-13.5c18,0,29.5,0.2,29.5,6.7c0,7.2-5.3,7.7-14,7.2c0,5.2,0.3,10.5,0.5,15.8c0.2,11.7,0.5,20.5,0.7,31.3
					c0,12.5-0.2,21.7-0.3,32.5c8.3,0.8,15-0.2,15.3,7c0.3,7.2-9.2,7-21.7,7c-13.2,0-21.3,0-21.7-5c-0.5-7.7,6.2-8.5,13.5-8.8
					c0.5-15,0.3-32.7,0.3-48.3c0-9.3,0-20.2,0.5-31.3c-2.2,10.8-10.8,34.5-16.7,51.3c-2.5,7.3-5.8,16.7-8.7,24
					c-2.2,5.7-3.7,10.3-10.3,10.3c-7,0-9.2-6.2-10.3-9.3c-5.3-13-12.3-33.7-15.3-42.2c-3.3-9.8-7.8-23-10.2-33.5
					c0.8,14.3,0.5,25.3,0.5,36.3c0,15.7,0.3,28.3,0,42.5c6.7,1.2,14.8,1.3,13.5,10c-0.5,5-8,4.2-17.5,3.7c-3.5-0.2-9.3-0.2-12.8,0
					C90.5,315.9,85.8,315.9,85.7,308.9z"/>
			</g>
			<g>
				<path class="st2" d="M277.1,320.9c-10,0-11.7-6.7-12-9.5c-0.2-1.5-0.7-6.2,2.3-9.8c1.3-1.7,3.2-2.7,5-3.2
					c-0.5-1.8-1.2-3.8-1.7-5.7c-4.3,0.2-8.7,0.3-13,0.3c-2,0-4,0-5.8,0c-0.5,1.7-1.2,3.7-1.7,5.7c3.7,1,7.5,3.5,7.5,10.7
					c0,3.2-1,5.8-2.8,7.8c-3.7,3.7-8.7,3.7-17.8,3.7c0,0-5.3,0-6.2,0c-5.3,0-16.5,0-16.5-12.2c0-9.2,6.5-11,10.8-11.5
					c0.7-2,1.3-4.2,1.8-6.3c0.7-2.5,1.5-5,2.3-7.5c1.2-3.8,2.2-7,3.3-10.8c0.8-2.7,1.7-5.3,2.7-8.7c1.2-3.7,2-6.3,3-9
					c0.8-2.3,1.5-4.7,2.5-7.7l1.7-5.2c1.2-3.5,2.2-6.7,3.7-11.3c1.5-4.5,5.3-9.7,14.8-9.7c8.3,0,13.7,3.3,15.7,10
					c2.3,7.2,3.5,11,5.2,16l2,6.3c1.3,4,2.3,7,3.7,11.3c2.2,6.8,3.8,13,5.7,18.8c1.3,4.5,2.7,8.8,4,13.2c4.7,0.3,11,2.2,11,11.8
					c0,3.2-1,6-3.2,8c-3.5,3.5-8.7,4-13.2,4c-1.3,0-2.8,0-4.3-0.2c-1.5,0-2.8-0.2-4.2-0.2c-0.8,0-1.7,0-2.2,0.2
					C279.6,320.7,278.2,320.9,277.1,320.9z M261,260.7c-0.8,2.7-1.8,5.7-2.7,8.7c1.8,0,3.7,0,5.3-0.2
					C262.9,266.2,261.9,263.4,261,260.7z"/>
				<path class="st1" d="M277.1,316.7c-4.8,0-7.5-2-8-6c-0.2-2-0.3-4.8,1.3-6.8c1.5-1.8,3.8-2.3,6.8-2.7c-1.2-4.3-2.5-9.2-3.8-13
					c-5.2,0.3-10.5,0.5-15.8,0.5c-3,0-5.8,0-8.7-0.2c-1.3,3.7-2.5,8-3.8,12.5l-0.2,0.3c0.3,0,0.8,0.2,1.2,0.2c3.7,0.5,7.3,1,7.5,7.3
					c0,2.2-0.5,3.8-1.7,5c-2.5,2.5-6.7,2.5-15,2.5c0,0-5.3,0-6.2,0c-5.7,0-12.5,0-12.5-8c0-7,4.8-7.5,9.8-7.7c1.2-2.8,2-5.8,2.8-9
					c0.7-2.3,1.3-4.8,2.2-7.3c1.3-3.8,2.2-7.2,3.3-10.8c0.8-2.5,1.7-5.3,2.7-8.5c1.2-3.5,2-6.3,3-9c0.8-2.3,1.7-4.7,2.5-7.7
					c0.7-1.8,1.2-3.5,1.7-5.2c1-3.3,2-6.5,3.7-11.2c1.7-4.7,5.2-7,11-7c6.5,0,10.3,2.3,12,7.2c2.3,7.2,3.5,11,5.3,16
					c0.8,2.5,1.5,4.5,2,6.2c1.3,4,2.3,7,3.7,11.3c2.2,6.8,3.8,13,5.7,18.8c1.7,5.5,3.2,10.7,4.8,16c4.7,0,10,0.2,10,7.8
					c0,2.2-0.7,3.8-2,5.2c-2.5,2.5-6.5,2.8-10.3,2.8c-1.5,0-3,0-4.3-0.2c-1.3,0-2.7-0.2-4-0.2c-1,0-1.8,0-2.7,0.2
					C279.4,316.7,278.1,316.7,277.1,316.7z M253,273.4c1.3,0,2.7,0,4.2,0l0,0c3.8,0,8-0.2,12-0.3c-1.7-5.8-3.3-10.8-4.7-15.3
					c-1.2-4-2.3-7.5-3.2-10.5c-0.8,3-2,6.3-3.2,10C256.4,262,254.7,267.4,253,273.4z"/>
				<path class="st2" d="M277.1,318.6c-7.7,0-9.3-4.7-9.7-7.5c-0.3-2.2-0.3-5.5,1.7-8.2c1.5-1.8,3.5-2.7,6-3c-0.8-3.3-2-6.8-2.8-9.8
					c-4.8,0.3-9.7,0.5-14.7,0.5c-2.5,0-5.2,0-7.5-0.2c-1,2.8-2,6.2-3,9.8c3.5,0.5,8,1.7,8.2,8.8c0,2.7-0.7,4.7-2.2,6.2
					c-3,3-7.7,3-16.2,3h-6.2c-5.3,0-14.3,0-14.3-9.8c0-7.8,5.3-9,10.3-9.3c0.8-2.5,1.7-5.2,2.5-7.8c0.7-2.5,1.5-4.8,2.3-7.3
					c1.3-3.8,2.2-7.2,3.3-10.8c0.8-2.5,1.7-5.3,2.7-8.5c1.2-3.7,2-6.3,3-9c0.8-2.3,1.7-4.7,2.5-7.7l1.7-5c1-3.3,2-6.5,3.7-11.3
					c1.8-5.3,6.2-8.2,12.7-8.2c7.3,0,11.7,2.7,13.5,8.3c2.3,7.2,3.5,11,5.3,16l2,6.3c1.3,4,2.3,7,3.7,11.3c2.2,6.8,3.8,13,5.7,18.8
					c1.5,5,2.8,10,4.5,14.8c4.5,0.2,10.5,1,10.5,9.5c0,3.2-1.3,5.2-2.5,6.3c-2.8,2.8-7.5,3.3-11.5,3.3c-1.5,0-3,0-4.5-0.2
					c-1.3,0-2.7-0.2-4-0.2c-0.8,0-1.7,0-2.5,0.2C279.6,318.4,278.2,318.6,277.1,318.6z M257,271.7c3.2,0,6.5,0,9.7-0.2
					c-1.5-5-2.8-9.3-4.2-13.3c-0.5-1.8-1.2-3.7-1.7-5.2c-0.5,1.5-1,3-1.5,4.7c-1.3,4.3-2.8,9-4.3,14
					C255.9,271.7,256.4,271.7,257,271.7z"/>
				<path class="st1" d="M220.5,308.6c0-5.3,3.3-5.2,9-5.3c2.3-5.7,3.7-11.7,5.7-17.8c2.2-6.5,3.5-11.5,6-19.5
					c2-6.7,3.5-10.2,5.5-16.7c1.8-5.8,2.8-9.3,5.2-16.3c1.2-3.7,4-5.3,8.8-5.3c6.2,0,8.7,2.3,9.7,5.7c2.3,7.2,3.5,11.2,5.3,16.2
					c2.5,7.8,3.7,11.2,5.7,17.5c4.3,13.8,7.3,24.8,11,36.5c5.8,0,9.3-0.5,9.3,5.5c0,8.3-13.5,4.8-21.2,5.5c-5.3,0.7-8.8,0.3-9.3-3.7
					c-0.8-6.5,2.3-6.7,8.8-7.2c-1.2-5.5-3.5-12.8-5.2-17.7c-9.3,0.7-19.2,0.8-27.8,0.3c-1.8,4.7-3.5,10.8-5.2,17.2
					c6.2,1.3,9.2,0,9.2,5.7c0,5.3-4.2,5.2-15.8,5.2C225.4,314.2,220.5,314.7,220.5,308.6z M272.2,275.2c-5.7-19.3-10.2-31.5-11-38.7
					c-0.8,8.7-6.5,21.7-11.2,39C256.7,275.9,265.2,275.7,272.2,275.2z"/>
				<path class="st2" d="M310.1,320.9c-7.7,0-11.8-4.5-11.8-12.5c0.2-9.5,7.2-11.2,13.8-11.5c1-16.7,0.5-37.3-0.2-50.7
					c-3.7,0-10.7-0.7-13.3-9.8c-1-3.2-0.5-6.3,1.3-8.8c3.8-5,11.5-5.5,20.3-5.5h17.8c9.3,0,20.2,0.5,29,4.7
					c5.8,2.7,11.5,7.3,15.5,13c9.5,13.3,11.8,37,5.5,55c-2.5,7.5-8,14.2-15.3,19c-9.3,6.2-21.3,7.2-31.7,7.2c-3.2,0-6.5-0.2-9.7-0.2
					c-2.8,0-5.5-0.2-8.2-0.2c-3.3,0-6.5,0-9.8,0.3C312.1,320.9,310.9,320.9,310.1,320.9z M336.2,297.2c1.3,0,2.7,0,4.2,0
					c4.7,0,10.8-0.2,15.3-1.7c9.5-3.3,11.5-14.2,11.7-22.7c0.2-9.8-2.2-22.2-14.5-25.8c-4-1.2-9-1.2-14-1.2c-0.8,0-1.7,0-2.5,0
					C336.7,260.4,337.1,281.2,336.2,297.2z"/>
				<path class="st1" d="M310.1,316.9c-5.5,0-7.8-2.7-7.8-8.5c0-7.3,5.7-7.5,13.5-7.7c1.5-19.2,0.5-45.8,0-58.7c-0.3,0-0.5,0-0.8,0
					c-0.8,0-1.5,0-2.2,0c-4.2,0-8.3-0.5-10.3-7c-0.8-2.5,0-4.3,0.7-5.3c2.7-3.5,9.3-3.8,17.2-3.8h3.7h14.2c9,0,19.2,0.5,27.2,4.3
					c5.2,2.3,10.3,6.7,13.8,11.7c8.7,12.3,11,34.5,5,51.3c-2.3,6.7-7.2,12.7-13.7,17c-8.5,5.7-19.7,6.5-29.5,6.5
					c-3.2,0-6.5-0.2-9.7-0.2c-2.7,0-5.5-0.2-8.2-0.2c-3.3,0-6.7,0-10.2,0.3C311.7,316.9,310.9,316.9,310.1,316.9z M331.9,301.1
					c2.8,0,5.7,0.2,8.3,0.2l0,0c5,0,11.5-0.2,16.5-2c9.3-3.2,14.2-12.3,14.3-26.5c0.2-9.2-1.8-25-17.3-29.7
					c-4.5-1.2-10-1.3-15.2-1.3c-1.7,0-3.5,0-5.2,0c-0.5,0-1,0-1.5,0C332.7,256.4,333.2,282.9,331.9,301.1z"/>
				<path class="st2" d="M310.1,318.6c-6.3,0-9.5-3.5-9.5-10.2c0.2-8.3,6.5-9.2,13.7-9.3c1.3-18.2,0.5-42.3-0.2-55.3
					c-0.5,0-1,0-1.3,0c-5,0-9.8-1-12-8.2c-1-3.2,0-5.5,1-6.8c3.2-4.2,10.2-4.5,18.5-4.5h17.8c9.2,0,19.5,0.5,28,4.5
					c5.5,2.5,10.7,7,14.5,12.3c9,12.7,11.3,35.5,5.3,53c-2.3,7-7.5,13.3-14.3,17.8c-8.8,5.8-20.3,6.7-30.5,6.7
					c-3.2,0-6.5-0.2-9.7-0.2c-2.7,0-5.5-0.2-8.2-0.2c-3.3,0-6.5,0-10,0.3C311.9,318.6,310.9,318.6,310.1,318.6z M333.7,299.4
					c2.2,0,4.5,0.2,6.5,0.2c5,0,11.2-0.2,16-1.8c10.8-3.8,13.2-15.7,13.2-24.8c0.2-8.7-1.7-23.8-16.2-28.2
					c-4.3-1.2-9.5-1.3-14.7-1.3c-1.7,0-3.3,0-5,0C334.4,257.9,334.7,282,333.7,299.4z"/>
				<path class="st1" d="M304.6,308.4c0-5.5,4-5.2,13.3-5.3c1.7-17.7,1-43.7,0-63.3c-7.2,0-11.3,1.2-13.3-5.3
					c-2-6.7,9.8-6.2,19.3-6.2h14.2c9.2,0,18.8,0.7,26.2,4.2c5.3,2.3,10,6.7,13,11c8.3,11.8,10.3,33.2,4.8,49.3
					c-2.5,7-7.7,12.3-12.8,15.8c-11.8,7.8-29.5,5.8-46,5.7c-3.5,0-6.8,0-10.5,0.3C306.6,315.1,304.6,314.1,304.6,308.4z
					 M357.6,301.6c9.5-3.3,15.8-12.7,16-28.7c0.3-15.3-5.5-28-19.2-32c-7-1.8-15.3-1.5-25-1.5c1,15,1.5,45.2,0,63.8
					C340.1,303.6,350.1,304.1,357.6,301.6z"/>
				<path class="st2" d="M463.8,322.2c-7.2,0-10.7-5-15.5-12c-5.2-8-9-14.3-12.7-20.3l-3.3-5.7c-1.7-2.5-4.7-7.5-7.7-12.2
					c0.2,8.3,0.2,17.7,0.2,24.5c4.2,0.3,7.8,1.2,10.5,4.2c1.3,1.7,2.8,4.5,2.3,8.8c-1.3,10.8-11.7,10.8-15,10.8
					c-1.8,0-3.7-0.2-5.8-0.2h-1.5c-3.5-0.2-6.7-0.2-9.3-0.2c-0.8,0-3,0-3,0c-0.8,0-1.7,0-2.5,0c-2.8,0-11.3,0-12.3-10.8
					c-0.5-4.5,1.2-7.3,2.5-9c2.7-3,6.3-3.8,10.2-4.2c0-5.5,0-10.7,0-17.8c0-4.2,0-7.7,0-11.2v-0.7c0-3.8,0-7.7,0-12.2
					c0-2.3,0-4.8,0-7.2v-1.2c-2.5,0-5.3-0.5-7.8-2.5c-2.7-2.2-4.2-5.5-4.2-10c0-11.7,11-11.7,16.8-11.7c0,0,4.2,0,5.2,0
					c4.8,0,7.5,0.3,9.3,1.2c4.3,1.8,6.7,5.7,9.3,10c0.5,0.8,1,1.7,1.7,2.7c2.2,3.7,4.2,6.8,6,9.8c2.3,4,4.5,7.7,7.3,12.2
					c2.8,4.5,5.7,8.8,8.3,13.2c0-1,0-2,0-3c0-6.8-0.2-13.5-0.2-15.5c0-2,0-4,0-5.8c-2.7-0.2-5.2-0.5-7.3-1.7
					c-2.5-1.3-5.5-4.3-5.5-10.7c0-11.8,11.3-11.8,24.3-11.8h10c2.8,0,7.7,0,11,3.3c3.2,3.3,3,7.8,3,9.3c-0.2,8.5-6.5,10.7-11.8,11.2
					v5.8c0.2,6.7,0.2,11.7,0.2,18.7c0,8,0,14.3,0.2,21c0,4.7,0.2,9.2,0.2,14.2c0,4.8,0,16.2-12.3,16.7L463.8,322.2z"/>
				<path class="st1" d="M463.8,318.2c-5,0-7.5-3.7-12.2-10.2c-5.2-7.8-8.8-14-12.5-20.2c-1.2-1.8-2.3-3.7-3.3-5.7
					c-3-4.8-11.5-18.2-14.7-22.8c-0.3-0.5-0.5-0.8-0.8-1.3c0,0.8,0.2,3,0.2,3c0.3,11,0.3,27.5,0.3,39.3l0,0c5.2,0.2,9.2,0.3,11.3,3
					c1.2,1.5,1.7,3.3,1.5,5.8c-0.8,7.3-7.5,7.3-11,7.3c-1.7,0-3.7-0.2-5.7-0.2h-1.5c-3.7-0.2-6.8-0.2-9.5-0.2c-0.8,0-1.7,0-2.5,0
					h-0.3c-1,0-1.8,0-2.7,0c-3.7,0-7.8-0.5-8.3-7.2c-0.2-2.5,0.3-4.5,1.5-5.8c2.3-2.7,6.2-2.8,11.2-3c0.2-7.2,0.2-13,0-21.7
					c0-4.3,0-8.2,0-11.8c0-3.8,0-7.5,0-12.2c0-2.3,0-4.8,0-7.3c0-1.7,0-3.3,0-5.2c-0.2,0-0.5,0-0.7,0c-1,0-1.8,0-2.7,0
					c-2,0-4.3-0.2-6-1.7c-1.7-1.3-2.5-3.7-2.5-6.8c0-7.7,6.5-7.7,12.8-7.7h1.5h1.2c0.7,0,1.5,0,2.3,0c4.2,0,6.5,0.2,7.8,0.8
					c3.2,1.3,5,4.5,7.5,8.5c0.5,0.8,1,1.7,1.7,2.7c2.2,3.5,4,6.7,5.8,9.7c2.3,4,4.7,7.8,7.5,12.3c5,7.8,10,15.8,14.2,22.5
					c0.7,1,1.2,2,1.8,3c0-0.8,0-1.7,0-2.7c0-2.2-0.2-8.5-0.2-15.3c0-6.5-0.2-13.2-0.2-15.3c0-2.7,0-5.5,0-8.2c0-0.5,0-1.2,0-1.7
					h-1.7c-2.8,0-5.7-0.2-7.7-1.3c-3.3-2-3.3-5.8-3.3-7.2c0-7.8,7.7-7.8,20.3-7.8h10c3.2,0,6.2,0.2,8.2,2.2c1.8,1.8,1.8,4.5,1.8,6.5
					c-0.2,7-6,7.3-11.8,7.5v9.5c0.2,6.8,0.2,11.8,0.2,18.7c0,8,0,14.3,0.2,21c0,4.5,0.2,9,0.2,14.2c0,5.2,0,12.3-8.5,12.5
					L463.8,318.2z"/>
				<path class="st2" d="M463.8,319.9c-5.8,0-8.7-4.2-13.5-11c-5.2-7.8-9-14.2-12.7-20.2l-3.3-5.7c-2.3-3.8-8.3-13.2-12.2-19.2
					c0.2,10.3,0.2,24.2,0.2,34.8c4.7,0.2,8.5,0.7,11,3.5c1.5,1.8,2.2,4.2,1.8,7.2c-1,8.8-9.2,8.8-12.7,8.8c-1.7,0-3.7-0.2-5.8-0.2
					h-1.5c-3.5-0.2-6.7-0.2-9.3-0.2c-0.8,0-1.7,0-2.5,0c-1.3,0-2.2,0-3,0l0,0c-2.8,0-9.2,0-10-8.7c-0.3-3,0.3-5.3,2-7.2
					c2.5-2.8,6.3-3.3,10.8-3.5c0.2-6.5,0.2-12,0-20c0-4.3,0-8.2,0-11.8c0-3.8,0-7.7,0-12.2c0-2.3,0-4.8,0-7.3c0-1.2,0-2.3,0-3.3
					c-0.5,0-1.2,0-1.7,0c-2.3,0-4.8-0.2-7-2c-2.2-1.7-3.2-4.5-3.2-8.2c0-9.3,8.3-9.3,14.5-9.3h5.2c4.5,0,6.8,0.3,8.5,1
					c3.7,1.5,5.8,5,8.2,9.2c0.5,0.8,1,1.7,1.7,2.7c2.2,3.5,4,6.7,5.8,9.8c2.3,4,4.7,7.8,7.5,12.2c4.3,6.8,8.5,13.5,12.7,20.3
					c0-3,0-7.5-0.2-11.8c0-6.5-0.2-13.2-0.2-15.3c0-2.7,0-5.5,0-8.2c-3.2,0-6.2-0.2-8.5-1.5c-2.8-1.7-4.3-4.5-4.3-8.7
					c0-9.5,9.2-9.5,22-9.5h10c3.3,0,6.8,0.2,9.3,2.7c2.2,2.3,2.3,5.5,2.3,7.7c-0.2,7.7-6.3,8.8-11.8,9.2v8
					c0.2,6.7,0.2,11.7,0.2,18.7c0,8,0,14.5,0.2,21c0,4.5,0.2,9,0.2,14.2c0,4.8,0,14-10,14.3h-0.7V319.9z"/>
				<path class="st1" d="M453.4,306.7c-6.7-10.2-11.2-17.8-15.8-25.7c-3-4.8-11.3-18-14.7-23c-2.3-3.5-4.3-7-6.3-13.8
					c1,6.5,1.2,12.2,1.3,17c0.3,11.7,0.3,29.8,0.3,41.5c7.8,0.3,13.7-0.2,13,6.3c-0.7,5.7-5.2,5.5-14.3,5c-5.5-0.2-10-0.3-13.7-0.2
					c-5.8,0.2-8.3,0.3-8.8-5c-0.7-6.5,5-6.2,12.7-6.3c0.2-8.7,0.2-14.8,0-24c0-8.8-0.2-14.8-0.2-23.8c0-4.8-0.2-9.8-0.2-14.8
					c-6.8,0-11.8,1.7-11.8-6c0-5.2,3.2-5.3,12-5.3c2,0,8.5-0.2,10.5,0.7c3,1.3,5,5.3,8,10.2c5,8,8.3,14,13.3,22
					c4.8,7.7,9.5,15.2,14.2,22.5c3.5,5.5,5.8,10.3,7.2,14.8c-0.7-6.7-1-9.7-1.2-15.7c-0.2-4.3-0.2-26.3-0.3-30.7c0-4,0-8.2,0-12
					c-8.5,0-12.8,0.7-12.8-6.2c0-5.5,5.7-5.5,18.8-5.5h9.2c5.3,0,7.8,0.7,7.7,6.2c-0.2,5.5-5,5-11.8,5.3V252
					c0.2,6.8,0.2,11.7,0.2,18.7c0,13.5,0.2,22.7,0.3,35.2c0,6.2-0.3,10-6.2,10.2C460.1,316.1,458.1,313.2,453.4,306.7z"/>
				<path class="st2" d="M548.8,320.9c-2.8,0-5.8-0.2-9-0.3l-0.2-4l-0.2,4c-3.2-0.2-6.5-0.3-9.7-0.3c-6.7,0-11,0.2-15,0.3
					c-4.3,0.2-8,0.3-13.5,0.3h-4c-5.5-0.2-10.3-0.2-13.5-4.2c-3-3.7-2.2-8.3-2-9.8c1.3-8.2,8-9.7,13.2-10c0-8.8,0-16.7,0-24.3
					c0-8.8-0.2-17.3,0-26.3c-4.3-0.3-8.5-1.2-11.2-4.5c-2-2.7-2.7-5.8-1.8-9.8c2-9.5,11.8-9.5,18.5-9.5h51.8
					c11.7,0,11.8,12,11.8,17.8c0,1.7,0,3.2,0.2,4.7c0.7,5.8,1,11.7-2.8,15.8c-1.5,1.7-4.3,3.7-9.2,3.7c-3.3-0.2-5.7-1-7.3-2.5
					c-0.2,6.3-0.3,11-0.3,17c1.7-2.3,4.5-3.8,8.8-3.8c3.5,0,6.5,1.2,8.5,3.3c4,4,3.8,10.3,3.8,15.7c0,2.5-0.2,4.8-0.2,7.5v1.5
					c0,0.7,0,1.2,0,2c0,3.3,0.2,7.2-1.5,10.2C560.8,320.9,553,320.9,548.8,320.9z M527.3,296.4c4.5,0,9.2,0.2,14.5,0.3
					c0-1.8,0-3.5-0.2-5.5c0-0.7,0-1.3,0-2.2c-2.5,2.7-6.2,4-9.8,4c-3.5,0-6.8-1.3-8.8-3.5c-1.8-2-2.7-4.5-2.5-7.2v-1.2
					c-0.3,0-1.3,0-1.7,0c0,0,0,10.5,0.2,15.2C521.9,296.4,524.6,296.4,527.3,296.4z M518.6,246.2c-0.2,4-0.2,7.8,0,11.7
					c1,0,1.8,0,2.8,0c0.7-4.2,2.3-9.8,7.7-11.7H518.6z M537.6,246.2c1.3,0.3,2.3,1,3.2,1.5c0-0.2,0-1.3,0-1.5H537.6z"/>
				<path class="st1" d="M548.8,316.9c-2.7,0-5.7-0.2-8.8-0.3c-3.3-0.2-6.8-0.3-10.2-0.3c-6.8,0-11.2,0.2-15.3,0.3
					c-4,0.2-7.7,0.3-13.2,0.3c-1,0-2,0-3,0h-0.8c-4.8-0.2-8.3-0.2-10.5-2.7c-1.7-2-1.5-4.7-1.2-6.5c1.2-6.8,7.7-6.8,12.5-6.8h0.7
					c0-10.5,0-19.7,0-28.5c0-10-0.2-19.5,0-30.2h-0.2c-5.2-0.2-9.5-0.2-11.8-3.2c-1.3-1.7-1.7-3.8-1-6.5c1.3-6.3,8-6.3,14.5-6.3
					h51.8c7.7,0,7.8,7.7,7.8,13.8c0,1.7,0,3.3,0.2,4.8c0.5,5.3,0.8,10-1.7,12.8c-1.3,1.5-3.5,2.3-6.2,2.3h-0.3
					c-7.2-0.2-7.2-7-7.3-13c0-1.7-0.2-3.2-0.3-4.8h-29.7c-0.3,6.7-0.3,13.2,0,19.7c1.2,0,2.3,0,3.7,0c2.2,0,4.5,0,6.7-0.2
					c0.3-5.3,1.5-12,7.7-12.2c0.2,0,0.5,0,0.7,0c2.5,0,4.3,0.7,5.7,2c1.8,2,2,4.7,2,7.2c-0.3,9-0.3,14.8-0.3,23.3c0,4.7-4.5,7-8.7,7
					c-2.5,0-4.7-0.8-6-2.2c-1-1.2-1.5-2.5-1.5-4.2l0.2-5.5c-1.7,0-3.3,0-5,0l0,0c-1.7,0-3.2,0-4.8,0v4.8c0,5.7,0.2,12.3,0.2,18.5
					c4.2-0.2,8.2-0.2,12.2-0.2c5.5,0,11.3,0.2,18.5,0.5c0.2-3,0.2-6.3,0-9.7c0-6.2,0.2-12.3,7.7-12.3c2.5,0,4.3,0.7,5.7,2.2
					c2.8,2.8,2.7,8,2.7,12.8c0,2.5-0.2,4.8-0.2,7.5v1.5c0,0.7,0,1.3,0,2.2c0,2.8,0.2,6-1,8.2C558.6,316.4,553.8,316.9,548.8,316.9z"
					/>
				<path class="st2" d="M548.8,318.6c-2.7,0-5.8-0.2-9-0.3c-3.3-0.2-6.8-0.3-10.2-0.3c-6.8,0-11.2,0.2-15.3,0.3
					c-4,0.2-7.8,0.3-13.3,0.3h-3.8c-5.2-0.2-9.2-0.2-11.7-3.3c-2.3-2.8-1.7-6.7-1.5-7.8c1.3-7.7,8.3-8.2,13.2-8.2
					c0-9.8,0-18.5,0-26.8c0-9.5-0.2-18.5,0-28.5c-4.8-0.2-9.2-0.5-11.7-3.7c-1.5-2-2-4.7-1.3-8c1.7-7.7,9.7-7.7,16.2-7.7h51.8
					c9.3,0,9.5,9.3,9.5,15.5c0,1.5,0,3.2,0.2,4.8c0.5,5.3,0.8,10.7-2.2,14c-1.7,2-4.2,2.8-7.3,2.8c-9.2-0.2-9.2-8.7-9.2-14.8
					c0-1,0-2.2-0.2-3.2h-26.5c-0.2,5.5-0.2,11,0,16.3c0.7,0,1.3,0,2,0c1.7,0,3.5,0,5.2,0c0.5-5.5,2.2-12,9.2-12.2h0.7
					c3,0,5.2,0.8,6.8,2.5c2.3,2.3,2.5,5.5,2.5,8.3c-0.3,9-0.3,14.7-0.3,23.2c0,5-4.5,8.7-10.3,8.7c-2.8,0-5.5-1-7.2-2.8
					c-1.3-1.5-2-3.3-1.8-5.3l0.2-3.7c-1,0-5.3,0-6.3,0c0,0,0.2,14.3,0.2,19.8c3.7-0.2,7-0.2,10.5-0.2c5.2,0,10.5,0.2,16.8,0.3
					c0-2.5,0-5.2,0-8c0-6,0.2-14.2,9.3-14.2c3,0,5.2,0.8,6.8,2.7c3.3,3.3,3.2,8.8,3.2,14c0,2.5-0.2,4.8-0.2,7.5v1.5
					c0,0.7,0,1.3,0,2.2c0,3,0.2,6.5-1.3,9C559.8,317.9,554.3,318.6,548.8,318.6z"/>
				<path class="st1" d="M487.9,307.9c0.8-5.3,6.2-4.8,13.2-4.8c0.2-24.7-0.3-41.7,0-63.2c-8-0.3-14.7,0.3-13-6.8
					c0.8-4,4.5-4.5,12.2-4.5h51.8c6.8,0,5,8.5,5.7,16.5c0.8,7.8,0.7,12.8-5.8,12.7c-4.5-0.2-5-3.5-5-10.8c0-2.3-0.2-4.8-0.5-7.2h-34
					c-0.5,8.8-0.3,16.8,0,24.3c5,0.3,9.7,0.2,14.8,0c0.3-5.8,0.7-12,5.5-12.2c5.3-0.2,6,2.8,5.8,6.7c-0.3,9.5-0.3,15.2-0.3,23.3
					c0,6-11.7,6.3-11.3,0.8l0.3-8c-5.3,0.2-9.3,0-14.7,0.2c0,7.3,0.2,18.7,0.2,28c12-0.5,21.7-0.3,35.2,0.2
					c0.3-3.5,0.3-7.7,0.2-12.2c0-6.2,0.2-10,5.5-10c5.8,0,6,5.3,5.8,12.7c0,3-0.2,5.7-0.2,9c-0.2,2.5,0.3,7.2-0.8,9.3
					c-2.3,4.3-16.5,1.8-28.8,1.8c-14.3,0-17.8,0.7-31.5,0.7C490.9,314.2,486.9,314.4,487.9,307.9z"/>
				<path class="st2" d="M613,322.6c-7.8,0-15.2-2-21.2-5.8c-0.3,0.7-0.8,1.2-1.3,1.7l-0.3,0.3c-2.8,2.5-7,2.7-8.3,2.7
					c-6.7,0-11.5-4-12-10c-0.3-3-0.3-5.3-0.3-7.8c0-2.3-0.2-4.5-0.3-7.5c-0.7-7.2-0.8-13.3,3-17.5c2-2.2,4.7-3.5,8-3.5
					c0,0,0.3,0,0.7,0c6.2,0,8.8,4.7,10.3,7.5c0.5,0.8,0.8,1.5,1.3,2.3l0.3,0.5c4.2,8.5,11.2,13.5,18.7,13.5c3.2,0,5.3-0.7,6.5-1.8
					c0.7-0.8,1-2,1-3.8c-0.3-5.3-9.8-9.7-19-14c-13.7-6.3-30.5-14-30.7-31.5c0-7.3,2.5-13.7,7.5-18.7c5.7-5.8,14.2-9,23.8-9h0.5
					c7,0,13.5,1.8,19,4.8c0.3-0.5,0.7-1,1.2-1.5c2-2.2,4.8-3.5,8-3.5c0.3,0,0.7,0,1,0c1.3,0,5.5,0,8.5,3.2c3.3,3.7,3,9,2.8,12.5
					c0,3,0,5,0.2,9.7c0.3,5.7,0.7,11.3-2.8,15c-2.8,3.2-6.8,3.2-8,3.3l0,0c-6,0-8.5-4.2-10.3-7.2c-0.3-0.7-0.7-1.2-1.2-2
					c-3.8-6.5-10.5-10.5-17.3-10.7c-2.8,0-5.2,0.7-6.2,1.8c-0.5,0.5-0.8,1.2-0.8,2c0.5,2.2,9.7,6.2,14.5,8.3
					c14.8,6.5,35,15.5,35.2,37.5c0,8.3-2.7,15.3-7.8,20.5c-5.7,5.7-14,8.7-23.5,8.7H613z"/>
				<path class="st1" d="M613,318.6c-9.5,0-17.7-3-23.8-8.8c0,2.5-0.2,4.7-1.5,6l-0.2,0.2c-1.3,1.2-3.8,1.7-5.7,1.7
					c-4.5,0-7.7-2.5-8-6.3c-0.2-3-0.3-5.2-0.3-7.5s-0.2-4.7-0.3-7.8c-0.5-6.2-0.7-11.7,2-14.5c1.2-1.3,3-2.2,5.2-2.2
					c0.2,0,0.3,0,0.5,0c3.8,0,5.3,2.7,6.8,5.3c0.5,0.8,0.8,1.7,1.5,2.5v0.2v0.2c4.8,9.7,13.2,15.7,22.2,15.7h0.2c4.2,0,7.3-1,9.2-3
					c1.5-1.7,2.2-3.8,2.2-6.8c-0.3-7.8-10.5-12.5-21.3-17.5c-13.2-6.2-28.2-13-28.3-27.8c0-6.2,2.2-11.7,6.3-15.8
					c5-5,12.3-7.8,20.8-7.8h0.5c8.2,0.2,15.7,2.7,21.2,7c0.2-1.8,0.8-3.7,2-5c1.3-1.3,3-2.2,5.2-2.3c0.3,0,0.5,0,0.8,0
					c1.7,0,3.8,0.2,5.5,2c2,2.2,2,5.7,1.8,9.5c0,3.2,0,5.3,0.2,10.2c0.3,5.8,0.3,9.8-1.8,12.2c-1.5,1.7-3.7,2-5.2,2l0,0
					c-3.5,0-5-2.5-6.7-5.3c-0.3-0.7-0.8-1.3-1.2-2c-4.5-7.5-12.5-12.5-20.8-12.5l0,0c-4,0-7.2,1-9.2,3c-1.3,1.3-2,3-2,4.8
					c0.2,4.5,8.3,8.2,17,11.8c14.5,6.5,32.7,14.5,32.8,33.8c0,7.2-2.3,13.3-6.7,17.7c-4.8,4.8-12.2,7.5-20.7,7.5L613,318.6z"/>
				<path class="st2" d="M613,320.2c-8.5,0-16.2-2.5-22.3-7.2c-0.3,1.5-0.8,2.8-1.8,3.8c-2.3,2.2-6,2.3-7,2.3
					c-5.5,0-9.2-3.2-9.7-7.8c-0.3-3-0.3-5.2-0.3-7.7c0-2.2-0.2-4.5-0.3-7.7c-0.5-6.5-0.7-12.3,2.3-15.8c1-1.2,3-2.7,6.3-2.8h0.5
					c4.8,0,6.8,3.7,8.3,6.3c0.3,0.7,0.8,1.5,1.5,2.3l0.2,0.2l0.2,0.2c4.5,9.2,12.3,14.7,20.7,14.7l0,0c2.7,0,6.2-0.5,8.2-2.5
					c1.2-1.3,1.7-3,1.7-5.5c-0.3-6.8-10-11.2-20.3-16c-13.7-6.3-29.2-13.5-29.3-29.5c0-6.7,2.3-12.5,6.8-17
					c5.3-5.3,13.2-8.2,22.2-8.2h0.5c7.7,0.2,14.7,2.2,20.2,5.8c0.3-1.2,1-2.3,1.8-3.3c1.2-1.2,3-2.7,6.5-2.8h0.8
					c3,0,5.2,0.8,6.8,2.5c2.5,2.7,2.5,6.7,2.2,10.7c0,3.2,0,5.2,0.2,9.8c0.3,6.3,0.3,10.5-2.2,13.3c-2.2,2.3-5.3,2.5-6.3,2.5l0,0
					c-4.5,0-6.5-3.2-8.2-6.2c-0.3-0.7-0.8-1.3-1.2-2c-4.2-7.2-11.7-11.7-19.3-11.7l0,0c-3.5,0-6.3,0.8-8,2.5c-1,1-1.5,2.3-1.5,3.7
					c0.2,3.5,8.5,7.2,16,10.3c14.2,6.3,33.7,14.8,33.8,35.3c0,7.7-2.5,14.2-7.2,18.8c-5.2,5.2-13,8-21.8,8H613V320.2z"/>
				<path class="st1" d="M586.3,302.9c0.5,4.3,1.2,9.7-0.2,11.2c-1.7,1.5-9.3,2.3-9.7-3.2c-0.5-5.7-0.2-8.7-0.7-15.3
					c-0.7-8.7-0.7-14.2,4.8-14.3c3.5-0.2,4.2,2.8,6.7,6.8c6,11.8,15.8,16.8,24.3,17c8.3,0,14.3-3.7,13.8-12.2
					c-1-19.7-49.5-20.2-49.7-45.2c0-13.3,11-21.3,25.3-21.2c9.8,0.2,18.5,3.8,23.5,10.2c-0.3-5-0.3-10.3,5-10.5c5.3-0.2,6,2.3,5.7,9
					c0,3.3,0,5.5,0.2,10.3c0.5,8.7,0.2,11.5-4.7,11.7c-2.7,0-3.5-2.3-6-6.2c-4.7-8-13.5-13.5-22.7-13.5c-8.7,0-13.5,4.5-13.5,10.3
					c0.5,14.7,49.5,15.5,49.7,45.7c0,15.2-11,23-25.2,22.8C601,316.2,592,311.1,586.3,302.9z"/>
				<path class="st2" d="M689.3,322.6c-7.8,0-15.2-2-21.2-5.8c-0.3,0.7-0.8,1.2-1.3,1.7l-0.3,0.3c-2.8,2.5-7,2.7-8.3,2.7
					c-6.7,0-11.5-4-12-10c-0.3-3-0.3-5.3-0.3-7.8c0-2.2-0.2-4.5-0.3-7.7c-0.7-7.2-0.8-13.3,3-17.5c2-2.2,4.7-3.5,8-3.5
					c0,0,0.3,0,0.7,0c6.2,0,8.8,4.7,10.3,7.5c0.5,0.8,0.8,1.5,1.3,2.3l0.3,0.5c4.3,8.5,11.2,13.5,18.7,13.7c3.2,0,5.3-0.7,6.5-1.8
					c0.7-0.8,1-2,1-3.8c-0.3-5.3-9.8-9.7-19-14c-13.7-6.3-30.5-14-30.7-31.5c0-7.3,2.5-13.7,7.5-18.7c5.7-5.8,14.2-9,23.8-9h0.5
					c7,0,13.5,1.8,19,4.8c0.3-0.5,0.7-1,1.2-1.5c2-2.2,4.8-3.5,8-3.5c0.3,0,0.7,0,1,0c1.3,0,5.5,0,8.5,3.2c3.3,3.7,3,9,2.8,12.5
					c0,3,0,5,0.2,9.7c0.3,5.5,0.7,11.3-2.8,15c-2.8,3.2-6.8,3.2-8,3.3l0,0c-6,0-8.5-4.2-10.3-7.2c-0.3-0.7-0.8-1.3-1.2-2
					c-3.8-6.5-10.5-10.5-17.3-10.7c-2.8,0-5.2,0.7-6.2,1.8c-0.5,0.5-0.8,1.2-0.8,2c0.5,2.2,9.7,6.2,14.5,8.3
					c14.8,6.5,35,15.5,35.2,37.5c0,8.3-2.7,15.3-7.8,20.5c-5.7,5.7-14,8.7-23.5,8.7H689.3z"/>
				<path class="st1" d="M689.3,318.6c-9.5,0-17.7-3-23.8-8.8c0,2.5-0.2,4.7-1.5,6l-0.2,0.2c-1.3,1.2-3.8,1.7-5.7,1.7
					c-4.5,0-7.7-2.5-8-6.3c-0.2-3-0.3-5.2-0.3-7.5s-0.2-4.7-0.3-7.8c-0.5-6.2-0.7-11.7,2-14.5c1.2-1.3,3-2.2,5.2-2.2
					c0.2,0,0.3,0,0.5,0c3.8,0,5.3,2.7,6.8,5.3c0.5,0.8,0.8,1.7,1.5,2.5v0.2v0.2c4.8,9.7,13.2,15.7,22.2,15.7h0.2c4.2,0,7.3-1,9.2-3
					c1.5-1.7,2.2-3.8,2.2-6.8c-0.3-7.8-10.5-12.5-21.3-17.5c-13.2-6.2-28.2-13-28.3-27.8c0-6.2,2.2-11.7,6.3-15.8
					c5-5,12.3-7.8,20.8-7.8h0.5c8.2,0.2,15.7,2.7,21.2,7c0.2-1.8,0.8-3.7,2-5c1.3-1.3,3-2.2,5.2-2.3c0.3,0,0.5,0,0.8,0
					c1.7,0,3.8,0.2,5.5,2c2,2.2,2,5.7,1.8,9.5c0,3.2,0,5.3,0.2,10.2c0.3,5.8,0.3,9.8-1.8,12.2c-1.5,1.7-3.7,2-5.2,2l0,0
					c-3.5,0-5-2.5-6.7-5.3c-0.3-0.7-0.8-1.3-1.2-2c-4.5-7.5-12.5-12.5-20.8-12.5l0,0c-4,0-7.2,1-9.2,3c-1.3,1.3-2,3-2,4.8
					c0.2,4.5,8.3,8.2,17,11.8c14.5,6.5,32.7,14.5,32.8,33.8c0,7.2-2.3,13.3-6.7,17.7c-4.8,4.8-12.2,7.5-20.7,7.5L689.3,318.6z"/>
				<path class="st2" d="M689.3,320.2c-8.5,0-16.2-2.5-22.3-7.2c-0.3,1.5-0.8,2.8-1.8,3.8c-2.3,2.2-6,2.3-7,2.3
					c-5.5,0-9.2-3.2-9.7-7.8c-0.3-3-0.3-5.2-0.3-7.7c0-2.2-0.2-4.5-0.3-7.7c-0.5-6.7-0.7-12.3,2.3-15.8c1-1.2,3-2.7,6.3-2.8h0.5
					c4.8,0,6.8,3.7,8.3,6.3c0.3,0.7,0.8,1.5,1.5,2.5l0.2,0.3c4.5,9.2,12.3,14.7,20.7,14.7l0,0c2.7,0,6.2-0.5,8.2-2.5
					c1.2-1.3,1.7-3,1.7-5.5c-0.3-6.8-10-11.2-20.3-16c-13.7-6.3-29.2-13.5-29.3-29.5c0-6.7,2.3-12.5,6.8-17
					c5.3-5.3,13.2-8.2,22.2-8.2h0.5c7.7,0.2,14.7,2.2,20.2,5.8c0.3-1.2,1-2.3,1.8-3.3c1.2-1.2,3-2.7,6.5-2.8h0.8
					c3,0,5.2,0.8,6.8,2.5c2.5,2.7,2.5,6.7,2.2,10.7c0,3.2,0,5.2,0.2,9.8c0.3,6.3,0.3,10.5-2.2,13.3c-2.2,2.3-5.3,2.5-6.3,2.5l0,0
					c-4.5,0-6.5-3.2-8.2-6.2c-0.3-0.7-0.8-1.3-1.2-2c-4.2-7.2-11.7-11.7-19.3-11.7l0,0c-3.5,0-6.3,0.8-8,2.5c-1,1-1.5,2.3-1.5,3.7
					c0.2,3.5,8.5,7.2,16,10.3c14.2,6.3,33.7,14.8,33.8,35.3c0,7.7-2.5,14.2-7.2,18.8c-5.2,5.2-13,8-21.8,8h-0.7V320.2z"/>
				<path class="st1" d="M662.6,302.9c0.5,4.3,1.2,9.7-0.2,11.2c-1.7,1.5-9.3,2.3-9.7-3.2c-0.5-5.7-0.2-8.7-0.7-15.3
					c-0.7-8.7-0.7-14.2,4.8-14.3c3.5-0.2,4.2,2.8,6.7,6.8c6,11.8,15.8,16.8,24.3,17c8.3,0,14.3-3.7,13.8-12.2
					c-1-19.7-49.5-20.2-49.7-45.2c0-13.3,11-21.3,25.3-21.2c9.8,0.2,18.5,3.8,23.5,10.2c-0.3-5-0.3-10.3,5-10.5c5.3-0.2,6,2.3,5.7,9
					c0,3.3,0,5.5,0.2,10.3c0.5,8.7,0.2,11.5-4.7,11.7c-2.7,0-3.5-2.3-6-6.2c-4.7-8-13.5-13.5-22.7-13.5c-8.7,0-13.5,4.5-13.5,10.3
					c0.5,14.7,49.5,15.5,49.7,45.7c0,15.2-11,23-25.2,22.8C677.3,316.2,668.3,311.1,662.6,302.9z"/>
			</g>
		</g>
	</g>
</g>
</svg>
