<?xml version="1.0" encoding="utf-8"?>
<!-- Generator: Adobe Illustrator 27.7.0, SVG Export Plug-In . SVG Version: 6.00 Build 0)  -->
<svg version="1.1" id="레이어_1" xmlns="http://www.w3.org/2000/svg" xmlns:xlink="http://www.w3.org/1999/xlink" x="0px"
	 y="0px" viewBox="0 0 500 700" style="enable-background:new 0 0 500 700;" xml:space="preserve">
<style type="text/css">
	.st0{fill:#5E4126;}
	.st1{fill:#EFB7AD;}
	.st2{clip-path:url(#SVGID_00000062159492191213851720000000155255867869128101_);fill:#D1949E;}
	.st3{clip-path:url(#SVGID_00000062159492191213851720000000155255867869128101_);fill:#F5DBEA;}
	.st4{clip-path:url(#SVGID_00000062159492191213851720000000155255867869128101_);fill:#F4E9BE;}
	.st5{fill:#FFFFFF;}
	.st6{fill:#D8AAA4;}
	.st7{fill:#5B5C5F;}
	.st8{fill:#C38A94;}
	.st9{fill:none;stroke:#5B5C5F;stroke-miterlimit:10;}
	.st10{fill:#D5646D;}
</style>
<path class="st0" d="M404.8,32.6c-7.9,3.1-15.9,5-24.2,5.7c2.6-4.4,4.8-9.1,6.5-14c0.9-2.7-2.1-6.1-4.9-4.9
	c-10.3,4.3-21.3,5.9-32.2,4.4c1.8-3,3.5-6.1,5-9.4c1.3-2.8-0.9-7.3-4.5-5.9c-27.2,10.7-56.3,15-85.4,12.3c-0.7-0.1-1.3,0-1.8,0.3
	c-33-0.1-66.9,11.4-88.4,38.1c-0.1,0.1-0.3,0.3-0.4,0.4c-1,1.5-2.1,2.8-3.2,4.3c-10.6,0.4-20.9,5.4-28.6,13.2
	c-11.2,11.3-15.6,27.7-15,43.5c0.4,10.2,2.7,22.6,7.4,33.7c4.7-5.9,11-9.7,18.2-10.3c0.6,0,1.1-0.1,1.7-0.1
	c15.2,0,27.6,15.1,27.6,33.7c0,0.3,0,0.6,0,0.9c5.7-3.3,9.9-8.8,11.8-16.1c1.5-5.7,1.4-13.3,5.5-17.8c4.9-5.5,14.4-3.5,20.8-3.8
	c25.8-1.1,50.3-16.9,63.1-39.9c3.2-5.7,4.9-11.6,7.2-17.7c3.2-8.9,14-1.5,19.3,1.6c5.8,3.4,11.2,7.3,16.2,11.7
	c0.8,1.2,1.6,2.4,2.6,3.4c1.3,1.4,2.7,2.4,4.3,3.2c0.4,0.5,0.9,0.9,1.3,1.4c-1.7,5.6,1,12.6,8.2,13.2l-3.1,12.7
	c15.7-0.6,61.8-78.4,61.8-78.4l0,0c2.8-4.5,5.5-9,8.1-13.6C410.9,35.7,408.2,31.2,404.8,32.6z"/>
<path class="st1" d="M350.9,137.4c-0.6-2.3-1.2-4.5-1.8-6.7c-1-3.2-2-6.3-3.2-9.3c-0.7-1.9-1.5-3.9-2.4-5.7
	c-0.1-0.1-0.2-0.2-0.2-0.3c-0.3-0.4-0.6-0.9-1-1.3c-3-4.2-6.3-8.1-9.9-11.7c0,0,0,0,0,0c-6.6-6.8-14.1-12.6-22.2-17.3
	c-5.4-3.1-16.1-10.5-19.3-1.6c-2.2,6.1-4,12-7.2,17.7c-12.8,22.9-37.3,38.7-63.1,39.9c-6.5,0.3-15.9-1.7-20.8,3.8
	c-4.1,4.5-4,12.2-5.5,17.8c-1.9,7.2-6.1,12.8-11.8,16.1c0,0,0,0.1,0,0.1c0,0,0,0,0,0c0,0,0-0.1,0-0.1c0-0.3,0-0.6,0-0.9
	c0-18.6-12.3-33.7-27.6-33.7c-0.6,0-1.1,0-1.7,0.1c-7.1,0.5-13.5,4.4-18.2,10.3c-4.8,6.1-7.7,14.3-7.7,23.4
	c0,18.6,12.3,33.7,27.6,33.7c0.3,0,0.6,0,1,0c0,0,0,0,0,0c3.9-0.2,7.5-1.3,10.8-3.2c0.4-0.2,0.7-0.4,1.1-0.7c0,0,0,0,0,0
	c-0.4,0.2-0.7,0.5-1.1,0.7l0,0c-2.7,12.3,3,35.1,3.1,35.6c1.7,2.8,3.5,5.5,5.4,8.1v0c16.3,22.8,39.5,38.2,65.7,41.9
	c3.9,0.5,7.8,0.8,11.9,0.8c7,0,13.7-0.8,20.3-2.4l-0.1-0.5c0,0,0,0,0,0l0.1,0.5c46.7-11.3,82-60.7,82-120
	C355.1,160.1,353.7,148.4,350.9,137.4z"/>
<g>
	<defs>
		<path id="SVGID_1_" d="M278.8,327.9l-5,44c-5.3,9.7-11.5,21.1-18.1,33.2c-2.7-0.4-6.3-0.8-10.4-0.7c-4.4,0.1-9.4,0.8-14.5,2.5
			c-6.5-11.9-12.6-23.1-17.8-32.6l-5-44c0,0-85.5,41-104.6,57.7c0,0,1.3,211.8,45.3,263.6l60.2,27.7l29.3,12.6l11.2-14.4l0,0
			l9.2,14.4l21.1-15.8l58.2-26.8c44-51.9,45.3-263.6,45.3-263.6C364.3,368.9,278.8,327.9,278.8,327.9z"/>
	</defs>
	<clipPath id="SVGID_00000158723432906275413080000011601688881948905607_">
		<use xlink:href="#SVGID_1_"  style="overflow:visible;"/>
	</clipPath>
	<path style="clip-path:url(#SVGID_00000158723432906275413080000011601688881948905607_);fill:#D1949E;" d="M278.8,327.9l-5,44
		c-5.3,9.7-11.5,21.1-18.1,33.2c-2.7-0.4-6.3-0.8-10.4-0.7c-4.4,0.1-9.4,0.8-14.5,2.5c-6.5-11.9-12.6-23.1-17.8-32.6l-5-44
		c0,0-85.5,41-104.6,57.7c0,0,1.3,211.8,45.3,263.6l60.2,27.7l29.3,12.6l11.2-14.4l0,0l9.2,14.4l21.1-15.8l58.2-26.8
		c44-51.9,45.3-263.6,45.3-263.6C364.3,368.9,278.8,327.9,278.8,327.9z"/>
	<path style="clip-path:url(#SVGID_00000158723432906275413080000011601688881948905607_);fill:#F5DBEA;" d="M145.8,358.9
		c0,13.2-5.1,23.9-5.1,23.9s-5.1-10.7-5.1-23.9s5.1-23.9,5.1-23.9S145.8,345.7,145.8,358.9z"/>
	<path style="clip-path:url(#SVGID_00000158723432906275413080000011601688881948905607_);fill:#F5DBEA;" d="M161.2,369.5
		c-9.3,9.3-20.5,13.3-20.5,13.3s3.9-11.2,13.3-20.5c9.3-9.3,20.5-13.3,20.5-13.3S170.5,360.2,161.2,369.5z"/>
	<path style="clip-path:url(#SVGID_00000158723432906275413080000011601688881948905607_);fill:#F5DBEA;" d="M164.6,387.9
		c-13.2,0-23.9-5.1-23.9-5.1s10.7-5.1,23.9-5.1c13.2,0,23.9,5.1,23.9,5.1S177.8,387.9,164.6,387.9z"/>
	<path style="clip-path:url(#SVGID_00000158723432906275413080000011601688881948905607_);fill:#F5DBEA;" d="M154,403.3
		c-9.3-9.3-13.3-20.5-13.3-20.5s11.2,3.9,20.5,13.3c9.3,9.3,13.3,20.5,13.3,20.5S163.3,412.6,154,403.3z"/>
	<path style="clip-path:url(#SVGID_00000158723432906275413080000011601688881948905607_);fill:#F5DBEA;" d="M135.6,406.7
		c0-13.2,5.1-23.9,5.1-23.9s5.1,10.7,5.1,23.9c0,13.2-5.1,23.9-5.1,23.9S135.6,419.8,135.6,406.7z"/>
	<path style="clip-path:url(#SVGID_00000158723432906275413080000011601688881948905607_);fill:#F5DBEA;" d="M120.2,396
		c9.3-9.3,20.5-13.3,20.5-13.3s-3.9,11.2-13.3,20.5c-9.3,9.3-20.5,13.3-20.5,13.3S110.9,405.4,120.2,396z"/>
	<path style="clip-path:url(#SVGID_00000158723432906275413080000011601688881948905607_);fill:#F5DBEA;" d="M116.8,377.7
		c13.2,0,23.9,5.1,23.9,5.1s-10.7,5.1-23.9,5.1S93,382.8,93,382.8S103.7,377.7,116.8,377.7z"/>
	<path style="clip-path:url(#SVGID_00000158723432906275413080000011601688881948905607_);fill:#F5DBEA;" d="M127.5,362.3
		c9.3,9.3,13.3,20.5,13.3,20.5s-11.2-3.9-20.5-13.3C110.9,360.2,107,349,107,349S118.1,353,127.5,362.3z"/>
	<path style="clip-path:url(#SVGID_00000158723432906275413080000011601688881948905607_);fill:#F4E9BE;" d="M198.7,398.9
		c0,8.3-3.2,15-3.2,15s-3.2-6.7-3.2-15c0-8.3,3.2-15,3.2-15S198.7,390.6,198.7,398.9z"/>
	<path style="clip-path:url(#SVGID_00000158723432906275413080000011601688881948905607_);fill:#F4E9BE;" d="M208.4,405.6
		c-5.9,5.9-12.9,8.3-12.9,8.3s2.5-7,8.3-12.9s12.9-8.3,12.9-8.3S214.2,399.7,208.4,405.6z"/>
	<path style="clip-path:url(#SVGID_00000158723432906275413080000011601688881948905607_);fill:#F4E9BE;" d="M210.5,417.1
		c-8.3,0-15-3.2-15-3.2s6.7-3.2,15-3.2c8.3,0,15,3.2,15,3.2S218.8,417.1,210.5,417.1z"/>
	<path style="clip-path:url(#SVGID_00000158723432906275413080000011601688881948905607_);fill:#F4E9BE;" d="M203.8,426.8
		c-5.9-5.9-8.3-12.9-8.3-12.9s7,2.5,12.9,8.3c5.9,5.9,8.3,12.9,8.3,12.9S209.7,432.7,203.8,426.8z"/>
	<path style="clip-path:url(#SVGID_00000158723432906275413080000011601688881948905607_);fill:#F4E9BE;" d="M192.3,428.9
		c0-8.3,3.2-15,3.2-15s3.2,6.7,3.2,15c0,8.3-3.2,15-3.2,15S192.3,437.2,192.3,428.9z"/>
	<path style="clip-path:url(#SVGID_00000158723432906275413080000011601688881948905607_);fill:#F4E9BE;" d="M182.6,422.3
		c5.9-5.9,12.9-8.3,12.9-8.3s-2.5,7-8.3,12.9c-5.9,5.9-12.9,8.3-12.9,8.3S176.7,428.1,182.6,422.3z"/>
	<path style="clip-path:url(#SVGID_00000158723432906275413080000011601688881948905607_);fill:#F4E9BE;" d="M180.5,410.7
		c8.3,0,15,3.2,15,3.2s-6.7,3.2-15,3.2c-8.3,0-15-3.2-15-3.2S172.2,410.7,180.5,410.7z"/>
	<path style="clip-path:url(#SVGID_00000158723432906275413080000011601688881948905607_);fill:#F4E9BE;" d="M187.1,401
		c5.9,5.9,8.3,12.9,8.3,12.9s-7-2.5-12.9-8.3c-5.9-5.9-8.3-12.9-8.3-12.9S181.3,395.2,187.1,401z"/>
	<path style="clip-path:url(#SVGID_00000158723432906275413080000011601688881948905607_);fill:#F5DBEA;" d="M315.1,441
		c0,13.2-5.1,23.9-5.1,23.9s-5.1-10.7-5.1-23.9s5.1-23.9,5.1-23.9S315.1,427.8,315.1,441z"/>
	<path style="clip-path:url(#SVGID_00000158723432906275413080000011601688881948905607_);fill:#F5DBEA;" d="M330.4,451.6
		c-9.3,9.3-20.5,13.3-20.5,13.3s3.9-11.2,13.3-20.5c9.3-9.3,20.5-13.3,20.5-13.3S339.8,442.3,330.4,451.6z"/>
	<path style="clip-path:url(#SVGID_00000158723432906275413080000011601688881948905607_);fill:#F5DBEA;" d="M333.8,470
		c-13.2,0-23.9-5.1-23.9-5.1s10.7-5.1,23.9-5.1s23.9,5.1,23.9,5.1S347,470,333.8,470z"/>
	<path style="clip-path:url(#SVGID_00000158723432906275413080000011601688881948905607_);fill:#F5DBEA;" d="M323.2,485.4
		c-9.3-9.3-13.3-20.5-13.3-20.5s11.2,3.9,20.5,13.3c9.3,9.3,13.3,20.5,13.3,20.5S332.5,494.7,323.2,485.4z"/>
	<path style="clip-path:url(#SVGID_00000158723432906275413080000011601688881948905607_);fill:#F5DBEA;" d="M304.8,488.8
		c0-13.2,5.1-23.9,5.1-23.9s5.1,10.7,5.1,23.9s-5.1,23.9-5.1,23.9S304.8,502,304.8,488.8z"/>
	<path style="clip-path:url(#SVGID_00000158723432906275413080000011601688881948905607_);fill:#F5DBEA;" d="M289.4,478.2
		c9.3-9.3,20.5-13.3,20.5-13.3s-3.9,11.2-13.3,20.5c-9.3,9.3-20.5,13.3-20.5,13.3S280.1,487.5,289.4,478.2z"/>
	<path style="clip-path:url(#SVGID_00000158723432906275413080000011601688881948905607_);fill:#F5DBEA;" d="M286.1,459.8
		c13.2,0,23.9,5.1,23.9,5.1s-10.7,5.1-23.9,5.1c-13.2,0-23.9-5.1-23.9-5.1S272.9,459.8,286.1,459.8z"/>
	<path style="clip-path:url(#SVGID_00000158723432906275413080000011601688881948905607_);fill:#F5DBEA;" d="M296.7,444.4
		c9.3,9.3,13.3,20.5,13.3,20.5s-11.2-3.9-20.5-13.3c-9.3-9.3-13.3-20.5-13.3-20.5S287.3,435.1,296.7,444.4z"/>
	<path style="clip-path:url(#SVGID_00000158723432906275413080000011601688881948905607_);fill:#F4E9BE;" d="M367.9,481
		c0,8.3-3.2,15-3.2,15s-3.2-6.7-3.2-15c0-8.3,3.2-15,3.2-15S367.9,472.7,367.9,481z"/>
	<path style="clip-path:url(#SVGID_00000158723432906275413080000011601688881948905607_);fill:#F4E9BE;" d="M377.6,487.7
		c-5.9,5.9-12.9,8.3-12.9,8.3s2.5-7,8.3-12.9c5.9-5.9,12.9-8.3,12.9-8.3S383.5,481.8,377.6,487.7z"/>
	<path style="clip-path:url(#SVGID_00000158723432906275413080000011601688881948905607_);fill:#F4E9BE;" d="M379.7,499.3
		c-8.3,0-15-3.2-15-3.2s6.7-3.2,15-3.2c8.3,0,15,3.2,15,3.2S388,499.3,379.7,499.3z"/>
	<path style="clip-path:url(#SVGID_00000158723432906275413080000011601688881948905607_);fill:#F4E9BE;" d="M373,508.9
		c-5.9-5.9-8.3-12.9-8.3-12.9s7,2.5,12.9,8.3s8.3,12.9,8.3,12.9S378.9,514.8,373,508.9z"/>
	<path style="clip-path:url(#SVGID_00000158723432906275413080000011601688881948905607_);fill:#F4E9BE;" d="M361.5,511.1
		c0-8.3,3.2-15,3.2-15s3.2,6.7,3.2,15s-3.2,15-3.2,15S361.5,519.4,361.5,511.1z"/>
	<path style="clip-path:url(#SVGID_00000158723432906275413080000011601688881948905607_);fill:#F4E9BE;" d="M351.8,504.4
		c5.9-5.9,12.9-8.3,12.9-8.3s-2.5,7-8.3,12.9c-5.9,5.9-12.9,8.3-12.9,8.3S345.9,510.3,351.8,504.4z"/>
	<path style="clip-path:url(#SVGID_00000158723432906275413080000011601688881948905607_);fill:#F4E9BE;" d="M349.7,492.8
		c8.3,0,15,3.2,15,3.2s-6.7,3.2-15,3.2c-8.3,0-15-3.2-15-3.2S341.4,492.8,349.7,492.8z"/>
	<path style="clip-path:url(#SVGID_00000158723432906275413080000011601688881948905607_);fill:#F4E9BE;" d="M356.3,483.2
		c5.9,5.9,8.3,12.9,8.3,12.9s-7-2.5-12.9-8.3c-5.9-5.9-8.3-12.9-8.3-12.9S350.5,477.3,356.3,483.2z"/>
	<path style="clip-path:url(#SVGID_00000158723432906275413080000011601688881948905607_);fill:#F5DBEA;" d="M175.1,476.1
		c0,13.2-5.1,23.9-5.1,23.9s-5.1-10.7-5.1-23.9c0-13.2,5.1-23.9,5.1-23.9S175.1,462.9,175.1,476.1z"/>
	<path style="clip-path:url(#SVGID_00000158723432906275413080000011601688881948905607_);fill:#F5DBEA;" d="M190.5,486.7
		C181.1,496,170,500,170,500s3.9-11.2,13.3-20.5c9.3-9.3,20.5-13.3,20.5-13.3S199.8,477.4,190.5,486.7z"/>
	<path style="clip-path:url(#SVGID_00000158723432906275413080000011601688881948905607_);fill:#F5DBEA;" d="M193.8,505.1
		c-13.2,0-23.9-5.1-23.9-5.1s10.7-5.1,23.9-5.1c13.2,0,23.9,5.1,23.9,5.1S207,505.1,193.8,505.1z"/>
	<path style="clip-path:url(#SVGID_00000158723432906275413080000011601688881948905607_);fill:#F5DBEA;" d="M183.2,520.5
		C173.9,511.1,170,500,170,500s11.2,3.9,20.5,13.3c9.3,9.3,13.3,20.5,13.3,20.5S192.6,529.8,183.2,520.5z"/>
	<path style="clip-path:url(#SVGID_00000158723432906275413080000011601688881948905607_);fill:#F5DBEA;" d="M164.9,523.8
		c0-13.2,5.1-23.9,5.1-23.9s5.1,10.7,5.1,23.9c0,13.2-5.1,23.9-5.1,23.9S164.9,537,164.9,523.8z"/>
	<path style="clip-path:url(#SVGID_00000158723432906275413080000011601688881948905607_);fill:#F5DBEA;" d="M149.5,513.2
		c9.3-9.3,20.5-13.3,20.5-13.3s-3.9,11.2-13.3,20.5c-9.3,9.3-20.5,13.3-20.5,13.3S140.1,522.6,149.5,513.2z"/>
	<path style="clip-path:url(#SVGID_00000158723432906275413080000011601688881948905607_);fill:#F5DBEA;" d="M146.1,494.8
		c13.2,0,23.9,5.1,23.9,5.1s-10.7,5.1-23.9,5.1s-23.9-5.1-23.9-5.1S132.9,494.8,146.1,494.8z"/>
	<path style="clip-path:url(#SVGID_00000158723432906275413080000011601688881948905607_);fill:#F5DBEA;" d="M156.7,479.5
		C166,488.8,170,500,170,500s-11.2-3.9-20.5-13.3c-9.3-9.3-13.3-20.5-13.3-20.5S147.4,470.1,156.7,479.5z"/>
	<path style="clip-path:url(#SVGID_00000158723432906275413080000011601688881948905607_);fill:#F4E9BE;" d="M227.9,516.1
		c0,8.3-3.2,15-3.2,15s-3.2-6.7-3.2-15c0-8.3,3.2-15,3.2-15S227.9,507.8,227.9,516.1z"/>
	<path style="clip-path:url(#SVGID_00000158723432906275413080000011601688881948905607_);fill:#F4E9BE;" d="M237.6,522.8
		c-5.9,5.9-12.9,8.3-12.9,8.3s2.5-7,8.3-12.9s12.9-8.3,12.9-8.3S243.5,516.9,237.6,522.8z"/>
	<path style="clip-path:url(#SVGID_00000158723432906275413080000011601688881948905607_);fill:#F4E9BE;" d="M239.7,534.3
		c-8.3,0-15-3.2-15-3.2s6.7-3.2,15-3.2c8.3,0,15,3.2,15,3.2S248,534.3,239.7,534.3z"/>
	<path style="clip-path:url(#SVGID_00000158723432906275413080000011601688881948905607_);fill:#F4E9BE;" d="M233.1,544
		c-5.9-5.9-8.3-12.9-8.3-12.9s7,2.5,12.9,8.3c5.9,5.9,8.3,12.9,8.3,12.9S238.9,549.9,233.1,544z"/>
	<path style="clip-path:url(#SVGID_00000158723432906275413080000011601688881948905607_);fill:#F4E9BE;" d="M221.5,546.1
		c0-8.3,3.2-15,3.2-15s3.2,6.7,3.2,15s-3.2,15-3.2,15S221.5,554.4,221.5,546.1z"/>
	<path style="clip-path:url(#SVGID_00000158723432906275413080000011601688881948905607_);fill:#F4E9BE;" d="M211.8,539.5
		c5.9-5.9,12.9-8.3,12.9-8.3s-2.5,7-8.3,12.9c-5.9,5.9-12.9,8.3-12.9,8.3S206,545.3,211.8,539.5z"/>
	<path style="clip-path:url(#SVGID_00000158723432906275413080000011601688881948905607_);fill:#F4E9BE;" d="M209.7,527.9
		c8.3,0,15,3.2,15,3.2s-6.7,3.2-15,3.2c-8.3,0-15-3.2-15-3.2S201.4,527.9,209.7,527.9z"/>
	<path style="clip-path:url(#SVGID_00000158723432906275413080000011601688881948905607_);fill:#F4E9BE;" d="M216.4,518.2
		c5.9,5.9,8.3,12.9,8.3,12.9s-7-2.5-12.9-8.3c-5.9-5.9-8.3-12.9-8.3-12.9S210.5,512.3,216.4,518.2z"/>
	<path style="clip-path:url(#SVGID_00000158723432906275413080000011601688881948905607_);fill:#F5DBEA;" d="M127.3,573.6
		c0,13.2-5.1,23.9-5.1,23.9s-5.1-10.7-5.1-23.9c0-13.2,5.1-23.9,5.1-23.9S127.3,560.4,127.3,573.6z"/>
	<path style="clip-path:url(#SVGID_00000158723432906275413080000011601688881948905607_);fill:#F5DBEA;" d="M142.7,584.2
		c-9.3,9.3-20.5,13.3-20.5,13.3s3.9-11.2,13.3-20.5c9.3-9.3,20.5-13.3,20.5-13.3S152,574.9,142.7,584.2z"/>
	<path style="clip-path:url(#SVGID_00000158723432906275413080000011601688881948905607_);fill:#F5DBEA;" d="M146.1,602.6
		c-13.2,0-23.9-5.1-23.9-5.1s10.7-5.1,23.9-5.1s23.9,5.1,23.9,5.1S159.3,602.6,146.1,602.6z"/>
	<path style="clip-path:url(#SVGID_00000158723432906275413080000011601688881948905607_);fill:#F5DBEA;" d="M135.5,618
		c-9.3-9.3-13.3-20.5-13.3-20.5s11.2,3.9,20.5,13.3c9.3,9.3,13.3,20.5,13.3,20.5S144.8,627.3,135.5,618z"/>
	<path style="clip-path:url(#SVGID_00000158723432906275413080000011601688881948905607_);fill:#F5DBEA;" d="M117.1,621.4
		c0-13.2,5.1-23.9,5.1-23.9s5.1,10.7,5.1,23.9c0,13.2-5.1,23.9-5.1,23.9S117.1,634.6,117.1,621.4z"/>
	<path style="clip-path:url(#SVGID_00000158723432906275413080000011601688881948905607_);fill:#F5DBEA;" d="M101.7,610.8
		c9.3-9.3,20.5-13.3,20.5-13.3s-3.9,11.2-13.3,20.5c-9.3,9.3-20.5,13.3-20.5,13.3S92.4,620.1,101.7,610.8z"/>
	<path style="clip-path:url(#SVGID_00000158723432906275413080000011601688881948905607_);fill:#F5DBEA;" d="M98.3,592.4
		c13.2,0,23.9,5.1,23.9,5.1s-10.7,5.1-23.9,5.1s-23.9-5.1-23.9-5.1S85.1,592.4,98.3,592.4z"/>
	<path style="clip-path:url(#SVGID_00000158723432906275413080000011601688881948905607_);fill:#F5DBEA;" d="M108.9,577
		c9.3,9.3,13.3,20.5,13.3,20.5s-11.2-3.9-20.5-13.3c-9.3-9.3-13.3-20.5-13.3-20.5S99.6,567.7,108.9,577z"/>
	<path style="clip-path:url(#SVGID_00000158723432906275413080000011601688881948905607_);fill:#F4E9BE;" d="M180.2,613.6
		c0,8.3-3.2,15-3.2,15s-3.2-6.7-3.2-15s3.2-15,3.2-15S180.2,605.3,180.2,613.6z"/>
	<path style="clip-path:url(#SVGID_00000158723432906275413080000011601688881948905607_);fill:#F4E9BE;" d="M189.9,620.3
		c-5.9,5.9-12.9,8.3-12.9,8.3s2.5-7,8.3-12.9c5.9-5.9,12.9-8.3,12.9-8.3S195.7,614.4,189.9,620.3z"/>
	<path style="clip-path:url(#SVGID_00000158723432906275413080000011601688881948905607_);fill:#F4E9BE;" d="M192,631.9
		c-8.3,0-15-3.2-15-3.2s6.7-3.2,15-3.2s15,3.2,15,3.2S200.3,631.9,192,631.9z"/>
	<path style="clip-path:url(#SVGID_00000158723432906275413080000011601688881948905607_);fill:#F4E9BE;" d="M185.3,641.5
		c-5.9-5.9-8.3-12.9-8.3-12.9s7,2.5,12.9,8.3c5.9,5.9,8.3,12.9,8.3,12.9S191.2,647.4,185.3,641.5z"/>
	<path style="clip-path:url(#SVGID_00000158723432906275413080000011601688881948905607_);fill:#F4E9BE;" d="M173.7,643.7
		c0-8.3,3.2-15,3.2-15s3.2,6.7,3.2,15s-3.2,15-3.2,15S173.7,652,173.7,643.7z"/>
	<path style="clip-path:url(#SVGID_00000158723432906275413080000011601688881948905607_);fill:#F4E9BE;" d="M164.1,637
		c5.9-5.9,12.9-8.3,12.9-8.3s-2.5,7-8.3,12.9s-12.9,8.3-12.9,8.3S158.2,642.9,164.1,637z"/>
	<path style="clip-path:url(#SVGID_00000158723432906275413080000011601688881948905607_);fill:#F4E9BE;" d="M161.9,625.4
		c8.3,0,15,3.2,15,3.2s-6.7,3.2-15,3.2s-15-3.2-15-3.2S153.6,625.4,161.9,625.4z"/>
	<path style="clip-path:url(#SVGID_00000158723432906275413080000011601688881948905607_);fill:#F4E9BE;" d="M168.6,615.7
		c5.9,5.9,8.3,12.9,8.3,12.9s-7-2.5-12.9-8.3s-8.3-12.9-8.3-12.9S162.7,609.9,168.6,615.7z"/>
	<path style="clip-path:url(#SVGID_00000158723432906275413080000011601688881948905607_);fill:#F5DBEA;" d="M289.6,572.3
		c0,13.2-5.1,23.9-5.1,23.9s-5.1-10.7-5.1-23.9c0-13.2,5.1-23.9,5.1-23.9S289.6,559.1,289.6,572.3z"/>
	<path style="clip-path:url(#SVGID_00000158723432906275413080000011601688881948905607_);fill:#F5DBEA;" d="M305,582.9
		c-9.3,9.3-20.5,13.3-20.5,13.3s3.9-11.2,13.3-20.5c9.3-9.3,20.5-13.3,20.5-13.3S314.3,573.6,305,582.9z"/>
	<path style="clip-path:url(#SVGID_00000158723432906275413080000011601688881948905607_);fill:#F5DBEA;" d="M308.4,601.3
		c-13.2,0-23.9-5.1-23.9-5.1s10.7-5.1,23.9-5.1c13.2,0,23.9,5.1,23.9,5.1S321.6,601.3,308.4,601.3z"/>
	<path style="clip-path:url(#SVGID_00000158723432906275413080000011601688881948905607_);fill:#F5DBEA;" d="M297.8,616.7
		c-9.3-9.3-13.3-20.5-13.3-20.5s11.2,3.9,20.5,13.3c9.3,9.3,13.3,20.5,13.3,20.5S307.1,626,297.8,616.7z"/>
	<path style="clip-path:url(#SVGID_00000158723432906275413080000011601688881948905607_);fill:#F5DBEA;" d="M279.4,620.1
		c0-13.2,5.1-23.9,5.1-23.9s5.1,10.7,5.1,23.9c0,13.2-5.1,23.9-5.1,23.9S279.4,633.3,279.4,620.1z"/>
	<path style="clip-path:url(#SVGID_00000158723432906275413080000011601688881948905607_);fill:#F5DBEA;" d="M264,609.5
		c9.3-9.3,20.5-13.3,20.5-13.3s-3.9,11.2-13.3,20.5c-9.3,9.3-20.5,13.3-20.5,13.3S254.7,618.8,264,609.5z"/>
	<path style="clip-path:url(#SVGID_00000158723432906275413080000011601688881948905607_);fill:#F5DBEA;" d="M260.6,591.1
		c13.2,0,23.9,5.1,23.9,5.1s-10.7,5.1-23.9,5.1c-13.2,0-23.9-5.1-23.9-5.1S247.4,591.1,260.6,591.1z"/>
	<path style="clip-path:url(#SVGID_00000158723432906275413080000011601688881948905607_);fill:#F5DBEA;" d="M271.2,575.7
		c9.3,9.3,13.3,20.5,13.3,20.5s-11.2-3.9-20.5-13.3c-9.3-9.3-13.3-20.5-13.3-20.5S261.9,566.4,271.2,575.7z"/>
	<path style="clip-path:url(#SVGID_00000158723432906275413080000011601688881948905607_);fill:#F4E9BE;" d="M342.5,612.3
		c0,8.3-3.2,15-3.2,15s-3.2-6.7-3.2-15s3.2-15,3.2-15S342.5,604,342.5,612.3z"/>
	<path style="clip-path:url(#SVGID_00000158723432906275413080000011601688881948905607_);fill:#F4E9BE;" d="M352.1,619
		c-5.9,5.9-12.9,8.3-12.9,8.3s2.5-7,8.3-12.9s12.9-8.3,12.9-8.3S358,613.1,352.1,619z"/>
	<path style="clip-path:url(#SVGID_00000158723432906275413080000011601688881948905607_);fill:#F4E9BE;" d="M354.3,630.6
		c-8.3,0-15-3.2-15-3.2s6.7-3.2,15-3.2c8.3,0,15,3.2,15,3.2S362.6,630.6,354.3,630.6z"/>
	<path style="clip-path:url(#SVGID_00000158723432906275413080000011601688881948905607_);fill:#F4E9BE;" d="M347.6,640.2
		c-5.9-5.9-8.3-12.9-8.3-12.9s7,2.5,12.9,8.3c5.9,5.9,8.3,12.9,8.3,12.9S353.5,646.1,347.6,640.2z"/>
	<path style="clip-path:url(#SVGID_00000158723432906275413080000011601688881948905607_);fill:#F4E9BE;" d="M336,642.4
		c0-8.3,3.2-15,3.2-15s3.2,6.7,3.2,15s-3.2,15-3.2,15S336,650.7,336,642.4z"/>
	<path style="clip-path:url(#SVGID_00000158723432906275413080000011601688881948905607_);fill:#F4E9BE;" d="M326.4,635.7
		c5.9-5.9,12.9-8.3,12.9-8.3s-2.5,7-8.3,12.9c-5.9,5.9-12.9,8.3-12.9,8.3S320.5,641.6,326.4,635.7z"/>
	<path style="clip-path:url(#SVGID_00000158723432906275413080000011601688881948905607_);fill:#F4E9BE;" d="M324.2,624.1
		c8.3,0,15,3.2,15,3.2s-6.7,3.2-15,3.2c-8.3,0-15-3.2-15-3.2S315.9,624.1,324.2,624.1z"/>
	<path style="clip-path:url(#SVGID_00000158723432906275413080000011601688881948905607_);fill:#F4E9BE;" d="M330.9,614.5
		c5.9,5.9,8.3,12.9,8.3,12.9s-7-2.5-12.9-8.3c-5.9-5.9-8.3-12.9-8.3-12.9S325,608.6,330.9,614.5z"/>
	<path style="clip-path:url(#SVGID_00000158723432906275413080000011601688881948905607_);fill:#F5DBEA;" d="M330,323.5
		c0,13.2-5.1,23.9-5.1,23.9s-5.1-10.7-5.1-23.9s5.1-23.9,5.1-23.9S330,310.3,330,323.5z"/>
	<path style="clip-path:url(#SVGID_00000158723432906275413080000011601688881948905607_);fill:#F5DBEA;" d="M345.4,334.1
		c-9.3,9.3-20.5,13.3-20.5,13.3s3.9-11.2,13.3-20.5c9.3-9.3,20.5-13.3,20.5-13.3S354.8,324.8,345.4,334.1z"/>
	<path style="clip-path:url(#SVGID_00000158723432906275413080000011601688881948905607_);fill:#F5DBEA;" d="M348.8,352.5
		c-13.2,0-23.9-5.1-23.9-5.1s10.7-5.1,23.9-5.1s23.9,5.1,23.9,5.1S362,352.5,348.8,352.5z"/>
	<path style="clip-path:url(#SVGID_00000158723432906275413080000011601688881948905607_);fill:#F5DBEA;" d="M338.2,367.9
		c-9.3-9.3-13.3-20.5-13.3-20.5s11.2,3.9,20.5,13.3c9.3,9.3,13.3,20.5,13.3,20.5S347.5,377.2,338.2,367.9z"/>
	<path style="clip-path:url(#SVGID_00000158723432906275413080000011601688881948905607_);fill:#F5DBEA;" d="M319.8,371.2
		c0-13.2,5.1-23.9,5.1-23.9s5.1,10.7,5.1,23.9s-5.1,23.9-5.1,23.9S319.8,384.4,319.8,371.2z"/>
	<path style="clip-path:url(#SVGID_00000158723432906275413080000011601688881948905607_);fill:#F5DBEA;" d="M304.4,360.6
		c9.3-9.3,20.5-13.3,20.5-13.3s-3.9,11.2-13.3,20.5c-9.3,9.3-20.5,13.3-20.5,13.3S295.1,370,304.4,360.6z"/>
	<path style="clip-path:url(#SVGID_00000158723432906275413080000011601688881948905607_);fill:#F5DBEA;" d="M301.1,342.2
		c13.2,0,23.9,5.1,23.9,5.1s-10.7,5.1-23.9,5.1s-23.9-5.1-23.9-5.1S287.9,342.2,301.1,342.2z"/>
	<path style="clip-path:url(#SVGID_00000158723432906275413080000011601688881948905607_);fill:#F5DBEA;" d="M311.7,326.9
		c9.3,9.3,13.3,20.5,13.3,20.5s-11.2-3.9-20.5-13.3c-9.3-9.3-13.3-20.5-13.3-20.5S302.3,317.5,311.7,326.9z"/>
	<path style="clip-path:url(#SVGID_00000158723432906275413080000011601688881948905607_);fill:#F4E9BE;" d="M382.9,363.5
		c0,8.3-3.2,15-3.2,15s-3.2-6.7-3.2-15s3.2-15,3.2-15S382.9,355.2,382.9,363.5z"/>
	<path style="clip-path:url(#SVGID_00000158723432906275413080000011601688881948905607_);fill:#F4E9BE;" d="M392.6,370.2
		c-5.9,5.9-12.9,8.3-12.9,8.3s2.5-7,8.3-12.9c5.9-5.9,12.9-8.3,12.9-8.3S398.4,364.3,392.6,370.2z"/>
	<path style="clip-path:url(#SVGID_00000158723432906275413080000011601688881948905607_);fill:#F4E9BE;" d="M394.7,381.7
		c-8.3,0-15-3.2-15-3.2s6.7-3.2,15-3.2c8.3,0,15,3.2,15,3.2S403,381.7,394.7,381.7z"/>
	<path style="clip-path:url(#SVGID_00000158723432906275413080000011601688881948905607_);fill:#F4E9BE;" d="M388,391.4
		c-5.9-5.9-8.3-12.9-8.3-12.9s7,2.5,12.9,8.3c5.9,5.9,8.3,12.9,8.3,12.9S393.9,397.3,388,391.4z"/>
	<path style="clip-path:url(#SVGID_00000158723432906275413080000011601688881948905607_);fill:#F4E9BE;" d="M376.5,393.5
		c0-8.3,3.2-15,3.2-15s3.2,6.7,3.2,15s-3.2,15-3.2,15S376.5,401.8,376.5,393.5z"/>
	<path style="clip-path:url(#SVGID_00000158723432906275413080000011601688881948905607_);fill:#F4E9BE;" d="M366.8,386.9
		c5.9-5.9,12.9-8.3,12.9-8.3s-2.5,7-8.3,12.9s-12.9,8.3-12.9,8.3S360.9,392.7,366.8,386.9z"/>
	<path style="clip-path:url(#SVGID_00000158723432906275413080000011601688881948905607_);fill:#F4E9BE;" d="M364.7,375.3
		c8.3,0,15,3.2,15,3.2s-6.7,3.2-15,3.2c-8.3,0-15-3.2-15-3.2S356.4,375.3,364.7,375.3z"/>
	<path style="clip-path:url(#SVGID_00000158723432906275413080000011601688881948905607_);fill:#F4E9BE;" d="M371.3,365.6
		c5.9,5.9,8.3,12.9,8.3,12.9s-7-2.5-12.9-8.3s-8.3-12.9-8.3-12.9S365.5,359.7,371.3,365.6z"/>
</g>
<path class="st0" d="M273.2,154.3c0-5.7-11.5-10.2-25.8-10.2s-25.8,4.6-25.8,10.2L273.2,154.3z"/>
<path class="st0" d="M351.1,148.1c-0.8-5.6-11-8.8-22.7-7.1c-11.8,1.7-20.6,7.6-19.8,13.2L351.1,148.1z"/>
<polygon class="st5" points="287.6,532.7 287.6,532.7 287.6,532.7 "/>
<polygon class="st1" points="273.2,292.1 274.4,301.4 273.2,292.1 "/>
<path class="st1" d="M274.7,303.3c0,0-15.7,1.5-33.7-9.6c-26.2-3.6-49.4-19.1-65.7-41.9l0,0c0,0,10.4,14.3,14.8,31.5l7.3,53.9
	c0,0,9.7,8.6,21.4,20.2c2.9,2.8,5.9,5.9,8.9,9c10,10.4,20.2,21.8,26.5,31.3c2.2,3.4,4,6.5,5,9.2c-0.4-2.2-0.8-5.8-0.4-11.1
	c0.1-1.4,0.3-2.9,0.5-4.6c1-7.7,3.4-18.1,8.2-32c2.8-8,6.4-17.2,11-27.6L274.7,303.3z"/>
<polygon class="st6" points="274.7,303.3 274.7,303.3 274.4,301.4 "/>
<path class="st6" d="M241,293.7c3.9,0.5,7.8,0.8,11.9,0.8c7,0,13.7-0.8,20.3-2.4l1.3,9.3l0.2,1.8C274.7,303.3,259,304.7,241,293.7z"
	/>
<path class="st1" d="M162.8,230.1c0.1,0.1,0.1,0.3,0.2,0.4C162.9,230.4,162.9,230.3,162.8,230.1z"/>
<path class="st1" d="M157.5,216.2c1.1,3.2,2.7,7.8,4.9,12.9C160.5,225,158.9,220.6,157.5,216.2z"/>
<path class="st1" d="M156,211.4C156,211.3,156,211.3,156,211.4C156,211.3,156,211.3,156,211.4L156,211.4z"/>
<path class="st7" d="M343.6,115.6c-0.1-0.1-0.2-0.2-0.2-0.3c-0.3-0.4-0.6-0.9-1-1.3l0.3-0.5C342.9,114.1,343.3,114.8,343.6,115.6z"
	/>
<path class="st6" d="M156,211.4L156,211.4c0.5,1.6,1,3.2,1.5,4.8C156.5,213.2,156,211.4,156,211.4z"/>
<path class="st6" d="M162.4,229.1c0.1,0.3,0.3,0.7,0.4,1C162.7,229.8,162.5,229.5,162.4,229.1z"/>
<path class="st6" d="M169.9,243.7c-2.7-4.4-5-8.9-6.9-13.2C165.1,235.1,167.4,239.5,169.9,243.7
	C169.9,243.7,169.9,243.7,169.9,243.7z"/>
<path class="st6" d="M166.8,208.1L166.8,208.1c-2.7,12.3,3,35.1,3.1,35.6c-2.5-4.2-4.8-8.6-6.9-13.1c-0.1-0.1-0.1-0.3-0.2-0.4
	c-0.1-0.3-0.3-0.7-0.4-1c-2.2-5.1-3.9-9.7-4.9-12.9c-0.5-1.6-1-3.2-1.5-4.8l0,0C159.9,211.2,163.5,210,166.8,208.1z"/>
<path class="st8" d="M278.5,327.9c-4.6,10.5-8.2,19.6-11,27.6c-4.8,13.9-7.2,24.4-8.2,32c-0.2,1.7-0.4,3.2-0.5,4.6
	c-0.4,5.3-0.1,8.9,0.4,11.1c0,0.1,0.1,0.2,0.1,0.4l0,0c0-0.1-0.1-0.2-0.1-0.4c0,0.1,0.1,0.3,0.1,0.4l0,0c0.4,1.9,0.9,2.7,0.9,2.7
	c3.6-4.7,7.4-8.4,11.1-11.3c4-3.1,8-5.3,11.9-6.8c0.1,0,0.1,0,0.2-0.1c16.8-6.5,31-0.2,31-0.2C313.3,377.8,278.5,327.9,278.5,327.9z
	"/>
<ellipse class="st7" cx="259.1" cy="172.8" rx="5.4" ry="5.7"/>
<ellipse class="st7" cx="317" cy="171.7" rx="5.4" ry="5.7"/>
<path class="st9" d="M256.7,238.6c0,0,28.9,13.9,46.7,9.1"/>
<path class="st6" d="M290.4,208.6c6.3,0,11.5-3.9,11.5-8.7c0-1.8-0.7-3.5-2-4.9c2.2,1.6,3.5,3.8,3.5,6.2c0,4.8-5.1,8.7-11.5,8.7
	c-4,0-7.4-1.5-9.5-3.8C284.5,207.7,287.3,208.6,290.4,208.6z"/>
<path class="st6" d="M224.7,226.9c0,0,4.4-5.3,2.6-10.7C227.4,216.2,232.6,223.5,224.7,226.9z"/>
<g>
	<path class="st8" d="M234.3,409C234.4,409,234.4,409,234.3,409L234.3,409C234.3,409,234.3,409,234.3,409z"/>
	<path class="st8" d="M260.2,409.6C260.2,409.6,260.1,409.6,260.2,409.6C260.1,409.6,260.2,409.6,260.2,409.6c0,0-0.5-0.8-0.9-2.7
		c0-0.1-0.1-0.3-0.1-0.4c-1.1-2.7-2.8-5.8-5-9.2c-6.3-9.5-16.5-20.9-26.5-31.3c-3-3.1-6-6.1-8.9-9c-11.8-11.6-21.4-20.2-21.4-20.2
		c-13.8,50.7,6.6,96.3,6.6,96.3c6.5-12.7,15.5-19.3,24.4-22.6c0,0,0,0,0,0c5.5-2,10.9-2.8,15.7-2.9
		C253.3,407.4,260.1,409.6,260.2,409.6L260.2,409.6L260.2,409.6z"/>
</g>
<path class="st10" d="M353.3,439.1c-1.2-5-5.1-8.4-9.3-11c-2.7-1.7-5.5-1.9-8-1c-1.2-3.7-4.5-6.4-8.3-7.2
	c-6.7-1.4-11.5,2.4-13.9,7.6c-5.5,0.2-10,3-13,7.5c-1.3,2-0.7,4.6,0.6,6.5c-1.1,1.9-1.8,4-2,5.9c0,0,0,0.1,0,0.1l54.1-3.6
	C353.8,442.3,353.7,440.7,353.3,439.1z"/>
<rect x="297.1" y="445.5" transform="matrix(0.9975 -7.038105e-02 7.038105e-02 0.9975 -30.7067 24.1357)" class="st8" width="60.2" height="4.7"/>
</svg>
