<?xml version="1.0" encoding="utf-8"?>
<!-- Generator: Adobe Illustrator 24.1.1, SVG Export Plug-In . SVG Version: 6.00 Build 0)  -->
<svg version="1.1" id="레이어_1" xmlns="http://www.w3.org/2000/svg" xmlns:xlink="http://www.w3.org/1999/xlink" x="0px"
	 y="0px" viewBox="0 0 60 60" style="enable-background:new 0 0 60 60;" xml:space="preserve">
<g>
	<path d="M58,7.8l-2.9,1.7c-4.3,2.5-7.6,4.5-10.8,6.4l-1.2,0.7c-2.9,1.7-5.9,3.5-9.6,5.7l-0.8,0.5l0.1,9.4l8.7-5.5
		c-3.8,6.4-6.1,11.1-9.7,18.7l-0.2,0.3l0.1,9.3l2.5-2c3.8-3,6.6-5.3,9.4-7.5l0.6-0.5c2.7-2.2,5.4-4.4,9.1-7.3l0.5-0.4l1.5-9.8
		l-3,2.2c-2.8,2-4.7,3.5-6.7,5c3.2-6,5.9-10.4,10.8-17.6L58,7.8z"/>
	<path d="M21.3,29.8C23.6,28.1,25,27,28,25l2-1.4l-2.1-1.3c-3.7-2.2-5.5-3.3-9.2-5.4l-0.9-0.5l-1.1,1c-1.6,1.4-2.6,2.3-3.8,3.3
		c-0.1-2.1-0.3-3.9-0.6-6.6l-0.1-0.8L11.5,13c-1.4-0.8-2.4-1.4-3.4-2l-0.4-0.3c-0.9-0.5-1.8-1.1-3-1.8L2,7.3l0.4,3.1
		C3.7,21,4.2,26,5.3,36.8l0.1,0.7l3.9,2.7c0.8,0.6,1.7,1.2,2.8,1.9l2.7,1.8l-0.2-3.2c-0.1-1.3-0.2-2.2-0.3-3.3l0-0.1
		c-0.1-0.7-0.1-1.4-0.2-2.2c0.2-0.2,0.4-0.3,0.6-0.5c1.5,4.3,2.5,7,4.1,11.8l0.2,0.5l0.4,0.3c1.5,1,2.6,1.8,3.7,2.6
		c1.1,0.8,2.2,1.6,3.6,2.6l3.8,2.6L29,50.7C26,41.7,24.2,37.1,21.3,29.8z"/>
</g>
</svg>
