<?xml version="1.0" encoding="utf-8"?>
<!-- Generator: Adobe Illustrator 27.7.0, SVG Export Plug-In . SVG Version: 6.00 Build 0)  -->
<svg version="1.1" id="레이어_1" xmlns="http://www.w3.org/2000/svg" xmlns:xlink="http://www.w3.org/1999/xlink" x="0px"
	 y="0px" viewBox="0 0 60 60" style="enable-background:new 0 0 60 60;" xml:space="preserve">
<style type="text/css">
	.st0{fill:#D7666F;}
	.st1{fill:url(#SVGID_1_);}
	.st2{fill:url(#SVGID_00000147919013792362184590000003158498267434319289_);}
</style>
<polygon class="st0" points="6.2,16.3 30,30 53.8,16.3 30,2.5 "/>
<linearGradient id="SVGID_1_" gradientUnits="userSpaceOnUse" x1="8.1256" y1="32.3923" x2="26.9117" y2="40.804">
	<stop  offset="0" style="stop-color:#EEB7AC"/>
	<stop  offset="0.9955" style="stop-color:#D5656E"/>
</linearGradient>
<polygon class="st1" points="6.2,16.3 9.3,42.8 30,57.5 30,30 "/>
<linearGradient id="SVGID_00000036936869048520424520000000572059706275847602_" gradientUnits="userSpaceOnUse" x1="51.0331" y1="33.9374" x2="30.0038" y2="40.6667">
	<stop  offset="0" style="stop-color:#EEB7AC"/>
	<stop  offset="0.9955" style="stop-color:#D5656E"/>
</linearGradient>
<polygon style="fill:url(#SVGID_00000036936869048520424520000000572059706275847602_);" points="30,30 30,57.5 49.3,42.2 
	53.8,16.3 "/>
<g>
	<g>
		<path d="M36,32.3c4.7-2.7,7.1-4.1,11.8-6.8c-0.2,1.1-0.3,1.7-0.5,2.8c-3.5,5.1-5,7.6-7.8,12.9c2.7-2,4-3,6.7-4.9
			c-0.2,1.2-0.3,1.8-0.5,3c-4.2,3.3-6.2,4.9-10.4,8.2c0-1.2,0-1.8,0-3.1c2.6-5.3,4-7.9,7.2-13c-2.6,1.6-3.9,2.4-6.5,4
			C36,34.2,36,33.5,36,32.3z"/>
	</g>
</g>
<g>
	<g>
		<path d="M11.7,25.8c1.5,0.9,2.2,1.3,3.7,2.2c0.2,2.2,0.3,3.3,0.4,5.4c1.3-1.3,2-1.9,3.5-3.2c2,1.1,3,1.7,5,2.9
			c-1.8,1.2-2.6,1.8-4.2,3c1.9,4.7,2.8,7.1,4.4,11.9c-1.6-1.1-2.4-1.7-4-2.8c-1-3-1.5-4.5-2.6-7.5c-0.7,0.5-1,0.8-1.6,1.2
			c0.1,1.4,0.2,2.1,0.3,3.5c-1.3-0.9-2-1.4-3.3-2.3C12.7,34.3,12.4,31.5,11.7,25.8z"/>
	</g>
</g>
</svg>
