<?xml version="1.0" encoding="utf-8"?>
<!-- Generator: Adobe Illustrator 27.7.0, SVG Export Plug-In . SVG Version: 6.00 Build 0)  -->
<svg version="1.1" id="레이어_1" xmlns="http://www.w3.org/2000/svg" xmlns:xlink="http://www.w3.org/1999/xlink" x="0px"
	 y="0px" viewBox="0 0 500 500" style="enable-background:new 0 0 500 500;" xml:space="preserve">
<style type="text/css">
	.st0{fill:#D6656E;}
	.st1{opacity:0.7;}
	.st2{fill:#F3ABB4;}
	.st3{fill:url(#SVGID_1_);}
</style>
<g>
	<path class="st0" d="M636.3,565.3c-1-40.8-6.6-81.4-13.7-121.8c-12.1-69.2-29.7-140.4-78-196.1c-7.1-8.1-15.4-16.3-26.6-19.1
		l-0.3,1.7c-2.8-7.8-14.9-10.2-23.6-7.3s-15.1,9.5-21.9,15.1c-6.8,5.6-15.5,10.7-24.8,9.6c-9.5-1.1-16.3-8.2-24.2-13
		c-16.4-10-40-9.8-56.1,0.5c-16.1,10.3-23.6,30-17.7,46.8c1.5,4.4,3.9,8.6,5.2,13c4.4,14.5-3.6,31.1-18.4,38.6
		c-16.6,8.3-37.2,5-56.4,5c-19.1,0-42.1,6.8-45.7,23.4c-1.5,7.1,0.7,15.5-4.9,20.9c-2.4,2.3-5.7,3.5-9,4.6
		c-12.6,4.1-25.8,7.1-37.4,13.1c-11.6,6-21.7,15.8-22.8,27.5c-2.2,22.8,27.9,38.5,32.6,61c2.7,12.9-3.6,26.2-13,36.3
		s-21.7,17.9-33.4,26c-5.2,3.6-10.4,7.4-14,12.3c-9.4,12.8-5.1,30.5,5.5,42.6c10.6,12.1,26.2,19.8,41.4,27.2l2.1-1.9
		c52.4-3,104.7-8.7,156.4-16.8c45.9-7.2,91.6-16.4,138.1-19.1c52-2.9,107.1,1.9,153.3-19.2c2.1-0.9,4.2-2,5.4-3.7
		C636.3,570.4,636.3,567.8,636.3,565.3z"/>
</g>
<ellipse transform="matrix(0.1949 -0.9808 0.9808 0.1949 162.7537 610.8812)" class="st0" cx="453.5" cy="206.3" rx="15.2" ry="10.6"/>
<g class="st1">
	<path class="st2" d="M458.5,199.7c-1.4-3.3-4.1-5-4.1-5.9c-0.1-1,4-0.1,6.3,4.8c2.3,5,0.2,8.6-0.4,8
		C459.6,206.1,460,202.9,458.5,199.7z"/>
</g>
<g>
	<linearGradient id="SVGID_1_" gradientUnits="userSpaceOnUse" x1="137.3423" y1="426.4409" x2="626.2697" y2="426.4409">
		<stop  offset="0" style="stop-color:#C1606C"/>
		<stop  offset="1" style="stop-color:#D6656E"/>
	</linearGradient>
	<path class="st3" d="M178.3,622.6c-12.2-6-24.2-12.6-32.4-22c-7.8-8.9-12-22.9-5-32.5c2.7-3.7,7.1-6.9,11.7-10.1
		c1.7-1.2,3.5-2.4,5.3-3.6c10.3-7,21-14.3,29.7-23.7c12.5-13.5,18-29.4,15-43.5c-2.5-12-10.5-21.7-18.2-31
		c-8.2-9.9-15.2-18.4-14.3-27.7c0.7-7.6,7.4-15.3,17.9-20.7c7.5-3.9,16-6.4,25-9.1c3.6-1.1,7.2-2.2,10.9-3.3c4.2-1.4,9-3.2,12.9-6.9
		c6.2-6,6.5-13.3,6.8-19.3c0.1-2.2,0.2-4.2,0.5-5.9c2.3-10.6,19.8-16.2,35.8-16.2c4.1,0,8.2,0.2,12.5,0.3c4.4,0.2,9,0.3,13.6,0.3
		c10.1,0,23.3-0.8,35.3-6.8c18.7-9.4,28.6-30.2,23.1-48.5c-0.9-2.9-2.1-5.6-3.2-8.1c-0.8-1.8-1.6-3.5-2.1-5.2
		c-4.6-13.1,1.5-29.1,14.1-37.1c6.3-4,14.3-6.2,22.6-6.2c8,0,15.8,2.1,21.9,5.8c1.9,1.1,3.7,2.5,5.7,3.9c6.2,4.4,13.2,9.4,22.8,10.6
		c1.3,0.1,2.6,0.2,3.8,0.2c9.6,0,19.1-4,29.1-12.1c1.4-1.2,2.8-2.4,4.2-3.5c4.9-4.2,9.4-8.1,14.5-9.9c1.2-0.4,2.6-0.6,4.1-0.6
		c3.1,0,5.8,1,6.3,2.3l16.3-1l-9.2,5.1c8.5,2.2,15.6,9.3,21.4,16c46.8,54,64.2,124.2,76,192.1c8.5,48.7,12.7,85.9,13.5,120.7
		c0,0.4,0,1.5,0,2.1c-0.3,0.2-0.8,0.4-1.5,0.7c-33.5,15.3-72,16.2-112.7,17.1c-12,0.3-24.5,0.5-36.6,1.2
		c-36.3,2-72.5,8.1-107.4,13.9c-10.5,1.8-21.3,3.6-31.9,5.2c-51.2,8-103.4,13.7-155.3,16.7L178.3,622.6z"/>
</g>
<path class="st2" d="M171,435.7c0,0-5.9-16.4,15.4-26.9c-0.6,0.1-9.5,7.2-12.1,12.2C171.1,426.9,170.4,435.6,171,435.7z"/>
<path class="st2" d="M265.9,348.6"/>
<path class="st2" d="M377.9,239.5c0,0-31.6,10.8-16.1,46.9c1.8,4.3,3.1,8.8,3.5,13.4c0.6,7.8-0.6,18.8-8.7,28.8
	c0,0,9.1-8.2,10.7-20.2c0.8-5.8,0.3-11.1-0.6-15.1c-0.6-2.7-1.2-5.4-2.4-8c-2.5-5.5-7.3-17.7-1.9-28.5
	C369.5,242.5,377.9,239.5,377.9,239.5z"/>
</svg>
