<?xml version="1.0" encoding="utf-8"?>
<!-- Generator: Adobe Illustrator 24.1.1, SVG Export Plug-In . SVG Version: 6.00 Build 0)  -->
<svg version="1.1" id="Layer_1" xmlns="http://www.w3.org/2000/svg" xmlns:xlink="http://www.w3.org/1999/xlink" x="0px" y="0px"
	 viewBox="0 0 100 48.94" style="enable-background:new 0 0 100 48.94;" xml:space="preserve">
<style type="text/css">
	.st0{fill:#D5646D;}
	.st1{fill:#F5DBEA;}
	.st2{fill:none;}
</style>
<g>
	<path class="st0" d="M86.72,2.77c0.91,0,1.76,0.35,2.4,1c0.64,0.64,1,1.5,1,2.4s-0.35,1.76-1,2.4L52.58,45.12
		c-0.43,0.43-0.97,0.74-1.56,0.89c-0.34,0.11-0.69,0.16-1.04,0.16c-0.91,0-1.76-0.35-2.4-0.99L11.02,8.63c-0.64-0.64-1-1.5-1-2.4
		s0.35-1.76,1-2.4c0.64-0.64,1.5-1,2.4-1s1.76,0.35,2.4,1l34.21,34.21L84.31,3.76C84.96,3.12,85.81,2.77,86.72,2.77z"/>
	<path class="st1" d="M11.68,7.97l36.55,36.55c0.68,0.68,1.67,0.88,2.52,0.59c0.43-0.1,0.83-0.32,1.16-0.65L88.46,7.91
		c0.96-0.96,0.96-2.53,0-3.49c-0.48-0.48-1.11-0.72-1.75-0.72s-1.26,0.24-1.75,0.72L50.05,39.35L15.17,4.48
		C14.69,4,14.06,3.76,13.43,3.76c-0.63,0-1.26,0.24-1.75,0.72C10.72,5.44,10.72,7.01,11.68,7.97z"/>
	<line class="st2" x1="91.6" y1="3.7" x2="-0.15" y2="3.7"/>
</g>
</svg>
