<?xml version="1.0" encoding="utf-8"?>
<!-- Generator: Adobe Illustrator 27.7.0, SVG Export Plug-In . SVG Version: 6.00 Build 0)  -->
<svg version="1.1" id="레이어_1" xmlns="http://www.w3.org/2000/svg" xmlns:xlink="http://www.w3.org/1999/xlink" x="0px"
	 y="0px" viewBox="0 0 283.5 283.5" style="enable-background:new 0 0 283.5 283.5;" xml:space="preserve">
<style type="text/css">
	.st0{fill:#EEB6AD;}
</style>
<g>
	<path class="st0" d="M104.8,62.3L104.8,62.3l-0.1,0.1l27.7,140.9c-3.8-0.8-8-0.9-12.4,0c-13.1,2.6-22.2,12.4-20.3,21.9
		s14,15.2,27.1,12.6s22.2-12.4,20.3-21.9l0,0L119.8,77.1l-1.8-9l-2-9.9L104.8,62.3z"/>
	<path class="st0" d="M104.7,62.4L101.1,45c0,0,28.4,28,50.3,37c0.6,0.2,1.2,0.5,1.8,0.8c21,9.3,33,24.5,30.3,47.3
		c-1.1,9.4-4.2,19.4-11.6,27.3c-0.3,0.3-0.9,0-0.7-0.4c3.1-9.6,16-48-19.3-54.4C112.4,95.4,104.7,62.4,104.7,62.4"/>
</g>
</svg>
