<?xml version="1.0" encoding="utf-8"?>
<!-- Generator: Adobe Illustrator 27.7.0, SVG Export Plug-In . SVG Version: 6.00 Build 0)  -->
<svg version="1.1" id="레이어_1" xmlns="http://www.w3.org/2000/svg" xmlns:xlink="http://www.w3.org/1999/xlink" x="0px"
	 y="0px" viewBox="0 0 283.5 283.5" style="enable-background:new 0 0 283.5 283.5;" xml:space="preserve">
<style type="text/css">
	.st0{fill:#D5646D;}
</style>
<g>
	<path class="st0" d="M228.6,48.3l-140,21.6V70h-0.1v132.6c-3.6-1.5-7.7-2.4-12.2-2.4c-13.3,0-24.1,7.9-24.1,17.6
		s10.8,17.6,24.1,17.6s24.1-7.9,24.1-17.6l0,0V78.2l118.7-18.3V184c-3.6-1.5-7.7-2.4-12.2-2.4c-13.3,0-24.1,7.9-24.1,17.6
		s10.8,17.6,24.1,17.6s24.1-7.9,24.1-17.6l0,0V51.9v-0.5V48L228.6,48.3z"/>
	<g>
		
			<rect x="93.9" y="105.1" transform="matrix(0.9895 -0.1445 0.1445 0.9895 -14.2494 24.0082)" class="st0" width="128.5" height="10"/>
	</g>
</g>
</svg>
