<?xml version="1.0" encoding="utf-8"?>
<!-- Generator: Adobe Illustrator 27.7.0, SVG Export Plug-In . SVG Version: 6.00 Build 0)  -->
<svg version="1.1" id="레이어_1" xmlns="http://www.w3.org/2000/svg" xmlns:xlink="http://www.w3.org/1999/xlink" x="0px"
	 y="0px" viewBox="0 0 522.9 676.6" style="enable-background:new 0 0 522.9 676.6;" xml:space="preserve">
<style type="text/css">
	.st0{fill:#704E2D;}
	.st1{fill:url(#SVGID_1_);}
	.st2{fill:#808080;}
	.st3{fill:#D19C91;}
	.st4{fill:#FAB8A1;}
	.st5{fill:none;stroke:#C78A78;stroke-miterlimit:10;}
	.st6{fill:#FDDDD1;}
	.st7{fill:#474747;}
	.st8{fill:none;stroke:#000000;stroke-miterlimit:10;}
	.st9{fill:none;stroke:#FAB8A1;stroke-miterlimit:10;}
	.st10{fill:none;}
	.st11{fill:url(#SVGID_00000090266708227420909120000008117312801752667546_);}
	.st12{fill:url(#SVGID_00000087397760226398832860000018355901973389308827_);}
	.st13{fill:#302C29;}
	.st14{fill:url(#SVGID_00000176035427818430668810000015076741781199613585_);}
	.st15{fill:#FCD2C0;}
	.st16{fill:url(#SVGID_00000161629984401206851440000005625507809641510325_);}
	.st17{fill:url(#SVGID_00000088100587487310579380000003000411278657139108_);}
	.st18{fill:none;stroke:#EDAE9D;stroke-miterlimit:10;}
	.st19{fill:#EDAE9D;}
	.st20{fill:url(#SVGID_00000094585983752382803760000004123889781816618639_);}
	.st21{fill:url(#SVGID_00000031920327168612881620000002269593641250960819_);}
	.st22{fill:url(#SVGID_00000114066100592050115160000013397147685068814515_);}
	.st23{fill:url(#SVGID_00000108280243749392272030000015006861858865247674_);}
	.st24{fill:url(#SVGID_00000176765563636815301730000003350068684522145931_);}
	.st25{fill:#9B2A21;}
</style>
<g>
	<path d="M422.7,176l-52.3,16.5c-8.1,2.6-12.5,11.6-9.8,20.2l0,0c2.7,8.5,11.5,13.4,19.6,10.9l52.3-16.5L422.7,176z"/>
	<ellipse transform="matrix(0.9534 -0.3017 0.3017 0.9534 -37.7913 138.1075)" cx="428.2" cy="191.4" rx="9.7" ry="16.3"/>
</g>
<polygon class="st0" points="24.5,395.3 24.5,610.1 242.4,471.8 242,281.5 "/>
<polygon class="st0" points="54.6,440.9 54.6,655.7 272.5,517.4 272.1,327.2 "/>
<polygon class="st0" points="24.8,396 242,281.5 271.6,294.1 53.7,409.6 "/>
<linearGradient id="SVGID_1_" gradientUnits="userSpaceOnUse" x1="152.9012" y1="383.0898" x2="195.8792" y2="383.0898" gradientTransform="matrix(1 0 0 -1 0 676)">
	<stop  offset="0" style="stop-color:#93673A"/>
	<stop  offset="0.9955" style="stop-color:#704E2D"/>
</linearGradient>
<path class="st1" d="M164.8,256.9c7.2,7.3,31.2,35.1,31,75.8l-20.4-13c0,0,6.8-38.6-22.1-63.4c-0.1-0.1-0.2-0.2-0.2-0.3
	c-0.3-0.8-1.1-3.8,5.4-2.6C160.4,253.7,163.7,255.7,164.8,256.9z"/>
<path d="M418,302.4l-2.4-12.8l-5.8,1.1l6.5,24.5l0.4-0.7l0,0c1.3-2.2,1.9-4.7,1.8-7.2C418.5,305.7,418.3,304.1,418,302.4z"/>
<path d="M449,227.7l-3.2-12.7l6.6-2.1l4,25.4l-0.8-0.4l0,0c-2.3-1.3-4.1-3.2-5.1-5.5C449.9,230.9,449.4,229.4,449,227.7z"/>
<path class="st2" d="M100,79.8c1.1,4.7,25.2,8.5,54.7,8.5s53.6-3.8,54.7-8.5H100z"/>
<path class="st3" d="M176.2,300.7L176.2,300.7c-1,5.5-7.3,8.8-13.7,7.3l-37.1-8.5c-3.9-0.9-6.3-4.8-5.6-8.8l0,0
	c0.7-4,4.3-6.8,8.3-6.3l37.7,4.8C172.4,289.9,177.2,295.2,176.2,300.7z"/>
<path class="st3" d="M185.1,284.7L185.1,284.7c-0.8,4.7-7.1,7.4-13.5,5.9l-37.1-8.3c-3.9-0.9-6.4-4.3-5.8-7.7l0,0
	c0.6-3.4,4.2-5.8,8.1-5.2l37.7,5.1C181,275.4,185.9,280,185.1,284.7z"/>
<path class="st3" d="M193.1,271.1L193.1,271.1c-0.7,4-6.9,6.1-13.2,4.7l-37.1-8c-3.9-0.8-6.5-3.8-5.9-6.7l0,0c0.5-2.9,4-4.8,7.9-4.2
	l37.6,5.3C188.7,263.1,193.8,267.1,193.1,271.1z"/>
<path class="st3" d="M123-8.7h-12.2c-1.4,0-2.4,1.3-2.1,2.7l27.4,103c2.4,9.2,1.9,18.8-1.6,27.7l-4.1,10.5
	C161.6,112.2,132.6,19.1,123-8.7z"/>
<path class="st4" d="M202.4,235c-0.8-39.2-5.2-77.9-14.6-115.9c-0.4-2.8-1.1-5.6-2.3-8.2l-3-6.7c-0.1-0.3-0.2-0.7-0.2-1L188-6.5
	c0.1-1.2-0.9-2.3-2.1-2.3H123c9.5,27.8,38.5,120.9,7.4,143.9l-4.2,10.8l-11.3,28.9c-0.5,1.2-0.9,2.5-1.1,3.8l-9.9,49.9l-10.3,45.7
	c-0.1,0.2-0.2,0.5-0.3,0.7c-0.8,1.3-3.8,6.8,1.4,12.6c3,3.4,7,2,10.7-0.6c3.9-2.8,7-6.6,9-11.1l19.4-43.2l22.1,4.2
	c1.3,0.2,2,1.5,1.6,2.8c-2.5,7.6-10.1,32.3-10.8,48.2c-0.2,4.4-0.2,8.2,0.1,10.8c0.1,0.8-0.2,1.6-0.9,2l-28.9,17
	c-3.8,2.7-3.4,8.9,0.8,10.9c2.2,1.1,5.4,1.9,10,2c5.9,0.2,22-5.9,26.9-9.2c0.1,0,0.1-0.1,0.2-0.1l22.5-11.4c2.4-1.2,4.2-3.4,5.1-6
	l19.1-58.5C202.5,241.9,202.9,238.4,202.4,235z"/>
<path class="st5" d="M192,228.7l1.2,10.7c0.3,2.3-0.4,4.7-1.9,6.5l-5.2,6.3L166.6,309c0,0-12.3,13.4-17.1,14.7"/>
<path class="st6" d="M92,277.8c-0.1,0.3-0.1,0.6-0.2,0.9c-0.2,2.6,0.7,5.1,3.1,6l0,0c2.6,1,5.5-0.3,6.5-2.9l1.4-3.6l-9.5-3.6
	C92.9,275.7,92.3,276.9,92,277.8z"/>
<rect x="100.1" y="70.8" class="st2" width="109.4" height="9"/>
<rect x="99.9" y="72.7" class="st7" width="109.6" height="1"/>
<rect x="99.9" y="76.5" class="st7" width="109.6" height="1"/>
<path class="st8" d="M382.2,246.7l-4.9-36.5c0,0-6.6-13.5-3.3-21.3"/>
<path class="st9" d="M252.8,211.8"/>
<path class="st8" d="M407.2,280.7c0,0-16.3-39.2-16.8-72.7c0-1.7-0.5-3.4-1.3-4.8c-1.8-3.2-4.9-9.9-4-18.9"/>
<path class="st10" d="M394.6,121.7c15.6,0,28.5-5.6,31-13.3l-0.7-1l0.7,1c0.2-0.5,0.3-0.9,0.3-1.4c0.9-5.9-4.4-10.8-7.7-13.1
	c-6.4-4.7-15.5-7.8-25.5-8.9c-2.4-0.3-4.8-0.4-7.2-0.4c-16.6,0-30.1,6.3-31.3,14.7c-0.9,5.9,4.4,10.8,7.7,13.1
	c2.9,2.1,6.3,3.9,10.2,5.4l0.2-2.8l-0.2,2.8c4.6,1.7,9.8,3,15.4,3.5C389.8,121.5,392.2,121.7,394.6,121.7z"/>
<g>
	<path class="st2" d="M233.5,87.6c-0.1,0-0.3,0-0.4,0l-27.5-6.1c-1.1-0.2-1.8-1.3-1.5-2.4c0.2-1.1,1.3-1.8,2.4-1.5l27.5,6.1
		c1.1,0.2,1.8,1.3,1.5,2.4C235.3,87,234.5,87.6,233.5,87.6z"/>
</g>
<g>
	<path class="st2" d="M313.2,102.4c-1,0-1.9-0.8-2-1.8c-0.1-1.1,0.7-2.1,1.8-2.2l23.2-2c1.1-0.1,2.1,0.7,2.2,1.8s-0.7,2.1-1.8,2.2
		l-23.2,2C313.3,102.4,313.2,102.4,313.2,102.4z"/>
</g>
<g>
	<g>
		<path class="st2" d="M249.1,102.5l-19.7-7.7c-4.2-1.6-6.4-5.9-5-9.5l2.2-5.6c1.4-3.6,5.9-5.2,10.1-3.6l19.7,7.7
			c4.2,1.6,6.4,5.9,5,9.5l-2.2,5.6C257.8,102.5,253.2,104.2,249.1,102.5z M235.6,78.8c-2.5-1-5.2,0-6.1,2.2l-2.2,5.6
			c-0.8,2.2,0.5,4.7,3,5.7L250,100c2.5,1,5.2,0,6.1-2.2l2.2-5.6c0.8-2.2-0.5-4.7-3-5.7L235.6,78.8z"/>
	</g>
</g>
<g>
	<g>
		<path class="st2" d="M312,110.2l-24.5,2.7c-5.2,0.6-9.8-2.1-10.2-5.9l-0.7-5.9c-0.4-3.8,3.4-7.4,8.6-8l24.5-2.7
			c5.2-0.6,9.8,2.1,10.2,5.9l0.7,5.9C321.1,106,317.2,109.6,312,110.2z M285.6,95.8c-3.1,0.3-5.4,2.5-5.2,4.8l0.7,5.9
			c0.3,2.3,3,3.9,6.1,3.6l24.5-2.7c3.1-0.3,5.4-2.5,5.2-4.8l-0.7-5.9c-0.3-2.3-3-3.9-6.1-3.6L285.6,95.8z"/>
	</g>
</g>
<g>
	<g>
		<path class="st2" d="M278.1,106l-20.6-5.5c-4.4-1.2-7.6-3.4-7.1-5L251,93c0.4-1.6,4.3-1.9,8.7-0.8l20.6,5.5c4.4,1.2,7.6,3.4,7.1,5
			l-0.7,2.5C286.3,106.8,282.5,107.2,278.1,106z M259.4,93.4c-2.6-0.7-5-0.5-5.2,0.5l-0.7,2.5c-0.3,1,1.7,2.3,4.3,3l20.6,5.5
			c2.6,0.7,5,0.5,5.2-0.5l0.7-2.5c0.3-1-1.7-2.3-4.3-3L259.4,93.4z"/>
	</g>
</g>
<path d="M449.5,193.6l-2.6-38.6c-0.7-10.8-4.1-21-9.6-29.2l-4.3-6.5c-0.1,0-0.1-0.1-0.2-0.1l-9.9-14.8c-3.3-4.9-4.2-11-2.5-16.7
	L447-0.9c0.4-1.2-0.5-2.5-1.7-2.7l-3.6-0.5l-42.1-5.7c-2.6-0.4-5,1.4-5.6,4L372.7,99.9c-0.5,2.3-0.7,4.7-0.6,7.1l0.3,10.3l-4.5,60.7
	c-0.5,7.2-0.1,14.5,1.3,21.5l7.4,36.3c0.5,2.4,1.4,4.6,2.7,6.5l3,4.4l3.4,8c0.5,1.2,1.1,2.2,1.9,3.1l19.7,22.9l1.7,6.4l1.2,4.3
	l5.7,0.5l1.3,6.9c0.6,3.2,0.7,6.2,0.5,8.9c4.8-9.5,6.8-20.9,5.7-32.1l-5.2-52.1c-2.8-22.8-1.9-38.3,2.8-46.6
	c1.3-1.7,2.8-2.1,4.5-0.9c2.2,2,4.2,12.2,5.9,31c1.2,5.7,3.9,10.6,7.8,14l17,14.9L449.5,193.6z"/>
<path class="st7" d="M393.6,76.6c-16.5-1.8-31.6,2-39.8,8.9l-22.5-1.1l-1.2,24.5l22.4,1.1c4.3,4.7,11,8.7,19.1,11.4l0.5-6.2
	c-3.8-1.4-7.3-3.2-10.2-5.4c-3.2-2.4-8.5-7.2-7.7-13.1c1.2-8.4,14.7-14.7,31.3-14.7c2.4,0,4.8,0.1,7.2,0.4
	c10.1,1.1,19.1,4.2,25.5,8.9c3.2,2.4,8.5,7.2,7.7,13.1c-0.1,0.5-0.2,1-0.3,1.4l4.2,6.3c1.6-2.1,2.6-4.5,3-7
	C434.7,91.9,417.2,79.1,393.6,76.6z"/>
<path class="st2" d="M393.6,79.1c-16.5-1.8-31.6,2-39.8,8.9l-22.5-1.1l-1.2,24.5l22.4,1.1c4.3,4.7,11,8.7,19.1,11.4l0.5-6.2
	c-3.8-1.4-7.3-3.2-10.2-5.4c-3.2-2.4-8.5-7.2-7.7-13.1c1.2-8.4,14.7-14.7,31.3-14.7c2.4,0,4.8,0.1,7.2,0.4
	c10.1,1.1,19.1,4.2,25.5,8.9c3.2,2.4,8.5,7.2,7.7,13.1c-0.1,0.5-0.2,1-0.3,1.4l4.2,6.3c1.6-2.1,2.6-4.5,3-7
	C434.7,94.4,417.2,81.6,393.6,79.1z"/>
<linearGradient id="SVGID_00000160181261788233889410000011408439000929633198_" gradientUnits="userSpaceOnUse" x1="87.4649" y1="361.9047" x2="151.9649" y2="361.9047" gradientTransform="matrix(1 0 0 -1 0 676)">
	<stop  offset="0" style="stop-color:#93673A"/>
	<stop  offset="0.9955" style="stop-color:#704E2D"/>
</linearGradient>
<path style="fill:url(#SVGID_00000160181261788233889410000011408439000929633198_);" d="M136.3,256.2
	c-9.9,9.5-41.9,38.7-48.9,108.5l22.1,11.5c0,0-0.3-82.7,42-118.4c0.2-0.1,0.3-0.3,0.4-0.5c0-0.3-0.2-2.1-2.4-3.7
	c-2.6-2-6.2-2.1-9.1-0.5C138.8,254.1,137.2,255.3,136.3,256.2z"/>
<linearGradient id="SVGID_00000062177075629486997970000009241988090554787214_" gradientUnits="userSpaceOnUse" x1="54.1" y1="267.45" x2="272.5" y2="267.45" gradientTransform="matrix(1 0 0 -1 0 676)">
	<stop  offset="0" style="stop-color:#93673A"/>
	<stop  offset="0.9955" style="stop-color:#704E2D"/>
</linearGradient>
<polygon style="fill:url(#SVGID_00000062177075629486997970000009241988090554787214_);" points="54.1,407.9 54.1,523 272.5,399.5 
	271.6,294.1 "/>
<polygon class="st2" points="101.5,485.2 101.5,503.4 137.7,483.9 137.6,467.2 "/>
<polygon class="st2" points="201.3,431 201.3,449.2 237.6,429.7 237.4,413 "/>
<polyline class="st0" points="25.4,609.2 42.1,608.4 55.5,654.9 54.6,475.4 25,450.4 23.5,609.4 "/>
<g>
	<path d="M456,169.4l-25.7,8.1c-6.4,2-9.9,9.2-7.8,16l0,0c2.1,6.8,9.1,10.7,15.5,8.6l25.7-8.1L456,169.4z"/>
	<ellipse transform="matrix(0.9534 -0.3017 0.3017 0.9534 -33.311 147.329)" cx="460.3" cy="181.5" rx="7.7" ry="12.9"/>
	<path d="M485.6,182.8c-2.8-1.8-2.3-8.3,1.1-14.5c1.9-3.4,4.3-6.1,6.6-7.5v-0.1l-31.7,10c-4.9,1.6-7.6,7.1-5.9,12.2l0,0
		c1.6,5.2,7,8.1,11.9,6.6l19.9-6.3C486.8,183.3,486.1,183.2,485.6,182.8z"/>
	<path d="M489.4,182.6c2.4-1.3,5-4,7-7.7c0.2-0.3,0.3-0.6,0.5-0.9c3-5.9,3.4-11.9,0.7-13.6c-1.3-0.8-3-0.5-4.8,0.6
		c-2.3,1.4-4.7,4-6.6,7.5c-3.5,6.2-4,12.7-1.1,14.5c0.5,0.3,1.2,0.5,1.9,0.5C487.6,183.3,488.5,183.1,489.4,182.6z"/>
</g>
<g>
	<path class="st13" d="M-479.9,159.7l52.3,16.5c8.1,2.6,12.5,11.6,9.8,20.2l0,0c-2.7,8.5-11.5,13.4-19.6,10.9l-52.3-16.5
		L-479.9,159.7z"/>
	
		<ellipse transform="matrix(0.3017 -0.9534 0.9534 0.3017 -505.8561 -340.6642)" class="st13" cx="-485.5" cy="175" rx="16.3" ry="9.7"/>
</g>
<polygon class="st0" points="-81.7,378.9 -81.7,593.7 -299.6,455.4 -299.2,265.1 "/>
<polygon class="st0" points="-111.8,424.6 -111.8,639.4 -329.7,501.1 -329.3,310.8 "/>
<polygon class="st0" points="-82.4,378 -297.5,266.2 -328.8,277.8 -111.3,391.5 "/>
<linearGradient id="SVGID_00000151529620221978903610000013047004123243447997_" gradientUnits="userSpaceOnUse" x1="-704.1479" y1="399.4899" x2="-661.1699" y2="399.4899" gradientTransform="matrix(-1 0 0 -1 -914.2491 676)">
	<stop  offset="0" style="stop-color:#93673A"/>
	<stop  offset="0.9955" style="stop-color:#704E2D"/>
</linearGradient>
<path style="fill:url(#SVGID_00000151529620221978903610000013047004123243447997_);" d="M-222,240.5c-7.2,7.3-31.2,35.1-31,75.8
	l20.4-13c0,0-6.8-38.6,22.1-63.4c0.1-0.1,0.2-0.2,0.2-0.3c0.3-0.8,1.1-3.8-5.4-2.6C-217.6,237.3-220.9,239.3-222,240.5z"/>
<path class="st15" d="M-506.7,177.3l2.6-38.6c0.7-10.8,4.1-21,9.6-29.2l4.3-6.5c13.4-9.4,16.6-22.2,16.6-22.2L-499-20.4l42.1-5.7
	c2.6-0.4,5,1.4,5.6,4L-430,83.7c0.5,2.3,0.7,4.7,0.6,7.1l-0.3,10.3l4.5,60.7c0.5,7.2,0.1,14.5-1.3,21.5l-7.4,36.3
	c-0.5,2.4-1.4,4.6-2.7,6.5l-3,4.4l-3.4,8c-0.5,1.2-1.1,2.2-1.9,3.1l-19.7,22.9l-1.7,6.4l-1.2,4.3l-5.7,0.5l-1.3,6.9
	c-0.6,3.2-0.7,6.2-0.5,8.9c-4.8-9.5-6.8-20.9-5.7-32.1l5.2-52.1c2.8-22.8,1.9-38.3-2.8-46.6c-1.3-1.7-2.8-2.1-4.5-0.9
	c-2.2,2-4.2,12.2-5.9,31c-1.2,5.7-3.9,10.6-7.8,14l-17,14.9L-506.7,177.3z"/>
<linearGradient id="SVGID_00000130646122736062072660000009157743792777054891_" gradientUnits="userSpaceOnUse" x1="-442.8937" y1="399.1107" x2="-442.8937" y2="379.0962" gradientTransform="matrix(-1 0 0 -1 -914.2491 676)">
	<stop  offset="0" style="stop-color:#EFB7AD"/>
	<stop  offset="0.9955" style="stop-color:#D5646D"/>
</linearGradient>
<path style="fill:url(#SVGID_00000130646122736062072660000009157743792777054891_);" d="M-475.2,286l2.4-12.8l5.8,1.1l-6.5,24.5
	l-0.4-0.7l0,0c-1.3-2.2-1.9-4.7-1.8-7.2C-475.7,289.4-475.6,287.7-475.2,286z"/>
<linearGradient id="SVGID_00000007423023755838628590000016742193763891495594_" gradientUnits="userSpaceOnUse" x1="2547.0405" y1="1188.1451" x2="2547.0405" y2="1168.1306" gradientTransform="matrix(1.0605 0.5241 0.443 -0.8965 -3733.6167 -68.5633)">
	<stop  offset="0" style="stop-color:#EFB7AD"/>
	<stop  offset="0.9955" style="stop-color:#D5646D"/>
</linearGradient>
<path style="fill:url(#SVGID_00000007423023755838628590000016742193763891495594_);" d="M-506.2,211.3l3.2-12.7l-6.6-2.1l-4,25.4
	l0.8-0.4l0,0c2.3-1.3,4.1-3.2,5.1-5.5C-507.1,214.6-506.6,213-506.2,211.3z"/>
<path class="st2" d="M-157.3,63.4c-1.1,4.7-25.2,8.5-54.7,8.5s-53.6-3.8-54.7-8.5H-157.3z"/>
<path class="st3" d="M-233.4,284.3L-233.4,284.3c1,5.5,7.3,8.8,13.7,7.3l37.1-8.5c3.9-0.9,6.3-4.8,5.6-8.8l0,0
	c-0.7-4-4.3-6.8-8.3-6.3l-37.7,4.8C-229.6,273.6-234.4,278.8-233.4,284.3z"/>
<path class="st3" d="M-242.3,268.4L-242.3,268.4c0.8,4.7,7.1,7.4,13.5,5.9l37.1-8.3c3.9-0.9,6.4-4.3,5.8-7.7l0,0
	c-0.6-3.4-4.2-5.8-8.1-5.2l-37.7,5.1C-238.2,259-243.2,263.7-242.3,268.4z"/>
<path class="st3" d="M-250.3,254.8L-250.3,254.8c0.7,4,6.9,6.1,13.2,4.7l37.1-8c3.9-0.8,6.5-3.8,5.9-6.7l0,0c-0.5-2.9-4-4.8-7.9-4.2
	l-37.6,5.3C-246,246.7-251,250.8-250.3,254.8z"/>
<path class="st3" d="M-180.3-25.1h12.2c1.4,0,2.4,1.3,2.1,2.7l-27.4,103.1c-2.4,9.2-1.9,18.8,1.6,27.7l4.1,10.5
	C-218.8,95.9-189.8,2.7-180.3-25.1z"/>
<path class="st4" d="M-259.6,218.6c0.8-39.2,5.2-77.9,14.6-115.9c0.4-2.8,1.1-5.6,2.3-8.2l3-6.7c0.1-0.3,0.2-0.7,0.2-1l-5.7-109.7
	c-0.1-1.2,0.9-2.3,2.1-2.3h62.7c-9.5,27.8-38.5,120.9-7.4,143.9l4.2,10.8l11.3,28.9c0.5,1.2,0.9,2.5,1.1,3.8l9.9,49.9l10.3,45.7
	c0.1,0.2,0.2,0.5,0.3,0.7c0.8,1.3,3.8,6.8-1.4,12.6c-3,3.4-7,2-10.7-0.6c-3.9-2.8-7-6.6-9-11.1l-19.4-43.2l-22.1,4.2
	c-1.3,0.2-2,1.5-1.6,2.8c2.5,7.6,10.1,32.3,10.8,48.2c0.2,4.4,0.2,8.2-0.1,10.8c-0.1,0.8,0.2,1.6,0.9,2l28.9,17
	c3.8,2.7,3.4,8.9-0.8,10.9c-2.2,1.1-5.4,1.9-10,2c-5.9,0.2-22-5.9-26.9-9.2c-0.1,0-0.1-0.1-0.2-0.1l-22.5-11.4
	c-2.4-1.2-4.2-3.4-5.1-6l-19.1-58.5C-259.7,225.5-260.1,222-259.6,218.6z"/>
<path class="st5" d="M-249.2,212.4l-1.2,10.7c-0.3,2.3,0.4,4.7,1.9,6.5l5.2,6.3l19.5,56.8c0,0,12.3,13.4,17.1,14.7"/>
<path class="st6" d="M-149.3,261.5c0.1,0.3,0.1,0.6,0.2,0.9c0.2,2.6-0.7,5.1-3.1,6l0,0c-2.6,1-5.5-0.3-6.5-2.9l-1.4-3.6l9.5-3.6
	C-150.1,259.4-149.5,260.5-149.3,261.5z"/>
<rect x="-266.7" y="54.5" class="st2" width="109.4" height="9"/>
<rect x="-266.8" y="56.3" class="st7" width="109.6" height="1"/>
<rect x="-266.8" y="60.2" class="st7" width="109.6" height="1"/>
<path class="st18" d="M-439.4,230.3l4.9-36.5c0,0,6.6-13.5,3.3-21.3"/>
<path class="st9" d="M-310,195.5"/>
<path class="st18" d="M-464.5,264.4c0,0,16.3-39.2,16.8-72.7c0-1.7,0.5-3.4,1.3-4.8c1.8-3.2,4.9-9.9,4-18.9"/>
<path class="st10" d="M-451.8,105.3c-15.6,0-28.5-5.6-31-13.3l0.7-1l-0.7,1c-0.2-0.5-0.3-0.9-0.3-1.4c-0.9-5.9,4.4-10.8,7.7-13.1
	c6.4-4.7,15.5-7.8,25.5-8.9c2.4-0.3,4.8-0.4,7.2-0.4c16.6,0,30.1,6.3,31.3,14.7c0.9,5.9-4.4,10.8-7.7,13.1
	c-2.9,2.1-6.3,3.9-10.2,5.4l-0.2-2.8l0.2,2.8c-4.6,1.7-9.8,3-15.4,3.5C-447,105.2-449.4,105.3-451.8,105.3z"/>
<g>
	<path class="st2" d="M-290.8,71.3c0.1,0,0.3,0,0.4,0l27.5-6.1c1.1-0.2,1.8-1.3,1.5-2.4c-0.2-1.1-1.3-1.8-2.4-1.5l-27.5,6.1
		c-1.1,0.2-1.8,1.3-1.5,2.4C-292.5,70.6-291.7,71.3-290.8,71.3z"/>
</g>
<g>
	<path class="st2" d="M-370.4,86c1,0,1.9-0.8,2-1.8c0.1-1.1-0.7-2.1-1.8-2.2l-23.2-2c-1.1-0.1-2.1,0.7-2.2,1.8
		c-0.1,1.1,0.7,2.1,1.8,2.2l23.2,2C-370.5,86-370.4,86-370.4,86z"/>
</g>
<g>
	<g>
		<path class="st2" d="M-316.4,82.6l-2.2-5.6c-1.4-3.6,0.9-7.9,5-9.5l19.7-7.7c4.2-1.6,8.7,0,10.1,3.6l2.2,5.6
			c1.4,3.6-0.9,7.9-5,9.5l-19.7,7.7C-310.5,87.8-315,86.2-316.4,82.6z M-312.5,70.1c-2.5,1-3.9,3.5-3,5.7l2.2,5.6
			c0.8,2.2,3.6,3.1,6.1,2.2l19.7-7.7c2.5-1,3.9-3.5,3-5.7l-2.2-5.6c-0.8-2.2-3.6-3.1-6.1-2.2L-312.5,70.1z"/>
	</g>
</g>
<g>
	<g>
		<path class="st2" d="M-377.8,85.8l0.7-5.9c0.4-3.8,5-6.5,10.2-5.9l24.5,2.7c5.2,0.6,9.1,4.2,8.6,8l-0.7,5.9
			c-0.4,3.8-5,6.5-10.2,5.9l-24.5-2.7C-374.4,93.2-378.3,89.6-377.8,85.8z M-367.3,76.7c-3.1-0.3-5.9,1.2-6.1,3.6l-0.7,5.9
			c-0.3,2.3,2.1,4.5,5.2,4.8l24.5,2.7c3.1,0.3,5.9-1.2,6.1-3.6l0.7-5.9c0.3-2.3-2.1-4.5-5.2-4.8L-367.3,76.7z"/>
	</g>
</g>
<g>
	<g>
		<path class="st2" d="M-344,88.9l-0.7-2.5c-0.4-1.6,2.8-3.9,7.1-5l20.6-5.5c4.4-1.2,8.3-0.8,8.7,0.8l0.7,2.5c0.4,1.6-2.8,3.9-7.1,5
			l-20.6,5.5C-339.7,90.8-343.6,90.5-344,88.9z M-337.2,82.6c-2.6,0.7-4.5,2.1-4.3,3l0.7,2.5c0.3,1,2.6,1.2,5.2,0.5L-315,83
			c2.6-0.7,4.5-2.1,4.3-3l-0.7-2.5c-0.3-1-2.6-1.2-5.2-0.5L-337.2,82.6z"/>
	</g>
</g>
<path class="st19" d="M-490.1,103l10-14.9c3.3-4.9,4.2-11,2.5-16.7l-26.6-88.7c-0.4-1.2,0.5-2.5,1.7-2.7l3.6-0.5l25.4,101.2
	C-473.5,80.7-476.7,93.6-490.1,103z"/>
<path class="st7" d="M-450.8,60.3c16.5-1.8,31.6,2,39.8,8.9l22.5-1.1l1.2,24.5l-22.4,1.1c-4.3,4.7-11,8.7-19.1,11.4l-0.5-6.2
	c3.8-1.4,7.3-3.2,10.2-5.4c3.2-2.4,8.5-7.2,7.7-13.1c-1.2-8.4-14.7-14.7-31.3-14.7c-2.4,0-4.8,0.1-7.2,0.4
	c-10.1,1.1-19.1,4.2-25.5,8.9c-3.2,2.4-8.5,7.2-7.7,13.1c0.1,0.5,0.2,1,0.3,1.4l-4.2,6.3c-1.6-2.1-2.6-4.5-3-7
	C-491.9,75.6-474.4,62.8-450.8,60.3z"/>
<path class="st2" d="M-450.8,62.7c16.5-1.8,31.6,2,39.8,8.9l22.5-1.1l1.2,24.5l-22.4,1.1c-4.3,4.7-11,8.7-19.1,11.4l-0.5-6.2
	c3.8-1.4,7.3-3.2,10.2-5.4c3.2-2.4,8.5-7.2,7.7-13.1c-1.2-8.4-14.7-14.7-31.3-14.7c-2.4,0-4.8,0.1-7.2,0.4
	c-10.1,1.1-19.1,4.2-25.5,8.9c-3.2,2.4-8.5,7.2-7.7,13.1c0.1,0.5,0.2,1,0.3,1.4l-4.2,6.3c-1.6-2.1-2.6-4.5-3-7
	C-491.9,78-474.4,65.2-450.8,62.7z"/>
<linearGradient id="SVGID_00000155861872958431968860000008706924313829191100_" gradientUnits="userSpaceOnUse" x1="-769.5743" y1="378.3047" x2="-705.0743" y2="378.3047" gradientTransform="matrix(-1 0 0 -1 -914.2491 676)">
	<stop  offset="0" style="stop-color:#93673A"/>
	<stop  offset="0.9955" style="stop-color:#704E2D"/>
</linearGradient>
<path style="fill:url(#SVGID_00000155861872958431968860000008706924313829191100_);" d="M-193.5,239.8
	c9.9,9.5,41.9,38.7,48.9,108.5l-22.1,11.5c0,0,0.3-82.7-42-118.4c-0.2-0.1-0.3-0.3-0.4-0.5c0-0.3,0.2-2.1,2.4-3.7
	c2.6-2,6.2-2.1,9.1-0.5C-196,237.7-194.4,239-193.5,239.8z"/>
<linearGradient id="SVGID_00000025400314929815690340000011563380355260265914_" gradientUnits="userSpaceOnUse" x1="-730.5794" y1="257.4202" x2="-512.1794" y2="257.4202" gradientTransform="matrix(-1 0 0 -1 -914.2491 676)">
	<stop  offset="0" style="stop-color:#93673A"/>
	<stop  offset="0.9955" style="stop-color:#704E2D"/>
</linearGradient>
<polygon style="fill:url(#SVGID_00000025400314929815690340000011563380355260265914_);" points="-183.7,417.9 -183.7,533 
	-402.1,409.6 -401.2,304.2 "/>
<polygon class="st2" points="-158.7,468.9 -158.7,487 -195,467.5 -194.8,450.9 "/>
<polygon class="st2" points="-258.5,414.7 -258.5,432.9 -294.8,413.4 -294.7,396.7 "/>
<g>
	
		<linearGradient id="SVGID_00000036933216316594059540000013883567837756163472_" gradientUnits="userSpaceOnUse" x1="-5492.6689" y1="-1030.0295" x2="-5466.8623" y2="-1030.0295" gradientTransform="matrix(-0.3017 0.9534 -0.9024 -0.2855 -3081.136 5101.5229)">
		<stop  offset="0" style="stop-color:#808080"/>
		<stop  offset="0.5142" style="stop-color:#E6E7E8"/>
		<stop  offset="1" style="stop-color:#808080"/>
	</linearGradient>
	<path style="fill:url(#SVGID_00000036933216316594059540000013883567837756163472_);" d="M-513.2,153l25.7,8.1
		c6.4,2,9.9,9.2,7.8,16l0,0c-2.1,6.8-9.1,10.7-15.5,8.6l-25.7-8.1L-513.2,153z"/>
	
		<linearGradient id="SVGID_00000106110954866432781590000012516050030440907675_" gradientUnits="userSpaceOnUse" x1="-5492.6792" y1="-1008.7567" x2="-5466.8149" y2="-1008.7567" gradientTransform="matrix(-0.3017 0.9534 -0.9024 -0.2855 -3081.136 5101.5229)">
		<stop  offset="0" style="stop-color:#808080"/>
		<stop  offset="0.9955" style="stop-color:#E6E7E8"/>
	</linearGradient>
	<path style="fill:url(#SVGID_00000106110954866432781590000012516050030440907675_);" d="M-521.5,177.5c4.1,1.3,9.1-3.2,11.2-10
		c2.2-6.8,0.6-13.4-3.4-14.7c-4.1-1.3-9.1,3.2-11.2,10C-527.1,169.7-525.5,176.2-521.5,177.5z"/>
	
		<linearGradient id="SVGID_00000052074518334801953240000007036585007185119634_" gradientUnits="userSpaceOnUse" x1="860.7268" y1="3.2223" x2="860.7268" y2="-16.1916" gradientTransform="matrix(-0.9128 -0.2505 0.2685 -0.9632 253.928 371.2914)">
		<stop  offset="0" style="stop-color:#9B2A21"/>
		<stop  offset="0.1279" style="stop-color:#A02A21"/>
		<stop  offset="0.3288" style="stop-color:#AC291F"/>
		<stop  offset="0.5168" style="stop-color:#BB281C"/>
		<stop  offset="0.6575" style="stop-color:#B9281D"/>
		<stop  offset="0.7763" style="stop-color:#B3291D"/>
		<stop  offset="0.8871" style="stop-color:#AA291F"/>
		<stop  offset="0.9925" style="stop-color:#9D2A21"/>
		<stop  offset="1" style="stop-color:#9B2A21"/>
	</linearGradient>
	<path style="fill:url(#SVGID_00000052074518334801953240000007036585007185119634_);" d="M-542.8,166.5c2.8-1.8,2.3-8.3-1.1-14.5
		c-1.9-3.4-4.3-6.1-6.6-7.5v-0.1l31.7,10c4.9,1.6,7.6,7.1,5.9,12.2l0,0c-1.6,5.2-7,8.1-11.9,6.6l-19.9-6.3
		C-544,167-543.3,166.8-542.8,166.5z"/>
	<path class="st25" d="M-546.6,166.2c-2.4-1.3-5-4-7-7.7c-0.2-0.3-0.3-0.6-0.5-0.9c-3-5.9-3.4-11.9-0.7-13.6c1.3-0.8,3-0.5,4.8,0.6
		c2.3,1.4,4.7,4,6.6,7.5c3.5,6.2,4,12.7,1.1,14.5c-0.5,0.3-1.2,0.5-1.9,0.5C-544.8,167-545.7,166.7-546.6,166.2z"/>
</g>
</svg>
