<?xml version="1.0" encoding="utf-8"?>
<!-- Generator: Adobe Illustrator 27.7.0, SVG Export Plug-In . SVG Version: 6.00 Build 0)  -->
<svg version="1.1" id="레이어_1" xmlns="http://www.w3.org/2000/svg" xmlns:xlink="http://www.w3.org/1999/xlink" x="0px"
	 y="0px" viewBox="0 0 858.9 676.6" style="enable-background:new 0 0 858.9 676.6;" xml:space="preserve">
<style type="text/css">
	.st0{stroke:#FAB8A1;stroke-miterlimit:10;}
	.st1{fill:#808080;}
	.st2{fill:#FFFFFF;}
	.st3{fill:#D6656E;}
	.st4{fill:#616262;}
	.st5{clip-path:url(#SVGID_00000170966589873631374860000016943792013557668000_);fill:#616262;}
	.st6{clip-path:url(#SVGID_00000114057835370106132960000002124197864195767209_);fill:#616262;}
	.st7{clip-path:url(#SVGID_00000159428086773501444690000003295721049528853423_);fill:#616262;}
	.st8{clip-path:url(#SVGID_00000008828365730263603100000013590199478325276564_);fill:#616262;}
	.st9{clip-path:url(#SVGID_00000061471149901087910690000010584031241742775448_);fill:#616262;}
	.st10{clip-path:url(#SVGID_00000083066618467897538270000012673344180757289662_);fill:#616262;}
	.st11{clip-path:url(#SVGID_00000015325191298134891130000010645433214978587780_);fill:#616262;}
	.st12{clip-path:url(#SVGID_00000079473947984900270670000012368588776377352611_);}
	.st13{clip-path:url(#SVGID_00000121246982204162301380000008926497940402268315_);}
	.st14{clip-path:url(#SVGID_00000173129192318420930750000007576700216138441377_);}
	.st15{clip-path:url(#SVGID_00000151510973186369398990000009415250104050648488_);}
	.st16{clip-path:url(#SVGID_00000063629631659133352430000012165846250815228307_);}
	.st17{clip-path:url(#SVGID_00000141434374550157583980000017208913125909723327_);}
	.st18{clip-path:url(#SVGID_00000143576187082718018920000003182182121861818551_);}
	.st19{clip-path:url(#SVGID_00000027577117521258665790000011118624259424606122_);}
	.st20{fill:#5C5D60;}
	.st21{fill:#D8AAA4;}
	.st22{fill:#EFB7AD;}
	.st23{fill:#D7D6D6;}
	.st24{fill:none;stroke:#5C5D60;stroke-miterlimit:10;}
	.st25{fill:#818181;}
	.st26{fill:#704F2D;}
	.st27{fill:url(#SVGID_00000061439400376907747810000012959229797301392304_);}
	.st28{fill:#D29D92;}
	.st29{fill:#FAB8A1;}
	.st30{fill:none;stroke:#C68A78;stroke-miterlimit:10;}
	.st31{fill:#FDDDD1;}
	.st32{fill:#484848;}
	.st33{fill:url(#SVGID_00000164486843494775636020000018088571963105102489_);}
	.st34{fill:url(#SVGID_00000065036177333342317240000006630658797338146717_);}
</style>
<path class="st0" d="M358.3,258.5"/>
<g>
	<g>
		<path class="st1" d="M201.7,137.2l-3.9-6.3c-2.5-4.1-0.8-9.8,4-12.7l22.2-13.8c4.7-2.9,10.6-2,13.2,2.1l3.9,6.3
			c2.5,4.1,0.8,9.8-4,12.7l-22.2,13.8C210.1,142.3,204.2,141.3,201.7,137.2z M203.6,121.2c-2.8,1.8-3.9,5.2-2.4,7.6l3.9,6.3
			c1.5,2.4,5.1,3,7.9,1.2l22.2-13.8c2.8-1.8,3.9-5.2,2.4-7.6l-3.9-6.3c-1.5-2.4-5.1-3-7.9-1.2L203.6,121.2z"/>
	</g>
</g>
<g>
	<g>
		<path class="st1" d="M261.1,111.8l3.2-6.7c2.1-4.3,7.9-5.9,12.9-3.5l23.6,11.4c5,2.4,7.4,7.9,5.3,12.2l-3.2,6.7
			c-2.1,4.3-7.9,5.9-12.9,3.5l-23.6-11.4C261.4,121.7,259.1,116.2,261.1,111.8z M275.7,104.8c-3-1.4-6.5-0.5-7.7,2.1l-3.2,6.7
			c-1.3,2.6,0.2,5.9,3.2,7.3l23.6,11.4c3,1.4,6.5,0.5,7.7-2.1l3.2-6.7c1.3-2.6-0.2-5.9-3.2-7.3L275.7,104.8z"/>
	</g>
</g>
<g>
	<g>
		<path class="st1" d="M127.5,155.2l-0.6-7.4c-0.4-4.8,4.6-9.1,11.1-9.6l30.5-2.3c6.5-0.5,12,3,12.4,7.8l0.6,7.4
			c0.4,4.8-4.6,9.1-11.1,9.6l-30.5,2.3C133.4,163.5,127.9,160,127.5,155.2z M138.3,141.8c-3.9,0.3-6.9,2.9-6.6,5.7l0.6,7.4
			c0.2,2.9,3.5,5,7.4,4.7l30.5-2.3c3.9-0.3,6.9-2.9,6.6-5.7l-0.6-7.4c-0.2-2.9-3.5-5-7.4-4.7L138.3,141.8z"/>
	</g>
</g>
<g>
	<g>
		<path class="st1" d="M169.5,151.3l-1.4-2.9c-0.9-1.8,2.5-5.3,7.5-7.8l23.8-11.5c5.1-2.4,9.9-2.9,10.8-1.1l1.4,2.9
			c0.9,1.8-2.5,5.3-7.5,7.8l-23.8,11.5C175.2,152.6,170.4,153.1,169.5,151.3z M176.3,142c-3,1.5-5.1,3.5-4.5,4.7l1.4,2.9
			c0.5,1.1,3.4,0.8,6.5-0.6l23.8-11.5c3-1.5,5.1-3.5,4.5-4.7l-1.4-2.9c-0.5-1.1-3.4-0.8-6.5,0.6L176.3,142z"/>
	</g>
</g>
<g>
	<g>
		<path class="st1" d="M227.9,119.7l-0.1-3.2c-0.1-2.1,4.4-3.9,10-4.1l26.4-0.9c5.6-0.2,10.2,1.3,10.3,3.4l0.1,3.2
			c0.1,2.1-4.4,3.9-10,4.1l-26.4,0.9C232.6,123.2,228,121.7,227.9,119.7z M237.9,113.9c-3.4,0.1-6.1,1.2-6,2.4l0.1,3.2
			c0,1.2,2.8,2.1,6.2,2l26.4-0.9c3.4-0.1,6.1-1.2,6-2.4l-0.1-3.2c0-1.2-2.8-2.1-6.2-2L237.9,113.9z"/>
	</g>
</g>
<g>
	<g>
		<path class="st1" d="M-29.5,184.3l-0.1-3.2c-0.1-2.1,4.4-3.9,10-4.1l26.4-0.9c5.6-0.2,10.2,1.3,10.3,3.4l0.1,3.2
			c0.1,2.1-4.4,3.9-10,4.1l-26.4,0.9C-24.8,187.9-29.4,186.4-29.5,184.3z M-19.5,178.6c-3.4,0.1-6.1,1.2-6,2.4l0.1,3.2
			c0,1.2,2.8,2.1,6.2,2l26.4-0.9c3.4-0.1,6.1-1.2,6-2.4l-0.1-3.2c0-1.2-2.8-2.1-6.2-2L-19.5,178.6z"/>
	</g>
</g>
<g>
	<g>
		<path class="st1" d="M291.5,128.9l-0.1-3.2c-0.1-2.1,4.4-3.9,10-4.1l26.4-0.9c5.6-0.2,10.2,1.3,10.3,3.4l0.1,3.2
			c0.1,2.1-4.4,3.9-10,4.1l-26.4,0.9C296.2,132.5,291.5,131,291.5,128.9z M301.5,123.2c-3.4,0.1-6.1,1.2-6,2.4l0.1,3.2
			c0,1.2,2.8,2.1,6.2,2l26.4-0.9c3.4-0.1,6.1-1.2,6-2.4l-0.1-3.2c0-1.2-2.8-2.1-6.2-2L301.5,123.2z"/>
	</g>
</g>
<g>
	<g>
		<path class="st1" d="M10.7,195.3l-5.3-5.2c-3.4-3.4-3-9.3,0.9-13.3l18.4-18.6c3.9-3.9,9.9-4.4,13.3-1l5.3,5.2
			c3.4,3.4,3,9.3-0.9,13.3L24,194.3C20.1,198.2,14.2,198.7,10.7,195.3z M8.9,179.2c-2.3,2.4-2.6,5.9-0.5,8l5.3,5.2
			c2,2,5.6,1.8,8-0.6L40,173.2c2.3-2.4,2.6-5.9,0.5-8l-5.3-5.2c-2-2-5.6-1.8-8,0.6L8.9,179.2z"/>
	</g>
</g>
<g>
	<g>
		<path class="st1" d="M62.7,156.8l1.6-7.2c1-4.7,6.3-7.5,11.7-6.4l25.6,5.6c5.4,1.2,9,6,8,10.7l-1.6,7.2c-1,4.7-6.3,7.5-11.7,6.4
			l-25.6-5.6C65.2,166.3,61.7,161.5,62.7,156.8z M75.2,146.7c-3.3-0.7-6.4,1-7,3.8l-1.6,7.2c-0.6,2.8,1.5,5.7,4.8,6.4l25.6,5.6
			c3.3,0.7,6.4-1,7-3.8l1.6-7.2c0.6-2.8-1.5-5.7-4.8-6.4L75.2,146.7z"/>
	</g>
</g>
<g>
	<g>
		<path class="st1" d="M32.1,172.1l-0.8-3.1c-0.5-2,3.4-4.8,8.8-6.3l25.5-7c5.4-1.5,10.2-1.1,10.8,0.9l0.8,3.1
			c0.5,2-3.4,4.8-8.8,6.3l-25.5,7C37.5,174.5,32.7,174.1,32.1,172.1z M40.5,164.3c-3.2,0.9-5.6,2.6-5.3,3.8l0.8,3.1
			c0.3,1.2,3.2,1.4,6.5,0.5l25.5-7c3.2-0.9,5.6-2.6,5.3-3.8l-0.8-3.1c-0.3-1.2-3.2-1.4-6.5-0.5L40.5,164.3z"/>
	</g>
</g>
<g>
	<g>
		<path class="st1" d="M96.2,166.5l-0.8-3.1c-0.5-2,3.4-4.8,8.8-6.3l25.5-7c5.4-1.5,10.2-1.1,10.8,0.9l0.8,3.1
			c0.5,2-3.4,4.8-8.8,6.3l-25.5,7C101.5,168.8,96.7,168.4,96.2,166.5z M104.5,158.6c-3.2,0.9-5.6,2.6-5.3,3.8l0.8,3.1
			c0.3,1.2,3.2,1.4,6.5,0.5l25.5-7c3.2-0.9,5.6-2.6,5.3-3.8l-0.8-3.1c-0.3-1.2-3.2-1.4-6.5-0.5L104.5,158.6z"/>
	</g>
</g>
<g>
	<g>
		<path class="st1" d="M382.4,95.9l-1.7-7.2c-1.1-4.7,3.1-9.7,9.4-11.2l29.8-7.1c6.3-1.5,12.3,1.1,13.5,5.7l1.7,7.2
			c1.1,4.7-3.1,9.7-9.4,11.2l-29.8,7.1C389.5,103.1,383.5,100.5,382.4,95.9z M390.9,80.8c-3.8,0.9-6.3,3.9-5.6,6.7l1.7,7.2
			c0.7,2.8,4.3,4.4,8.1,3.4l29.8-7.1c3.8-0.9,6.3-3.9,5.6-6.7l-1.7-7.2c-0.7-2.8-4.3-4.4-8.1-3.4L390.9,80.8z"/>
	</g>
</g>
<g>
	<g>
		<path class="st1" d="M420.6,82.8l0.4-3.1c0.3-2,5-3.1,10.5-2.4l26.2,3.3c5.6,0.7,9.9,2.9,9.6,5l-0.4,3.1c-0.3,2-5,3.1-10.5,2.4
			l-26.2-3.3C424.7,87.1,420.4,84.9,420.6,82.8z M431.4,78.7c-3.3-0.4-6.2,0.2-6.3,1.5l-0.4,3.1c-0.2,1.2,2.4,2.6,5.8,3l26.2,3.3
			c3.3,0.4,6.2-0.2,6.3-1.5l0.4-3.1c0.2-1.2-2.4-2.6-5.8-3L431.4,78.7z"/>
	</g>
</g>
<g>
	<g>
		<path class="st1" d="M321.2,126.9l-0.2-7.4c-0.1-4.8,5-8.8,11.5-9l30.6-0.8c6.5-0.2,11.9,3.6,12,8.4l0.2,7.4c0.1,4.8-5,8.8-11.5,9
			l-30.6,0.8C326.7,135.5,321.3,131.7,321.2,126.9z M332.6,113.9c-3.9,0.1-7,2.5-6.9,5.4l0.2,7.4c0.1,2.9,3.3,5.1,7.2,5l30.6-0.8
			c3.9-0.1,7-2.5,6.9-5.4l-0.2-7.4c-0.1-2.9-3.3-5.1-7.2-5L332.6,113.9z"/>
	</g>
</g>
<g>
	<g>
		<path class="st1" d="M366.4,126.7l-2.5-1.9c-1.6-1.2-0.2-5.9,3.2-10.3l16.1-21c3.4-4.4,7.5-7,9.1-5.8l2.5,1.9
			c1.6,1.2,0.2,5.9-3.2,10.3l-16.1,21C372.1,125.4,368,128,366.4,126.7z M368.3,115.4c-2,2.7-2.9,5.4-1.9,6.2l2.5,1.9
			c1,0.7,3.4-0.8,5.5-3.5l16.1-21c2-2.7,2.9-5.4,1.9-6.2l-2.5-1.9c-1-0.7-3.4,0.8-5.5,3.5L368.3,115.4z"/>
	</g>
</g>
<g>
	<g>
		<path class="st1" d="M536,66.6l26.2,1c5.5,0.2,9.9,4.3,9.7,9.1l-0.3,7.4c-0.2,4.8-4.9,8.5-10.4,8.3l-26.2-1
			c-5.5-0.2-9.9-4.3-9.7-9.1l0.3-7.4C525.8,70.1,530.5,66.4,536,66.6z M561.4,89c3.3,0.1,6.1-2.1,6.2-5l0.3-7.4
			c0.1-2.9-2.5-5.3-5.8-5.5l-26.2-1c-3.3-0.1-6.1,2.1-6.2,5l-0.3,7.4c-0.1,2.9,2.5,5.3,5.8,5.5L561.4,89z"/>
	</g>
</g>
<g>
	<g>
		<path class="st1" d="M588.4,54.4l14.9-21.6c3.2-4.6,8.9-6.1,12.9-3.3l6.1,4.2c4,2.7,4.6,8.7,1.4,13.2l-14.9,21.6
			c-3.2,4.6-8.9,6.1-12.9,3.3l-6.1-4.2C585.9,64.9,585.2,59,588.4,54.4z M620.9,45c1.9-2.7,1.5-6.3-0.9-7.9l-6.1-4.2
			c-2.4-1.6-5.8-0.7-7.7,2l-14.9,21.6c-1.9,2.7-1.5,6.3,0.9,7.9l6.1,4.2c2.4,1.6,5.8,0.7,7.7-2L620.9,45z"/>
	</g>
</g>
<g>
	<g>
		<path class="st1" d="M459.9,76.7l27.6-13.1c5.9-2.8,12.3-1.5,14.4,2.8l3.2,6.7c2.1,4.3-1,10.1-6.9,12.9l-27.6,13.1
			c-5.9,2.8-12.3,1.5-14.4-2.8l-3.2-6.7C450.9,85.3,454,79.5,459.9,76.7z M496.7,82.9c3.5-1.7,5.4-5.1,4.1-7.7l-3.2-6.7
			c-1.2-2.6-5.1-3.4-8.6-1.7l-27.6,13.1c-3.5,1.7-5.4,5.1-4.1,7.7l3.2,6.7c1.2,2.6,5.1,3.4,8.6,1.7L496.7,82.9z"/>
	</g>
</g>
<g>
	<g>
		<path class="st1" d="M500.6,74.2l26.4-1.8c5.6-0.4,10.3,1,10.4,3l0.2,3.2c0.1,2-4.3,4-9.9,4.4l-26.4,1.8c-5.6,0.4-10.3-1-10.4-3
			l-0.2-3.2C490.5,76.6,495,74.6,500.6,74.2z M527.6,81.5c3.4-0.2,6-1.4,5.9-2.6l-0.2-3.2c-0.1-1.2-2.9-2-6.2-1.8l-26.4,1.8
			c-3.4,0.2-6,1.4-5.9,2.6l0.2,3.2c0.1,1.2,2.9,2,6.2,1.8L527.6,81.5z"/>
	</g>
</g>
<g>
	<g>
		<path class="st1" d="M564.3,69.3L587.8,57c5-2.6,9.8-3.2,10.7-1.4l1.5,2.8c1,1.8-2.3,5.4-7.3,8l-23.4,12.3
			c-5,2.6-9.8,3.2-10.7,1.4l-1.5-2.8C556.1,75.5,559.4,71.9,564.3,69.3z M592,65c3-1.6,4.9-3.7,4.4-4.8l-1.5-2.8
			c-0.6-1.1-3.5-0.7-6.4,0.9L565,70.6c-3,1.6-4.9,3.7-4.4,4.8l1.5,2.8c0.6,1.1,3.5,0.7,6.4-0.9L592,65z"/>
	</g>
</g>
<g>
	<path class="st2" d="M288.6,374.8c-0.4,3-2.3,43.2-2.3,43.2l48.6,19.4l29.6-16.8l3-40.7l-70.1-11.5L288.6,374.8z"/>
	<polyline class="st3" points="308.8,378.9 308.8,383.2 325.9,395.6 334.3,390.4 335.5,385.5 310,377.1 308.6,379.5 308.7,379.7 
		310.9,381.4 	"/>
	<g>
		<g>
			<path id="XMLID_00000006683778280894843800000009606652453253386425_" class="st4" d="M302.1,315.4c0,0-84.1,32.6-103.6,46.9
				c0,0-14.6,201,23.3,253.6l92.1,51.5L302.1,315.4z"/>
		</g>
		<g>
			<g>
				<defs>
					<path id="SVGID_1_" d="M302.1,315.4c0,0-84.1,32.6-103.6,46.9c0,0-14.6,201,23.3,253.6l92.1,51.5L302.1,315.4z"/>
				</defs>
				<clipPath id="SVGID_00000115507942167586050210000010359267335300033467_">
					<use xlink:href="#SVGID_1_"  style="overflow:visible;"/>
				</clipPath>
				<path style="clip-path:url(#SVGID_00000115507942167586050210000010359267335300033467_);fill:#616262;" d="M-132.2,159
					c-10,67.8-12,136.7-6,204.8"/>
			</g>
		</g>
		<g>
			<g>
				<defs>
					<path id="SVGID_00000075122928984908466100000012131250997183584160_" d="M302.1,315.4c0,0-84.1,32.6-103.6,46.9
						c0,0-14.6,201,23.3,253.6l92.1,51.5L302.1,315.4z"/>
				</defs>
				<clipPath id="SVGID_00000059276013072815399420000001315627399451181754_">
					<use xlink:href="#SVGID_00000075122928984908466100000012131250997183584160_"  style="overflow:visible;"/>
				</clipPath>
				<path style="clip-path:url(#SVGID_00000059276013072815399420000001315627399451181754_);fill:#616262;" d="M-176.5,282.3
					c-8.5,82.5-20.4,164.7-35.5,246.2"/>
			</g>
		</g>
		<g>
			<g>
				<defs>
					<path id="SVGID_00000107585203396572567030000003715083865401421697_" d="M302.1,315.4c0,0-84.1,32.6-103.6,46.9
						c0,0-14.6,201,23.3,253.6l92.1,51.5L302.1,315.4z"/>
				</defs>
				<clipPath id="SVGID_00000018917509341607815500000017067369762004581251_">
					<use xlink:href="#SVGID_00000107585203396572567030000003715083865401421697_"  style="overflow:visible;"/>
				</clipPath>
				<path style="clip-path:url(#SVGID_00000018917509341607815500000017067369762004581251_);fill:#616262;" d="M-204.9,180.1
					c2.6,36.3,5,72.4,7.6,108.7"/>
			</g>
		</g>
		<g>
			<g>
				<defs>
					<path id="SVGID_00000008119281266083941370000009450401776260376765_" d="M302.1,315.4c0,0-84.1,32.6-103.6,46.9
						c0,0-14.6,201,23.3,253.6l92.1,51.5L302.1,315.4z"/>
				</defs>
				<clipPath id="SVGID_00000070119928320394088570000013694616635093577144_">
					<use xlink:href="#SVGID_00000008119281266083941370000009450401776260376765_"  style="overflow:visible;"/>
				</clipPath>
				<path style="clip-path:url(#SVGID_00000070119928320394088570000013694616635093577144_);fill:#616262;" d="M-172.5,188.8
					c18.7,24.6,32.5,52.5,44.3,81c12.3,29.4,22.8,61.2,17.4,92.5"/>
			</g>
		</g>
		<g>
			<g>
				<defs>
					<path id="SVGID_00000047034070010862278390000000670733613997859247_" d="M302.1,315.4c0,0-84.1,32.6-103.6,46.9
						c0,0-14.6,201,23.3,253.6l92.1,51.5L302.1,315.4z"/>
				</defs>
				<clipPath id="SVGID_00000032609352334030172680000017982073655890885818_">
					<use xlink:href="#SVGID_00000047034070010862278390000000670733613997859247_"  style="overflow:visible;"/>
				</clipPath>
				<path style="clip-path:url(#SVGID_00000032609352334030172680000017982073655890885818_);fill:#616262;" d="M2.6,239.2
					c-1.3,49.1-2.8,98.1-4.1,147.2"/>
			</g>
		</g>
		<g>
			<g>
				<defs>
					<path id="SVGID_00000000906730035809743320000003022989557552041131_" d="M302.1,315.4c0,0-84.1,32.6-103.6,46.9
						c0,0-14.6,201,23.3,253.6l92.1,51.5L302.1,315.4z"/>
				</defs>
				<clipPath id="SVGID_00000035521087987645443400000016077403753203990712_">
					<use xlink:href="#SVGID_00000000906730035809743320000003022989557552041131_"  style="overflow:visible;"/>
				</clipPath>
				<path style="clip-path:url(#SVGID_00000035521087987645443400000016077403753203990712_);fill:#616262;" d="M-2.1,304.1
					c-14.1,56.6-20.9,115.1-20.5,173.5"/>
			</g>
		</g>
		<g>
			<g>
				<defs>
					<path id="SVGID_00000089564048592928951800000015014125055740382354_" d="M302.1,315.4c0,0-84.1,32.6-103.6,46.9
						c0,0-14.6,201,23.3,253.6l92.1,51.5L302.1,315.4z"/>
				</defs>
				<clipPath id="SVGID_00000021118987184194877180000004575376701179210661_">
					<use xlink:href="#SVGID_00000089564048592928951800000015014125055740382354_"  style="overflow:visible;"/>
				</clipPath>
				<path style="clip-path:url(#SVGID_00000021118987184194877180000004575376701179210661_);fill:#616262;" d="M-2,226.9
					C-4.6,285-8.4,343.1-13.2,401"/>
			</g>
		</g>
		<g>
			<g>
				<defs>
					<path id="SVGID_00000088098566070536870340000017117093574705455529_" d="M302.1,315.4c0,0-84.1,32.6-103.6,46.9
						c0,0-14.6,201,23.3,253.6l92.1,51.5L302.1,315.4z"/>
				</defs>
				<clipPath id="SVGID_00000048487201182899082740000010834693898488694659_">
					<use xlink:href="#SVGID_00000088098566070536870340000017117093574705455529_"  style="overflow:visible;"/>
				</clipPath>
				<g style="clip-path:url(#SVGID_00000048487201182899082740000010834693898488694659_);">
					<path class="st4" d="M-130,168.5c-1.1,45.3,1.4,90.7,7.7,135.5"/>
				</g>
			</g>
		</g>
		<g>
			<g>
				<defs>
					<path id="SVGID_00000139973675210198804630000010827690386606772922_" d="M302.1,315.4c0,0-84.1,32.6-103.6,46.9
						c0,0-14.6,201,23.3,253.6l92.1,51.5L302.1,315.4z"/>
				</defs>
				<clipPath id="SVGID_00000152957785375037263120000015158963389866724494_">
					<use xlink:href="#SVGID_00000139973675210198804630000010827690386606772922_"  style="overflow:visible;"/>
				</clipPath>
				<g style="clip-path:url(#SVGID_00000152957785375037263120000015158963389866724494_);">
					<path class="st4" d="M-92.7,273.5c-6.2,52.3-0.8,105.9,15.7,155.9"/>
				</g>
			</g>
		</g>
		<g>
			<g>
				<defs>
					<path id="SVGID_00000129201660950026444690000017671357865580510108_" d="M302.1,315.4c0,0-84.1,32.6-103.6,46.9
						c0,0-14.6,201,23.3,253.6l92.1,51.5L302.1,315.4z"/>
				</defs>
				<clipPath id="SVGID_00000006705804644965420650000018199259482399304098_">
					<use xlink:href="#SVGID_00000129201660950026444690000017671357865580510108_"  style="overflow:visible;"/>
				</clipPath>
				<g style="clip-path:url(#SVGID_00000006705804644965420650000018199259482399304098_);">
					<path class="st4" d="M24.4,307.7C11.1,381,10.6,456.5,22.9,530"/>
				</g>
			</g>
		</g>
		<g>
			<g>
				<defs>
					<path id="SVGID_00000018934790922064606390000004510976705706147002_" d="M302.1,315.4c0,0-84.1,32.6-103.6,46.9
						c0,0-14.6,201,23.3,253.6l92.1,51.5L302.1,315.4z"/>
				</defs>
				<clipPath id="SVGID_00000044893857148764461370000004089690618897625225_">
					<use xlink:href="#SVGID_00000018934790922064606390000004510976705706147002_"  style="overflow:visible;"/>
				</clipPath>
				<g style="clip-path:url(#SVGID_00000044893857148764461370000004089690618897625225_);">
					<path class="st4" d="M62.7,385.1c-6.5,56.6-8.8,113.6-6.9,170.6"/>
				</g>
			</g>
		</g>
		<g>
			<g>
				<defs>
					<path id="SVGID_00000017510734057700808920000018404912548614815908_" d="M302.1,315.4c0,0-84.1,32.6-103.6,46.9
						c0,0-14.6,201,23.3,253.6l92.1,51.5L302.1,315.4z"/>
				</defs>
				<clipPath id="SVGID_00000137828529910083513070000005620997349771602313_">
					<use xlink:href="#SVGID_00000017510734057700808920000018404912548614815908_"  style="overflow:visible;"/>
				</clipPath>
				<g style="clip-path:url(#SVGID_00000137828529910083513070000005620997349771602313_);">
					<path class="st4" d="M216.2,331.7c-10.5,20.7-11.4,44.6-11.4,67.8c0.1,85.4,11.3,170.8,33.2,253.3"/>
				</g>
			</g>
		</g>
		<g>
			<g>
				<defs>
					<path id="SVGID_00000122720368216770124900000009013095717429552808_" d="M302.1,315.4c0,0-84.1,32.6-103.6,46.9
						c0,0-14.6,201,23.3,253.6l92.1,51.5L302.1,315.4z"/>
				</defs>
				<clipPath id="SVGID_00000095304401945195829400000008504136856477070732_">
					<use xlink:href="#SVGID_00000122720368216770124900000009013095717429552808_"  style="overflow:visible;"/>
				</clipPath>
				<g style="clip-path:url(#SVGID_00000095304401945195829400000008504136856477070732_);">
					<path class="st4" d="M224.9,340.4c-4.9,53.9,5.6,107.7,10.6,161.6c3.3,36.5,4.1,73.1,9.6,109.3c7,46.6,21.9,91.8,36.6,136.7"/>
				</g>
			</g>
		</g>
		<g>
			<g>
				<defs>
					<path id="SVGID_00000080197766913286469440000013563542302292258463_" d="M302.1,315.4c0,0-84.1,32.6-103.6,46.9
						c0,0-14.6,201,23.3,253.6l92.1,51.5L302.1,315.4z"/>
				</defs>
				<clipPath id="SVGID_00000106860074727986606390000007342098336917653651_">
					<use xlink:href="#SVGID_00000080197766913286469440000013563542302292258463_"  style="overflow:visible;"/>
				</clipPath>
				<g style="clip-path:url(#SVGID_00000106860074727986606390000007342098336917653651_);">
					<path class="st4" d="M258.2,315.8c-11.1,71.4-4.8,144.1-0.4,216.2c4.8,77.6,7.1,155.2,7.2,232.9"/>
				</g>
			</g>
		</g>
		<g>
			<g>
				<defs>
					<path id="SVGID_00000087397791286710128260000008684439400234848445_" d="M302.1,315.4c0,0-84.1,32.6-103.6,46.9
						c0,0-14.6,201,23.3,253.6l92.1,51.5L302.1,315.4z"/>
				</defs>
				<clipPath id="SVGID_00000062891638139541272060000015023248037239745195_">
					<use xlink:href="#SVGID_00000087397791286710128260000008684439400234848445_"  style="overflow:visible;"/>
				</clipPath>
				<g style="clip-path:url(#SVGID_00000062891638139541272060000015023248037239745195_);">
					<path class="st4" d="M279.1,309.2c-0.7,91.6,6,182.9,8.4,274.5c1.6,62.5,1.3,125.2-0.9,187.7"/>
				</g>
			</g>
		</g>
	</g>
	<path class="st20" d="M370,317.6l-4.7,41.8c-25,45.8-71.6,131.6-74.9,145l-19.9,52.3l38.7,111.8l21.3-1v0.2l95.8-44.2
		c41.9-49.3,43.1-250.9,43.1-250.9C451.3,356.6,370,317.6,370,317.6z"/>
	<path class="st21" d="M306.9,277.7l-1.4,10.7l18.8,7.8l19.7-13.5c0,0,1.4-12-1.9-12c-3.3-0.1-26.2-0.3-27.1,0
		C313.9,270.9,306.9,277.7,306.9,277.7z"/>
	<path class="st21" d="M420.5,195.5l-7.9-11.7l-5.3,10.9l1.2,3.2c-0.1-0.1-0.2-0.1-0.3-0.2c2.6,11.7-2.9,33.4-3,33.9
		c2.4-4,4.6-8.2,6.6-12.5c0.1-0.1,0.1-0.3,0.2-0.4c0.1-0.3,0.3-0.7,0.4-1c2.1-4.9,3.7-9.2,4.7-12.3c0.4-1.3,0.9-2.7,1.2-4.1
		L420.5,195.5z"/>
	<path class="st20" d="M237.6,115.2l-4.9-5.2l-3.4-6.6l6.6-8.4c0,0,7,3.4,7,3.6c0,0.2,1.5,7.4,1.5,7.4v7.7L237.6,115.2z"/>
	<path class="st20" d="M430.9,73c-7.4-7.4-17.1-12.2-27.2-12.6c-1-1.4-2.1-2.7-3-4.1c-0.1-0.2-0.2-0.3-0.4-0.4
		c-21.9-27.3-57.7-38-91.2-36.1c-19.7,1.1-38.9,5.9-57.6,12.4c-14,4.9-30.6,11-36.8,26.2c-7.9,19.2,6.4,38.3,18.3,51.8l-1.2-3.1
		l0.3-0.1l1.2,3.1c2,2.3,5,1.4,6.7-0.6c0.3-0.7,0.6-1.3,0.9-2c0.1-0.1,0.1-0.3,0.2-0.4c0.3-0.3,0.5-0.7,0.6-1
		c0.1-0.2,0.3-0.3,0.4-0.5c-0.3,0.7-0.6,1.2-1,1.9l0.3,0.5c2.9-4,6-7.7,9.4-11.1c6.3-6.5,13.4-12,21.1-16.5c5.1-3,15.3-10,18.4-1.5
		c2.1,5.8,3.8,11.4,6.9,16.8c12.2,21.8,35.5,36.8,60.1,38c6.2,0.3,15.1-1.6,19.8,3.6c3.9,4.3,3.8,11.6,5.2,16.9
		c1.8,6.9,5.8,12.2,11.2,15.3v-0.9c-0.2-17.8,11.5-32.2,26.1-32.2c0.5,0,1,0,1.4,0.1l0,0c6.8,0.5,12.8,4.2,17.3,9.8
		c4.5-10.5,6.8-22.4,7-32.1C445.7,99.4,441.5,83.8,430.9,73z"/>
	<path class="st22" d="M438.2,146.5c-0.1,0.1-0.1,0.2-0.2,0.4l0,0C438.1,146.7,438.2,146.6,438.2,146.5c-4.4-5.6-10.5-9.3-17.3-9.8
		c-0.6,0-1-0.1-1.6-0.1c-14.5,0-26.3,14.4-26.3,32.1v0.8c-5.3-3.1-9.3-8.4-11.1-15.2c-1.4-5.4-1.3-12.7-5.2-16.9
		c-4.7-5.2-13.7-3.3-19.8-3.6c-24.6-1-47.9-16.1-60.1-38c-3-5.4-4.7-11-6.9-16.8c-3-8.5-13.3-1.4-18.4,1.5
		c-7.7,4.5-14.8,10.1-21.1,16.5c-3.4,3.5-6.6,7.2-9.4,11.1l0.1,0.1l0,0l0,0l-0.1,0.1c-0.2,0.1-0.3,0.3-0.4,0.5v0.1
		c-0.2,0.2-0.3,0.4-0.5,0.6c-0.1,0.1-0.2,0.2-0.2,0.3c-0.8,1.8-1.5,3.6-2.3,5.4l0.1,0.1c-1.1,2.9-2.1,5.8-3,8.8
		c4.5-0.6,10.5,0,16.7,1.8c11.9,3.6,20.4,10.8,18.8,15.9l-37.2-11.3c-2.6,10.5-4,21.6-4,33c0,56.4,33.5,103.5,78.1,114.2l0.1-0.6
		l0,0l-0.1,0.7l0.1-0.7l0,0l-0.1,0.8c6.3,1.5,12.8,2.3,19.3,2.3c3.8,0,7.6-0.3,11.3-0.8c0.1,0,0.1-0.1,0.2-0.1s0.3,0,0.4-0.1v0.1
		c-0.2,0-0.4,0.1-0.6,0.1c-17.1,10.6-32.1,9.1-32.1,9.1l-3.6,27c4.4,10,7.8,18.7,10.5,26.3c4.6,13.2,6.9,23.2,7.8,30.5V372
		c0.2,1.6,0.4,3,0.5,4.4c0.4,5,0,8.6-0.5,10.7c1-2.6,2.8-5.5,4.9-8.8c6-9,15.7-19.9,25.2-29.8v0.1c2.9-3,5.7-5.8,8.5-8.6l-0.3-0.3
		l0.1-0.1l0.3,0.3c11.2-11,20.4-19.2,20.4-19.2l6.9-51.3c4.2-16.5,14.1-30,14.1-30c-0.3,0.4-0.5,0.7-0.8,1c0.4-0.6,0.8-1.1,1-1.7
		c1.6-2.3,3.2-4.7,4.8-7.1c0.1-0.5,5.5-22.2,3-33.9c3.1,1.8,6.7,2.9,10.3,3l0,0l0,0l0,0l0,0l0,0h1c14.5,0,26.3-14.4,26.3-32.1
		C445.5,160.1,442.8,152.2,438.2,146.5z"/>
	<path class="st20" d="M315.2,142.7c-0.7-5.3,9.7-11,23.1-12.8s24.9,1.2,25.6,6.6L315.2,142.7z"/>
	<path class="st2" d="M308.3,400.3c-2.8-5.7-1.2-14.4-0.2-18.9c-8.7-5.6-11.6-4.1-11.6-4.1l0.1-0.4c-2.3,12.8-5.4,33.7-6.9,57.7
		c0.1-1.8,0.2-2.8,0.2-2.8C291.6,420.9,308.3,400.3,308.3,400.3z"/>
	<path class="st2" d="M293.1,506.7L293.1,506.7L293.1,506.7z"/>
	<path class="st2" d="M334.3,390.4c-1.8,9.4-11.7,14.3-11.7,14.3c1.3,16.7,0.3,33.9,0.3,33.9c-1,2-2.5,5-4.2,8.9
		c9.2-19.9,19.4-40.2,28-52.6v0.1C346.6,394.9,345.2,391.6,334.3,390.4z"/>
	<path class="st2" d="M349.5,391C349.5,391,349.5,390.9,349.5,391C349.5,390.9,349.5,390.9,349.5,391L349.5,391z"/>
	<path class="st3" d="M289.8,434.5c-0.7,9.7-2.4,43.3,3.3,72.1l0,0C288.9,482.9,288.5,457.4,289.8,434.5z"/>
	<path class="st3" d="M318.7,447.5c-13.9,30-25.4,59-25.5,59.2C293.3,506.4,309.7,467.2,318.7,447.5z"/>
	<path class="st3" d="M322.6,404.7c-7.1,0.2-14.3-4.4-14.3-4.4s-16.7,20.7-18.3,31.6c0,0-0.1,1-0.2,2.8c-1.3,22.7-1,48.4,3.3,72.1
		l0,0c0.1-0.2,11.6-29.3,25.5-59.2c1.7-3.8,3.2-6.9,4.2-8.9C322.8,438.5,323.9,421.3,322.6,404.7z"/>
	<path class="st20" d="M233.2,110.3l4.4,4.9c0.7-1.8,1.4-3.7,2.3-5.4C238.2,111.6,235.2,112.4,233.2,110.3z"/>
	<path class="st22" d="M411.9,218.7c-0.1,0.1-0.1,0.3-0.2,0.4C411.7,219,411.8,218.9,411.9,218.7z"/>
	<path class="st22" d="M417,205.4c-1,3-2.6,7.4-4.7,12.3C414,213.7,415.6,209.6,417,205.4z"/>
	<path class="st22" d="M418.4,200.8L418.4,200.8L418.4,200.8L418.4,200.8z"/>
	<path class="st20" d="M239.8,109.6c0.1-0.1,0.2-0.2,0.2-0.3c0.3-0.4,0.6-0.9,1-1.2l-0.3-0.5C240.4,108.3,240.1,108.9,239.8,109.6z"
		/>
	<path class="st21" d="M418.4,200.8L418.4,200.8c-0.5,1.5-1,3-1.4,4.6C417.9,202.6,418.4,200.8,418.4,200.8z"/>
	<path class="st21" d="M412.3,217.7c-0.1,0.3-0.3,0.7-0.4,1C412,218.4,412.2,218.1,412.3,217.7z"/>
	<path class="st21" d="M405.2,231.6c2.6-4.2,4.8-8.5,6.6-12.6C409.7,223.4,407.6,227.6,405.2,231.6L405.2,231.6z"/>
	<path class="st23" d="M349.5,391c-1,1.2-1.9,2.5-2.9,3.9L349.5,391z"/>
	<path class="st23" d="M334.6,388.1c0,0.8-0.1,1.5-0.3,2.2c10.9,1.2,12.4,4.6,12.4,4.6v-0.1c1-1.4,1.9-2.8,2.9-3.9v-0.1
		C344.3,389,339.1,388.2,334.6,388.1z"/>
	<path class="st23" d="M297.2,372.8l-0.1,0.4l-0.5,3.7c0.3-1.5,0.5-2.9,0.8-4.1C297.3,372.8,297.3,372.8,297.2,372.8z"/>
	<path class="st23" d="M308.2,381.3c0.2-0.9,0.4-1.5,0.6-2c-3.8-3-7.6-5-11.3-6.5c-0.2,1.2-0.5,2.7-0.8,4.1l-0.1,0.4
		C296.6,377.3,299.5,375.7,308.2,381.3z"/>
	<path class="st3" d="M334.6,388.2c-8.9-0.3-15.3,1.9-15.3,1.9c-0.3-0.3-0.7-0.6-1-0.9l0,0l-0.1-0.1c0.3,0.3,0.7,0.6,1,0.9
		c-3.3-4.4-6.9-7.9-10.5-10.7c-0.2,0.5-0.3,1.2-0.6,2c0.1,0,0.1,0.1,0.2,0.1l0,0l0,0c-1,4.5-2.6,13.1,0.1,18.8l0,0c0,0,0,0,0.1,0
		c0,0,0,0,0,0.1l0,0c0.9,0.6,6.7,4,12.8,4.3c0.1,0,0.2,0.1,0.3,0.1c0.5,0.1,1,0.1,1.4-0.2c0.1-0.1,0.2-0.2,0.3-0.3
		c2.2-1.2,9.5-6,11-13.9h-0.1C334.4,389.6,334.5,389,334.6,388.2z"/>
	<path class="st2" d="M334.1,380.2c-0.7-0.1-1.3-0.1-2-0.2H332l0.6,1.3L334.1,380.2z"/>
	<path class="st2" d="M320.5,387.8l10.6-8c-2.1-0.4-4.1-0.9-6.1-1.5c-2.1,3.2-3.8,6.2-4.8,8.8c0,0.1-0.1,0.3-0.1,0.4L320.5,387.8z"
		/>
	<path class="st2" d="M334.1,380.2c4,0.3,7.9,0,11.6-0.9l-1.9-5.7L334.1,380.2z"/>
	<path class="st2" d="M319.2,390.1l13.2-8.8l-0.6-1.3c-0.1,0-0.1,0-0.2,0C325,385.4,319.2,390.1,319.2,390.1z"/>
	<path class="st2" d="M332,380L332,380h-0.2C331.8,379.9,331.9,379.9,332,380z"/>
	<path class="st2" d="M331,379.8c0.3,0,0.5,0.1,0.8,0.1l0.1-0.1l-0.2-0.5L331,379.8z"/>
	<path class="st2" d="M379.5,320.1c0,0-9.1,8.2-20.4,19.2v0.1c-2.9,2.8-5.7,5.6-8.5,8.5c0,0.1,0.1,0.2,0.1,0.3
		c-9.4,9.8-19,20.6-24.9,29.5c2,0.7,4,1.1,6.1,1.5l0.7-0.5l0.1,0.3c-0.1,0.1-0.2,0.2-0.3,0.2l0.1,0.1h0.1c0.7,0.1,1.3,0.2,2,0.2
		l9.8-6.5l1.9,5.7c3.4-0.8,6.8-2.1,9.8-3.7c-0.3,0.4-0.2,0.9,0,1.1c-3,1.5-6.1,2.7-9.3,3.5l-0.3-1c-3.6,0.9-7.5,1.1-11.5,0.9l-1.6,1
		l0,0l-12.6,8.3c1.7-1.3,6.4-5.1,11.9-9.5c-0.3-0.1-0.5-0.2-0.8-0.2l-10.6,8l-0.4-0.3c-0.3,1.3-0.7,2.1-0.8,2.4l-0.1,0.1
		c0,0,0,0,0.1,0c0,0.1-0.1,0.1-0.1,0.1s0.1-0.1,0.2-0.2c1-0.3,7-2,15-1.8l0,0c4.5,0.1,9.6,0.8,14.8,2.7c0,0,0,0.1-0.1,0.1
		c0.1,0,0.1,0,0.2,0.1l0.3,0.9c0.2-0.2,0.3-0.4,0.5-0.6c8.2,3.2,16.4,9.5,22.3,21.1C373.2,411.8,392.6,368.4,379.5,320.1z"/>
	<path class="st2" d="M320,387.4c0-0.1,0.1-0.2,0.1-0.4c0.4-2.1,0.8-5.5,0.4-10.6c-0.2-0.1-0.4-0.2-0.7-0.3l-0.5,10.7L320,387.4z"/>
	<path class="st2" d="M320,372.1l-0.2,4.1c0.2,0.1,0.4,0.2,0.7,0.3C320.4,375.2,320.3,373.7,320,372.1z"/>
	<path class="st2" d="M299.2,363.9L299.2,363.9l-2,8.9c0.1,0,0.1,0,0.2,0.1C298.5,367.2,299.2,363.9,299.2,363.9z"/>
	<path class="st2" d="M310.4,369.3l-2.4-5.6l-3.6-1.9C306,364.6,308,367.2,310.4,369.3z"/>
	<path class="st2" d="M319.4,386.9l-0.1,3.1c0.2-0.9,0.5-1.7,0.8-2.7L319.4,386.9z"/>
	<path class="st2" d="M320,372.4c-1-7.3-3.2-17.2-7.8-30.5l-0.3,0.4l0,0l0.3-0.4c-2.7-7.6-6.1-16.4-10.5-26.3l0,0
		c0,0-33,47.5-34.1,57.2c0,0,13.5-6,29.5,0.2V373c0.1,0,0.1,0,0.2,0c3.7,1.4,7.5,3.5,11.3,6.5c0.2-0.6,0.3-1,0.3-1l0.5,0.4
		c0.2,0.2,0.3,0.5,0.5,0.7l-1-0.8c0,0-0.1,0.4-0.3,1c3.6,2.7,7.1,6.2,10.6,10.7l-1.8-4.1l0.1-0.1l1.6,3.9l0.2-3.2l0.5-10.7h-0.1
		L320,372.4z"/>
	<path class="st2" d="M320.2,387.1c0,0.1-0.1,0.2-0.1,0.4h0.1C320.1,387.3,320.1,387.2,320.2,387.1z"/>
	<path class="st2" d="M320,387.4c-0.4,1-0.6,1.8-0.8,2.7C319.2,390.1,319.7,389.2,320,387.4L320,387.4z"/>
	<path class="st20" d="M251.3,125.9c-6.2-1.9-12.2-2.5-16.7-1.8c-0.7,2.1-1.2,4.3-1.7,6.4l37.2,11.3
		C271.6,136.6,263.2,129.5,251.3,125.9z"/>
	<ellipse class="st20" cx="320.3" cy="164.1" rx="5.1" ry="5.4"/>
	<ellipse class="st20" cx="265.2" cy="161.4" rx="5.1" ry="5.4"/>
	<path class="st24" d="M304.9,245.1c0,0-20,2.1-30.1-5.4"/>
	<path class="st21" d="M287.9,211.1c-8.1,0-14.6-7.4-14.6-16.6c0-3.4,1-6.7,2.5-9.2c-2.8,3-4.5,7.2-4.5,11.9
		c0,9.1,6.6,16.6,14.6,16.6c5,0,9.4-2.9,12.1-7.2C295.4,209.3,291.9,211.1,287.9,211.1z"/>
	<path class="st21" d="M400.6,179.2c0,0,7.9-8.5,17.1-6.7C417.7,172.5,404.5,165.5,400.6,179.2z"/>
	<path class="st2" d="M350.6,347.9c0,0-30.8,30.7-31.4,42.2c0,0,14.6-5.1,30.3,0.8c15.7,5.9,23.7,20.9,23.7,20.9s21.3-35.1,6.3-91.7
		C379.5,320.1,356.6,340.8,350.6,347.9z"/>
	<path class="st2" d="M301.8,315.4c0,0,26,53.7,17.4,74.7c0,0-11.1-13.8-22.1-17c-10.9-3.2-17.8-3.7-29.5-0.2
		C267.6,372.9,281.1,342.9,301.8,315.4z"/>
	<path class="st23" d="M297.1,373.1l-0.7,4.3l0.1-0.1l3.3-1.3l-0.3-2C299.6,373.9,297.8,373.2,297.1,373.1z"/>
</g>
<g>
	<path class="st25" d="M609.5,42.4c-0.5-1.1,0.1-2.3,1.2-2.6l27.2-10c1.1-0.5,2.3,0.1,2.6,1.2c0.5,1.1-0.1,2.3-1.2,2.6l-27.2,10
		c-0.1,0-0.3,0-0.4,0.1C610.8,43.8,609.9,43.3,609.5,42.4z"/>
</g>
<g>
	<g>
		<polyline class="st26" points="831.3,628 829.8,469 800.2,494 799.3,673.5 812.7,627 829.4,627.8 		"/>
		<polygon class="st26" points="831.3,413.1 613.8,299.3 584.2,311.9 613.8,327.5 613.7,360.6 584.8,345.5 583.3,535.2 801.2,673.5 
			801.2,608.8 831.3,627.9 		"/>
		
			<linearGradient id="SVGID_00000039831323644198413380000005159021089509976731_" gradientUnits="userSpaceOnUse" x1="-725.8966" y1="280.5409" x2="-670.2122" y2="280.5409" gradientTransform="matrix(-1 0 0 -1 -24.5106 581.7381)">
			<stop  offset="0" style="stop-color:#94683B"/>
			<stop  offset="0.9955" style="stop-color:#704F2D"/>
		</linearGradient>
		<path style="fill:url(#SVGID_00000039831323644198413380000005159021089509976731_);" d="M694.1,257.7c8.4-1.3,7.4,2,7,2.9
			c0,0.1-0.1,0.2-0.3,0.3c-37.4,27.3-28.6,69.8-28.6,69.8L645.8,345c-0.3-44.8,30.8-75.5,40.2-83.5
			C687.4,260.2,691.7,258,694.1,257.7z"/>
		<path class="st25" d="M629.2,29.4c1.4,5.9,31.6,10.7,68.7,10.7c37,0,67.3-4.8,68.7-10.7H629.2z"/>
		<path class="st28" d="M683.9,292.2l47.3-6c5-0.6,9.5,2.9,10.4,7.9l0,0c0.9,5-2.1,9.9-7,11l-46.6,10.7c-8,1.9-15.9-2.3-17.2-9.2
			l0,0C669.6,299.8,675.7,293.1,683.9,292.2z"/>
		<path class="st28" d="M673,273.8l47.3-6.4c4.9-0.8,9.4,2.3,10.2,6.5l0,0c0.8,4.3-2.4,8.5-7.3,9.7L676.7,294
			c-8,1.9-15.9-1.5-16.9-7.4l0,0C658.7,280.7,664.9,274.9,673,273.8z"/>
		<path class="st28" d="M663.1,258.3l47.2-6.7c4.9-0.8,9.3,1.6,9.9,5.3l0,0c0.8,3.6-2.5,7.4-7.4,8.4l-46.6,10
			c-7.9,1.8-15.7-0.9-16.6-5.9l0,0C648.8,264.5,655.2,259.5,663.1,258.3z"/>
		<path class="st28" d="M728.4,98.9l-5.1-13.2c-4.4-11.2-5-23.2-2-34.8l34.4-129.3c0.4-1.8-0.9-3.4-2.6-3.4h-15.3
			C725.6-46.8,689.2,70,728.4,98.9z"/>
		<path class="st29" d="M639,237.1l24,73.4c1.1,3.3,3.4,6,6.4,7.5l28.2,14.3c0.1,0,0.1,0.1,0.3,0.1c6.2,4.1,26.4,11.8,33.8,11.5
			c5.8-0.1,9.8-1.1,12.6-2.5c5.3-2.5,5.8-10.3,1-13.7l-36.3-21.3c-0.9-0.5-1.3-1.5-1.1-2.5c0.4-3.3,0.4-8,0.1-13.6
			c-0.9-20-10.4-51-13.6-60.5c-0.5-1.6,0.4-3.3,2-3.5l27.7-5.3l24.4,54.2c2.5,5.6,6.4,10.4,11.3,13.9c4.6,3.3,9.7,5,13.4,0.8
			c6.5-7.3,2.8-14.2,1.8-15.8c-0.1-0.3-0.3-0.6-0.4-0.9L761.6,216l-12.4-62.6c-0.3-1.6-0.8-3.3-1.4-4.8l-14.2-36.3l-5.3-13.6
			c-39-28.9-2.6-145.7,9.3-180.6h-79c-1.5,0-2.8,1.4-2.6,2.9l7.2,137.7c0,0.4-0.1,0.9-0.3,1.3l-3.8,8.4c-1.5,3.3-2.4,6.8-2.9,10.3
			C644.5,126.4,639,175,638,224.2C637.4,228.5,637.9,232.8,639,237.1z"/>
		<path class="st30" d="M704.4,335.5c-6-1.6-21.5-18.5-21.5-18.5l-24.5-71.3l-6.5-7.9c-1.9-2.3-2.8-5.3-2.4-8.2l1.5-13.4"/>
		<path class="st31" d="M774.9,273.9l-11.9,4.5l1.8,4.5c1.3,3.3,4.9,4.9,8.2,3.6l0,0c3-1.1,4.1-4.3,3.9-7.5
			c-0.1-0.4-0.1-0.8-0.3-1.1C776.2,276.8,775.4,275.3,774.9,273.9z"/>
		<rect x="629.1" y="18.1" class="st25" width="137.3" height="11.3"/>
		<rect x="629.1" y="20.5" class="st32" width="137.6" height="1.3"/>
		<rect x="629.1" y="25.2" class="st32" width="137.6" height="1.3"/>
		
			<linearGradient id="SVGID_00000013894914933769931230000009689623263950843562_" gradientUnits="userSpaceOnUse" x1="-806.7755" y1="258.2698" x2="-725.8151" y2="258.2698" gradientTransform="matrix(-1 0 0 -1 -24.5106 581.7381)">
			<stop  offset="0" style="stop-color:#94683B"/>
			<stop  offset="0.9955" style="stop-color:#704F2D"/>
		</linearGradient>
		<path style="fill:url(#SVGID_00000013894914933769931230000009689623263950843562_);" d="M715.8,246.9c-3.6-2-8.2-1.9-11.4,0.6
			c-2.8,2-3,4.3-3,4.6c0.1,0.3,0.3,0.5,0.5,0.6c53.1,44.8,52.7,148.6,52.7,148.6l27.7-14.4c-8.8-87.6-49-124.3-61.4-136.2
			C719.8,249.7,717.8,248.2,715.8,246.9z"/>
		
			<linearGradient id="SVGID_00000078044254132011514510000011669950739764320700_" gradientUnits="userSpaceOnUse" x1="-826.2302" y1="155.8411" x2="-608.7208" y2="155.8411" gradientTransform="matrix(-1 0 0 -1 -24.5106 581.7381)">
			<stop  offset="0" style="stop-color:#94683B"/>
			<stop  offset="0.9955" style="stop-color:#704F2D"/>
		</linearGradient>
		<polygon style="fill:url(#SVGID_00000078044254132011514510000011669950739764320700_);" points="584.2,311.4 584.2,417.4 
			801.7,540.4 801.7,425.2 		"/>
		<polygon class="st25" points="718.2,485 718.1,501.7 754.3,521.2 754.3,503 		"/>
	</g>
	<polygon class="st25" points="617.4,425.9 617.2,442.6 653.5,462.1 653.5,443.9 	"/>
</g>
</svg>
