<?xml version="1.0" encoding="utf-8"?>
<!-- Generator: Adobe Illustrator 24.1.1, SVG Export Plug-In . SVG Version: 6.00 Build 0)  -->
<svg version="1.1" id="Layer_1" xmlns="http://www.w3.org/2000/svg" xmlns:xlink="http://www.w3.org/1999/xlink" x="0px" y="0px"
	 viewBox="0 0 100 48.94" style="enable-background:new 0 0 100 48.94;" xml:space="preserve">
<style type="text/css">
	.st0{fill:#D5646D;}
	.st1{fill:#F5DBEA;}
	.st2{fill:none;}
</style>
<g>
	<path class="st0" d="M13.73,46.17c-0.91,0-1.76-0.35-2.4-1c-0.64-0.64-1-1.5-1-2.4c0-0.91,0.35-1.76,1-2.4L47.87,3.82
		c0.43-0.43,0.97-0.74,1.56-0.89c0.34-0.11,0.69-0.16,1.04-0.16c0.91,0,1.76,0.35,2.4,0.99l36.55,36.55c0.64,0.64,1,1.5,1,2.4
		c0,0.91-0.35,1.76-1,2.4c-0.64,0.64-1.5,1-2.4,1s-1.76-0.35-2.4-1L50.4,10.9L16.13,45.17C15.49,45.82,14.64,46.17,13.73,46.17z"/>
	<path class="st1" d="M88.76,40.97L52.22,4.42c-0.68-0.68-1.67-0.88-2.52-0.59c-0.43,0.1-0.83,0.32-1.16,0.65L11.98,41.02
		c-0.96,0.96-0.96,2.53,0,3.49c0.48,0.48,1.11,0.72,1.75,0.72c0.63,0,1.26-0.24,1.75-0.72L50.4,9.59l34.87,34.87
		c0.48,0.48,1.11,0.72,1.75,0.72s1.26-0.24,1.75-0.72C89.73,43.49,89.73,41.93,88.76,40.97z"/>
	<line class="st2" x1="8.85" y1="45.23" x2="100.6" y2="45.23"/>
</g>
</svg>
