<?xml version="1.0" encoding="utf-8"?>
<!-- Generator: Adobe Illustrator 27.7.0, SVG Export Plug-In . SVG Version: 6.00 Build 0)  -->
<svg version="1.1" id="레이어_1" xmlns="http://www.w3.org/2000/svg" xmlns:xlink="http://www.w3.org/1999/xlink" x="0px"
	 y="0px" viewBox="0 0 400 70" style="enable-background:new 0 0 400 70;" xml:space="preserve">
<style type="text/css">
	.st0{fill:#FFFFFF;}
	.st1{fill:#656EB2;}
	.st2{fill:#D6646E;}
	.st3{opacity:0.2;fill:#FFFFFF;}
</style>
<path class="st0" d="M209.2,47.1c0-1.7,0.6-2.1,4.1-2.2c0-0.6-0.1-1.2-0.1-1.7c0-1.2-0.1-1.8-0.1-3.1c0-0.7-0.1-2-0.1-3.7
	c0-2.2,0-3.1,0.1-4.7l0-1c-1.6,0-2.8-0.1-4.1-0.2c0,0.6,0,1.1,0,1.6c-0.1,2.2-0.5,2.8-2.1,2.9c-2.5,0.2-2.7-0.3-2.4-3.4
	c0.2-2-0.6-4,1-5.1c0.8-0.6,2.8-0.5,3.6-0.5c2.4,0,3.9,0.1,6.1,0.2c1.7,0.1,2.8,0.1,4.8,0.1l4.2-0.1c1.6,0,2,0.4,2,5.5
	c0,3.2-0.3,3.5-2.2,3.5c-2.5,0-2.8-0.3-2.6-2.4c0.1-0.8,0-1.3,0-1.9c-1.4,0.1-2.1,0.1-3.6,0c-0.1,0.7-0.1,1.3-0.1,2
	c-0.1,2.2-0.1,3.7-0.1,5.9c0,2.2,0.1,3.9,0.1,6.1c3.9-0.1,4.1,0.2,3.7,3.2c-0.2,1.2-1.7,1.5-3.8,1.4c-1.8-0.1-3.4-0.1-5.3,0.1
	C209.9,49.8,209.2,49.7,209.2,47.1z"/>
<path class="st1" d="M211.1,48.7c-0.8,0-0.9,0-0.9-1.5c0-0.9,0-1.1,3.2-1.2l1,0l-0.1-1.2c0-0.5-0.1-1-0.1-1.4c0-0.6,0-1.1,0-1.5
	c0-0.5,0-0.9,0-1.6c0-0.3-0.1-1.6-0.1-3.7c0-2.2,0-3.1,0.1-4.6l0.1-2.1h-1c-1.4,0-2.6,0-4-0.2l-1.1-0.1v1.1c0,0.6,0,1,0,1.5
	c-0.1,1.9-0.2,1.9-1.2,1.9c-0.3,0-0.5,0-0.7,0c-0.6,0-0.7-0.1-0.7-0.1c-0.2-0.3,0-1.7,0.1-2.3c0.1-0.7,0-1.3,0-1.9
	c-0.1-1.5,0-2.1,0.6-2.5c0.2-0.2,0.8-0.3,2.5-0.3l0.6,0c2.2,0,3.7,0.1,5.7,0.2l0.3,0c1.1,0.1,2,0.1,3,0.1c0.6,0,1.2,0,1.9,0l4.3-0.1
	c0.6,0,0.9,0,0.9,4.5c0,0.5,0,2.1-0.2,2.4c-0.1,0-0.3,0.1-1,0.1c-1.1,0-1.5-0.1-1.6-0.1c0,0,0-0.3,0-1.2c0.1-0.6,0-1.1,0-1.6l0-1.5
	l-1,0c-0.7,0-1.2,0-1.7,0c-0.5,0-1,0-1.7,0l-1,0l-0.1,0.9c-0.1,0.7-0.1,1.3-0.1,2c-0.1,2.3-0.1,3.8-0.1,6c0,1.9,0,3.4,0.1,5.2l0.1,2
	l1,0c0.4,0,0.7,0,1,0c1.3,0,1.6,0.1,1.7,0.2c0.1,0.2,0,1.5-0.1,1.9c0,0.3-0.8,0.5-2.1,0.5c-0.2,0-0.5,0-0.7,0
	c-0.7,0-1.3-0.1-1.9-0.1c-1.1,0-2.2,0.1-3.5,0.2C212,48.6,211.5,48.7,211.1,48.7z"/>
<path class="st0" d="M227,47.1c0.1-1.3,0.5-1.9,3.6-2.1c0.2-6.7,0.3-9.5,0-14.2c-2.9-0.3-3.5-0.5-3.6-2.2c-0.1-2.3,0.5-2.7,3.2-2.5
	c1.9,0.2,3.3,0.2,5,0c2.8-0.3,3.6-0.1,3.6,2.2c0,1.9-0.6,2.3-3.6,2.5c0.2,4.9,0.3,7.4,0.1,14.1c2.6-0.5,3.3-0.2,3.5,1.9
	c0.1,2.2-0.4,2.7-2.6,2.7c-1.3,0-2.1,0-3.9,0C227.3,49.5,226.8,48.9,227,47.1z"/>
<path class="st1" d="M232.3,48.5c-2.5,0-4-0.2-4.3-0.5c-0.1-0.1-0.1-0.4-0.1-0.8c0.1-0.7,0.1-1,2.6-1.1l0.9,0l0-0.9
	c0.2-7,0.3-9.6,0-14.3l0-0.9l-0.9-0.1c-2.6-0.2-2.6-0.3-2.7-1.2c0-1.1,0.1-1.3,0.1-1.3c0,0,0.2-0.1,0.9-0.1c0.3,0,0.7,0,1.1,0.1
	c1,0.1,1.8,0.1,2.6,0.1c0.8,0,1.6,0,2.6-0.1c0.6-0.1,1.1-0.1,1.4-0.1c1,0,1.1,0,1.1,1.3c0,1.2,0,1.3-2.7,1.5l-1,0.1l0,1
	c0.2,4.8,0.3,7.3,0.1,14l0,1.2l1.2-0.2c0.6-0.1,1.1-0.2,1.5-0.2c0.6,0,0.8,0,0.8,1.2c0.1,1.1-0.1,1.3-0.1,1.4
	c-0.1,0.1-0.3,0.2-1.4,0.2c-0.6,0-1.1,0-1.7,0C233.9,48.5,233.2,48.5,232.3,48.5z"/>
<path class="st0" d="M240.4,41.8c-1.4-6.6,0.7-13.3,7.3-15.7c0.7-0.3,1.7-0.4,2.4-0.5c2.1-0.2,5.3,0.5,6.3,2.5c0-2,0.5-2.5,2.3-2.5
	c3.1,0,1.8,3.1,1.9,5.3c0.1,2.8,0.3,4.6-2.1,4.6c-1.7,0-1.8-1.1-2.5-2.3c-0.9-1.7-2.3-2.8-4.2-3c-1.9-0.2-3.2,0.4-4.4,1.2
	c-1.3,1-2.2,2.8-2.5,4.6c-0.4,2.6-0.1,5,1.4,7c1.3,1.9,3.6,2.8,6.1,2.3c1.5-0.3,2.8-1.3,3.6-2.1c1-1.1,2-1.7,3.1-0.9
	c1.7,1.2,1.2,2.8,0.6,3.6c-1.2,1.8-4.4,4.3-9.8,4C244.8,49.7,241.3,46,240.4,41.8z"/>
<path class="st1" d="M250.9,49.1c-0.3,0-0.6,0-1,0c-4.9-0.3-7.9-4-8.6-7.5c-1.1-5.2,0-12.1,6.7-14.5c0.5-0.2,1.2-0.3,2.2-0.4
	c0.2,0,0.4,0,0.6,0c1.8,0,4,0.7,4.7,2l1.9-0.5c0-1.5,0-1.5,1.3-1.5c0.4,0,0.8,0.1,0.9,0.2c0.3,0.3,0.2,1.4,0.1,2.3
	c-0.1,0.6-0.1,1.3-0.1,1.9l0,0.4c0.1,1.3,0.1,2.6-0.2,3c-0.2,0.2-0.6,0.2-0.9,0.2c-0.7,0-0.8-0.2-1.3-1.1c-0.1-0.2-0.2-0.4-0.3-0.7
	c-1.2-2.1-2.8-3.3-5-3.5c-0.3,0-0.6,0-0.8,0c-1.6,0-2.9,0.5-4.2,1.5c-1.5,1.1-2.6,3.2-2.9,5.3c-0.4,3.1,0.1,5.7,1.5,7.7
	c1.3,1.8,3.3,2.8,5.5,2.8c0.5,0,1.1-0.1,1.6-0.2c1.7-0.4,3.3-1.5,4.1-2.4c0.2-0.2,0.9-1,1.4-1c0,0,0.2,0,0.5,0.2
	c1.1,0.8,0.8,1.6,0.4,2.2C258.5,46.1,256.2,49.1,250.9,49.1z"/>
<path class="st0" d="M275.3,47.1c0-1.3,0.6-1.9,1.4-1.9c0.8,0,1.2,0.1,1.9,0.2c-0.6-0.6-1-1.3-2.1-2.8c-1-1.5-1.6-2.4-2.8-4
	c-0.7,0.6-2.3,1.8-3.1,2.5c-0.1,0.7-0.1,1.7,0,4c2.4-0.4,2.7,0.3,2.7,2.1c0,2-0.5,2.3-5.2,2.2c-2,0-5.9,1.1-5.9-1.9
	c0-2.4,0.5-2.7,3.7-2.4c0-5.7,0.1-8.3,0.1-14.3c-3.2,0.3-3.8-0.1-3.8-2.3c0-1.8,0.4-2.2,6.1-2.4c3.7-0.1,4.4,0,4.4,2.3
	c0,1.6-0.3,1.9-2.2,2.2v5.2c0.9-0.8,1.9-1.5,2.9-2.3c1.3-1.1,3.4-3.3,4.2-3.4c-1.7,0-2.9-0.5-2.9-2.1c0-1.6,0.5-2,2.3-1.9
	c1.2,0.1,2.2,0.1,3.9,0c1.2,0,5.1-0.6,5.1,1.7c0,2.7-0.4,2.9-3,2.9c-0.9,0.8-2.4,2.1-3.1,2.8c-1,1-1.2,1.2-2.3,2.2
	c2.8,3.6,3.7,5.4,6.3,9.3c1.9-0.2,2.6,0,2.7,1.8c0.1,2-0.1,2.8-2.1,2.6c-1.8-0.1-2.7-0.1-5,0.1C275.7,49.8,275.3,49.5,275.3,47.1z"
	/>
<path class="st1" d="M277.9,48.6c-1.2,0-1.4-0.2-1.4-0.2c0,0-0.1-0.3-0.1-1.3c0-0.6,0.1-0.9,0.4-0.9c0.6,0,0.9,0,1.5,0.1l2.9,0.4
	l-1.8-2c-0.5-0.5-0.9-1.2-1.8-2.4l-0.2-0.3c-0.4-0.5-0.7-1-1-1.4c-0.5-0.8-1.1-1.6-1.8-2.6l-0.6-0.8l-0.8,0.7
	c-0.2,0.2-0.5,0.4-0.9,0.7c-0.8,0.6-1.7,1.3-2.3,1.8l-0.3,0.2l0,0.4c-0.1,0.7-0.1,1.5-0.1,3.3l0,2l1.1-0.2c0.4-0.1,0.7-0.1,0.9-0.1
	c0.4,0,0.5,0.1,0.5,0.1c0,0,0.1,0.3,0.1,1.1c0,1.2,0,1.2-3.1,1.2c-0.3,0-1.1,0-1.1,0c-0.5,0-1,0-1.5,0.1c-0.5,0-1.1,0.1-1.6,0.1
	c-0.7,0-1.1-0.1-1.4-0.3c-0.1-0.1-0.4-0.2-0.4-0.9c0-1.5,0-1.5,1.1-1.5c0.4,0,0.9,0,1.5,0.1l1.1,0.1l0-5.1c0-3.3,0-5.8,0-10.2v-1.1
	l-1.1,0.1c-0.6,0-1,0.1-1.4,0.1c-0.9,0-1.1-0.1-1.1-0.2c0-0.1-0.2-0.3-0.2-1.2c0-1,0-1.2,5.1-1.4c0.5,0,1,0,1.4,0
	c1.9,0,1.9,0,1.9,1.3c0,0.7-0.1,0.9-0.1,0.9c-0.1,0.1-0.3,0.2-1.3,0.3l-0.8,0.1v8.3l1.7-1.5c0.4-0.4,0.9-0.7,1.4-1.1
	c0.5-0.4,1-0.7,1.5-1.2c0.3-0.3,0.7-0.6,1.1-1c0.8-0.7,2.2-2,2.6-2.2l-0.2-2l-0.1,0c-0.8,0-1.2-0.2-1.4-0.3
	c-0.2-0.1-0.3-0.3-0.3-0.8c0-0.6,0.1-0.8,0.1-0.8l0,0c0,0,0.1-0.1,0.7-0.1c0.1,0,0.3,0,0.4,0c0.6,0,1.2,0,1.8,0c0.6,0,1.3,0,2.2,0
	c0.2,0,0.4,0,0.6,0c0.4,0,0.9-0.1,1.4-0.1c1.4,0,2.1,0.3,2.1,0.7c0,1.9,0,1.9-2,1.9h-0.4l-0.3,0.2c-0.9,0.8-2.5,2.1-3.2,2.8
	l-0.2,0.2c-0.8,0.8-1.1,1.1-2.1,1.9l-0.7,0.6l0.6,0.7c1.8,2.3,2.8,3.9,4,5.8c0.7,1,1.4,2.1,2.3,3.5l0.3,0.5l0.6,0c0.3,0,0.6,0,0.8,0
	c0.7,0,0.8,0,0.8,0.9c0,1.1,0,1.4-0.1,1.5l0,0c0,0-0.1,0.1-0.6,0.1c-0.1,0-0.2,0-0.3,0c-0.7,0-1.3-0.1-1.9-0.1c-0.8,0-1.6,0-2.8,0.1
	l-0.4,0C278.9,48.6,278.4,48.6,277.9,48.6z"/>
<path class="st0" d="M287.3,47c0.4-1.9,0.9-2.3,3.5-2c0-6.1-0.1-8.9,0-14.1c-3.3,0.1-4-0.3-3.5-2.8c0.4-1.6,0.8-1.9,4-1.9h14.1
	c2.8,0,2,3,2.3,5c0.5,3,0.1,3.6-2.3,3.5c-1.7,0-2-0.6-2.1-1.8c-0.1-0.6-0.1-1.4-0.2-2.1h-7.8c-0.1,1.9-0.1,3.2,0,4.5
	c0.9,0,1.4,0,2.3,0c0-1.7,0.6-2.4,2.1-2.5c2.1-0.1,2.5,0.5,2.4,1.7c-0.1,2.6,0,3.6,0,5.8c0,2.2-4.9,2.1-4.7,0.2l0.1-0.8h-2.1
	c0,1.3,0,3.2,0.1,5.1c2.7-0.2,4.4-0.2,8,0.1c0-0.7-0.1-1.6,0-2.5c0.1-2.1,0.6-2.4,2.4-2.4c2.1,0,2.4,0.5,2.3,3c0,0.9,0,1.6-0.1,2.5
	c0,0.6,0.1,2.1-0.3,2.9c-0.9,1.8-5.3,0.9-8.6,0.9c-3.9,0-5,0.3-8.4,0.2C287.7,49.5,287,49,287.3,47z"/>
<path class="st1" d="M304.6,48.7c-0.8,0-1.6-0.1-2.5-0.1c-0.9-0.1-1.9-0.1-2.8-0.1c-1.8,0-3,0.1-4.1,0.1c-0.9,0.1-1.8,0.1-2.8,0.1
	c-0.5,0-0.9,0-1.5,0c-1.9-0.1-2.5-0.3-2.6-0.5c0,0-0.1-0.2,0-1c0.2-1.2,0.3-1.3,1.3-1.3c0.3,0,0.7,0,1.1,0.1l1.1,0.1l0-1.1
	c0-2.8,0-4.9,0-6.9c0-2.3,0-4.4,0-7.2l0-1l-1,0c-0.2,0-0.4,0-0.6,0c-1.6,0-1.9-0.2-1.9-0.2c0,0-0.1-0.2,0.1-1.3
	c0.2-1,0.2-1.1,3.1-1.1h14.1c0.9,0,1.2,0.2,1.2,2.5c0,0.5,0,1.1,0.1,1.6c0.3,1.7,0.1,2.1,0.1,2.2c0,0-0.2,0.2-1.2,0.2l-0.2,0
	c-1,0-1-0.1-1.1-0.9c0-0.3-0.1-0.7-0.1-1c0-0.3,0-0.7-0.1-1l-0.1-0.9h-9.6l0,1c-0.1,1.9-0.1,3.2,0,4.6l0,0.9l0.9,0
	c0.3,0,0.6,0,0.8,0c0.2,0,1.2,0,1.5,0h1l0-1c0-1.4,0.3-1.4,1.2-1.5c0.1,0,0.2,0,0.4,0c0.8,0,1,0.2,1,0.2c0,0,0.1,0.1,0.1,0.6
	c0,1.7,0,2.7,0,3.8c0,0.6,0,1.2,0,2c0,0.4-0.8,0.7-1.5,0.7c-0.7,0-1.2-0.3-1.2-0.4l0.2-1.9h-4.2l0,1c0,0.7,0,1.6,0,2.5
	c0,0.8,0,1.7,0,2.6l0,1l1-0.1c1.3-0.1,2.3-0.1,3.3-0.1c1.2,0,2.6,0.1,4.6,0.2l1,0.1l0-1c0-0.4,0-0.7,0-1.2c0-0.4,0-0.9,0-1.3
	c0.1-1.5,0.1-1.5,1.4-1.5c1,0,1.2,0.1,1.2,0.1c0.1,0.1,0.2,0.4,0.1,1.8c0,0.4,0,0.9,0,1.3c0,0.4,0,0.8,0,1.2c0,0.1,0,0.4,0,0.6
	c0,0.6,0,1.5-0.2,1.9C307,48.3,306.5,48.7,304.6,48.7z"/>
<path class="st0" d="M314.4,47.1c0-1.7,0.6-2.1,4.1-2.2c0-0.6-0.1-1.2-0.1-1.7c0-1.2-0.1-1.8-0.1-3.1c0-0.7-0.1-2-0.1-3.7
	c0-2.2,0-3.1,0.1-4.7l0-1c-1.6,0-2.8-0.1-4.1-0.2c0,0.6,0,1.1,0,1.6c-0.1,2.2-0.5,2.8-2.1,2.9c-2.5,0.2-2.7-0.3-2.4-3.4
	c0.2-2-0.6-4,1-5.1c0.8-0.6,2.8-0.5,3.6-0.5c2.4,0,3.9,0.1,6.1,0.2c1.7,0.1,2.8,0.1,4.8,0.1l4.2-0.1c1.6,0,2,0.4,2,5.5
	c0,3.2-0.3,3.5-2.2,3.5c-2.5,0-2.8-0.3-2.6-2.4c0.1-0.8,0-1.3,0-1.9c-1.4,0.1-2.1,0.1-3.6,0c-0.1,0.7-0.1,1.3-0.1,2
	c-0.1,2.2-0.1,3.7-0.1,5.9c0,2.2,0.1,3.9,0.1,6.1c3.9-0.1,4.1,0.2,3.7,3.2c-0.2,1.2-1.7,1.5-3.8,1.4c-1.8-0.1-3.4-0.1-5.3,0.1
	C315,49.8,314.4,49.7,314.4,47.1z"/>
<path class="st1" d="M316.2,48.7c-0.8,0-0.9,0-0.9-1.5c0-0.9,0-1.1,3.2-1.2l1,0l-0.1-1.2c0-0.5-0.1-1-0.1-1.4c0-0.6,0-1.1,0-1.5
	c0-0.5,0-0.9,0-1.6c0-0.3-0.1-1.6-0.1-3.7c0-2.2,0-3.1,0.1-4.6l0.1-2.1h-1c-1.4,0-2.6,0-4-0.2l-1.1-0.1v1.1c0,0.6,0,1,0,1.5
	C313.1,34,313,34,312,34c-0.3,0-0.5,0-0.7,0c-0.6,0-0.7-0.1-0.7-0.1c-0.2-0.3,0-1.7,0.1-2.3c0.1-0.7,0-1.3,0-1.9
	c-0.1-1.5,0-2.1,0.6-2.5c0.2-0.2,0.8-0.3,2.5-0.3l0.6,0c2.2,0,3.7,0.1,5.7,0.2l0.3,0c1.1,0.1,2,0.1,3,0.1c0.6,0,1.2,0,1.9,0l4.3-0.1
	c0.6,0,0.9,0,0.9,4.5c0,0.5,0,2.1-0.2,2.4c-0.1,0-0.3,0.1-1,0.1c-1.1,0-1.5-0.1-1.6-0.1c0,0,0-0.3,0-1.2c0.1-0.6,0-1.1,0-1.6l0-1.5
	l-1,0c-0.7,0-1.2,0-1.7,0c-0.5,0-1,0-1.7,0l-1,0l-0.1,0.9c-0.1,0.7-0.1,1.3-0.1,2c-0.1,2.3-0.1,3.8-0.1,6c0,1.9,0,3.4,0.1,5.1l0.1,2
	l1,0c0.4,0,0.7,0,1,0c1.3,0,1.6,0.1,1.7,0.2c0.1,0.2,0,1.5-0.1,1.9c0,0.3-0.8,0.5-2.1,0.5c-0.2,0-0.5,0-0.7,0
	c-0.7,0-1.3-0.1-1.9-0.1c-1.1,0-2.2,0.1-3.5,0.2C317.1,48.6,316.6,48.7,316.2,48.7z"/>
<path class="st0" d="M332.1,47.1c0.1-1.3,0.5-1.9,3.6-2.1c0.2-6.7,0.3-9.5,0-14.2c-2.9-0.3-3.5-0.5-3.6-2.2
	c-0.1-2.3,0.5-2.7,3.2-2.5c1.9,0.2,3.3,0.2,5,0c2.8-0.3,3.6-0.1,3.6,2.2c0,1.9-0.6,2.3-3.6,2.5c0.2,4.9,0.3,7.4,0.1,14.1
	c2.6-0.5,3.3-0.2,3.5,1.9c0.1,2.2-0.4,2.7-2.6,2.7c-1.3,0-2.1,0-3.9,0C332.5,49.5,332,48.9,332.1,47.1z"/>
<path class="st1" d="M337.5,48.5c-2.5,0-4-0.2-4.3-0.5c-0.1-0.1-0.1-0.4-0.1-0.8c0.1-0.7,0.1-1,2.6-1.1l0.9,0l0-0.9
	c0.2-6.8,0.3-9.6,0-14.3l0-0.9l-0.9-0.1c-2.6-0.2-2.6-0.3-2.7-1.2c0-1.1,0.1-1.3,0.1-1.3c0,0,0.2-0.1,0.9-0.1c0.3,0,0.7,0,1.1,0.1
	c1,0.1,1.8,0.1,2.6,0.1c0.8,0,1.6,0,2.6-0.1c0.6-0.1,1.1-0.1,1.4-0.1c1,0,1.1,0,1.1,1.3c0,1.2,0,1.3-2.7,1.5l-1,0.1l0,1
	c0.2,4.8,0.3,7.3,0.1,14l0,1.2l1.2-0.2c0.6-0.1,1.1-0.2,1.5-0.2c0.6,0,0.8,0,0.8,1.2c0.1,1.1-0.1,1.3-0.1,1.4
	c-0.1,0.1-0.3,0.2-1.4,0.2c-0.6,0-1.1,0-1.7,0C339,48.5,338.4,48.5,337.5,48.5z"/>
<path class="st0" d="M361.1,47.3c-1.1-1.5-1.9-2.6-2.8-4.1c-0.8-1.3-2.6-3.9-3.8-5.6c-0.7-1.1-1.3-2.2-1.9-4.2c0.4,2.1,0.4,4,0.5,6
	c0.1,2.4,0.1,3.1,0.1,5.4c3.2,0,3.8,0.2,3.5,2.6c-0.3,2-0.8,2.3-4.6,2.1c-1.5-0.1-2.7-0.1-3.8-0.1c-2.4,0.1-2.9,0-3.1-2.1
	c-0.2-2.1,0.5-2.7,3.4-2.6c0-2.1,0-2.7,0-4.9c0-2.4,0-3.2,0-5.7c0-1-0.1-2.1-0.1-3.2c-2.8,0.3-3.2,0.1-3.2-2.5
	c0-1.8,0.6-2.3,4.1-2.3c0.6,0,2.5-0.1,3.2,0.2c1.1,0.5,1.5,1.2,2.7,3.1c0.8,1.3,1.5,2.4,2.3,3.5c1.1,1.7,2.2,3.2,3.2,4.7
	c1.4,2.1,1.9,2.9,2.4,4.8c-0.2-2.4-0.2-3.4-0.3-4.9c-0.1-1.9-0.1-2.2-0.1-4.2c0-0.8,0-1.6,0-2.4c-2.7,0.1-3.5-0.2-3.5-2.5
	c0-1.9,0.3-2.3,5.9-2.3h2.5c2.1,0,2.7,0.3,2.7,2.4c0,2.1-0.4,2.3-3,2.3v2.4c0,1.8,0,2.7,0,4.6c0,3.7,0.1,5,0.1,8.4
	c0,2.4-0.1,3.5-2.5,3.6C363.4,50,362.8,49.6,361.1,47.3z"/>
<path class="st1" d="M364.7,49c-0.8,0-1.1,0-2.8-2.3c-1.1-1.5-1.9-2.6-2.8-4c-0.8-1.3-2.6-3.9-3.8-5.6c-0.7-1.1-1.2-2.1-1.8-3.9
	l-1.9,0.5c0.3,1.8,0.4,3.6,0.5,5.2l0,0.6c0.1,2.3,0.1,3,0.1,5.4v1h1c0.6,0,2.2,0,2.5,0.2c0,0,0.1,0.2,0,1.2
	c-0.2,1.2-0.2,1.3-1.9,1.3c-0.5,0-1,0-1.7-0.1c-1.1-0.1-1.9-0.1-2.6-0.1c-0.4,0-0.8,0-1.3,0c-0.4,0-0.7,0-1,0c-0.9,0-0.9,0-1.1-1.2
	c-0.1-0.8,0-1.1,0.1-1.2c0.1-0.1,0.5-0.3,2.1-0.3l1.2,0l0-1c0-2.1,0-2.7,0-4.9c0-1.2,0-2,0-2.8c0-0.8,0-1.6,0-2.9c0-0.5,0-1,0-1.6
	c0-0.5,0-1.1,0-1.6v-1.1l-1.1,0.1c-0.6,0.1-1.1,0.1-1.4,0.1c-0.5,0-0.6-0.1-0.6-0.1c0-0.1-0.1-0.4-0.1-1.5c0-1.1,0-1.3,2.7-1.3
	l1.1,0c1.5,0,1.9,0.1,2,0.2c0.7,0.3,0.9,0.7,1.9,2.2l1.1,1.7c0.5,0.8,1,1.6,1.5,2.4c0.5,0.8,1.1,1.6,1.6,2.4
	c0.5,0.8,1.1,1.5,1.6,2.3c1.3,2,1.8,2.8,2.3,4.5l2-0.3c-0.2-2.3-0.2-3.3-0.3-4.9c0-1-0.1-4.2-0.1-4.2c0-0.8,0-1.6,0-2.4v-1l-1,0
	c-0.2,0-0.4,0-0.6,0c-0.3,0-1.3,0-1.6-0.2c-0.1-0.1-0.2-0.3-0.2-1.3c0-1.1,0-1.3,4.9-1.3h2.5c1.7,0,1.7,0,1.7,1.4c0,1.3,0,1.3-2,1.3
	h-1v3.4c0,0.9,0,1.6,0,2.3c0,0.7,0,1.4,0,2.3c0,1.6,0,2.7,0.1,3.7c0,1.4,0,2.7,0,4.7c0,2.5-0.2,2.6-1.5,2.6L364.7,49z"/>
<path class="st0" d="M371.6,43.8c-2-5.2-0.9-11.5,2.3-14.9c1.4-1.5,4-2.9,6.5-3c2.6-0.1,4.9,0.6,6.1,2.2c0-1.7,0.7-2.1,2.1-2.2
	c2.2-0.2,2.8,0.6,2.4,3.3c-0.2,1.4-0.1,2.8-0.1,3.4c0,1.5-0.4,2-2.1,2c-1.2,0-1.5-0.2-2.6-1.8c-0.6-0.9-2-2.2-4.1-2.3
	c-1.9-0.1-3.3,0.6-4.5,1.5c-1,1-2,2.5-2.3,4.8c-0.3,2.3,0.1,4.6,1.4,6.5c1.1,1.5,2.8,2.4,5,2.3c2.9-0.2,4.2-1.9,4.5-4.2
	c-1.3,0-1.8,0-2.4,0c-1.2,0-2.3-0.3-2.3-1.7c0-2.6,0.1-2.9,6.8-2.9c2.3,0,2.7,0.5,2.7,3c0,6.7-4,10.6-9.7,10.6
	C376.7,50.2,373.2,48,371.6,43.8z"/>
<path class="st1" d="M381.4,49.2c-4.3,0-7.4-2-8.8-5.7c-1.8-4.8-0.9-10.7,2.1-13.9c1.2-1.2,3.5-2.6,5.8-2.7c0.2,0,0.3,0,0.5,0
	c2.1,0,3.8,0.6,4.7,1.8l1.8,2.3V28c0-1,0.2-1.1,1.2-1.2c0.2,0,0.4,0,0.5,0c0.4,0,0.6,0.1,0.7,0.2c0.1,0.1,0.3,0.5,0.1,2.1
	c-0.2,1.1-0.1,2.3-0.1,3.1c0,0.2,0,0.4,0,0.5c0,1,0,1-1.1,1c-0.8,0-0.8,0-1.7-1.3c-0.4-0.6-2-2.6-4.9-2.8c-0.1,0-0.3,0-0.4,0
	c-1.7,0-3.3,0.6-4.7,1.7c-1.6,1.5-2.4,3.3-2.7,5.5c-0.3,2.8,0.2,5.3,1.6,7.2c1.2,1.7,3.1,2.7,5.4,2.7c0.2,0,0.3,0,0.5,0
	c3.1-0.2,5.1-2,5.4-5.1l0.1-1.1l-1.1,0c-0.6,0-1.1,0-1.5,0c-0.4,0-0.7,0-1,0h-0.1c-0.6,0-0.9-0.1-1-0.2c-0.1,0-0.2-0.1-0.2-0.6
	c0-1.9,0-1.9,5.8-1.9c1.7,0,1.7,0,1.7,2C390.1,45.5,386.7,49.2,381.4,49.2z"/>
<path class="st0" d="M13.7,47.9c0,0.8-0.1,1.4-0.5,1.7c-0.6,0.4-4,0.7-4-1.2c0-1.7,0.1-2.9-0.1-4.6c-0.3-2.7,0-3.5,2-3.5
	c1.4,0,1.8,1.2,2.8,2.5c1.7,2.1,3.5,2.8,5.1,2.8c1.5,0,2.3-0.6,2.1-2c-0.5-3.2-12-5-12-11.5c0-3.9,3.1-6.2,6.9-6.2
	c2.4,0,4.4,0.8,5.6,2c0-1.5,0.5-1.8,2.2-1.9c2.2-0.1,2.6,0.5,2.4,3.1c-0.1,0.9,0,1.5,0.1,2.8c0.2,2.9-0.1,3.1-2.1,3.1
	c-0.9,0-1.4-0.4-2.3-1.7c-1.4-1.8-3.5-3-5.1-2.9c-1.5,0.1-2.1,0.9-2,1.8c0.2,2.5,12.1,4.4,12.1,11.6c0,4.4-2.9,6.5-6.8,6.5
	C17,50,15.1,49.1,13.7,47.9z"/>
<path class="st2" d="M19.7,49c-2.1,0-3.9-0.6-5.4-1.9l-1.7-1.4v2.2c0,0.5,0,0.7-0.1,0.8c-0.2,0-0.6,0.1-1.1,0.1
	c-0.5,0-0.9-0.1-1.2-0.2c-0.2-0.1-0.2-0.2-0.2-0.3l0-1c0-1.3,0-2.3-0.1-3.8c-0.2-1.6-0.1-2.1,0-2.2c0,0,0.2-0.2,0.9-0.2
	c0.5,0,0.7,0.3,1.4,1.2c0.2,0.3,0.4,0.6,0.7,0.9c1.7,2.1,3.7,3.2,5.9,3.2c1.2,0,2-0.3,2.5-0.9c0.5-0.6,0.7-1.3,0.5-2.2
	c-0.3-1.8-2.3-2.9-5-4.3c-3.3-1.8-7-3.7-7-7.1c0-3.6,3-5.2,5.9-5.2c2,0,3.8,0.6,4.9,1.7l1.7,1.7v-2.4c0-0.6,0.1-0.7,0.1-0.7
	c0,0,0.2-0.1,1.2-0.2c0.1,0,0.3,0,0.4,0c0.6,0,0.8,0.1,0.8,0.1c0.1,0.1,0.2,0.5,0.1,1.9c-0.1,0.8,0,1.4,0,2.2l0,0.7
	c0.1,1.2,0,1.8-0.1,2c-0.1,0-0.8,0-1,0c-0.3,0-0.5,0-1.5-1.3c-1.5-2-3.8-3.3-5.7-3.3c-0.1,0-0.2,0-0.3,0c-1.3,0.1-2,0.6-2.4,1
	c-0.4,0.5-0.7,1.2-0.6,1.9c0.1,1.5,1.9,2.4,4.3,3.6c3.5,1.8,7.8,4,7.8,7.9C25.5,47,23.4,49,19.7,49z"/>
<path class="st0" d="M28.9,41.8c-1.4-6.6,0.7-13.3,7.3-15.7c0.7-0.3,1.7-0.4,2.4-0.5c2.1-0.2,5.3,0.5,6.3,2.5c0-2,0.5-2.5,2.3-2.5
	c3.1,0,1.8,3.1,1.9,5.3c0.1,2.8,0.3,4.6-2.1,4.6c-1.7,0-1.8-1.1-2.5-2.3c-0.9-1.7-2.3-2.8-4.2-3c-1.9-0.2-3.2,0.4-4.4,1.2
	c-1.3,1-2.2,2.8-2.5,4.6c-0.4,2.6-0.1,5,1.4,7c1.3,1.9,3.6,2.8,6.1,2.3c1.5-0.3,2.8-1.3,3.6-2.1c1-1.1,2-1.7,3.1-0.9
	c1.7,1.2,1.2,2.8,0.6,3.6c-1.2,1.8-4.4,4.3-9.8,4C33.3,49.8,29.8,46.1,28.9,41.8z"/>
<path class="st2" d="M39.4,49.1c-0.3,0-0.6,0-1,0c-4.9-0.3-7.9-4-8.6-7.5c-1.1-5.2,0-12.1,6.7-14.5c0.5-0.2,1.2-0.3,2.2-0.4
	c0.2,0,0.4,0,0.6,0c1.8,0,4,0.7,4.7,2l1.9-0.5c0-1.5,0-1.5,1.3-1.5c0.4,0,0.8,0.1,0.9,0.2c0.3,0.3,0.2,1.4,0.1,2.3
	c-0.1,0.6-0.1,1.3-0.1,1.9l0,0.4c0.1,1.3,0.1,2.6-0.2,3c-0.2,0.2-0.6,0.2-0.9,0.2c-0.7,0-0.8-0.2-1.3-1.1c-0.1-0.2-0.2-0.4-0.3-0.7
	c-1.2-2.1-2.8-3.3-5-3.5c-0.3,0-0.6,0-0.8,0c-1.6,0-2.9,0.5-4.2,1.5c-1.5,1.1-2.6,3.2-2.9,5.3c-0.4,3.1,0.1,5.7,1.5,7.7
	c1.3,1.8,3.3,2.8,5.5,2.8c0.5,0,1.1-0.1,1.6-0.2c1.7-0.4,3.3-1.5,4.1-2.4c0.2-0.2,0.9-1,1.4-1c0,0,0.2,0,0.5,0.2
	c1.1,0.8,0.8,1.6,0.4,2.2C47,46.1,44.7,49.1,39.4,49.1z"/>
<path class="st0" d="M51.1,46.6c0.4-1.3,1-1.7,3.4-1.7c-0.2-5.4-0.2-8.4,0.1-13.9c-2.9,0.3-3.5-0.2-3.7-2.2c-0.2-2,0.4-2.5,5.9-2.5
	l2.8,0c1.9,0,2.7,0.3,2.7,2.2c0,1.8-0.6,2.2-3,2.5c-0.1,1.7-0.2,2.4-0.2,4.2c2.8,0,5.8,0,8.4-0.2c0-1.6,0.1-2.3,0-4.1
	c-2.4,0-2.8-0.4-3-2c-0.3-2.2,0.6-2.7,5.9-2.6c4.9,0.1,5.3,0.4,5.4,2.2c0.1,2-0.4,2.3-3.6,2.3c0.1,5.5-0.1,9.6,0,14.2
	c3.1-0.1,3.8,0.4,3.6,2.4c-0.2,2.1-0.7,2.3-5.1,2.1c-1.1-0.1-2.2-0.1-3.6,0.1C65,49.7,64,49.3,64.3,47c0.2-1.7,0.9-2.1,3.2-2
	c0-2.3,0-3.2,0-5.4c-2.6,0.1-5.7,0.2-8.3,0.2c0,2.2,0.1,2.8,0.1,5.2c2.2,0,3.1,0.3,3,2.2c-0.1,1.8-0.8,2.5-2.8,2.4
	c-1,0.1-3.3,0.1-4.9,0.1C51.5,49.5,50.4,48.9,51.1,46.6z"/>
<path class="st2" d="M66.3,48.6c-0.7,0-0.9-0.1-0.9-0.2c-0.1-0.1-0.2-0.3-0.1-1.3c0.1-0.9,0.1-1.1,1.6-1.1c0.2,0,0.4,0,0.6,0l1,0v-1
	c0-2.3,0-3.2,0-5.5l0-1l-1,0.1c-2.1,0.1-4.9,0.2-8.3,0.2h-1v1c0,1.2,0,2,0.1,2.8c0,0.7,0.1,1.3,0.1,2.4l0,1h1c0.4,0,1.7,0,1.9,0.3
	c0.1,0.1,0.1,0.3,0.1,0.9c-0.1,1.2-0.3,1.4-1.5,1.4l-0.2,0c-1.1,0.1-3.4,0.1-5,0.1c-1.9,0-2.4-0.3-2.5-0.4c0-0.1-0.2-0.3,0.1-1.3
	c0.2-0.6,0.3-0.9,2-0.9c0.1,0,0.3,0,0.4,0l1.1,0l0-1.1c-0.2-5.3-0.2-8.2,0.1-13.9l0.1-1.2L54.5,30C54,30,53.6,30,53.3,30
	c-1.2,0-1.2-0.1-1.4-1.4c-0.1-0.6,0-0.8,0-0.9c0.5-0.5,3.7-0.6,4.9-0.6l3,0c1.5,0,1.5,0.2,1.5,1.2c0,1.1,0,1.3-2.1,1.5L58.3,30
	l0,0.9c0,0.6-0.1,1.1-0.1,1.5c-0.1,0.8-0.1,1.5-0.1,2.8v1h1c3.5,0,6.2-0.1,8.4-0.2l0.9,0l0-1.7c0-1.1,0-1.9,0-3.4l0-1l-1.2,0
	c-1.7,0-1.7-0.1-1.8-1.1c-0.1-0.6,0-0.9,0.1-1c0.5-0.5,3.1-0.5,4-0.5c0.3,0,0.5,0,0.8,0c4.4,0.1,4.4,0.2,4.4,1.3c0,0.8-0.1,1-0.1,1
	c-0.1,0.1-0.7,0.3-2.5,0.3h-1l0,1c0,2.4,0,4.4,0,6.5c0,2.6,0,5.1,0,7.8l0,1l1,0c0.3,0,0.5,0,0.8,0c1.4,0,1.7,0.2,1.7,0.3
	c0,0.1,0.2,0.3,0.1,1c-0.1,1.2-0.1,1.3-2,1.3c-0.6,0-1.2,0-2-0.1c-0.5,0-0.9,0-1.4,0c-0.8,0-1.5,0-2.3,0.1
	C66.8,48.6,66.5,48.6,66.3,48.6z"/>
<path class="st0" d="M76.7,47c0.4-1.9,0.9-2.3,3.5-2c0-6.1-0.1-8.9,0-14.1c-3.3,0.1-4-0.3-3.5-2.8c0.4-1.6,0.8-1.9,4-1.9H95
	c2.8,0,2,3,2.3,5c0.5,3,0.1,3.6-2.3,3.5c-1.7,0-2-0.6-2.1-1.8c-0.1-0.6-0.1-1.4-0.2-2.1h-7.8c-0.1,1.9-0.1,3.2,0,4.5
	c0.9,0,1.4,0,2.3,0c0-1.7,0.6-2.4,2.1-2.5c2.1-0.1,2.5,0.6,2.4,1.7c-0.1,2.6,0,3.6,0,5.8c0,2.2-4.9,2.1-4.7,0.2l0.1-0.8H85
	c0,1.3,0,3.2,0.1,5.1c2.7-0.2,4.4-0.2,8,0.1c0-0.7-0.1-1.6,0-2.5c0.1-2.1,0.5-2.4,2.4-2.4c2.1,0,2.4,0.5,2.3,3c0,0.9,0,1.6-0.1,2.5
	c0,0.6,0.1,2.1-0.3,2.9c-0.9,1.8-5.3,0.9-8.6,0.9c-3.9,0-5,0.3-8.4,0.2C77.1,49.5,76.4,49.1,76.7,47z"/>
<path class="st2" d="M94,48.7c-0.8,0-1.6-0.1-2.5-0.1c-0.9-0.1-1.9-0.1-2.8-0.1c-1.8,0-3,0.1-4.1,0.1c-0.9,0.1-1.8,0.1-2.8,0.1
	c-0.5,0-0.9,0-1.5,0c-1.9-0.1-2.5-0.3-2.6-0.5c0,0-0.1-0.2,0-1c0.2-1.2,0.3-1.3,1.3-1.3c0.3,0,0.7,0,1.1,0.1l1.1,0.1l0-1.1
	c0-2.8,0-4.9,0-6.9c0-2.3,0-4.4,0-7.2l0-1l-1,0c-0.2,0-0.4,0-0.6,0c-1.6,0-1.9-0.2-1.9-0.2c0,0-0.1-0.2,0.1-1.3
	c0.2-1,0.2-1.1,3.1-1.1H95c0.9,0,1.2,0.2,1.2,2.5c0,0.5,0,1.1,0.1,1.6c0.3,1.8,0.1,2.1,0.1,2.2c0,0-0.2,0.2-1.2,0.2l-0.2,0
	c-1,0-1-0.1-1.1-0.9c0-0.3-0.1-0.7-0.1-1c0-0.3,0-0.7-0.1-1l-0.1-0.9H84l0,1c-0.1,1.9-0.1,3.2,0,4.6l0,0.9l0.9,0c0.3,0,0.6,0,0.8,0
	c0.2,0,1.2,0,1.5,0h1l0-1c0-1.4,0.3-1.4,1.2-1.5c0.1,0,0.2,0,0.3,0c0.8,0,1,0.2,1,0.2c0,0,0.1,0.1,0.1,0.6c0,1.7,0,2.7,0,3.8
	c0,0.6,0,1.2,0,2c0,0.4-0.8,0.7-1.5,0.7c-0.8,0-1.2-0.3-1.2-0.4l0.2-1.9H84l0,1c0,0.7,0,1.6,0,2.6c0,0.8,0,1.7,0,2.6l0,1l1-0.1
	c1.3-0.1,2.3-0.1,3.3-0.1c1.2,0,2.6,0.1,4.6,0.2l1,0.1l0-1c0-0.4,0-0.7,0-1.1c0-0.4,0-0.9,0-1.3c0.1-1.5,0.1-1.5,1.4-1.5
	c1,0,1.2,0.1,1.2,0.1c0.1,0.1,0.2,0.4,0.1,1.8c0,0.4,0,0.8,0,1.2c0,0.4,0,0.8,0,1.2c0,0.1,0,0.4,0,0.6c0,0.6,0,1.5-0.2,1.9
	C96.4,48.3,95.9,48.7,94,48.7z"/>
<path class="st0" d="M99.9,47.2c0-1.7,0.5-2.3,3.3-2.2c0.5-2.5,0.2-9.6,0-14c-2.2,0.1-2.8,0-3.5-2.1c-0.9-3,3.1-2.7,5.9-2.7h3.9
	c2.5,0,5.3,0.3,7.5,1.2c1.7,0.7,3,2,3.9,3.2c2.4,3.3,3,8.3,1.4,12.7c-0.7,2.1-2.5,3.8-4.1,4.7c-3.6,2.1-7.8,1.5-12.2,1.5
	c-1.2,0-2.2,0-3.3,0.1C100.8,49.8,99.9,49.7,99.9,47.2z M114.6,44.6c2.2-0.8,3.9-2.6,3.8-7.1c-0.1-2.9-1.4-5.3-4.6-6.3
	c-1.6-0.4-3.5-0.4-5.8-0.4c0.4,5.4,0.5,11.2,0,14.3C110.6,45.1,112.9,45.2,114.6,44.6z"/>
<path class="st2" d="M101.8,48.7c-0.7,0-0.9,0-0.9-1.5c0-1.1,0-1.2,1.8-1.2c0.2,0,0.3,0,0.5,0l0.9,0l0.2-0.8c0.5-2.5,0.3-9.2,0-14.3
	l-0.1-1l-1,0c-0.3,0-0.6,0-0.8,0c0,0,0,0,0,0c-1,0-1.2,0-1.6-1.4c-0.1-0.3-0.1-0.6,0-0.8c0.5-0.6,2.8-0.6,3.6-0.6l1.3,0h3.9
	c3,0,5.4,0.4,7.1,1.1c1.3,0.5,2.6,1.6,3.5,2.9c2.2,3.1,2.7,7.8,1.3,11.8c-0.6,1.9-2.3,3.4-3.6,4.2c-2.1,1.3-4.6,1.4-6.9,1.4
	c-0.8,0-1.5,0-2.3,0c-0.8,0-1.6,0-2.5,0c-1.3,0-2.3,0-3.4,0.1C102.3,48.7,102,48.7,101.8,48.7z M109.8,29.8c-0.5,0-1.1,0-1.7,0
	l-1.2,0l0.1,1.1c0.4,6.1,0.4,11.3,0,14.1l-0.2,1.1l1.1,0c0.7,0,1.4,0,2.1,0h0c1.5,0,3.3-0.1,4.8-0.6c3.1-1.1,4.6-3.8,4.5-8.1
	c-0.1-3.7-2-6.2-5.3-7.2C112.7,29.8,111.2,29.8,109.8,29.8z"/>
<path class="st0" d="M126.4,41.9c-0.3-3.2,0-6.3,0-11.2c-2.7-0.2-3.2-0.6-3.3-1.7c-0.2-2.1,0.1-2.7,1.8-2.9c1.4-0.2,3.1,0.2,4.6,0.2
	c4.1,0,5,0.4,5.1,2.1c0.2,2.5-0.4,2.8-3.5,2.5c0,4.7-0.3,7.5-0.1,10.1c0.1,1.7,0.6,2.8,1.3,3.5c1.9,1.8,6.1,1.4,7.1-0.8
	c0.7-1.6,0.5-2.9,0.5-5.4c-0.1-3.9-0.2-5,0-7.2c-3,0.1-3.5-0.2-3.5-2.7c0-1.9,0.5-2.1,5.6-2.1h2.2c3.2,0,3.6,0.6,3.7,2.5
	c0.1,2-0.4,2.2-3.3,2.2c-0.2,1.7-0.2,2.4-0.1,5.7c0.1,3.8,0.5,7.1-1.1,9.8c-2.9,5-12.3,4.9-15.6,0.2
	C127.1,45.4,126.6,43.8,126.4,41.9z"/>
<path class="st2" d="M135.9,49.1c-3,0-5.8-1.2-7.1-3.1c-0.7-1-1.2-2.5-1.3-4.2c-0.2-2.1-0.1-4.1-0.1-6.6c0-1.4,0.1-2.8,0.1-4.6
	l0-0.9l-0.9-0.1c-2.3-0.2-2.3-0.4-2.4-0.8c-0.2-1.7-0.1-1.7,0.9-1.8c0.3,0,0.5,0,0.8,0c0.5,0,1.1,0.1,1.8,0.1
	c0.6,0.1,1.3,0.1,1.9,0.1c4,0,4.1,0.4,4.1,1.2c0.1,1.1-0.1,1.3-0.1,1.4c0,0-0.1,0.1-0.9,0.1c-0.4,0-0.8,0-1.4-0.1l-1.1-0.1l0,1.1
	c0,1.7-0.1,3.2-0.1,4.5c-0.1,2.2-0.1,4,0,5.7c0.1,1.9,0.7,3.3,1.6,4.2c0.9,0.9,2.4,1.4,3.9,1.4c2.2,0,4.1-1,4.8-2.5
	c0.7-1.6,0.7-3,0.6-5l0-0.8c-0.1-3.9-0.2-4.9,0-7.1L141,30l-1.1,0c-0.2,0-0.4,0-0.6,0c-1.2,0-1.5-0.1-1.6-0.2
	c-0.1-0.1-0.2-0.4-0.2-1.5c0-0.6,0.1-0.7,0.1-0.8c0.3-0.3,3-0.3,4.6-0.3h2.2c2.6,0,2.6,0.2,2.7,1.5c0,0.8,0,0.9-0.1,1
	c-0.2,0.2-1.7,0.2-2.2,0.2h-0.9l-0.1,0.9c-0.2,1.8-0.2,2.5-0.1,5.8c0,0.7,0,1.3,0.1,2c0.1,2.9,0.2,5.3-1,7.3
	C141.5,47.9,138.9,49.1,135.9,49.1z"/>
<path class="st0" d="M148.6,47.6c-0.2-2.2,0-2.7,1.8-2.7h1.7c0-0.6,0-1.3,0-1.9c0-1,0-1.7,0.1-3.7c0.1-2.4,0.2-3.2,0.1-5.6
	c0-0.9,0-1.9-0.1-3c-2.9-0.2-3.4-0.4-3.4-2c0-2.5,0.6-2.8,4.1-2.4c0.9,0.1,3.5,0,4.4,0c3-0.1,3.6,0.4,3.6,2.6c0,1.6-0.5,2.1-3.9,2
	c0.1,0.9,0.1,1.9,0.1,2.8c0,2.3,0,3-0.1,5.2c-0.1,1.2-0.2,2.3-0.2,3.6c0,0.7,0,1.6,0.1,2.5c2.3,0.1,4.6,0.1,6.9,0
	c-0.1-1.4-0.1-2.3,0-3.2c0.3-1.9,0.5-2.1,2.4-2.1c2.7,0,2.7,0.8,2.3,4c-0.3,2.2,0.3,4.4-0.6,5.3c-0.8,0.8-2.4,0.5-2.8,0.5
	c-4,0-9,0-13.4,0C149.8,49.5,148.8,49,148.6,47.6z"/>
<path class="st2" d="M151.6,48.5c-1.9,0-1.9-0.5-1.9-1c-0.1-0.9-0.1-1.4,0-1.5c0,0,0,0,0,0c0,0,0.3-0.1,0.8-0.1h2.7l-0.1-1.1
	c0-0.6,0-1.2,0-1.8l0-0.6c0-0.8,0-1.5,0.1-3.1c0.1-2.3,0.2-3.2,0.1-5.7c0-0.9,0-2-0.1-3.1l-0.1-0.9l-0.9-0.1c-0.7,0-2.2-0.1-2.4-0.4
	c0,0-0.1-0.1-0.1-0.7c0-1.6,0.1-1.6,1.1-1.6c0.4,0,1,0,1.8,0.1c0.4,0,0.9,0.1,1.7,0.1c1,0,2.2,0,2.8-0.1c0.2,0,0.3,0,0.5,0
	c1.3,0,1.7,0.1,1.8,0.3c0.1,0.1,0.2,0.6,0.2,1.3c0,0.8,0,1-2,1c-0.3,0-0.6,0-0.9,0l-1.1,0l0.1,1.1c0.1,0.9,0.1,1.9,0.1,2.8
	c0,2.3,0,3-0.1,5.2c0,0.4,0,0.8-0.1,1.2c-0.1,0.8-0.1,1.6-0.1,2.5c0,0.6,0,1.6,0.1,2.6l0.1,0.9l0.9,0c1.2,0,2.3,0,3.5,0s2.3,0,3.5,0
	l1.1,0l-0.1-1.1c-0.1-1.3-0.1-2.1,0-2.9c0-0.3,0.1-1,0.3-1.2c0.1-0.1,0.9-0.1,1.1-0.1c1.2,0,1.4,0.2,1.4,0.2c0.2,0.2,0,1.8-0.1,2.7
	c-0.1,0.9-0.1,1.8-0.1,2.6c0,0.9,0,1.9-0.2,2.2c-0.1,0.1-0.4,0.3-1.3,0.3c-0.2,0-0.4,0-0.5,0c-0.1,0-0.2,0-0.3,0c-0.8,0-1.6,0-2.5,0
	c-1.7,0-3.6,0-5.4,0C155.2,48.5,153.3,48.5,151.6,48.5z"/>
<path class="st0" d="M169.6,47c0.4-1.9,0.9-2.3,3.5-2c0-6.1-0.1-8.9,0-14.1c-3.3,0.1-4-0.3-3.5-2.8c0.4-1.6,0.8-1.9,4-1.9h14.1
	c2.8,0,2,3,2.3,5c0.5,3,0.1,3.6-2.3,3.5c-1.7,0-2-0.6-2.1-1.8c-0.1-0.6-0.1-1.4-0.2-2.1h-7.8c-0.1,1.9-0.1,3.2,0,4.5
	c0.9,0,1.4,0,2.3,0c0-1.7,0.6-2.4,2.1-2.5c2.1-0.1,2.5,0.6,2.4,1.7c-0.1,2.6,0,3.6,0,5.8c0,2.2-4.9,2.1-4.7,0.2l0.1-0.8h-2.1
	c0,1.3,0,3.2,0.1,5.1c2.7-0.2,4.4-0.2,8,0.1c0-0.7-0.1-1.6,0-2.5c0.1-2.1,0.6-2.4,2.4-2.4c2.1,0,2.4,0.5,2.3,3c0,0.9,0,1.6-0.1,2.5
	c0,0.6,0.1,2.1-0.3,2.9c-0.9,1.8-5.3,0.9-8.6,0.9c-3.9,0-5,0.3-8.4,0.2C170,49.5,169.2,49.1,169.6,47z"/>
<path class="st2" d="M186.8,48.7c-0.8,0-1.6-0.1-2.5-0.1c-0.9-0.1-1.9-0.1-2.8-0.1c-1.8,0-3,0.1-4.1,0.1c-0.9,0.1-1.8,0.1-2.8,0.1
	c-0.5,0-0.9,0-1.5,0c-1.9-0.1-2.5-0.3-2.6-0.5c0,0-0.1-0.2,0-1c0.2-1.2,0.3-1.3,1.3-1.3c0.3,0,0.7,0,1.1,0.1l1.1,0.1l0-1.1
	c0-2.8,0-4.9,0-6.9c0-2.3,0-4.4,0-7.2l0-1l-1,0c-0.2,0-0.4,0-0.6,0c-1.6,0-1.9-0.2-1.9-0.2c0,0-0.1-0.2,0.1-1.3
	c0.2-1,0.2-1.1,3.1-1.1h14.1c0.9,0,1.2,0.2,1.2,2.5c0,0.5,0,1.1,0.1,1.6c0.3,1.8,0.1,2.1,0.1,2.2c0,0-0.2,0.2-1.2,0.2l-0.2,0
	c-1,0-1-0.1-1.1-0.9c0-0.3-0.1-0.7-0.1-1c0-0.3,0-0.7-0.1-1l-0.1-0.9h-9.6l0,1c-0.1,1.9-0.1,3.2,0,4.6l0,0.9l0.9,0
	c0.3,0,0.6,0,0.8,0c0.2,0,1.2,0,1.5,0h1l0-1c0-1.4,0.3-1.4,1.2-1.5c0.1,0,0.2,0,0.3,0c0.8,0,1,0.2,1,0.2c0,0,0.1,0.1,0.1,0.6
	c0,1.7,0,2.7,0,3.8c0,0.6,0,1.2,0,2c0,0.4-0.8,0.7-1.5,0.7c-0.7,0-1.2-0.3-1.2-0.4l0.2-1.9h-4.2l0,1c0,0.7,0,1.6,0,2.6
	c0,0.8,0,1.7,0,2.6l0,1l1-0.1c1.3-0.1,2.3-0.1,3.3-0.1c1.2,0,2.6,0.1,4.6,0.2l1,0.1l0-1c0-0.4,0-0.8,0-1.2c0-0.4,0-0.9,0-1.3
	c0.1-1.5,0.1-1.5,1.4-1.5c1,0,1.2,0.1,1.2,0.1c0.1,0.1,0.2,0.4,0.1,1.8c0,0.4,0,0.8,0,1.3c0,0.4,0,0.8,0,1.2c0,0.1,0,0.4,0,0.6
	c0,0.6,0,1.5-0.2,1.9C189.2,48.3,188.7,48.7,186.8,48.7z"/>
<path class="st3" d="M183,45.2c-0.6-7.1,4-11.4,8-14.4c-2-2.6-3.7-4.6-3.6-8.6c0.2-5,4.2-8.8,11-9.1c6.7-0.3,11.4,4,11.2,9.1
	c-0.2,4.2-3.7,7.6-6.6,10c2,2.5,4.4,5.1,6.6,7.4c1-1.5,1.3-2.1,2-3.5c-2.1,0-2.5-0.4-2.5-4.4c0-2.2,0.3-2.6,7.6-2.6
	c6.6,0,7.9,0.6,7.9,2.7c-0.1,4.5-0.6,4.5-4.8,4.6c-0.6,1.4-0.9,2.2-1.4,3.1c-1.3,2.5-1.7,3.3-3,5.4c0.4,0.5,1,1.4,2,2.2
	c0.9,0.8,1.6,1.3,2.6,1.4c0.8,0.1,1.6-0.3,2-1.3c0.3-0.7,0.7-1.1,1.6-0.8c3,0.9,3,5,1.5,7.1c-1.8,2.6-5.5,2.7-8,2.1
	c-2.3-0.6-4.8-2.6-6.7-4.6c-3.3,3.5-8.4,6.5-15.1,5.8C188.7,56.1,183.6,52.2,183,45.2z M204.3,45.6c-1.6-1.9-2.3-2.6-4.1-4.6
	c-0.6-0.7-3.5-3.6-4.1-4.4l-1.2,1.1c-2,1.9-3.4,3.2-3.8,5.4c-0.3,1.5,0.4,3.5,2.1,4.6c2,1.3,4.3,1.4,6.6,0.8
	C201.6,48,202.9,46.9,204.3,45.6z M201.6,23.2c0.4-1,0.1-1.9-0.7-2.5c-1.5-1-4.2-0.5-5.1,0.9c-0.9,1.5,0.4,3.2,2.1,5.2
	C199.3,25.6,200.9,24.7,201.6,23.2z"/>
</svg>
