<?xml version="1.0" encoding="utf-8"?>
<!-- Generator: Adobe Illustrator 24.1.1, SVG Export Plug-In . SVG Version: 6.00 Build 0)  -->
<svg version="1.1" id="레이어_1" xmlns="http://www.w3.org/2000/svg" xmlns:xlink="http://www.w3.org/1999/xlink" x="0px"
	 y="0px" viewBox="0 0 400 70" style="enable-background:new 0 0 400 70;" xml:space="preserve">
<style type="text/css">
	.st0{fill:#FFFFFF;}
	.st1{fill:#656EB2;}
	.st2{fill:#D6646E;}
	.st3{opacity:0.2;fill:#FFFFFF;enable-background:new    ;}
</style>
<path class="st0" d="M77,152.1c0-1.7,0.6-2.1,4.1-2.2c0-0.6-0.1-1.2-0.1-1.7c0-1.2-0.1-1.8-0.1-3.1c0-0.7-0.1-2-0.1-3.7
	c0-2.2,0-3.1,0.1-4.7v-1c-1.6,0-2.8-0.1-4.1-0.2c0,0.6,0,1.1,0,1.6c-0.1,2.2-0.5,2.8-2.1,2.9c-2.5,0.2-2.7-0.3-2.4-3.4
	c0.2-2-0.6-4,1-5.1c0.8-0.6,2.8-0.5,3.6-0.5c2.4,0,3.9,0.1,6.1,0.2c1.7,0.1,2.8,0.1,4.8,0.1l4.2-0.1c1.6,0,2,0.4,2,5.5
	c0,3.2-0.3,3.5-2.2,3.5c-2.5,0-2.8-0.3-2.6-2.4c0.1-0.8,0-1.3,0-1.9c-1.4,0.1-2.1,0.1-3.6,0c-0.1,0.7-0.1,1.3-0.1,2
	c-0.1,2.2-0.1,3.7-0.1,5.9s0.1,3.9,0.1,6.1c3.9-0.1,4.1,0.2,3.7,3.2c-0.2,1.2-1.7,1.5-3.8,1.4c-1.8-0.1-3.4-0.1-5.3,0.1
	C77.7,154.8,77,154.7,77,152.1z"/>
<path class="st1" d="M78.9,153.7c-0.8,0-0.9,0-0.9-1.5c0-0.9,0-1.1,3.2-1.2h1l-0.1-1.2c0-0.5-0.1-1-0.1-1.4c0-0.6,0-1.1,0-1.5
	c0-0.5,0-0.9,0-1.6c0-0.3-0.1-1.6-0.1-3.7c0-2.2,0-3.1,0.1-4.6l0.1-2.1h-1c-1.4,0-2.6,0-4-0.2l-1.1-0.1v1.1c0,0.6,0,1,0,1.5
	c-0.1,1.9-0.2,1.9-1.2,1.9c-0.3,0-0.5,0-0.7,0c-0.6,0-0.7-0.1-0.7-0.1c-0.2-0.3,0-1.7,0.1-2.3c0.1-0.7,0-1.3,0-1.9
	c-0.1-1.5,0-2.1,0.6-2.5c0.2-0.2,0.8-0.3,2.5-0.3h0.6c2.2,0,3.7,0.1,5.7,0.2h0.3c1.1,0.1,2,0.1,3,0.1c0.6,0,1.2,0,1.9,0l4.3-0.1
	c0.6,0,0.9,0,0.9,4.5c0,0.5,0,2.1-0.2,2.4c-0.1,0-0.3,0.1-1,0.1c-1.1,0-1.5-0.1-1.6-0.1c0,0,0-0.3,0-1.2c0.1-0.6,0-1.1,0-1.6v-1.5
	h-1c-0.7,0-1.2,0-1.7,0s-1,0-1.7,0h-1l-0.1,0.9c-0.1,0.7-0.1,1.3-0.1,2c-0.1,2.3-0.1,3.8-0.1,6c0,1.9,0,3.4,0.1,5.2l0.1,2h1
	c0.4,0,0.7,0,1,0c1.3,0,1.6,0.1,1.7,0.2c0.1,0.2,0,1.5-0.1,1.9c0,0.3-0.8,0.5-2.1,0.5c-0.2,0-0.5,0-0.7,0c-0.7,0-1.3-0.1-1.9-0.1
	c-1.1,0-2.2,0.1-3.5,0.2C79.8,153.6,79.3,153.7,78.9,153.7z"/>
<path class="st0" d="M94.8,152.1c0.1-1.3,0.5-1.9,3.6-2.1c0.2-6.7,0.3-9.5,0-14.2c-2.9-0.3-3.5-0.5-3.6-2.2
	c-0.1-2.3,0.5-2.7,3.2-2.5c1.9,0.2,3.3,0.2,5,0c2.8-0.3,3.6-0.1,3.6,2.2c0,1.9-0.6,2.3-3.6,2.5c0.2,4.9,0.3,7.4,0.1,14.1
	c2.6-0.5,3.3-0.2,3.5,1.9c0.1,2.2-0.4,2.7-2.6,2.7c-1.3,0-2.1,0-3.9,0C95.1,154.5,94.6,153.9,94.8,152.1z"/>
<path class="st1" d="M100.1,153.5c-2.5,0-4-0.2-4.3-0.5c-0.1-0.1-0.1-0.4-0.1-0.8c0.1-0.7,0.1-1,2.6-1.1h0.9v-0.9
	c0.2-7,0.3-9.6,0-14.3V135l-0.9-0.1c-2.6-0.2-2.6-0.3-2.7-1.2c0-1.1,0.1-1.3,0.1-1.3s0.2-0.1,0.9-0.1c0.3,0,0.7,0,1.1,0.1
	c1,0.1,1.8,0.1,2.6,0.1s1.6,0,2.6-0.1c0.6-0.1,1.1-0.1,1.4-0.1c1,0,1.1,0,1.1,1.3c0,1.2,0,1.3-2.7,1.5l-1,0.1v1
	c0.2,4.8,0.3,7.3,0.1,14v1.2l1.2-0.2c0.6-0.1,1.1-0.2,1.5-0.2c0.6,0,0.8,0,0.8,1.2c0.1,1.1-0.1,1.3-0.1,1.4
	c-0.1,0.1-0.3,0.2-1.4,0.2c-0.6,0-1.1,0-1.7,0C101.7,153.5,101,153.5,100.1,153.5z"/>
<path class="st0" d="M108.2,146.8c-1.4-6.6,0.7-13.3,7.3-15.7c0.7-0.3,1.7-0.4,2.4-0.5c2.1-0.2,5.3,0.5,6.3,2.5c0-2,0.5-2.5,2.3-2.5
	c3.1,0,1.8,3.1,1.9,5.3c0.1,2.8,0.3,4.6-2.1,4.6c-1.7,0-1.8-1.1-2.5-2.3c-0.9-1.7-2.3-2.8-4.2-3c-1.9-0.2-3.2,0.4-4.4,1.2
	c-1.3,1-2.2,2.8-2.5,4.6c-0.4,2.6-0.1,5,1.4,7c1.3,1.9,3.6,2.8,6.1,2.3c1.5-0.3,2.8-1.3,3.6-2.1c1-1.1,2-1.7,3.1-0.9
	c1.7,1.2,1.2,2.8,0.6,3.6c-1.2,1.8-4.4,4.3-9.8,4C112.6,154.7,109.1,151,108.2,146.8z"/>
<path class="st1" d="M118.7,154.1c-0.3,0-0.6,0-1,0c-4.9-0.3-7.9-4-8.6-7.5c-1.1-5.2,0-12.1,6.7-14.5c0.5-0.2,1.2-0.3,2.2-0.4
	c0.2,0,0.4,0,0.6,0c1.8,0,4,0.7,4.7,2l1.9-0.5c0-1.5,0-1.5,1.3-1.5c0.4,0,0.8,0.1,0.9,0.2c0.3,0.3,0.2,1.4,0.1,2.3
	c-0.1,0.6-0.1,1.3-0.1,1.9v0.4c0.1,1.3,0.1,2.6-0.2,3c-0.2,0.2-0.6,0.2-0.9,0.2c-0.7,0-0.8-0.2-1.3-1.1c-0.1-0.2-0.2-0.4-0.3-0.7
	c-1.2-2.1-2.8-3.3-5-3.5c-0.3,0-0.6,0-0.8,0c-1.6,0-2.9,0.5-4.2,1.5c-1.5,1.1-2.6,3.2-2.9,5.3c-0.4,3.1,0.1,5.7,1.5,7.7
	c1.3,1.8,3.3,2.8,5.5,2.8c0.5,0,1.1-0.1,1.6-0.2c1.7-0.4,3.3-1.5,4.1-2.4c0.2-0.2,0.9-1,1.4-1c0,0,0.2,0,0.5,0.2
	c1.1,0.8,0.8,1.6,0.4,2.2C126.3,151.1,124,154.1,118.7,154.1z"/>
<path class="st0" d="M143.1,152.1c0-1.3,0.6-1.9,1.4-1.9s1.2,0.1,1.9,0.2c-0.6-0.6-1-1.3-2.1-2.8c-1-1.5-1.6-2.4-2.8-4
	c-0.7,0.6-2.3,1.8-3.1,2.5c-0.1,0.7-0.1,1.7,0,4c2.4-0.4,2.7,0.3,2.7,2.1c0,2-0.5,2.3-5.2,2.2c-2,0-5.9,1.1-5.9-1.9
	c0-2.4,0.5-2.7,3.7-2.4c0-5.7,0.1-8.3,0.1-14.3c-3.2,0.3-3.8-0.1-3.8-2.3c0-1.8,0.4-2.2,6.1-2.4c3.7-0.1,4.4,0,4.4,2.3
	c0,1.6-0.3,1.9-2.2,2.2v5.2c0.9-0.8,1.9-1.5,2.9-2.3c1.3-1.1,3.4-3.3,4.2-3.4c-1.7,0-2.9-0.5-2.9-2.1s0.5-2,2.3-1.9
	c1.2,0.1,2.2,0.1,3.9,0c1.2,0,5.1-0.6,5.1,1.7c0,2.7-0.4,2.9-3,2.9c-0.9,0.8-2.4,2.1-3.1,2.8c-1,1-1.2,1.2-2.3,2.2
	c2.8,3.6,3.7,5.4,6.3,9.3c1.9-0.2,2.6,0,2.7,1.8c0.1,2-0.1,2.8-2.1,2.6c-1.8-0.1-2.7-0.1-5,0.1C143.5,154.8,143.1,154.5,143.1,152.1
	z"/>
<path class="st1" d="M145.7,153.6c-1.2,0-1.4-0.2-1.4-0.2s-0.1-0.3-0.1-1.3c0-0.6,0.1-0.9,0.4-0.9c0.6,0,0.9,0,1.5,0.1l2.9,0.4
	l-1.8-2c-0.5-0.5-0.9-1.2-1.8-2.4l-0.2-0.3c-0.4-0.5-0.7-1-1-1.4c-0.5-0.8-1.1-1.6-1.8-2.6l-0.6-0.8l-0.8,0.7
	c-0.2,0.2-0.5,0.4-0.9,0.7c-0.8,0.6-1.7,1.3-2.3,1.8l-0.3,0.2v0.4c-0.1,0.7-0.1,1.5-0.1,3.3v2l1.1-0.2c0.4-0.1,0.7-0.1,0.9-0.1
	c0.4,0,0.5,0.1,0.5,0.1s0.1,0.3,0.1,1.1c0,1.2,0,1.2-3.1,1.2c-0.3,0-1.1,0-1.1,0c-0.5,0-1,0-1.5,0.1c-0.5,0-1.1,0.1-1.6,0.1
	c-0.7,0-1.1-0.1-1.4-0.3c-0.1-0.1-0.4-0.2-0.4-0.9c0-1.5,0-1.5,1.1-1.5c0.4,0,0.9,0,1.5,0.1l1.1,0.1V146c0-3.3,0-5.8,0-10.2v-1.1
	l-1.1,0.1c-0.6,0-1,0.1-1.4,0.1c-0.9,0-1.1-0.1-1.1-0.2s-0.2-0.3-0.2-1.2c0-1,0-1.2,5.1-1.4c0.5,0,1,0,1.4,0c1.9,0,1.9,0,1.9,1.3
	c0,0.7-0.1,0.9-0.1,0.9c-0.1,0.1-0.3,0.2-1.3,0.3l-0.8,0.1v8.3l1.7-1.5c0.4-0.4,0.9-0.7,1.4-1.1s1-0.7,1.5-1.2
	c0.3-0.3,0.7-0.6,1.1-1c0.8-0.7,2.2-2,2.6-2.2l-0.2-2H145c-0.8,0-1.2-0.2-1.4-0.3c-0.2-0.1-0.3-0.3-0.3-0.8c0-0.6,0.1-0.8,0.1-0.8
	l0,0c0,0,0.1-0.1,0.7-0.1c0.1,0,0.3,0,0.4,0c0.6,0,1.2,0,1.8,0c0.6,0,1.3,0,2.2,0c0.2,0,0.4,0,0.6,0c0.4,0,0.9-0.1,1.4-0.1
	c1.4,0,2.1,0.3,2.1,0.7c0,1.9,0,1.9-2,1.9h-0.4l-0.3,0.2c-0.9,0.8-2.5,2.1-3.2,2.8l-0.2,0.2c-0.8,0.8-1.1,1.1-2.1,1.9l-0.7,0.6
	l0.6,0.7c1.8,2.3,2.8,3.9,4,5.8c0.7,1,1.4,2.1,2.3,3.5l0.3,0.5h0.6c0.3,0,0.6,0,0.8,0c0.7,0,0.8,0,0.8,0.9c0,1.1,0,1.4-0.1,1.5l0,0
	c0,0-0.1,0.1-0.6,0.1c-0.1,0-0.2,0-0.3,0c-0.7,0-1.3-0.1-1.9-0.1c-0.8,0-1.6,0-2.8,0.1H147C146.7,153.6,146.2,153.6,145.7,153.6z"/>
<path class="st0" d="M155.1,152c0.4-1.9,0.9-2.3,3.5-2c0-6.1-0.1-8.9,0-14.1c-3.3,0.1-4-0.3-3.5-2.8c0.4-1.6,0.8-1.9,4-1.9h14.1
	c2.8,0,2,3,2.3,5c0.5,3,0.1,3.6-2.3,3.5c-1.7,0-2-0.6-2.1-1.8c-0.1-0.6-0.1-1.4-0.2-2.1h-7.8c-0.1,1.9-0.1,3.2,0,4.5
	c0.9,0,1.4,0,2.3,0c0-1.7,0.6-2.4,2.1-2.5c2.1-0.1,2.5,0.5,2.4,1.7c-0.1,2.6,0,3.6,0,5.8c0,2.2-4.9,2.1-4.7,0.2l0.1-0.8h-2.1
	c0,1.3,0,3.2,0.1,5.1c2.7-0.2,4.4-0.2,8,0.1c0-0.7-0.1-1.6,0-2.5c0.1-2.1,0.6-2.4,2.4-2.4c2.1,0,2.4,0.5,2.3,3c0,0.9,0,1.6-0.1,2.5
	c0,0.6,0.1,2.1-0.3,2.9c-0.9,1.8-5.3,0.9-8.6,0.9c-3.9,0-5,0.3-8.4,0.2C155.5,154.5,154.8,154,155.1,152z"/>
<path class="st1" d="M172.4,153.7c-0.8,0-1.6-0.1-2.5-0.1c-0.9-0.1-1.9-0.1-2.8-0.1c-1.8,0-3,0.1-4.1,0.1c-0.9,0.1-1.8,0.1-2.8,0.1
	c-0.5,0-0.9,0-1.5,0c-1.9-0.1-2.5-0.3-2.6-0.5c0,0-0.1-0.2,0-1c0.2-1.2,0.3-1.3,1.3-1.3c0.3,0,0.7,0,1.1,0.1l1.1,0.1V150
	c0-2.8,0-4.9,0-6.9c0-2.3,0-4.4,0-7.2v-1h-1c-0.2,0-0.4,0-0.6,0c-1.6,0-1.9-0.2-1.9-0.2s-0.1-0.2,0.1-1.3c0.2-1,0.2-1.1,3.1-1.1
	h14.1c0.9,0,1.2,0.2,1.2,2.5c0,0.5,0,1.1,0.1,1.6c0.3,1.7,0.1,2.1,0.1,2.2c0,0-0.2,0.2-1.2,0.2h-0.2c-1,0-1-0.1-1.1-0.9
	c0-0.3-0.1-0.7-0.1-1c0-0.3,0-0.7-0.1-1L172,135h-9.6v1c-0.1,1.9-0.1,3.2,0,4.6v0.9h0.9c0.3,0,0.6,0,0.8,0c0.2,0,1.2,0,1.5,0h1v-1
	c0-1.4,0.3-1.4,1.2-1.5c0.1,0,0.2,0,0.4,0c0.8,0,1,0.2,1,0.2s0.1,0.1,0.1,0.6c0,1.7,0,2.7,0,3.8c0,0.6,0,1.2,0,2
	c0,0.4-0.8,0.7-1.5,0.7s-1.2-0.3-1.2-0.4l0.2-1.9h-4.2v1c0,0.7,0,1.6,0,2.5c0,0.8,0,1.7,0,2.6v1l1-0.1c1.3-0.1,2.3-0.1,3.3-0.1
	c1.2,0,2.6,0.1,4.6,0.2l1,0.1v-1c0-0.4,0-0.7,0-1.2c0-0.4,0-0.9,0-1.3c0.1-1.5,0.1-1.5,1.4-1.5c1,0,1.2,0.1,1.2,0.1
	c0.1,0.1,0.2,0.4,0.1,1.8c0,0.4,0,0.9,0,1.3c0,0.4,0,0.8,0,1.2c0,0.1,0,0.4,0,0.6c0,0.6,0,1.5-0.2,1.9
	C174.8,153.3,174.3,153.7,172.4,153.7z"/>
<path class="st0" d="M182.2,152.1c0-1.7,0.6-2.1,4.1-2.2c0-0.6-0.1-1.2-0.1-1.7c0-1.2-0.1-1.8-0.1-3.1c0-0.7-0.1-2-0.1-3.7
	c0-2.2,0-3.1,0.1-4.7v-1c-1.6,0-2.8-0.1-4.1-0.2c0,0.6,0,1.1,0,1.6c-0.1,2.2-0.5,2.8-2.1,2.9c-2.5,0.2-2.7-0.3-2.4-3.4
	c0.2-2-0.6-4,1-5.1c0.8-0.6,2.8-0.5,3.6-0.5c2.4,0,3.9,0.1,6.1,0.2c1.7,0.1,2.8,0.1,4.8,0.1l4.2-0.1c1.6,0,2,0.4,2,5.5
	c0,3.2-0.3,3.5-2.2,3.5c-2.5,0-2.8-0.3-2.6-2.4c0.1-0.8,0-1.3,0-1.9c-1.4,0.1-2.1,0.1-3.6,0c-0.1,0.7-0.1,1.3-0.1,2
	c-0.1,2.2-0.1,3.7-0.1,5.9s0.1,3.9,0.1,6.1c3.9-0.1,4.1,0.2,3.7,3.2c-0.2,1.2-1.7,1.5-3.8,1.4c-1.8-0.1-3.4-0.1-5.3,0.1
	C182.8,154.8,182.2,154.7,182.2,152.1z"/>
<path class="st1" d="M184,153.7c-0.8,0-0.9,0-0.9-1.5c0-0.9,0-1.1,3.2-1.2h1l-0.1-1.2c0-0.5-0.1-1-0.1-1.4c0-0.6,0-1.1,0-1.5
	c0-0.5,0-0.9,0-1.6c0-0.3-0.1-1.6-0.1-3.7c0-2.2,0-3.1,0.1-4.6l0.1-2.1h-1c-1.4,0-2.6,0-4-0.2l-1.1-0.1v1.1c0,0.6,0,1,0,1.5
	c-0.2,1.8-0.3,1.8-1.3,1.8c-0.3,0-0.5,0-0.7,0c-0.6,0-0.7-0.1-0.7-0.1c-0.2-0.3,0-1.7,0.1-2.3c0.1-0.7,0-1.3,0-1.9
	c-0.1-1.5,0-2.1,0.6-2.5c0.2-0.2,0.8-0.3,2.5-0.3h0.6c2.2,0,3.7,0.1,5.7,0.2h0.3c1.1,0.1,2,0.1,3,0.1c0.6,0,1.2,0,1.9,0l4.3-0.1
	c0.6,0,0.9,0,0.9,4.5c0,0.5,0,2.1-0.2,2.4c-0.1,0-0.3,0.1-1,0.1c-1.1,0-1.5-0.1-1.6-0.1c0,0,0-0.3,0-1.2c0.1-0.6,0-1.1,0-1.6v-1.5
	h-1c-0.7,0-1.2,0-1.7,0s-1,0-1.7,0h-1l-0.1,0.9c-0.1,0.7-0.1,1.3-0.1,2c-0.1,2.3-0.1,3.8-0.1,6c0,1.9,0,3.4,0.1,5.1l0.1,2h1
	c0.4,0,0.7,0,1,0c1.3,0,1.6,0.1,1.7,0.2c0.1,0.2,0,1.5-0.1,1.9c0,0.3-0.8,0.5-2.1,0.5c-0.2,0-0.5,0-0.7,0c-0.7,0-1.3-0.1-1.9-0.1
	c-1.1,0-2.2,0.1-3.5,0.2C184.9,153.6,184.4,153.7,184,153.7z"/>
<path class="st0" d="M199.9,152.1c0.1-1.3,0.5-1.9,3.6-2.1c0.2-6.7,0.3-9.5,0-14.2c-2.9-0.3-3.5-0.5-3.6-2.2
	c-0.1-2.3,0.5-2.7,3.2-2.5c1.9,0.2,3.3,0.2,5,0c2.8-0.3,3.6-0.1,3.6,2.2c0,1.9-0.6,2.3-3.6,2.5c0.2,4.9,0.3,7.4,0.1,14.1
	c2.6-0.5,3.3-0.2,3.5,1.9c0.1,2.2-0.4,2.7-2.6,2.7c-1.3,0-2.1,0-3.9,0C200.3,154.5,199.8,153.9,199.9,152.1z"/>
<path class="st1" d="M205.3,153.5c-2.5,0-4-0.2-4.3-0.5c-0.1-0.1-0.1-0.4-0.1-0.8c0.1-0.7,0.1-1,2.6-1.1h0.9v-0.9
	c0.2-6.8,0.3-9.6,0-14.3V135l-0.9-0.1c-2.6-0.2-2.6-0.3-2.7-1.2c0-1.1,0.1-1.3,0.1-1.3s0.2-0.1,0.9-0.1c0.3,0,0.7,0,1.1,0.1
	c1,0.1,1.8,0.1,2.6,0.1c0.8,0,1.6,0,2.6-0.1c0.6-0.1,1.1-0.1,1.4-0.1c1,0,1.1,0,1.1,1.3c0,1.2,0,1.3-2.7,1.5l-1,0.1v1
	c0.2,4.8,0.3,7.3,0.1,14v1.2l1.2-0.2c0.6-0.1,1.1-0.2,1.5-0.2c0.6,0,0.8,0,0.8,1.2c0.1,1.1-0.1,1.3-0.1,1.4
	c-0.1,0.1-0.3,0.2-1.4,0.2c-0.6,0-1.1,0-1.7,0C206.8,153.5,206.2,153.5,205.3,153.5z"/>
<path class="st0" d="M228.9,152.3c-1.1-1.5-1.9-2.6-2.8-4.1c-0.8-1.3-2.6-3.9-3.8-5.6c-0.7-1.1-1.3-2.2-1.9-4.2c0.4,2.1,0.4,4,0.5,6
	c0.1,2.4,0.1,3.1,0.1,5.4c3.2,0,3.8,0.2,3.5,2.6c-0.3,2-0.8,2.3-4.6,2.1c-1.5-0.1-2.7-0.1-3.8-0.1c-2.4,0.1-2.9,0-3.1-2.1
	c-0.2-2.1,0.5-2.7,3.4-2.6c0-2.1,0-2.7,0-4.9c0-2.4,0-3.2,0-5.7c0-1-0.1-2.1-0.1-3.2c-2.8,0.3-3.2,0.1-3.2-2.5
	c0-1.8,0.6-2.3,4.1-2.3c0.6,0,2.5-0.1,3.2,0.2c1.1,0.5,1.5,1.2,2.7,3.1c0.8,1.3,1.5,2.4,2.3,3.5c1.1,1.7,2.2,3.2,3.2,4.7
	c1.4,2.1,1.9,2.9,2.4,4.8c-0.2-2.4-0.2-3.4-0.3-4.9c-0.1-1.9-0.1-2.2-0.1-4.2c0-0.8,0-1.6,0-2.4c-2.7,0.1-3.5-0.2-3.5-2.5
	c0-1.9,0.3-2.3,5.9-2.3h2.5c2.1,0,2.7,0.3,2.7,2.4c0,2.1-0.4,2.3-3,2.3v2.4c0,1.8,0,2.7,0,4.6c0,3.7,0.1,5,0.1,8.4
	c0,2.4-0.1,3.5-2.5,3.6C231.2,155,230.6,154.6,228.9,152.3z"/>
<path class="st1" d="M232.5,154c-0.8,0-1.1,0-2.8-2.3c-1.1-1.5-1.9-2.6-2.8-4c-0.8-1.3-2.6-3.9-3.8-5.6c-0.7-1.1-1.2-2.1-1.8-3.9
	l-1.9,0.5c0.3,1.8,0.4,3.6,0.5,5.2v0.6c0.1,2.3,0.1,3,0.1,5.4v1h1c0.6,0,2.2,0,2.5,0.2c0,0,0.1,0.2,0,1.2c-0.2,1.2-0.2,1.3-1.9,1.3
	c-0.5,0-1,0-1.7-0.1c-1.1-0.1-1.9-0.1-2.6-0.1c-0.4,0-0.8,0-1.3,0c-0.4,0-0.7,0-1,0c-0.9,0-0.9,0-1.1-1.2c-0.1-0.8,0-1.1,0.1-1.2
	c0.1-0.1,0.5-0.3,2.1-0.3h1.2v-1c0-2.1,0-2.7,0-4.9c0-1.2,0-2,0-2.8c0-0.8,0-1.6,0-2.9c0-0.5,0-1,0-1.6c0-0.5,0-1.1,0-1.6v-1.1
	l-1.1,0.1c-0.6,0.1-1.1,0.1-1.4,0.1c-0.5,0-0.6-0.1-0.6-0.1c0-0.1-0.1-0.4-0.1-1.5s0-1.3,2.7-1.3h1.1c1.5,0,1.9,0.1,2,0.2
	c0.7,0.3,0.9,0.7,1.9,2.2l1.1,1.7c0.5,0.8,1,1.6,1.5,2.4c0.5,0.8,1.1,1.6,1.6,2.4s1.1,1.5,1.6,2.3c1.3,2,1.8,2.8,2.3,4.5l2-0.3
	c-0.2-2.3-0.2-3.3-0.3-4.9c0-1-0.1-4.2-0.1-4.2c0-0.8,0-1.6,0-2.4v-1h-1c-0.2,0-0.4,0-0.6,0c-0.3,0-1.3,0-1.6-0.2
	c-0.1-0.1-0.2-0.3-0.2-1.3c0-1.1,0-1.3,4.9-1.3h2.5c1.7,0,1.7,0,1.7,1.4c0,1.3,0,1.3-2,1.3h-1v3.4c0,0.9,0,1.6,0,2.3
	c0,0.7,0,1.4,0,2.3c0,1.6,0,2.7,0.1,3.7c0,1.4,0,2.7,0,4.7c0,2.5-0.2,2.6-1.5,2.6L232.5,154z"/>
<path class="st0" d="M239.4,148.8c-2-5.2-0.9-11.5,2.3-14.9c1.4-1.5,4-2.9,6.5-3c2.6-0.1,4.9,0.6,6.1,2.2c0-1.7,0.7-2.1,2.1-2.2
	c2.2-0.2,2.8,0.6,2.4,3.3c-0.2,1.4-0.1,2.8-0.1,3.4c0,1.5-0.4,2-2.1,2c-1.2,0-1.5-0.2-2.6-1.8c-0.6-0.9-2-2.2-4.1-2.3
	c-1.9-0.1-3.3,0.6-4.5,1.5c-1,1-2,2.5-2.3,4.8s0.1,4.6,1.4,6.5c1.1,1.5,2.8,2.4,5,2.3c2.9-0.2,4.2-1.9,4.5-4.2c-1.3,0-1.8,0-2.4,0
	c-1.2,0-2.3-0.3-2.3-1.7c0-2.6,0.1-2.9,6.8-2.9c2.3,0,2.7,0.5,2.7,3c0,6.7-4,10.6-9.7,10.6C244.5,155.2,241,153,239.4,148.8z"/>
<path class="st1" d="M249.2,154.2c-4.3,0-7.4-2-8.8-5.7c-1.8-4.8-0.9-10.7,2.1-13.9c1.2-1.2,3.5-2.6,5.8-2.7c0.2,0,0.3,0,0.5,0
	c2.1,0,3.8,0.6,4.7,1.8l1.8,2.3v-3c0-1,0.2-1.1,1.2-1.2c0.2,0,0.4,0,0.5,0c0.4,0,0.6,0.1,0.7,0.2c0.1,0.1,0.3,0.5,0.1,2.1
	c-0.2,1.1-0.1,2.3-0.1,3.1c0,0.2,0,0.4,0,0.5c0,1,0,1-1.1,1c-0.8,0-0.8,0-1.7-1.3c-0.4-0.6-2-2.6-4.9-2.8c-0.1,0-0.3,0-0.4,0
	c-1.7,0-3.3,0.6-4.7,1.7c-1.6,1.5-2.4,3.3-2.7,5.5c-0.3,2.8,0.2,5.3,1.6,7.2c1.2,1.7,3.1,2.7,5.4,2.7c0.2,0,0.3,0,0.5,0
	c3.1-0.2,5.1-2,5.4-5.1l0.1-1.1h-1.1c-0.6,0-1.1,0-1.5,0s-0.7,0-1,0h-0.1c-0.6,0-0.9-0.1-1-0.2c-0.1,0-0.2-0.1-0.2-0.6
	c0-1.9,0-1.9,5.8-1.9c1.7,0,1.7,0,1.7,2C257.9,150.5,254.5,154.2,249.2,154.2z"/>
<path class="st0" d="M-118.5,152.9c0,0.8-0.1,1.4-0.5,1.7c-0.6,0.4-4,0.7-4-1.2c0-1.7,0.1-2.9-0.1-4.6c-0.3-2.7,0-3.5,2-3.5
	c1.4,0,1.8,1.2,2.8,2.5c1.7,2.1,3.5,2.8,5.1,2.8c1.5,0,2.3-0.6,2.1-2c-0.5-3.2-12-5-12-11.5c0-3.9,3.1-6.2,6.9-6.2
	c2.4,0,4.4,0.8,5.6,2c0-1.5,0.5-1.8,2.2-1.9c2.2-0.1,2.6,0.5,2.4,3.1c-0.1,0.9,0,1.5,0.1,2.8c0.2,2.9-0.1,3.1-2.1,3.1
	c-0.9,0-1.4-0.4-2.3-1.7c-1.4-1.8-3.5-3-5.1-2.9c-1.5,0.1-2.1,0.9-2,1.8c0.2,2.5,12.1,4.4,12.1,11.6c0,4.4-2.9,6.5-6.8,6.5
	C-115.2,155-117.1,154.1-118.5,152.9z"/>
<path class="st2" d="M-112.5,154c-2.1,0-3.9-0.6-5.4-1.9l-1.7-1.4v2.2c0,0.5,0,0.7-0.1,0.8c-0.2,0-0.6,0.1-1.1,0.1s-0.9-0.1-1.2-0.2
	c-0.2-0.1-0.2-0.2-0.2-0.3v-1c0-1.3,0-2.3-0.1-3.8c-0.2-1.6-0.1-2.1,0-2.2c0,0,0.2-0.2,0.9-0.2c0.5,0,0.7,0.3,1.4,1.2
	c0.2,0.3,0.4,0.6,0.7,0.9c1.7,2.1,3.7,3.2,5.9,3.2c1.2,0,2-0.3,2.5-0.9c0.5-0.6,0.7-1.3,0.5-2.2c-0.3-1.8-2.3-2.9-5-4.3
	c-3.3-1.8-7-3.7-7-7.1c0-3.6,3-5.2,5.9-5.2c2,0,3.8,0.6,4.9,1.7l1.7,1.7v-2.4c0-0.6,0.1-0.7,0.1-0.7s0.2-0.1,1.2-0.2
	c0.1,0,0.3,0,0.4,0c0.6,0,0.8,0.1,0.8,0.1c0.1,0.1,0.2,0.5,0.1,1.9c-0.1,0.8,0,1.4,0,2.2v0.7c0.1,1.2,0,1.8-0.1,2c-0.1,0-0.8,0-1,0
	c-0.3,0-0.5,0-1.5-1.3c-1.5-2-3.8-3.3-5.7-3.3c-0.1,0-0.2,0-0.3,0c-1.3,0.1-2,0.6-2.4,1c-0.4,0.5-0.7,1.2-0.6,1.9
	c0.1,1.5,1.9,2.4,4.3,3.6c3.5,1.8,7.8,4,7.8,7.9C-106.7,152-108.8,154-112.5,154z"/>
<path class="st0" d="M-103.3,146.8c-1.4-6.6,0.7-13.3,7.3-15.7c0.7-0.3,1.7-0.4,2.4-0.5c2.1-0.2,5.3,0.5,6.3,2.5
	c0-2,0.5-2.5,2.3-2.5c3.1,0,1.8,3.1,1.9,5.3c0.1,2.8,0.3,4.6-2.1,4.6c-1.7,0-1.8-1.1-2.5-2.3c-0.9-1.7-2.3-2.8-4.2-3
	c-1.9-0.2-3.2,0.4-4.4,1.2c-1.3,1-2.2,2.8-2.5,4.6c-0.4,2.6-0.1,5,1.4,7c1.3,1.9,3.6,2.8,6.1,2.3c1.5-0.3,2.8-1.3,3.6-2.1
	c1-1.1,2-1.7,3.1-0.9c1.7,1.2,1.2,2.8,0.6,3.6c-1.2,1.8-4.4,4.3-9.8,4C-98.9,154.8-102.4,151.1-103.3,146.8z"/>
<path class="st2" d="M-92.8,154.1c-0.3,0-0.6,0-1,0c-4.9-0.3-7.9-4-8.6-7.5c-1.1-5.2,0-12.1,6.7-14.5c0.5-0.2,1.2-0.3,2.2-0.4
	c0.2,0,0.4,0,0.6,0c1.8,0,4,0.7,4.7,2l1.9-0.5c0-1.5,0-1.5,1.3-1.5c0.4,0,0.8,0.1,0.9,0.2c0.3,0.3,0.2,1.4,0.1,2.3
	c-0.1,0.6-0.1,1.3-0.1,1.9v0.4c0.1,1.3,0.1,2.6-0.2,3c-0.2,0.2-0.6,0.2-0.9,0.2c-0.7,0-0.8-0.2-1.3-1.1c-0.1-0.2-0.2-0.4-0.3-0.7
	c-1.2-2.1-2.8-3.3-5-3.5c-0.3,0-0.6,0-0.8,0c-1.6,0-2.9,0.5-4.2,1.5c-1.5,1.1-2.6,3.2-2.9,5.3c-0.4,3.1,0.1,5.7,1.5,7.7
	c1.3,1.8,3.3,2.8,5.5,2.8c0.5,0,1.1-0.1,1.6-0.2c1.7-0.4,3.3-1.5,4.1-2.4c0.2-0.2,0.9-1,1.4-1c0,0,0.2,0,0.5,0.2
	c1.1,0.8,0.8,1.6,0.4,2.2C-85.2,151.1-87.5,154.1-92.8,154.1z"/>
<path class="st0" d="M-81.1,151.6c0.4-1.3,1-1.7,3.4-1.7c-0.2-5.4-0.2-8.4,0.1-13.9c-2.9,0.3-3.5-0.2-3.7-2.2
	c-0.2-2,0.4-2.5,5.9-2.5h2.8c1.9,0,2.7,0.3,2.7,2.2c0,1.8-0.6,2.2-3,2.5c-0.1,1.7-0.2,2.4-0.2,4.2c2.8,0,5.8,0,8.4-0.2
	c0-1.6,0.1-2.3,0-4.1c-2.4,0-2.8-0.4-3-2c-0.3-2.2,0.6-2.7,5.9-2.6c4.9,0.1,5.3,0.4,5.4,2.2c0.1,2-0.4,2.3-3.6,2.3
	c0.1,5.5-0.1,9.6,0,14.2c3.1-0.1,3.8,0.4,3.6,2.4c-0.2,2.1-0.7,2.3-5.1,2.1c-1.1-0.1-2.2-0.1-3.6,0.1c-2.1,0.1-3.1-0.3-2.8-2.6
	c0.2-1.7,0.9-2.1,3.2-2c0-2.3,0-3.2,0-5.4c-2.6,0.1-5.7,0.2-8.3,0.2c0,2.2,0.1,2.8,0.1,5.2c2.2,0,3.1,0.3,3,2.2
	c-0.1,1.8-0.8,2.5-2.8,2.4c-1,0.1-3.3,0.1-4.9,0.1C-80.7,154.5-81.8,153.9-81.1,151.6z"/>
<path class="st2" d="M-65.9,153.6c-0.7,0-0.9-0.1-0.9-0.2c-0.1-0.1-0.2-0.3-0.1-1.3c0.1-0.9,0.1-1.1,1.6-1.1c0.2,0,0.4,0,0.6,0h1v-1
	c0-2.3,0-3.2,0-5.5v-1l-1,0.1c-2.1,0.1-4.9,0.2-8.3,0.2h-1v1c0,1.2,0,2,0.1,2.8c0,0.7,0.1,1.3,0.1,2.4v1h1c0.4,0,1.7,0,1.9,0.3
	c0.1,0.1,0.1,0.3,0.1,0.9c-0.1,1.2-0.3,1.4-1.5,1.4h-0.2c-1.1,0.1-3.4,0.1-5,0.1c-1.9,0-2.4-0.3-2.5-0.4c0-0.1-0.2-0.3,0.1-1.3
	c0.2-0.6,0.3-0.9,2-0.9c0.1,0,0.3,0,0.4,0h1.1V150c-0.2-5.3-0.2-8.2,0.1-13.9l0.1-1.2l-1.5,0.1c-0.5,0-0.9,0-1.2,0
	c-1.2,0-1.2-0.1-1.4-1.4c-0.1-0.6,0-0.8,0-0.9c0.5-0.5,3.7-0.6,4.9-0.6h3c1.5,0,1.5,0.2,1.5,1.2c0,1.1,0,1.3-2.1,1.5l-0.9,0.2v0.9
	c0,0.6-0.1,1.1-0.1,1.5c-0.1,0.8-0.1,1.5-0.1,2.8v1h1c3.5,0,6.2-0.1,8.4-0.2h0.9v-1.7c0-1.1,0-1.9,0-3.4v-1H-65
	c-1.7,0-1.7-0.1-1.8-1.1c-0.1-0.6,0-0.9,0.1-1c0.5-0.5,3.1-0.5,4-0.5c0.3,0,0.5,0,0.8,0c4.4,0.1,4.4,0.2,4.4,1.3c0,0.8-0.1,1-0.1,1
	c-0.1,0.1-0.7,0.3-2.5,0.3h-1v1c0,2.4,0,4.4,0,6.5c0,2.6,0,5.1,0,7.8v1h1c0.3,0,0.5,0,0.8,0c1.4,0,1.7,0.2,1.7,0.3
	c0,0.1,0.2,0.3,0.1,1c-0.1,1.2-0.1,1.3-2,1.3c-0.6,0-1.2,0-2-0.1c-0.5,0-0.9,0-1.4,0c-0.8,0-1.5,0-2.3,0.1
	C-65.4,153.6-65.7,153.6-65.9,153.6z"/>
<path class="st0" d="M-55.5,152c0.4-1.9,0.9-2.3,3.5-2c0-6.1-0.1-8.9,0-14.1c-3.3,0.1-4-0.3-3.5-2.8c0.4-1.6,0.8-1.9,4-1.9h14.3
	c2.8,0,2,3,2.3,5c0.5,3,0.1,3.6-2.3,3.5c-1.7,0-2-0.6-2.1-1.8c-0.1-0.6-0.1-1.4-0.2-2.1h-7.8c-0.1,1.9-0.1,3.2,0,4.5
	c0.9,0,1.4,0,2.3,0c0-1.7,0.6-2.4,2.1-2.5c2.1-0.1,2.5,0.6,2.4,1.7c-0.1,2.6,0,3.6,0,5.8c0,2.2-4.9,2.1-4.7,0.2l0.1-0.8h-2.1
	c0,1.3,0,3.2,0.1,5.1c2.7-0.2,4.4-0.2,8,0.1c0-0.7-0.1-1.6,0-2.5c0.1-2.1,0.5-2.4,2.4-2.4c2.1,0,2.4,0.5,2.3,3c0,0.9,0,1.6-0.1,2.5
	c0,0.6,0.1,2.1-0.3,2.9c-0.9,1.8-5.3,0.9-8.6,0.9c-3.9,0-5,0.3-8.4,0.2C-55.1,154.5-55.8,154.1-55.5,152z"/>
<path class="st2" d="M-38.2,153.7c-0.8,0-1.6-0.1-2.5-0.1c-0.9-0.1-1.9-0.1-2.8-0.1c-1.8,0-3,0.1-4.1,0.1c-0.9,0.1-1.8,0.1-2.8,0.1
	c-0.5,0-0.9,0-1.5,0c-1.9-0.1-2.5-0.3-2.6-0.5c0,0-0.1-0.2,0-1c0.2-1.2,0.3-1.3,1.3-1.3c0.3,0,0.7,0,1.1,0.1l1.1,0.1V150
	c0-2.8,0-4.9,0-6.9c0-2.3,0-4.4,0-7.2v-1h-1c-0.2,0-0.4,0-0.6,0c-1.6,0-1.9-0.2-1.9-0.2s-0.1-0.2,0.1-1.3c0.2-1,0.2-1.1,3.1-1.1
	h14.1c0.9,0,1.2,0.2,1.2,2.5c0,0.5,0,1.1,0.1,1.6c0.3,1.8,0.1,2.1,0.1,2.2c0,0-0.2,0.2-1.2,0.2h-0.2c-1,0-1-0.1-1.1-0.9
	c0-0.3-0.1-0.7-0.1-1c0-0.3,0-0.7-0.1-1l-0.1-0.9h-9.6v1c-0.1,1.9-0.1,3.2,0,4.6v0.9h0.9c0.3,0,0.6,0,0.8,0c0.2,0,1.2,0,1.5,0h1v-1
	c0-1.4,0.3-1.4,1.2-1.5c0.1,0,0.2,0,0.3,0c0.8,0,1,0.2,1,0.2s0.1,0.1,0.1,0.6c0,1.7,0,2.7,0,3.8c0,0.6,0,1.2,0,2
	c0,0.4-0.8,0.7-1.5,0.7c-0.8,0-1.2-0.3-1.2-0.4l0.2-1.9h-4.3v1c0,0.7,0,1.6,0,2.6c0,0.8,0,1.7,0,2.6v1l1-0.1
	c1.3-0.1,2.3-0.1,3.3-0.1c1.2,0,2.6,0.1,4.6,0.2l1,0.1v-1c0-0.4,0-0.7,0-1.1c0-0.4,0-0.9,0-1.3c0.1-1.5,0.1-1.5,1.4-1.5
	c1,0,1.2,0.1,1.2,0.1c0.1,0.1,0.2,0.4,0.1,1.8c0,0.4,0,0.8,0,1.2c0,0.4,0,0.8,0,1.2c0,0.1,0,0.4,0,0.6c0,0.6,0,1.5-0.2,1.9
	C-35.8,153.3-36.3,153.7-38.2,153.7z"/>
<path class="st0" d="M-32.3,152.2c0-1.7,0.5-2.3,3.3-2.2c0.5-2.5,0.2-9.6,0-14c-2.2,0.1-2.8,0-3.5-2.1c-0.9-3,3.1-2.7,5.9-2.7h3.9
	c2.5,0,5.3,0.3,7.5,1.2c1.7,0.7,3,2,3.9,3.2c2.4,3.3,3,8.3,1.4,12.7c-0.7,2.1-2.5,3.8-4.1,4.7c-3.6,2.1-7.8,1.5-12.2,1.5
	c-1.2,0-2.2,0-3.3,0.1C-31.4,154.8-32.3,154.7-32.3,152.2z M-17.6,149.6c2.2-0.8,3.9-2.6,3.8-7.1c-0.1-2.9-1.4-5.3-4.6-6.3
	c-1.6-0.4-3.5-0.4-5.8-0.4c0.4,5.4,0.5,11.2,0,14.3C-21.6,150.1-19.3,150.2-17.6,149.6z"/>
<path class="st2" d="M-30.4,153.7c-0.7,0-0.9,0-0.9-1.5c0-1.1,0-1.2,1.8-1.2c0.2,0,0.3,0,0.5,0h0.9l0.2-0.8c0.5-2.5,0.3-9.2,0-14.3
	l-0.1-1h-1c-0.3,0-0.6,0-0.8,0l0,0c-1,0-1.2,0-1.6-1.4c-0.1-0.3-0.1-0.6,0-0.8c0.5-0.6,2.8-0.6,3.6-0.6h1.3h3.9c3,0,5.4,0.4,7.1,1.1
	c1.3,0.5,2.6,1.6,3.5,2.9c2.2,3.1,2.7,7.8,1.3,11.8c-0.6,1.9-2.3,3.4-3.6,4.2c-2.1,1.3-4.6,1.4-6.9,1.4c-0.8,0-1.5,0-2.3,0
	s-1.6,0-2.5,0c-1.3,0-2.3,0-3.4,0.1C-29.9,153.7-30.2,153.7-30.4,153.7z M-22.4,134.8c-0.5,0-1.1,0-1.7,0h-1.2l0.1,1.1
	c0.4,6.1,0.4,11.3,0,14.1l-0.2,1.1h1.1c0.7,0,1.4,0,2.1,0l0,0c1.5,0,3.3-0.1,4.8-0.6c3.1-1.1,4.6-3.8,4.5-8.1
	c-0.1-3.7-2-6.2-5.3-7.2C-19.5,134.8-21,134.8-22.4,134.8z"/>
<path class="st0" d="M-5.8,146.9c-0.3-3.2,0-6.3,0-11.2c-2.7-0.2-3.2-0.6-3.3-1.7c-0.2-2.1,0.1-2.7,1.8-2.9c1.4-0.2,3.1,0.2,4.6,0.2
	c4.1,0,5,0.4,5.1,2.1c0.2,2.5-0.4,2.8-3.5,2.5c0,4.7-0.3,7.5-0.1,10.1c0.1,1.7,0.6,2.8,1.3,3.5c1.9,1.8,6.1,1.4,7.1-0.8
	c0.7-1.6,0.5-2.9,0.5-5.4c-0.1-3.9-0.2-5,0-7.2c-3,0.1-3.5-0.2-3.5-2.7c0-1.9,0.5-2.1,5.6-2.1H12c3.2,0,3.6,0.6,3.7,2.5
	c0.1,2-0.4,2.2-3.3,2.2c-0.2,1.7-0.2,2.4-0.1,5.7c0.1,3.8,0.5,7.1-1.1,9.8c-2.9,5-12.3,4.9-15.6,0.2C-5.1,150.4-5.6,148.8-5.8,146.9
	z"/>
<path class="st2" d="M3.7,154.1c-3,0-5.8-1.2-7.1-3.1c-0.7-1-1.2-2.5-1.3-4.2c-0.2-2.1-0.1-4.1-0.1-6.6c0-1.4,0.1-2.8,0.1-4.6v-0.9
	l-0.9-0.1c-2.3-0.2-2.3-0.4-2.4-0.8c-0.2-1.7-0.1-1.7,0.9-1.8c0.3,0,0.5,0,0.8,0c0.5,0,1.1,0.1,1.8,0.1c0.6,0.1,1.3,0.1,1.9,0.1
	c4,0,4.1,0.4,4.1,1.2c0.1,1.1-0.1,1.3-0.1,1.4c0,0-0.1,0.1-0.9,0.1c-0.4,0-0.8,0-1.4-0.1l-1.1-0.1v1.1c0,1.7-0.1,3.2-0.1,4.5
	c-0.1,2.2-0.1,4,0,5.7c0.1,1.9,0.7,3.3,1.6,4.2c0.9,0.9,2.4,1.4,3.9,1.4c2.2,0,4.1-1,4.8-2.5c0.7-1.6,0.7-3,0.6-5v-0.8
	c-0.1-3.9-0.2-4.9,0-7.1V135H7.7c-0.2,0-0.4,0-0.6,0c-1.2,0-1.5-0.1-1.6-0.2s-0.2-0.4-0.2-1.5c0-0.6,0.1-0.7,0.1-0.8
	c0.3-0.3,3-0.3,4.6-0.3h2.2c2.6,0,2.6,0.2,2.7,1.5c0,0.8,0,0.9-0.1,1c-0.2,0.2-1.7,0.2-2.2,0.2h-0.9l-0.1,0.9
	c-0.2,1.8-0.2,2.5-0.1,5.8c0,0.7,0,1.3,0.1,2c0.1,2.9,0.2,5.3-1,7.3C9.3,152.9,6.7,154.1,3.7,154.1z"/>
<path class="st0" d="M16.4,152.6c-0.2-2.2,0-2.7,1.8-2.7h1.7c0-0.6,0-1.3,0-1.9c0-1,0-1.7,0.1-3.7c0.1-2.4,0.2-3.2,0.1-5.6
	c0-0.9,0-1.9-0.1-3c-2.9-0.2-3.4-0.4-3.4-2c0-2.5,0.6-2.8,4.1-2.4c0.9,0.1,3.5,0,4.4,0c3-0.1,3.6,0.4,3.6,2.6c0,1.6-0.5,2.1-3.9,2
	c0.1,0.9,0.1,1.9,0.1,2.8c0,2.3,0,3-0.1,5.2c-0.1,1.2-0.2,2.3-0.2,3.6c0,0.7,0,1.6,0.1,2.5c2.3,0.1,4.6,0.1,6.9,0
	c-0.1-1.4-0.1-2.3,0-3.2c0.3-1.9,0.5-2.1,2.4-2.1c2.7,0,2.7,0.8,2.3,4c-0.3,2.2,0.3,4.4-0.6,5.3c-0.8,0.8-2.4,0.5-2.8,0.5
	c-4,0-9,0-13.4,0C17.6,154.5,16.6,154,16.4,152.6z"/>
<path class="st2" d="M19.4,153.5c-1.9,0-1.9-0.5-1.9-1c-0.1-0.9-0.1-1.4,0-1.5l0,0c0,0,0.3-0.1,0.8-0.1H21l-0.1-1.1
	c0-0.6,0-1.2,0-1.8v-0.6c0-0.8,0-1.5,0.1-3.1c0.1-2.3,0.2-3.2,0.1-5.7c0-0.9,0-2-0.1-3.1l-0.1-0.9l-0.9-0.1c-0.7,0-2.2-0.1-2.4-0.4
	c0,0-0.1-0.1-0.1-0.7c0-1.6,0.1-1.6,1.1-1.6c0.4,0,1,0,1.8,0.1c0.4,0,0.9,0.1,1.7,0.1c1,0,2.2,0,2.8-0.1c0.2,0,0.3,0,0.5,0
	c1.3,0,1.7,0.1,1.8,0.3c0.1,0.1,0.2,0.6,0.2,1.3c0,0.8,0,1-2,1c-0.3,0-0.6,0-0.9,0h-1.1l0.1,1.1c0.1,0.9,0.1,1.9,0.1,2.8
	c0,2.3,0,3-0.1,5.2c0,0.4,0,0.8-0.1,1.2c-0.1,0.8-0.1,1.6-0.1,2.5c0,0.6,0,1.6,0.1,2.6l0.1,0.9h0.9c1.2,0,2.3,0,3.5,0s2.3,0,3.5,0
	h1.1l-0.1-1.1c-0.1-1.3-0.1-2.1,0-2.9c0-0.3,0.1-1,0.3-1.2c0.1-0.1,0.9-0.1,1.1-0.1c1.2,0,1.4,0.2,1.4,0.2c0.2,0.2,0,1.8-0.1,2.7
	c-0.1,0.9-0.1,1.8-0.1,2.6c0,0.9,0,1.9-0.2,2.2c-0.1,0.1-0.4,0.3-1.3,0.3c-0.2,0-0.4,0-0.5,0s-0.2,0-0.3,0c-0.8,0-1.6,0-2.5,0
	c-1.7,0-3.6,0-5.4,0C23,153.5,21.1,153.5,19.4,153.5z"/>
<path class="st0" d="M37.4,152c0.4-1.9,0.9-2.3,3.5-2c0-6.1-0.1-8.9,0-14.1c-3.3,0.1-4-0.3-3.5-2.8c0.4-1.6,0.8-1.9,4-1.9h14.1
	c2.8,0,2,3,2.3,5c0.5,3,0.1,3.6-2.3,3.5c-1.7,0-2-0.6-2.1-1.8c-0.1-0.6-0.1-1.4-0.2-2.1h-7.8c-0.1,1.9-0.1,3.2,0,4.5
	c0.9,0,1.4,0,2.3,0c0-1.7,0.6-2.4,2.1-2.5c2.1-0.1,2.5,0.6,2.4,1.7c-0.1,2.6,0,3.6,0,5.8c0,2.2-4.9,2.1-4.7,0.2l0.1-0.8h-2.1
	c0,1.3,0,3.2,0.1,5.1c2.7-0.2,4.4-0.2,8,0.1c0-0.7-0.1-1.6,0-2.5c0.1-2.1,0.6-2.4,2.4-2.4c2.1,0,2.4,0.5,2.3,3c0,0.9,0,1.6-0.1,2.5
	c0,0.6,0.1,2.1-0.3,2.9c-0.9,1.8-5.3,0.9-8.6,0.9c-3.9,0-5,0.3-8.4,0.2C37.8,154.5,37,154.1,37.4,152z"/>
<path class="st2" d="M54.6,153.7c-0.8,0-1.6-0.1-2.5-0.1c-0.9-0.1-1.9-0.1-2.8-0.1c-1.8,0-3,0.1-4.1,0.1c-0.9,0.1-1.8,0.1-2.8,0.1
	c-0.5,0-0.9,0-1.5,0c-1.9-0.1-2.5-0.3-2.6-0.5c0,0-0.1-0.2,0-1c0.2-1.2,0.3-1.3,1.3-1.3c0.3,0,0.7,0,1.1,0.1l1.1,0.1V150
	c0-2.8,0-4.9,0-6.9c0-2.3,0-4.4,0-7.2v-1h-1c-0.2,0-0.4,0-0.6,0c-1.6,0-1.9-0.2-1.9-0.2s-0.1-0.2,0.1-1.3c0.2-1,0.2-1.1,3.1-1.1
	h14.1c0.9,0,1.2,0.2,1.2,2.5c0,0.5,0,1.1,0.1,1.6c0.3,1.8,0.1,2.1,0.1,2.2c0,0-0.2,0.2-1.2,0.2h-0.2c-1,0-1-0.1-1.1-0.9
	c0-0.3-0.1-0.7-0.1-1c0-0.3,0-0.7-0.1-1l-0.1-0.9h-9.6v1c-0.1,1.9-0.1,3.2,0,4.6v0.9h0.9c0.3,0,0.6,0,0.8,0s1.2,0,1.5,0h1v-1
	c0-1.4,0.3-1.4,1.2-1.5c0.1,0,0.2,0,0.3,0c0.8,0,1,0.2,1,0.2s0.1,0.1,0.1,0.6c0,1.7,0,2.7,0,3.8c0,0.6,0,1.2,0,2
	c0,0.4-0.8,0.7-1.5,0.7s-1.2-0.3-1.2-0.4l0.2-1.9h-4.2v1c0,0.7,0,1.6,0,2.6c0,0.8,0,1.7,0,2.6v1l1-0.1C47,151,48,151,49,151
	c1.2,0,2.6,0.1,4.6,0.2l1,0.1v-1c0-0.4,0-0.8,0-1.2c0-0.4,0-0.9,0-1.3c0.1-1.5,0.1-1.5,1.4-1.5c1,0,1.2,0.1,1.2,0.1
	c0.1,0.1,0.2,0.4,0.1,1.8c0,0.4,0,0.8,0,1.3c0,0.4,0,0.8,0,1.2c0,0.1,0,0.4,0,0.6c0,0.6,0,1.5-0.2,1.9
	C57,153.3,56.5,153.7,54.6,153.7z"/>
<path class="st3" d="M50.8,150.2c-0.6-7.1,4-11.4,8-14.4c-2-2.6-3.7-4.6-3.6-8.6c0.2-5,4.2-8.8,11-9.1c6.7-0.3,11.4,4,11.2,9.1
	c-0.2,4.2-3.7,7.6-6.6,10c2,2.5,4.4,5.1,6.6,7.4c1-1.5,1.3-2.1,2-3.5c-2.1,0-2.5-0.4-2.5-4.4c0-2.2,0.3-2.6,7.6-2.6
	c6.6,0,7.9,0.6,7.9,2.7c-0.1,4.5-0.6,4.5-4.8,4.6c-0.6,1.4-0.9,2.2-1.4,3.1c-1.3,2.5-1.7,3.3-3,5.4c0.4,0.5,1,1.4,2,2.2
	c0.9,0.8,1.6,1.3,2.6,1.4c0.8,0.1,1.6-0.3,2-1.3c0.3-0.7,0.7-1.1,1.6-0.8c3,0.9,3,5,1.5,7.1c-1.8,2.6-5.5,2.7-8,2.1
	c-2.3-0.6-4.8-2.6-6.7-4.6c-3.3,3.5-8.4,6.5-15.1,5.8C56.5,161.1,51.4,157.2,50.8,150.2z M72.1,150.6c-1.6-1.9-2.3-2.6-4.1-4.6
	c-0.6-0.7-3.5-3.6-4.1-4.4l-1.2,1.1c-2,1.9-3.4,3.2-3.8,5.4c-0.3,1.5,0.4,3.5,2.1,4.6c2,1.3,4.3,1.4,6.6,0.8
	C69.4,153,70.7,151.9,72.1,150.6z M69.4,128.2c0.4-1,0.1-1.9-0.7-2.5c-1.5-1-4.2-0.5-5.1,0.9c-0.9,1.5,0.4,3.2,2.1,5.2
	C67.1,130.6,68.7,129.7,69.4,128.2z"/>
<g>
	<path class="st0" d="M175.9,47c-0.7,0-0.8,0-0.8-1.3c0-0.8,0-1,2.8-1h0.9l-0.1-1c0-0.4-0.1-0.9-0.1-1.2c0-0.5,0-1,0-1.3
		c0-0.4,0-0.8,0-1.4c0-0.3-0.1-1.4-0.1-3.2c0-1.9,0-2.7,0.1-4l0.1-1.8h-0.9c-1.2,0-2.3,0-3.5-0.2l-1-0.1v1c0,0.5,0,0.9,0,1.3
		c-0.1,1.7-0.2,1.7-1,1.7c-0.3,0-0.4,0-0.6,0c-0.5,0-0.6-0.1-0.6-0.1c-0.2-0.3,0-1.5,0.1-2c0.1-0.6,0-1.1,0-1.7
		c-0.1-1.3,0-1.8,0.5-2.2c0.2-0.2,0.7-0.3,2.2-0.3h0.5c1.9,0,3.2,0.1,5,0.2h0.3c1,0.1,1.7,0.1,2.6,0.1c0.5,0,1,0,1.7,0l3.8-0.1
		c0.5,0,0.8,0,0.8,3.9c0,0.4,0,1.8-0.2,2.1c-0.1,0-0.3,0.1-0.9,0.1c-1,0-1.3-0.1-1.4-0.1c0,0,0-0.3,0-1c0.1-0.5,0-1,0-1.4v-1.3h-0.9
		c-0.6,0-1,0-1.5,0s-0.9,0-1.5,0h-0.9l-0.1,0.8c-0.1,0.6-0.1,1.1-0.1,1.7c-0.1,2-0.1,3.3-0.1,5.2c0,1.7,0,3,0.1,4.5l0.1,1.7h0.9
		c0.3,0,0.6,0,0.9,0c1.1,0,1.4,0.1,1.5,0.2c0.1,0.2,0,1.3-0.1,1.7c0,0.3-0.7,0.4-1.8,0.4c-0.2,0-0.4,0-0.6,0c-0.6,0-1.1-0.1-1.7-0.1
		c-1,0-1.9,0.1-3.1,0.2C176.7,46.9,176.3,47,175.9,47z"/>
	<path class="st0" d="M194.4,46.8c-2.2,0-3.5-0.2-3.8-0.4c-0.1-0.1-0.1-0.3-0.1-0.7c0.1-0.6,0.1-0.9,2.3-1h0.8v-0.8
		c0.2-6.1,0.3-8.4,0-12.5v-0.8l-0.8-0.1c-2.3-0.2-2.3-0.3-2.4-1c0-1,0.1-1.1,0.1-1.1s0.2-0.1,0.8-0.1c0.3,0,0.6,0,1,0.1
		c0.9,0.1,1.6,0.1,2.3,0.1s1.4,0,2.3-0.1c0.5-0.1,1-0.1,1.2-0.1c0.9,0,1,0,1,1.1c0,1,0,1.1-2.4,1.3l-0.9,0.1v0.9
		c0.2,4.2,0.3,6.4,0.1,12.2v1l1-0.2c0.5-0.1,1-0.2,1.3-0.2c0.5,0,0.7,0,0.7,1c0.1,1-0.1,1.1-0.1,1.2c-0.1,0.1-0.3,0.2-1.2,0.2
		c-0.5,0-1,0-1.5,0C195.8,46.8,195.2,46.8,194.4,46.8z"/>
	<path class="st0" d="M210.7,47.3c-0.3,0-0.5,0-0.9,0c-4.3-0.3-6.9-3.5-7.5-6.6c-1-4.5,0-10.6,5.9-12.7c0.4-0.2,1-0.3,1.9-0.3
		c0.2,0,0.3,0,0.5,0c1.6,0,3.5,0.6,4.1,1.7l1.7-0.4c0-1.3,0-1.3,1.1-1.3c0.3,0,0.7,0.1,0.8,0.2c0.3,0.3,0.2,1.2,0.1,2
		c-0.1,0.5-0.1,1.1-0.1,1.7v0.3c0.1,1.1,0.1,2.3-0.2,2.6c-0.2,0.2-0.5,0.2-0.8,0.2c-0.6,0-0.7-0.2-1.1-1c-0.1-0.2-0.2-0.3-0.3-0.6
		c-1-1.8-2.4-2.9-4.4-3.1c-0.3,0-0.5,0-0.7,0c-1.4,0-2.5,0.4-3.7,1.3c-1.3,1-2.3,2.8-2.5,4.6c-0.3,2.7,0.1,5,1.3,6.7
		c1.1,1.6,2.9,2.4,4.8,2.4c0.4,0,1-0.1,1.4-0.2c1.5-0.3,2.9-1.3,3.6-2.1c0.2-0.2,0.8-0.9,1.2-0.9c0,0,0.2,0,0.4,0.2
		c1,0.7,0.7,1.4,0.3,1.9C217.3,44.7,215.3,47.3,210.7,47.3z"/>
	<path class="st0" d="M234.3,46.9c-1,0-1.2-0.2-1.2-0.2s-0.1-0.3-0.1-1.1c0-0.5,0.1-0.8,0.3-0.8c0.5,0,0.8,0,1.3,0.1l2.5,0.3
		l-1.6-1.7c-0.4-0.4-0.8-1-1.6-2.1l-0.2-0.3c-0.3-0.4-0.6-0.9-0.9-1.2c-0.4-0.7-1-1.4-1.6-2.3l-0.5-0.7l-0.7,0.6
		c-0.2,0.2-0.4,0.3-0.8,0.6c-0.7,0.5-1.5,1.1-2,1.6l-0.3,0.2v0.3c-0.1,0.6-0.1,1.3-0.1,2.9v1.7l1-0.2c0.3-0.1,0.6-0.1,0.8-0.1
		c0.3,0,0.4,0.1,0.4,0.1s0.1,0.3,0.1,1c0,1,0,1-2.7,1c-0.3,0-1,0-1,0c-0.4,0-0.9,0-1.3,0.1c-0.4,0-1,0.1-1.4,0.1
		c-0.6,0-1-0.1-1.2-0.3c-0.1-0.1-0.3-0.2-0.3-0.8c0-1.3,0-1.3,1-1.3c0.3,0,0.8,0,1.3,0.1l1,0.1v-4.5c0-2.9,0-5.1,0-8.9v-1l-1,0.1
		c-0.5,0-0.9,0.1-1.2,0.1c-0.8,0-1-0.1-1-0.2c0-0.1-0.2-0.3-0.2-1c0-0.9,0-1,4.5-1.2c0.4,0,0.9,0,1.2,0c1.7,0,1.7,0,1.7,1.1
		c0,0.6-0.1,0.8-0.1,0.8c-0.1,0.1-0.3,0.2-1.1,0.3l-0.7,0.1v7.3l1.5-1.3c0.3-0.3,0.8-0.6,1.2-1c0.4-0.3,0.9-0.6,1.3-1
		c0.3-0.3,0.6-0.5,1-0.9c0.7-0.6,1.9-1.7,2.3-1.9l-0.2-1.7h-0.1c-0.7,0-1-0.2-1.2-0.3c-0.2-0.1-0.3-0.3-0.3-0.7
		c0-0.5,0.1-0.7,0.1-0.7l0,0c0,0,0.1-0.1,0.6-0.1c0.1,0,0.3,0,0.3,0c0.5,0,1,0,1.6,0c0.5,0,1.1,0,1.9,0c0.2,0,0.3,0,0.5,0
		c0.3,0,0.8-0.1,1.2-0.1c1.2,0,1.8,0.3,1.8,0.6c0,1.7,0,1.7-1.7,1.7h-0.3l-0.3,0.2c-0.8,0.7-2.2,1.8-2.8,2.4L235,33
		c-0.7,0.7-1,1-1.8,1.7l-0.6,0.5l0.5,0.6c1.6,2,2.4,3.4,3.5,5.1c0.6,0.9,1.2,1.8,2,3.1l0.3,0.4h0.5c0.3,0,0.5,0,0.7,0
		c0.6,0,0.7,0,0.7,0.8c0,1,0,1.2-0.1,1.3l0,0c0,0-0.1,0.1-0.5,0.1c-0.1,0-0.2,0-0.3,0c-0.6,0-1.1-0.1-1.7-0.1c-0.7,0-1.4,0-2.4,0.1
		h-0.3C235.2,46.9,234.7,46.9,234.3,46.9z"/>
	<path class="st0" d="M257.6,47c-0.7,0-1.4-0.1-2.2-0.1c-0.8-0.1-1.7-0.1-2.4-0.1c-1.6,0-2.6,0.1-3.6,0.1c-0.8,0.1-1.6,0.1-2.4,0.1
		c-0.4,0-0.8,0-1.3,0c-1.7-0.1-2.2-0.3-2.3-0.4c0,0-0.1-0.2,0-0.9c0.2-1,0.3-1.1,1.1-1.1c0.3,0,0.6,0,1,0.1l1,0.1v-1
		c0-2.4,0-4.3,0-6c0-2,0-3.8,0-6.3v-0.9h-0.9c-0.2,0-0.3,0-0.5,0c-1.4,0-1.7-0.2-1.7-0.2s-0.1-0.2,0.1-1.1c0.2-0.9,0.2-1,2.7-1h12.3
		c0.8,0,1,0.2,1,2.2c0,0.4,0,1,0.1,1.4c0.3,1.5,0.1,1.8,0.1,1.9c0,0-0.2,0.2-1,0.2h-0.2c-0.9,0-0.9-0.1-1-0.8c0-0.3-0.1-0.6-0.1-0.9
		s0-0.6-0.1-0.9l-0.1-0.8h-8.4v0.9c-0.1,1.7-0.1,2.8,0,4v0.8h0.8c0.3,0,0.5,0,0.7,0s1,0,1.3,0h0.9v-0.9c0-1.2,0.3-1.2,1-1.3
		c0.1,0,0.2,0,0.3,0c0.7,0,0.9,0.2,0.9,0.2s0.1,0.1,0.1,0.5c0,1.5,0,2.4,0,3.3c0,0.5,0,1,0,1.7c0,0.3-0.7,0.6-1.3,0.6s-1-0.3-1-0.3
		l0.2-1.7H249v0.9c0,0.6,0,1.4,0,2.2c0,0.7,0,1.5,0,2.3v0.9l0.9-0.1c1.1-0.1,2-0.1,2.9-0.1c1,0,2.3,0.1,4,0.2l0.9,0.1v-0.9
		c0-0.3,0-0.6,0-1c0-0.3,0-0.8,0-1.1c0.1-1.3,0.1-1.3,1.2-1.3c0.9,0,1,0.1,1,0.1c0.1,0.1,0.2,0.3,0.1,1.6c0,0.3,0,0.8,0,1.1
		c0,0.3,0,0.7,0,1c0,0.1,0,0.3,0,0.5c0,0.5,0,1.3-0.2,1.7C259.7,46.6,259.3,47,257.6,47z"/>
	<path class="st0" d="M267.7,47c-0.7,0-0.8,0-0.8-1.3c0-0.8,0-1,2.8-1h0.9l-0.1-1c0-0.4-0.1-0.9-0.1-1.2c0-0.5,0-1,0-1.3
		c0-0.4,0-0.8,0-1.4c0-0.3-0.1-1.4-0.1-3.2c0-1.9,0-2.7,0.1-4l0.1-1.8h-0.9c-1.2,0-2.3,0-3.5-0.2l-1-0.1v1c0,0.5,0,0.9,0,1.3
		c-0.2,1.6-0.3,1.6-1.1,1.6c-0.3,0-0.4,0-0.6,0c-0.5,0-0.6-0.1-0.6-0.1c-0.2-0.3,0-1.5,0.1-2c0.1-0.6,0-1.1,0-1.7
		c-0.1-1.3,0-1.8,0.5-2.2c0.2-0.2,0.7-0.3,2.2-0.3h0.5c1.9,0,3.2,0.1,5,0.2h0.3c1,0.1,1.7,0.1,2.6,0.1c0.5,0,1,0,1.7,0l3.8-0.1
		c0.5,0,0.8,0,0.8,3.9c0,0.4,0,1.8-0.2,2.1c-0.1,0-0.3,0.1-0.9,0.1c-1,0-1.3-0.1-1.4-0.1c0,0,0-0.3,0-1c0.1-0.5,0-1,0-1.4v-1.3h-0.9
		c-0.6,0-1,0-1.5,0c-0.4,0-0.9,0-1.5,0h-0.9l-0.1,0.8c-0.1,0.6-0.1,1.1-0.1,1.7c-0.1,2-0.1,3.3-0.1,5.2c0,1.7,0,3,0.1,4.5l0.1,1.7
		h0.9c0.3,0,0.6,0,0.9,0c1.1,0,1.4,0.1,1.5,0.2c0.1,0.2,0,1.3-0.1,1.7c0,0.3-0.7,0.4-1.8,0.4c-0.2,0-0.4,0-0.6,0
		c-0.6,0-1.1-0.1-1.7-0.1c-1,0-1.9,0.1-3.1,0.2C268.5,46.9,268.1,47,267.7,47z"/>
	<path class="st0" d="M286.4,46.8c-2.2,0-3.5-0.2-3.8-0.4c-0.1-0.1-0.1-0.3-0.1-0.7c0.1-0.6,0.1-0.9,2.3-1h0.8v-0.8
		c0.2-5.9,0.3-8.4,0-12.5v-0.8l-0.8-0.1c-2.3-0.2-2.3-0.3-2.4-1c0-1,0.1-1.1,0.1-1.1s0.2-0.1,0.8-0.1c0.3,0,0.6,0,1,0.1
		c0.9,0.1,1.6,0.1,2.3,0.1c0.7,0,1.4,0,2.3-0.1c0.5-0.1,1-0.1,1.2-0.1c0.9,0,1,0,1,1.1c0,1,0,1.1-2.4,1.3l-0.9,0.1v0.9
		c0.2,4.2,0.3,6.4,0.1,12.2v1l1-0.2c0.5-0.1,1-0.2,1.3-0.2c0.5,0,0.7,0,0.7,1c0.1,1-0.1,1.1-0.1,1.2c-0.1,0.1-0.3,0.2-1.2,0.2
		c-0.5,0-1,0-1.5,0C287.7,46.8,287.1,46.8,286.4,46.8z"/>
	<path class="st0" d="M310.1,47.2c-0.7,0-1,0-2.4-2c-1-1.3-1.7-2.3-2.4-3.5c-0.7-1.1-2.3-3.4-3.3-4.9c-0.6-1-1-1.8-1.6-3.4l-1.7,0.4
		c0.3,1.6,0.3,3.1,0.4,4.5v0.5c0.1,2,0.1,2.6,0.1,4.7v0.9h0.9c0.5,0,1.9,0,2.2,0.2c0,0,0.1,0.2,0,1c-0.2,1-0.2,1.1-1.7,1.1
		c-0.4,0-0.9,0-1.5-0.1c-1-0.1-1.7-0.1-2.3-0.1c-0.3,0-0.7,0-1.1,0c-0.3,0-0.6,0-0.9,0c-0.8,0-0.8,0-1-1c-0.1-0.7,0-1,0.1-1
		c0.1-0.1,0.4-0.3,1.8-0.3h1v-0.9c0-1.8,0-2.4,0-4.3c0-1,0-1.7,0-2.4c0-0.7,0-1.4,0-2.5c0-0.4,0-0.9,0-1.4c0-0.4,0-1,0-1.4v-1
		l-1,0.1c-0.5,0.1-1,0.1-1.2,0.1c-0.4,0-0.5-0.1-0.5-0.1c0-0.1-0.1-0.3-0.1-1.3c0-1,0-1.1,2.4-1.1h1c1.3,0,1.7,0.1,1.7,0.2
		c0.6,0.3,0.8,0.6,1.7,1.9l1,1.5c0.4,0.7,0.9,1.4,1.3,2.1c0.4,0.7,1,1.4,1.4,2.1c0.4,0.7,1,1.3,1.4,2c1.1,1.7,1.6,2.4,2,3.9l1.7-0.3
		c-0.2-2-0.2-2.9-0.3-4.3c0-0.9-0.1-3.7-0.1-3.7c0-0.7,0-1.4,0-2.1v-0.9h-0.9c-0.2,0-0.3,0-0.5,0c-0.3,0-1.1,0-1.4-0.2
		c-0.1-0.1-0.2-0.3-0.2-1.1c0-1,0-1.1,4.3-1.1h2.2c1.5,0,1.5,0,1.5,1.2c0,1.1,0,1.1-1.7,1.1h-0.9v3c0,0.8,0,1.4,0,2c0,0.6,0,1.2,0,2
		c0,1.4,0,2.4,0.1,3.2c0,1.2,0,2.4,0,4.1c0,2.2-0.2,2.3-1.3,2.3L310.1,47.2z"/>
	<path class="st0" d="M324.7,47.4c-3.8,0-6.5-1.7-7.7-5c-1.6-4.2-0.8-9.3,1.8-12.1c1-1,3.1-2.3,5.1-2.4c0.2,0,0.3,0,0.4,0
		c1.8,0,3.3,0.5,4.1,1.6l1.6,2v-2.6c0-0.9,0.2-1,1-1c0.2,0,0.3,0,0.4,0c0.3,0,0.5,0.1,0.6,0.2c0.1,0.1,0.3,0.4,0.1,1.8
		c-0.2,1-0.1,2-0.1,2.7c0,0.2,0,0.3,0,0.4c0,0.9,0,0.9-1,0.9c-0.7,0-0.7,0-1.5-1.1c-0.3-0.5-1.7-2.3-4.3-2.4c-0.1,0-0.3,0-0.3,0
		c-1.5,0-2.9,0.5-4.1,1.5c-1.4,1.3-2.1,2.9-2.4,4.8c-0.3,2.4,0.2,4.6,1.4,6.3c1,1.5,2.7,2.4,4.7,2.4c0.2,0,0.3,0,0.4,0
		c2.7-0.2,4.5-1.7,4.7-4.5l0.1-1h-1c-0.5,0-1,0-1.3,0s-0.6,0-0.9,0h-0.1c-0.5,0-0.8-0.1-0.9-0.2c-0.1,0-0.2-0.1-0.2-0.5
		c0-1.7,0-1.7,5.1-1.7c1.5,0,1.5,0,1.5,1.7C332.3,44.2,329.4,47.4,324.7,47.4z"/>
	<path class="st0" d="M8.7,47.2c-1.8,0-3.4-0.5-4.7-1.7l-1.5-1.2v1.9c0,0.4,0,0.6-0.1,0.7c-0.2,0-0.5,0.1-1,0.1s-0.8-0.1-1-0.2
		c-0.2-0.1-0.2-0.2-0.2-0.3v-0.9c0-1.1,0-2-0.1-3.3c-0.2-1.4-0.1-1.8,0-1.9c0,0,0.2-0.2,0.8-0.2c0.4,0,0.6,0.3,1.2,1
		c0.2,0.3,0.3,0.5,0.6,0.8C4.2,44,6,45,7.9,45c1,0,1.7-0.3,2.2-0.8c0.4-0.5,0.6-1.1,0.4-1.9c-0.3-1.6-2-2.5-4.4-3.8
		C3.2,36.9,0,35.3,0,32.3c0-3.1,2.6-4.5,5.2-4.5c1.7,0,3.3,0.5,4.3,1.5l1.5,1.5v-2.1c0-0.5,0.1-0.6,0.1-0.6s0.2-0.1,1-0.2
		c0.1,0,0.3,0,0.3,0c0.5,0,0.7,0.1,0.7,0.1c0.1,0.1,0.2,0.4,0.1,1.7c-0.1,0.7,0,1.2,0,1.9v0.6c0.1,1,0,1.6-0.1,1.7
		c-0.1,0-0.7,0-0.9,0c-0.3,0-0.4,0-1.3-1.1c-1.3-1.7-3.3-2.9-5-2.9c-0.1,0-0.2,0-0.3,0c-1.1,0.1-1.7,0.5-2.1,0.9
		c-0.3,0.4-0.6,1-0.5,1.7c0.1,1.3,1.7,2.1,3.8,3.1c3.1,1.6,6.8,3.5,6.8,6.9C13.7,45.5,11.9,47.2,8.7,47.2z"/>
	<path class="st0" d="M25.9,47.3c-0.3,0-0.5,0-0.9,0c-4.3-0.3-6.9-3.5-7.5-6.6c-1-4.5,0-10.6,5.9-12.7c0.4-0.2,1-0.3,1.9-0.3
		c0.2,0,0.3,0,0.5,0c1.6,0,3.5,0.6,4.1,1.7l1.7-0.4c0-1.3,0-1.3,1.1-1.3c0.3,0,0.7,0.1,0.8,0.2c0.3,0.3,0.2,1.2,0.1,2
		c-0.1,0.5-0.1,1.1-0.1,1.7v0.3c0.1,1.1,0.1,2.3-0.2,2.6c-0.2,0.2-0.5,0.2-0.8,0.2c-0.6,0-0.7-0.2-1.1-1c-0.1-0.2-0.2-0.3-0.3-0.6
		c-1-1.8-2.4-2.9-4.4-3.1c-0.3,0-0.5,0-0.7,0c-1.4,0-2.5,0.4-3.7,1.3c-1.3,1-2.3,2.8-2.5,4.6c-0.3,2.7,0.1,5,1.3,6.7
		c1.1,1.6,2.9,2.4,4.8,2.4c0.4,0,1-0.1,1.4-0.2c1.5-0.3,2.9-1.3,3.6-2.1c0.2-0.2,0.8-0.9,1.2-0.9c0,0,0.2,0,0.4,0.2
		c1,0.7,0.7,1.4,0.3,1.9C32.5,44.7,30.5,47.3,25.9,47.3z"/>
	<path class="st0" d="M49.4,46.9c-0.6,0-0.8-0.1-0.8-0.2c-0.1-0.1-0.2-0.3-0.1-1.1c0.1-0.8,0.1-1,1.4-1c0.2,0,0.3,0,0.5,0h0.9v-0.9
		c0-2,0-2.8,0-4.8v-0.9l-0.9,0.1c-1.8,0.1-4.3,0.2-7.3,0.2h-0.9v0.9c0,1,0,1.7,0.1,2.4c0,0.6,0.1,1.1,0.1,2.1v0.9h0.9
		c0.3,0,1.5,0,1.7,0.3c0.1,0.1,0.1,0.3,0.1,0.8c-0.1,1-0.3,1.2-1.3,1.2h-0.2c-1,0.1-3,0.1-4.4,0.1c-1.7,0-2.1-0.3-2.2-0.3
		c0-0.1-0.2-0.3,0.1-1.1c0.2-0.5,0.3-0.8,1.7-0.8c0.1,0,0.3,0,0.3,0h1v-1c-0.2-4.6-0.2-7.2,0.1-12.1l0.1-1l-1.3,0.1
		c-0.4,0-0.8,0-1,0c-1,0-1-0.1-1.2-1.2c-0.1-0.5,0-0.7,0-0.8c0.4-0.4,3.2-0.5,4.3-0.5h2.6c1.3,0,1.3,0.2,1.3,1c0,1,0,1.1-1.8,1.3
		l-0.8,0.2v0.8c0,0.5-0.1,1-0.1,1.3c-0.1,0.7-0.1,1.3-0.1,2.4v0.9h0.9c3.1,0,5.4-0.1,7.3-0.2h0.8v-1.5c0-1,0-1.7,0-3v-0.9h-1
		c-1.5,0-1.5-0.1-1.6-1c-0.1-0.5,0-0.8,0.1-0.9c0.4-0.4,2.7-0.4,3.5-0.4c0.3,0,0.4,0,0.7,0c3.8,0.1,3.8,0.2,3.8,1.1
		c0,0.7-0.1,0.9-0.1,0.9c-0.1,0.1-0.6,0.3-2.2,0.3h-0.9v0.9c0,2.1,0,3.8,0,5.7c0,2.3,0,4.5,0,6.8v0.9h0.9c0.3,0,0.4,0,0.7,0
		c1.2,0,1.5,0.2,1.5,0.3s0.2,0.3,0.1,0.9c-0.1,1-0.1,1.1-1.7,1.1c-0.5,0-1,0-1.7-0.1c-0.4,0-0.8,0-1.2,0c-0.7,0-1.3,0-2,0.1
		C49.8,46.9,49.6,46.9,49.4,46.9z"/>
	<path class="st0" d="M73.6,47c-0.7,0-1.4-0.1-2.2-0.1c-0.8-0.1-1.7-0.1-2.4-0.1c-1.6,0-2.6,0.1-3.6,0.1C64.6,47,63.8,47,62.9,47
		c-0.4,0-0.8,0-1.3,0c-1.7-0.1-2.2-0.3-2.3-0.4c0,0-0.1-0.2,0-0.9c0.2-1,0.3-1.1,1.1-1.1c0.3,0,0.6,0,1,0.1l1,0.1v-1
		c0-2.4,0-4.3,0-6c0-2,0-3.8,0-6.3v-0.9h-0.9c-0.2,0-0.3,0-0.5,0c-1.4,0-1.7-0.2-1.7-0.2s-0.1-0.2,0.1-1.1c0.2-0.9,0.2-1,2.7-1h12.3
		c0.8,0,1,0.2,1,2.2c0,0.4,0,1,0.1,1.4c0.3,1.6,0.1,1.8,0.1,1.9c0,0-0.2,0.2-1,0.2h-0.2c-0.9,0-0.9-0.1-1-0.8c0-0.3-0.1-0.6-0.1-0.9
		s0-0.6-0.1-0.9l-0.1-0.8h-8.4v0.9c-0.1,1.7-0.1,2.8,0,4v0.8h0.8c0.3,0,0.5,0,0.7,0s1,0,1.3,0h0.9v-0.9c0-1.2,0.3-1.2,1-1.3
		c0.1,0,0.2,0,0.3,0c0.7,0,0.9,0.2,0.9,0.2s0.1,0.1,0.1,0.5c0,1.5,0,2.4,0,3.3c0,0.5,0,1,0,1.7c0,0.3-0.7,0.6-1.3,0.6
		c-0.7,0-1-0.3-1-0.3l0.2-1.7h-3.8v0.9c0,0.6,0,1.4,0,2.3c0,0.7,0,1.5,0,2.3v0.9l0.9-0.1c1.1-0.1,2-0.1,2.9-0.1c1,0,2.3,0.1,4,0.2
		l0.9,0.1V44c0-0.3,0-0.6,0-1c0-0.3,0-0.8,0-1.1c0.1-1.3,0.1-1.3,1.2-1.3c0.9,0,1,0.1,1,0.1c0.1,0.1,0.2,0.3,0.1,1.6
		c0,0.3,0,0.7,0,1s0,0.7,0,1c0,0.1,0,0.3,0,0.5c0,0.5,0,1.3-0.2,1.7C75.7,46.6,75.2,47,73.6,47z"/>
	<path class="st0" d="M80.4,47c-0.6,0-0.8,0-0.8-1.3c0-1,0-1,1.6-1c0.2,0,0.3,0,0.4,0h0.8l0.2-0.7c0.4-2.2,0.3-8,0-12.5l-0.1-0.9
		h-0.9c-0.3,0-0.5,0-0.7,0l0,0c-0.9,0-1,0-1.4-1.2c-0.1-0.3-0.1-0.5,0-0.7c0.4-0.5,2.4-0.5,3.1-0.5h1.1h3.4c2.6,0,4.7,0.3,6.2,1
		c1.1,0.4,2.3,1.4,3.1,2.5c1.9,2.7,2.4,6.8,1.1,10.3c-0.5,1.7-2,3-3.1,3.7c-1.8,1.1-4,1.2-6,1.2c-0.7,0-1.3,0-2,0s-1.4,0-2.2,0
		c-1.1,0-2,0-3,0.1C80.8,47,80.6,47,80.4,47z M87.4,30.5c-0.4,0-1,0-1.5,0h-1l0.1,1c0.3,5.3,0.3,9.9,0,12.3l-0.2,1h1
		c0.6,0,1.2,0,1.8,0l0,0c1.3,0,2.9-0.1,4.2-0.5c2.7-1,4-3.3,3.9-7.1c-0.1-3.2-1.7-5.4-4.6-6.3C89.9,30.5,88.6,30.5,87.4,30.5z"/>
	<path class="st0" d="M110.2,47.3c-2.6,0-5.1-1-6.2-2.7c-0.6-0.9-1-2.2-1.1-3.7c-0.2-1.8-0.1-3.6-0.1-5.8c0-1.2,0.1-2.4,0.1-4v-0.8
		l-0.8-0.1c-2-0.2-2-0.3-2.1-0.7c-0.2-1.5-0.1-1.5,0.8-1.6c0.3,0,0.4,0,0.7,0c0.4,0,1,0.1,1.6,0.1c0.5,0.1,1.1,0.1,1.7,0.1
		c3.5,0,3.6,0.3,3.6,1c0.1,1-0.1,1.1-0.1,1.2c0,0-0.1,0.1-0.8,0.1c-0.3,0-0.7,0-1.2-0.1l-1-0.1v1c0,1.5-0.1,2.8-0.1,3.9
		c-0.1,1.9-0.1,3.5,0,5c0.1,1.7,0.6,2.9,1.4,3.7c0.8,0.8,2.1,1.2,3.4,1.2c1.9,0,3.6-0.9,4.2-2.2c0.6-1.4,0.6-2.6,0.5-4.4v-0.7
		c-0.1-3.4-0.2-4.3,0-6.2v-1h-1c-0.2,0-0.3,0-0.5,0c-1,0-1.3-0.1-1.4-0.2s-0.2-0.3-0.2-1.3c0-0.5,0.1-0.6,0.1-0.7
		c0.3-0.3,2.6-0.3,4-0.3h1.9c2.3,0,2.3,0.2,2.4,1.3c0,0.7,0,0.8-0.1,0.9c-0.2,0.2-1.5,0.2-1.9,0.2h-0.8l-0.1,0.8
		c-0.2,1.6-0.2,2.2-0.1,5.1c0,0.6,0,1.1,0.1,1.7c0.1,2.5,0.2,4.6-0.9,6.4C115.1,46.3,112.8,47.3,110.2,47.3z"/>
	<path class="st0" d="M123.9,46.8c-1.7,0-1.7-0.4-1.7-0.9c-0.1-0.8-0.1-1.2,0-1.3l0,0c0,0,0.3-0.1,0.7-0.1h2.4l-0.1-1
		c0-0.5,0-1,0-1.6v-0.5c0-0.7,0-1.3,0.1-2.7c0.1-2,0.2-2.8,0.1-5c0-0.8,0-1.7-0.1-2.7l-0.1-0.8l-0.8-0.1c-0.6,0-1.9-0.1-2.1-0.3
		c0,0-0.1-0.1-0.1-0.6c0-1.4,0.1-1.4,1-1.4c0.3,0,0.9,0,1.6,0.1c0.3,0,0.8,0.1,1.5,0.1c0.9,0,1.9,0,2.4-0.1c0.2,0,0.3,0,0.4,0
		c1.1,0,1.5,0.1,1.6,0.3c0.1,0.1,0.2,0.5,0.2,1.1c0,0.7,0,0.9-1.7,0.9c-0.3,0-0.5,0-0.8,0h-1l0.1,1c0.1,0.8,0.1,1.7,0.1,2.4
		c0,2,0,2.6-0.1,4.5c0,0.3,0,0.7-0.1,1c-0.1,0.7-0.1,1.4-0.1,2.2c0,0.5,0,1.4,0.1,2.3l0.1,0.8h0.8c1,0,2,0,3.1,0c1,0,2,0,3.1,0h1
		l-0.1-1c-0.1-1.1-0.1-1.8,0-2.5c0-0.3,0.1-0.9,0.3-1c0.1-0.1,0.8-0.1,1-0.1c1,0,1.2,0.2,1.2,0.2c0.2,0.2,0,1.6-0.1,2.4
		c-0.1,0.8-0.1,1.6-0.1,2.3c0,0.8,0,1.7-0.2,1.9c-0.1,0.1-0.3,0.3-1.1,0.3c-0.2,0-0.3,0-0.4,0s-0.2,0-0.3,0c-0.7,0-1.4,0-2.2,0
		c-1.5,0-3.1,0-4.7,0C127.1,46.8,125.4,46.8,123.9,46.8z"/>
	<path class="st0" d="M154.7,47c-0.7,0-1.4-0.1-2.2-0.1c-0.8-0.1-1.7-0.1-2.4-0.1c-1.6,0-2.6,0.1-3.6,0.1c-0.8,0.1-1.6,0.1-2.4,0.1
		c-0.4,0-0.8,0-1.3,0c-1.7-0.1-2.2-0.3-2.3-0.4c0,0-0.1-0.2,0-0.9c0.2-1,0.3-1.1,1.1-1.1c0.3,0,0.6,0,1,0.1l1,0.1v-1
		c0-2.4,0-4.3,0-6c0-2,0-3.8,0-6.3v-0.9h-0.9c-0.2,0-0.3,0-0.5,0c-1.4,0-1.7-0.2-1.7-0.2s-0.1-0.2,0.1-1.1c0.2-0.9,0.2-1,2.7-1h12.3
		c0.8,0,1,0.2,1,2.2c0,0.4,0,1,0.1,1.4c0.3,1.6,0.1,1.8,0.1,1.9c0,0-0.2,0.2-1,0.2h-0.2c-0.9,0-0.9-0.1-1-0.8c0-0.3-0.1-0.6-0.1-0.9
		s0-0.6-0.1-0.9l-0.1-0.8h-8.4v0.9c-0.1,1.7-0.1,2.8,0,4v0.8h0.8c0.3,0,0.5,0,0.7,0s1,0,1.3,0h0.9v-0.9c0-1.2,0.3-1.2,1-1.3
		c0.1,0,0.2,0,0.3,0c0.7,0,0.9,0.2,0.9,0.2s0.1,0.1,0.1,0.5c0,1.5,0,2.4,0,3.3c0,0.5,0,1,0,1.7c0,0.3-0.7,0.6-1.3,0.6s-1-0.3-1-0.3
		l0.2-1.7H146v0.9c0,0.6,0,1.4,0,2.3c0,0.7,0,1.5,0,2.3v0.9l0.9-0.1c1.1-0.1,2-0.1,2.9-0.1c1,0,2.3,0.1,4,0.2l0.9,0.1V44
		c0-0.3,0-0.7,0-1c0-0.3,0-0.8,0-1.1c0.1-1.3,0.1-1.3,1.2-1.3c0.9,0,1,0.1,1,0.1c0.1,0.1,0.2,0.3,0.1,1.6c0,0.3,0,0.7,0,1.1
		c0,0.3,0,0.7,0,1c0,0.1,0,0.3,0,0.5c0,0.5,0,1.3-0.2,1.7C156.8,46.6,156.3,47,154.7,47z"/>
	<path class="st3" d="M151.4,43.9c-0.5-6.2,3.5-10,7-12.6c-1.7-2.3-3.2-4-3.1-7.5c0.2-4.4,3.7-7.7,9.6-8c5.9-0.3,10,3.5,9.8,8
		c-0.2,3.7-3.2,6.6-5.8,8.7c1.7,2.2,3.8,4.5,5.8,6.5c0.9-1.3,1.1-1.8,1.7-3.1c-1.8,0-2.2-0.3-2.2-3.8c0-1.9,0.3-2.3,6.6-2.3
		c5.8,0,6.9,0.5,6.9,2.4c-0.1,3.9-0.5,3.9-4.2,4c-0.5,1.2-0.8,1.9-1.2,2.7c-1.1,2.2-1.5,2.9-2.6,4.7c0.3,0.4,0.9,1.2,1.7,1.9
		c0.8,0.7,1.4,1.1,2.3,1.2c0.7,0.1,1.4-0.3,1.7-1.1c0.3-0.6,0.6-1,1.4-0.7c2.6,0.8,2.6,4.4,1.3,6.2c-1.6,2.3-4.8,2.4-7,1.8
		c-2-0.5-4.2-2.3-5.9-4c-2.9,3.1-7.3,5.7-13.2,5.1C156.3,53.4,151.9,50,151.4,43.9z M170,44.3c-1.4-1.7-2-2.3-3.6-4
		c-0.5-0.6-3.1-3.1-3.6-3.8l-1,1c-1.7,1.7-3,2.8-3.3,4.7c-0.3,1.3,0.3,3.1,1.8,4c1.7,1.1,3.8,1.2,5.8,0.7
		C167.6,46.4,168.7,45.4,170,44.3z M167.6,24.7c0.3-0.9,0.1-1.7-0.6-2.2c-1.3-0.9-3.7-0.4-4.5,0.8c-0.8,1.3,0.3,2.8,1.8,4.5
		C165.6,26.8,167,26,167.6,24.7z"/>
</g>
</svg>
