<?xml version="1.0" encoding="utf-8"?>
<!-- Generator: Adobe Illustrator 27.7.0, SVG Export Plug-In . SVG Version: 6.00 Build 0)  -->
<svg version="1.1" id="레이어_1" xmlns="http://www.w3.org/2000/svg" xmlns:xlink="http://www.w3.org/1999/xlink" x="0px"
	 y="0px" viewBox="0 0 100 100" style="enable-background:new 0 0 100 100;" xml:space="preserve">
<style type="text/css">
	.st0{fill:none;stroke:#656EB3;stroke-miterlimit:10;}
	.st1{fill:#B5837C;}
	.st2{fill:#EFB7AD;}
	.st3{fill:#8D3C46;}
	.st4{fill:#D5646D;}
</style>
<g>
	<path class="st0" d="M49.9,15.7"/>
	<g>
		<path class="st1" d="M85,30c-1.9-2.7-5.7-3.3-9-1.8c-0.1-0.1-0.1-0.2-0.2-0.3c0,0-0.1-0.1-0.1-0.1c0,0-0.1-0.1-0.1-0.1
			c0,0-0.1-0.1-0.1-0.1c0,0-0.1-0.1-0.1-0.1c0,0-0.1,0-0.1-0.1c0,0-0.1,0-0.1,0c0,0-0.1,0-0.1,0c0,0-0.1,0-0.1,0c0,0-0.1,0-0.1,0
			c0,0-0.1,0-0.1,0c0,0-0.1,0-0.1,0c0,0-0.1,0-0.1,0c0,0-0.1,0-0.1,0.1c0,0-0.1,0-0.1,0.1c0,0-0.1,0.1-0.1,0.1c0,0-0.1,0.1-0.1,0.1
			c0,0-0.1,0.1-0.1,0.1c0,0-0.1,0.1-0.1,0.1c0,0-0.1,0.1-0.1,0.1c0,0-0.1,0.1-0.1,0.1c0,0,0,0.1-0.1,0.1c0,0,0,0.1,0,0.1
			c0,0,0,0.1,0,0.1c0,0,0,0.1,0,0.1c0,0.1,0,0.1,0,0.2c0,0,0,0.1,0,0.1c0,0,0,0.1,0,0.1c0,0,0,0.1,0,0.1c0,0,0,0.1,0.1,0.1
			c0,0,0,0.1,0.1,0.1c0,0,0.1,0.1,0.1,0.1c0,0,0,0,0,0.1c-2.5,2.4-3.4,5.9-2.1,8.6c-1,0.4-10.2,3.5-14.8-0.8c0,0,0,0,0,0
			c-0.2-0.2-0.5-0.3-0.8-0.1c-10.6,8.4-29.1,25.4-39,34.6c-0.5,0.5,0.1,1.2,0.7,0.9c11.2-7.5,32.4-21.1,43-29.4l0,0
			c0.6-0.6,3-1.2,3-1.2l0,0c1.4-0.2,2.8-0.6,4.3-1c1.8-0.6,3.3-1.2,4.3-1.6c2.4,2.8,6.9,3,10.3,0.5C86.1,37.8,87.2,33.1,85,30z
			 M81.6,39.2c-2.8,2.1-6.5,1.8-8.3-0.7c-1.8-2.4-0.9-6.1,1.9-8.1c0,0,0.1,0,0.1-0.1c0,0,0,0,0.1,0c0,0,0.1-0.1,0.1-0.1
			c0,0,0.1,0,0.1-0.1c2.8-1.8,6.2-1.4,7.9,0.9C85.3,33.5,84.4,37.1,81.6,39.2z"/>
		<path class="st2" d="M84.9,29.8c-1.9-2.7-5.7-3.3-9-1.8c-0.1-0.1-0.1-0.2-0.2-0.3c0,0-0.1-0.1-0.1-0.1c0,0-0.1-0.1-0.1-0.1
			c0,0-0.1-0.1-0.1-0.1c0,0-0.1-0.1-0.1-0.1c0,0-0.1,0-0.1-0.1c0,0-0.1,0-0.1,0c0,0-0.1,0-0.1,0c0,0-0.1,0-0.1,0c0,0-0.1,0-0.1,0
			c0,0-0.1,0-0.1,0c0,0-0.1,0-0.1,0c0,0-0.1,0-0.1,0c0,0-0.1,0-0.1,0.1c0,0-0.1,0-0.1,0.1c0,0-0.1,0.1-0.1,0.1c0,0-0.1,0.1-0.1,0.1
			c0,0-0.1,0.1-0.1,0.1c0,0-0.1,0.1-0.1,0.1c0,0-0.1,0.1-0.1,0.1c0,0-0.1,0.1-0.1,0.1c0,0,0,0.1-0.1,0.1c0,0,0,0.1,0,0.1
			c0,0,0,0.1,0,0.1c0,0,0,0.1,0,0.1c0,0.1,0,0.1,0,0.2c0,0,0,0.1,0,0.1c0,0,0,0.1,0,0.1c0,0,0,0.1,0,0.1c0,0,0,0.1,0.1,0.1
			c0,0,0,0.1,0.1,0.1c0,0,0.1,0.1,0.1,0.1c0,0,0,0,0,0.1c-2.5,2.4-3.4,5.9-2.1,8.6c-1,0.4-10.2,3.5-14.8-0.8c0,0,0,0,0,0
			c-0.2-0.2-0.5-0.3-0.8-0.1c-10.6,8.4-29.1,25.4-39,34.6c-0.5,0.5,0.1,1.2,0.7,0.9c11.2-7.5,32.4-21.1,43-29.4l0,0
			c0.6-0.6,3-1.2,3-1.2l0,0c1.4-0.2,2.8-0.6,4.3-1c1.8-0.6,3.3-1.2,4.3-1.6c2.4,2.8,6.9,3,10.3,0.5C86.1,37.5,87.2,32.9,84.9,29.8z
			 M81.6,38.9c-2.8,2.1-6.5,1.8-8.3-0.7c-1.8-2.4-0.9-6.1,1.9-8.1c0,0,0.1,0,0.1-0.1c0,0,0,0,0.1,0c0,0,0.1-0.1,0.1-0.1
			c0,0,0.1,0,0.1-0.1c2.8-1.8,6.2-1.4,7.9,0.9C85.3,33.2,84.4,36.9,81.6,38.9z"/>
	</g>
	<g>
		<g>
			<path class="st3" d="M47.3,37.1l-1.1,1c-0.1,0.1-0.1,0.1-0.2,0.2c-5,3.5-14,0.2-14.1,0.2c0.9-2.8-0.3-6.3-3.1-8.5
				c-3.5-2.7-8.3-2.5-10.6,0.5c-0.1,0.2-0.3,0.4-0.4,0.6l0,0c0,0,0,0,0,0c0,0,0,0,0,0c-0.4,0.6-1.6,0.4-1.6,0.4l0,0
				c-1.1-0.2-2.2-0.1-3.3,0.3c-1.8,0.6-2.9,2-4,3.5c-0.3,0.4-0.3,1,0.2,1.3c0.4,0.3,1,0.3,1.3-0.2c0.9-1.2,1.7-2.3,3.1-2.8
				c0.4-0.1,0.8-0.2,1.3-0.3c0.1,0,1.7,0.1,2.2,1.9l0,0c0.2,2.1,1.4,4.2,3.4,5.7c3.5,2.7,8.3,2.5,10.6-0.5c0.1-0.2,0.3-0.3,0.4-0.5
				c1,0.4,2.4,1,4.2,1.5c1.5,0.5,3,0.8,4.3,1l0,0c0,0,2.4,0.6,3,1.2l0,0c10.7,8.3,31.8,22,43,29.4c0.6,0.4,1.2-0.4,0.7-0.9
				C77.1,63.5,60,47.6,49.2,38.9l0,0c0,0,0,0,0,0c-0.2-0.2-0.5-0.4-0.7-0.6c-0.3-0.3-0.7-0.6-0.9-1C47.5,37.3,47.4,37.2,47.3,37.1z
				 M21.2,39.7c-2.8-2.1-3.5-5.8-1.6-8.2s5.6-2.5,8.3-0.4c2.8,2.1,3.5,5.8,1.6,8.2C27.7,41.7,24,41.9,21.2,39.7z"/>
			<circle class="st3" cx="51.3" cy="45.1" r="1.4"/>
		</g>
		<path class="st4" d="M47.3,37.5l-1,0.9c-0.1,0.1-0.2,0.2-0.4,0.3c-5,3.4-13.9,0.1-14,0.1c0.9-2.8-0.3-6.3-3.1-8.5
			c-3.5-2.7-8.3-2.5-10.6,0.5c-0.1,0.2-0.3,0.4-0.4,0.6l0,0c0,0,0,0,0,0c0,0,0,0,0,0c-0.4,0.6-1.6,0.4-1.6,0.4l0,0
			c-1.1-0.2-2.2-0.1-3.3,0.3c-1.8,0.6-2.9,2-4,3.5c-0.3,0.4-0.3,1,0.2,1.3c0.4,0.3,1,0.3,1.3-0.2c0.9-1.2,1.7-2.3,3.1-2.8
			c0.4-0.1,0.8-0.2,1.3-0.3c0.1,0,1.7,0.1,2.2,1.9l0,0c0.2,2.1,1.4,4.2,3.4,5.7c3.5,2.7,8.3,2.5,10.6-0.5c0.1-0.2,0.3-0.3,0.4-0.5
			c1,0.4,2.4,1,4.2,1.5c1.5,0.5,3,0.8,4.3,1l0,0c0,0,2.4,0.6,3,1.2l0,0c10.7,8.3,31.8,22,43,29.4c0.6,0.4,1.2-0.4,0.7-0.9
			C77.1,63.9,60,48,49.2,39.2l0,0c0,0,0,0,0,0c-0.4-0.3-0.8-0.6-1.1-0.9C47.8,38.1,47.5,37.8,47.3,37.5z M21.2,40
			c-2.8-2.1-3.5-5.8-1.6-8.2c1.8-2.4,5.6-2.5,8.3-0.4c2.8,2.1,3.5,5.8,1.6,8.2C27.7,42,24,42.2,21.2,40z"/>
		<circle class="st2" cx="51" cy="45.5" r="1.2"/>
	</g>
	<g>
		<path d="M42.8,62.5c0.3,0,0.6,0.1,0.8,0.2c0.2,0.1,0.5,0.3,0.6,0.5c0.2,0.2,0.3,0.4,0.4,0.7c0.1,0.3,0.2,0.6,0.2,0.9
			c0,0.3,0,0.6-0.1,0.8c-0.1,0.3-0.2,0.5-0.4,0.7c-0.2,0.2-0.4,0.3-0.6,0.4c-0.2,0.1-0.5,0.2-0.8,0.2h-3.2v-1.3h2.8
			c0.1,0,0.3,0,0.4,0c0.1,0,0.2-0.1,0.3-0.2c0.1-0.1,0.2-0.2,0.2-0.3c0.1-0.1,0.1-0.2,0.1-0.4c0-0.3-0.1-0.5-0.3-0.6
			c-0.2-0.1-0.4-0.2-0.7-0.2h-0.8c-0.3,0-0.7,0-0.9-0.1s-0.5-0.2-0.7-0.4c-0.2-0.2-0.4-0.4-0.5-0.6c-0.1-0.3-0.2-0.6-0.2-0.9
			c0-0.3,0-0.5,0.1-0.7c0.1-0.2,0.2-0.4,0.4-0.6c0.2-0.2,0.3-0.3,0.6-0.4c0.2-0.1,0.5-0.2,0.7-0.2h2.9v1.4h-2.3c-0.1,0-0.3,0-0.4,0
			c-0.1,0-0.2,0-0.3,0.1c-0.1,0-0.2,0.1-0.2,0.2c0,0.1-0.1,0.2-0.1,0.4c0,0.2,0.1,0.3,0.2,0.4s0.3,0.2,0.5,0.2H42.8z"/>
		<path d="M48.2,65.5c0.1-0.1,0.2-0.2,0.2-0.3h1.2c-0.1,0.5-0.2,0.9-0.6,1.2c-0.3,0.3-0.7,0.4-1.3,0.4h-0.4c-0.3,0-0.6,0-0.8-0.1
			s-0.4-0.2-0.6-0.4s-0.3-0.4-0.4-0.6s-0.1-0.5-0.1-0.8v-1.4c0-0.3,0-0.5,0.1-0.8c0.1-0.2,0.2-0.4,0.4-0.6s0.4-0.3,0.6-0.4
			s0.5-0.1,0.8-0.1h0.4c0.5,0,1,0.1,1.3,0.4c0.3,0.3,0.5,0.7,0.6,1.2h-1.2c0-0.1-0.1-0.3-0.2-0.3c-0.1-0.1-0.3-0.1-0.4-0.1h-0.4
			c-0.2,0-0.4,0.1-0.5,0.2s-0.2,0.3-0.2,0.5v1.3c0,0.2,0.1,0.4,0.2,0.5s0.3,0.2,0.5,0.2h0.4C47.9,65.6,48,65.6,48.2,65.5z"/>
		<path d="M51.9,62.2c0.2-0.1,0.3-0.2,0.5-0.3c0.2-0.1,0.4-0.1,0.6-0.2s0.4-0.1,0.7-0.1h0.1v1.3h-0.1c-0.2,0-0.5,0-0.8,0.2
			s-0.5,0.2-0.7,0.4c-0.2,0.2-0.4,0.3-0.5,0.5c-0.1,0.2-0.2,0.4-0.2,0.6v2.2h-1.3v-5.2h1.3v1.1C51.6,62.5,51.7,62.3,51.9,62.2z"/>
		<path d="M56.7,61.6c0.3,0,0.6,0,0.8,0.1c0.2,0.1,0.4,0.2,0.6,0.4s0.3,0.4,0.4,0.6c0.1,0.2,0.1,0.5,0.1,0.8v1.4
			c0,0.3,0,0.5-0.1,0.8s-0.2,0.4-0.4,0.6s-0.4,0.3-0.6,0.4c-0.2,0.1-0.5,0.1-0.8,0.1h-0.4c-0.3,0-0.6,0-0.8-0.1
			c-0.2-0.1-0.4-0.2-0.6-0.4c-0.2-0.2-0.3-0.4-0.4-0.6c-0.1-0.2-0.1-0.5-0.1-0.8v-1.4c0-0.3,0-0.5,0.1-0.8c0.1-0.2,0.2-0.4,0.4-0.6
			c0.2-0.2,0.4-0.3,0.6-0.4c0.2-0.1,0.5-0.1,0.8-0.1H56.7z M56.3,62.8c-0.2,0-0.4,0.1-0.5,0.2s-0.2,0.3-0.2,0.5v1.3
			c0,0.2,0.1,0.4,0.2,0.5s0.3,0.2,0.5,0.2h0.4c0.2,0,0.4-0.1,0.5-0.2c0.1-0.1,0.2-0.3,0.2-0.5v-1.3c0-0.2-0.1-0.4-0.2-0.5
			c-0.1-0.1-0.3-0.2-0.5-0.2H56.3z"/>
		<path d="M59.5,59.8h1.2v7h-1.2V59.8z"/>
		<path d="M61.7,59.8h1.2v7h-1.2V59.8z"/>
	</g>
	<circle class="st4" cx="52" cy="72.9" r="1.6"/>
	<circle class="st2" cx="52" cy="78.2" r="1"/>
	<circle class="st4" cx="52" cy="82.4" r="0.6"/>
</g>
</svg>
