<?xml version="1.0" encoding="utf-8"?>
<!-- Generator: Adobe Illustrator 27.7.0, SVG Export Plug-In . SVG Version: 6.00 Build 0)  -->
<svg version="1.1" id="레이어_1" xmlns="http://www.w3.org/2000/svg" xmlns:xlink="http://www.w3.org/1999/xlink" x="0px"
	 y="0px" viewBox="0 0 100 100" style="enable-background:new 0 0 100 100;" xml:space="preserve">
<style type="text/css">
	.st0{fill:#B5837C;}
	.st1{fill:#EFB7AD;}
	.st2{fill:#8D3C46;}
	.st3{fill:#D5646D;}
</style>
<path class="st0" d="M60.9,12.6c-3.3-0.4-6.3,1.9-7.4,5.4c-0.1,0-0.2,0-0.3,0c0,0-0.1,0-0.1,0c0,0-0.1,0-0.1,0c0,0-0.1,0-0.1,0
	c0,0-0.1,0-0.1,0c0,0-0.1,0-0.1,0.1c0,0-0.1,0-0.1,0.1c0,0-0.1,0.1-0.1,0.1c0,0-0.1,0.1-0.1,0.1c0,0-0.1,0.1-0.1,0.1
	c0,0-0.1,0.1-0.1,0.1c0,0-0.1,0.1-0.1,0.1c0,0,0,0.1-0.1,0.1c0,0,0,0.1-0.1,0.1c0,0,0,0.1,0,0.1c0,0,0,0.1,0,0.1c0,0,0,0.1,0,0.2
	c0,0,0,0.1,0,0.1c0,0,0,0.1,0,0.1c0,0,0,0.1,0,0.1c0,0,0,0.1,0,0.1c0,0,0,0.1,0.1,0.1c0,0,0,0.1,0.1,0.1c0,0,0.1,0.1,0.1,0.1
	c0,0,0.1,0.1,0.1,0.1c0,0,0.1,0.1,0.1,0.1c0,0,0.1,0.1,0.1,0.1c0,0,0.1,0.1,0.1,0.1c0,0,0.1,0,0.1,0.1c0,0,0.1,0,0.1,0.1
	c0,0,0.1,0,0.1,0c0,0,0.1,0,0.1,0c0,0,0,0,0.1,0c0,3.5,2,6.5,4.9,7.4c-0.4,0.9-4.3,9.9-10.6,10.3c0,0,0,0,0,0
	c-0.3,0-0.6,0.2-0.6,0.5c-1,13.5-1.1,38.6-1.1,52.1c0,0.7,1,0.8,1.1,0.1c2.1-13.3,6.5-38.1,7.6-51.6l0,0c0-0.8,1.2-3,1.2-3l0,0
	c0.8-1.2,1.5-2.5,2.2-3.9c0.8-1.7,1.4-3.2,1.7-4.2c3.6,0.2,6.9-3,7.4-7.3C67.4,16.9,64.7,13,60.9,12.6z M65.4,21.2
	c-0.4,3.5-3.1,6-6.1,5.6c-3-0.3-5.1-3.4-4.7-6.9c0,0,0-0.1,0-0.1c0,0,0,0,0-0.1c0,0,0-0.1,0-0.1c0,0,0-0.1,0-0.1
	c0.6-3.2,3.2-5.5,6.1-5.2C63.7,14.6,65.8,17.7,65.4,21.2z"/>
<path class="st1" d="M60.7,12.4c-3.3-0.4-6.3,1.9-7.4,5.4c-0.1,0-0.2,0-0.3,0c0,0-0.1,0-0.1,0c0,0-0.1,0-0.1,0c0,0-0.1,0-0.1,0
	c0,0-0.1,0-0.1,0c0,0-0.1,0-0.1,0.1c0,0-0.1,0-0.1,0.1c0,0-0.1,0.1-0.1,0.1c0,0-0.1,0.1-0.1,0.1c0,0-0.1,0.1-0.1,0.1
	c0,0-0.1,0.1-0.1,0.1c0,0-0.1,0.1-0.1,0.1c0,0,0,0.1-0.1,0.1c0,0,0,0.1-0.1,0.1c0,0,0,0.1,0,0.1c0,0,0,0.1,0,0.1c0,0,0,0.1,0,0.2
	c0,0,0,0.1,0,0.1c0,0,0,0.1,0,0.1c0,0,0,0.1,0,0.1c0,0,0,0.1,0,0.1c0,0,0,0.1,0.1,0.1c0,0,0,0.1,0.1,0.1c0,0,0.1,0.1,0.1,0.1
	c0,0,0.1,0.1,0.1,0.1c0,0,0.1,0.1,0.1,0.1c0,0,0.1,0.1,0.1,0.1c0,0,0.1,0.1,0.1,0.1c0,0,0.1,0,0.1,0.1c0,0,0.1,0,0.1,0.1
	c0,0,0.1,0,0.1,0c0,0,0.1,0,0.1,0c0,0,0,0,0.1,0c0,3.5,2,6.5,4.9,7.4c-0.4,0.9-4.3,9.9-10.6,10.3c0,0,0,0,0,0
	c-0.3,0-0.6,0.2-0.6,0.5c-1,13.5-1.1,38.6-1.1,52.1c0,0.7,1,0.8,1.1,0.1c2.1-13.3,6.5-38.1,7.6-51.6l0,0c0-0.8,1.2-3,1.2-3l0,0
	c0.8-1.2,1.5-2.5,2.2-3.9c0.8-1.7,1.4-3.2,1.7-4.2c3.6,0.2,6.9-3,7.4-7.3C67.2,16.8,64.5,12.8,60.7,12.4z M65.1,21.1
	c-0.4,3.5-3.1,6-6.1,5.6c-3-0.3-5.1-3.4-4.7-6.9c0,0,0-0.1,0-0.1c0,0,0,0,0-0.1c0,0,0-0.1,0-0.1c0,0,0-0.1,0-0.1
	c0.6-3.2,3.2-5.5,6.1-5.2C63.5,14.5,65.6,17.6,65.1,21.1z"/>
<g>
	<path class="st2" d="M54.5,38.8L53,38.6c-6-1.7-8.9-10.9-8.9-11c2.8-1,4.8-4.1,4.8-7.7c0-4.5-3.1-8.1-6.9-8.1c-0.2,0-0.5,0-0.7,0
		l0,0c0,0,0,0,0,0c0,0,0,0,0,0c-0.7,0.1-1.3-1-1.3-1l0,0c-0.5-1-1.3-1.8-2.2-2.4c-1.6-1-3.4-1.1-5.2-1c-0.5,0-1,0.4-1,1
		c0,0.5,0.4,1,1,1c1.5-0.1,2.9-0.1,4.1,0.7c0.4,0.2,0.7,0.5,1,0.9c0,0.1,1,1.4-0.1,2.9h0c-1.5,1.5-2.4,3.7-2.4,6.2
		c0,4.5,3.1,8.1,6.9,8.1c0.2,0,0.4,0,0.6,0c0.3,1,0.7,2.5,1.4,4.2c0.6,1.5,1.2,2.8,1.9,4.1l0,0c0,0,1,2.3,0.9,3.1l0,0
		c0.1,13.5,2.2,38.6,3.3,52c0.1,0.7,1,0.7,1.1,0c1-12.7,3-36,3.2-49.9l0,0c0,0,0,0,0,0c0-0.5,0-1,0-1.4
		C54.4,39.6,54.4,39.2,54.5,38.8z M36.5,19.9c0-3.5,2.4-6.3,5.4-6.3c3,0,5.4,2.8,5.4,6.3c0,3.5-2.4,6.3-5.4,6.3
		C38.9,26.2,36.5,23.4,36.5,19.9z"/>
	<circle class="st2" cx="50.7" cy="46.9" r="1.4"/>
</g>
<g>
	<path class="st3" d="M54.3,39.1l-1.6-0.2c-6-1.7-8.9-10.9-8.9-11c2.8-1,4.8-4.1,4.8-7.7c0-4.5-3.1-8.1-6.9-8.1c-0.2,0-0.5,0-0.7,0
		l0,0c0,0,0,0,0,0c0,0,0,0,0,0c-0.7,0.1-1.3-1-1.3-1l0,0c-0.5-1-1.3-1.8-2.2-2.4c-1.6-1-3.4-1.1-5.2-1c-0.5,0-1,0.4-1,1
		c0,0.5,0.4,1,1,1c1.5-0.1,2.9-0.1,4.1,0.7c0.4,0.2,0.7,0.5,1,0.9c0,0.1,1,1.4-0.1,2.9h0c-1.5,1.5-2.4,3.7-2.4,6.2
		c0,4.5,3.1,8.1,6.9,8.1c0.2,0,0.4,0,0.6,0c0.3,1,0.7,2.5,1.4,4.2c0.6,1.5,1.2,2.8,1.9,4.1l0,0c0,0,1,2.3,0.9,3.1l0,0
		c0.1,13.5,2.2,38.6,3.3,52c0.1,0.7,1,0.7,1.1,0c1-12.7,3-36,3.2-49.9l0,0c0,0,0,0,0,0c0-0.5,0-1,0-1.4
		C54.1,39.9,54.2,39.5,54.3,39.1z M36.2,20.1c0-3.5,2.4-6.3,5.4-6.3s5.4,2.8,5.4,6.3c0,3.5-2.4,6.3-5.4,6.3S36.2,23.6,36.2,20.1z"/>
	<circle class="st1" cx="50.5" cy="47.1" r="1.4"/>
</g>
</svg>
